<?xml version="1.0" encoding="utf-8"?>
<!-- Generator: Adobe Illustrator 16.0.0, SVG Export Plug-In . SVG Version: 6.00 Build 0)  -->
<!DOCTYPE svg PUBLIC "-//W3C//DTD SVG 1.1//EN" "http://www.w3.org/Graphics/SVG/1.1/DTD/svg11.dtd">
<svg version="1.1" id="Layer_1" xmlns="http://www.w3.org/2000/svg" xmlns:xlink="http://www.w3.org/1999/xlink" x="0px" y="0px"
	 width="70px" height="70px" viewBox="0 0 70 70" enable-background="new 0 0 70 70" xml:space="preserve">
<g>
	
		<rect x="-9.318" y="36.929" transform="matrix(0.1052 0.9945 -0.9945 0.1052 50.8536 18.3404)" fill="#00AEB8" width="49.106" height="1"/>
	<path fill="#143156" d="M35.001,67.5C17.082,67.5,2.5,52.922,2.5,35c0-17.92,14.582-32.5,32.5-32.5S67.5,17.08,67.5,35
		C67.5,52.922,52.92,67.5,35.001,67.5z M35.001,5.381C18.67,5.381,5.381,18.668,5.381,35c0,16.334,13.289,29.621,29.62,29.621
		S64.619,51.334,64.619,35C64.619,18.668,51.332,5.381,35.001,5.381z"/>
	<g>
		<g>
			<path fill="#143156" d="M18.933,46.57c-1.245,1.244-1.245,3.256,0,4.5c0.62,0.623,1.439,0.934,2.248,0.934
				c0.82,0,1.636-0.311,2.26-0.934l10.45-10.461l-4.499-4.5L18.933,46.57z M18.933,46.57"/>
			<path fill="#143156" d="M45.066,27.184l4.553-2.354L52,20.217l-2.215-2.221l-4.613,2.385l-2.355,4.551l-5.544,5.549l2.248,2.25
				L45.066,27.184z M45.066,27.184"/>
			<path fill="#143156" d="M46.062,39.271l-0.426-0.041c-0.777,0-1.512,0.154-2.207,0.414L30.356,26.57
				c0.26-0.693,0.414-1.43,0.414-2.209l-0.041-0.424c-0.229-3.318-2.954-5.941-6.325-5.941c-0.985,0-1.909,0.24-2.736,0.633
				l4.23,4.242c0.228,0.217,0.383,0.486,0.478,0.756c0.281,0.756,0.135,1.637-0.478,2.24c-0.416,0.414-0.955,0.619-1.494,0.619
				c-0.26,0-0.506-0.049-0.734-0.143c-0.281-0.105-0.549-0.248-0.767-0.477l-4.23-4.232c-0.404,0.832-0.644,1.752-0.644,2.727
				c0,3.381,2.633,6.105,5.94,6.336l0.435,0.041c0.778,0,1.514-0.166,2.198-0.412l13.074,13.072
				c-0.249,0.684-0.414,1.42-0.414,2.197l0.04,0.436c0.229,3.307,2.955,5.941,6.334,5.941c0.977,0,1.898-0.238,2.729-0.643
				l-4.23-4.23c-0.229-0.219-0.373-0.488-0.488-0.758c-0.271-0.756-0.123-1.637,0.488-2.238c0.414-0.416,0.953-0.623,1.502-0.623
				c0.25,0,0.498,0.053,0.738,0.146c0.27,0.104,0.539,0.248,0.756,0.477l4.239,4.23c0.395-0.83,0.63-1.752,0.63-2.738
				C52,42.227,49.381,39.5,46.062,39.271L46.062,39.271z M46.062,39.271"/>
		</g>
	</g>
</g>
</svg>
