<?xml version="1.0" encoding="utf-8"?>
<!-- Generator: Adobe Illustrator 16.0.0, SVG Export Plug-In . SVG Version: 6.00 Build 0)  -->
<!DOCTYPE svg PUBLIC "-//W3C//DTD SVG 1.1//EN" "http://www.w3.org/Graphics/SVG/1.1/DTD/svg11.dtd">
<svg version="1.1" id="Layer_1" xmlns="http://www.w3.org/2000/svg" xmlns:xlink="http://www.w3.org/1999/xlink" x="0px" y="0px"
	 width="70px" height="70px" viewBox="0 0 70 70" enable-background="new 0 0 70 70" xml:space="preserve">
<g>
	
		<rect x="21.524" y="-2.103" transform="matrix(0.7497 0.6618 -0.6618 0.7497 20.8335 -8.7814)" fill="#00AEB8" width="1" height="50.502"/>
	<path fill="#143156" d="M35.001,67.5C17.082,67.5,2.5,52.922,2.5,35c0-17.92,14.582-32.5,32.5-32.5S67.5,17.08,67.5,35
		C67.5,52.922,52.92,67.5,35.001,67.5z M35.001,5.379C18.67,5.379,5.381,18.668,5.381,35s13.289,29.619,29.62,29.619
		S64.619,51.332,64.619,35S51.332,5.379,35.001,5.379z"/>
	<g>
		<path fill="#143156" d="M35.87,40.51c0.42,0,0.764-0.342,0.764-0.764v-0.354c0-0.42-0.344-0.764-0.764-0.764H23.12
			c-0.422,0-0.765,0.344-0.765,0.764v0.354c0,0.422,0.343,0.764,0.765,0.764H35.87z M35.87,40.51"/>
		<path fill="#143156" d="M43.877,24.77c-1.201-1.201-2.594-2.139-4.15-2.799l-0.007-0.004c-0.509-0.213-1.097-0.031-1.395,0.432
			l-0.887,1.379c-0.221-0.078-0.457-0.123-0.703-0.141c-0.071-0.006-0.147-0.008-0.223-0.008c-0.207,0-0.409,0.021-0.604,0.064
			l1.562-2.438l0.484-0.756c0.339-0.531,0.187-1.24-0.347-1.58l-4.174-2.684c-0.191-0.123-0.405-0.18-0.62-0.18
			c-0.377,0-0.746,0.188-0.967,0.527L24.591,27.9c-0.34,0.529-0.187,1.24,0.348,1.58l0.791,0.508l-0.358,0.562l-0.361,0.561
			l-0.225,0.35c-0.339,0.533-0.186,1.244,0.349,1.582l0.681,0.436c0.53,0.342,1.24,0.188,1.58-0.348l0.225-0.352l0.357-0.561
			l0.359-0.562l0.78,0.502c0.189,0.121,0.403,0.178,0.618,0.178c0.38,0,0.748-0.188,0.966-0.525l2.979-4.648
			c0.06,0.277,0.158,0.535,0.297,0.777c0.118,0.209,0.26,0.402,0.424,0.574c0.55,0.58,1.333,0.939,2.199,0.914
			c1.531-0.045,2.776-1.291,2.816-2.822c0.014-0.373-0.049-0.734-0.168-1.066c0.8,0.438,1.539,0.988,2.201,1.652
			c1.816,1.816,2.816,4.229,2.816,6.797c0,2.572-1,4.984-2.816,6.803c-1.131,1.131-2.491,1.941-3.976,2.396
			c-0.11,0.033-0.224,0.051-0.34,0.051h-3.757c-0.634,0-1.146-0.512-1.146-1.146v-0.254h-5.47v5.154
			c0.118-0.01,0.239-0.014,0.359-0.014h16.424c1.305-0.232,2.301-1.373,2.301-2.748c0-0.848-0.379-1.605-0.973-2.121
			c0.732-0.924,1.342-1.939,1.803-3.031c0.68-1.609,1.027-3.32,1.027-5.082c0-1.758-0.344-3.471-1.027-5.08
			C46.016,27.361,45.074,25.965,43.877,24.77L43.877,24.77z M36.513,27.574c-0.485,0-0.89-0.328-1.009-0.777
			c-0.023-0.084-0.034-0.176-0.034-0.27c0-0.514,0.375-0.941,0.865-1.025c0.058-0.012,0.121-0.014,0.182-0.014
			c0.576,0,1.041,0.465,1.041,1.039C37.558,27.105,37.089,27.574,36.513,27.574L36.513,27.574z M43.455,45.119
			c-0.121,0.059-0.258,0.088-0.404,0.088c-0.385,0-0.717-0.221-0.873-0.545c-0.066-0.129-0.1-0.279-0.1-0.432
			c0-0.539,0.434-0.979,0.977-0.979c0.146,0,0.281,0.033,0.406,0.088c0.064,0.031,0.129,0.07,0.188,0.111
			c0.232,0.18,0.385,0.459,0.385,0.777C44.029,44.629,43.791,44.969,43.455,45.119L43.455,45.119z M43.455,45.119"/>
		<path fill="#143156" d="M26.761,48.33c-2.498,0.184-4.464,2.268-4.464,4.812h20.013c0.633,0,1.145-0.514,1.145-1.146v-3.678
			H27.121C26.997,48.318,26.879,48.322,26.761,48.33L26.761,48.33z M26.761,48.33"/>
	</g>
</g>
</svg>
