<?xml version="1.0" encoding="utf-8"?>
<!-- Generator: Adobe Illustrator 16.0.0, SVG Export Plug-In . SVG Version: 6.00 Build 0)  -->
<!DOCTYPE svg PUBLIC "-//W3C//DTD SVG 1.1//EN" "http://www.w3.org/Graphics/SVG/1.1/DTD/svg11.dtd">
<svg version="1.1" id="Layer_1" xmlns="http://www.w3.org/2000/svg" xmlns:xlink="http://www.w3.org/1999/xlink" x="0px" y="0px"
	 width="70px" height="70px" viewBox="0 0 70 70" enable-background="new 0 0 70 70" xml:space="preserve">
<g>
	
		<rect x="32.404" y="-10.009" transform="matrix(0.1127 0.9936 -0.9936 0.1127 44.0833 -19.3989)" fill="#00AEB8" width="1.001" height="49.987"/>
	<path fill="#143156" d="M35.001,67.5C17.082,67.5,2.5,52.922,2.5,35c0-17.92,14.582-32.5,32.5-32.5S67.5,17.08,67.5,35
		C67.5,52.922,52.92,67.5,35.001,67.5z M35.001,5.379C18.67,5.379,5.381,18.668,5.381,35s13.289,29.619,29.62,29.619
		S64.619,51.332,64.619,35S51.332,5.379,35.001,5.379z"/>
	<g>
		<path fill="#143156" d="M44.816,28.258c-0.076-0.275-0.25-0.498-0.494-0.635c-0.156-0.096-0.336-0.145-0.525-0.145
			c-0.375,0-0.723,0.207-0.91,0.529c-0.094,0.162-0.131,0.34-0.139,0.512l-1.197,0.682C41.375,29.078,41.17,29,40.938,29
			c-0.318,0-0.668,0.182-0.793,0.369c-0.08,0.115-0.349,0.338-0.262,0.9c0.082,0.561,0.5,0.705,0.725,0.779l0.018,1.295
			c-0.006,0.006-0.012,0.006-0.018,0.012l0.049,0.006c-0.256,0.074-0.479,0.25-0.611,0.48c-0.093,0.162-0.137,0.336-0.137,0.514
			l-1.237,0.697c-0.175-0.111-0.374-0.174-0.586-0.174c-0.188,0-0.375,0.049-0.537,0.148c-0.5,0.301-0.662,0.949-0.362,1.445
			c0.131,0.223,0.337,0.379,0.58,0.455l0.02,1.324c-0.219,0.088-0.412,0.242-0.537,0.455c-0.139,0.244-0.175,0.531-0.101,0.801
			c0.069,0.273,0.244,0.498,0.487,0.641c0.163,0.088,0.344,0.139,0.525,0.139c0.23,0,0.449-0.074,0.63-0.213l1.198,0.693
			c0,0.113,0.007,0.219,0.032,0.332c0.075,0.268,0.249,0.5,0.493,0.637c0.162,0.094,0.344,0.143,0.523,0.143
			c0.375,0,0.732-0.205,0.918-0.531c0.119-0.205,0.156-0.436,0.125-0.66l1.15-0.645c0.188,0.162,0.424,0.27,0.686,0.27h0.014
			c0.225,0,0.43-0.076,0.605-0.193l1.279,0.736c-0.006,0.105,0,0.219,0.031,0.33c0.076,0.27,0.25,0.494,0.494,0.637
			c0.156,0.096,0.336,0.145,0.523,0.145c0.375,0,0.725-0.205,0.912-0.531c0.119-0.213,0.156-0.443,0.123-0.662l1.158-0.643
			c0.186,0.168,0.424,0.262,0.68,0.27h0.018c0.568,0,1.043-0.469,1.051-1.037c0.006-0.42-0.238-0.781-0.594-0.955l-0.014-1.406
			c0.344-0.176,0.588-0.523,0.594-0.93c0.006-0.283-0.1-0.551-0.293-0.75c-0.201-0.207-0.463-0.318-0.756-0.326
			c-0.318,0-0.6,0.152-0.793,0.369l-1.156-0.662c0.051-0.176,0.051-0.348,0-0.531c-0.049-0.188-0.156-0.354-0.295-0.484
			c0.008,0,0.016,0,0.016,0c-0.082-0.084-0.176-0.152-0.281-0.201l-0.02-1.404c0.35-0.176,0.594-0.525,0.6-0.93
			c0.006-0.291-0.1-0.553-0.299-0.752c-0.195-0.205-0.457-0.316-0.756-0.316c-0.312,0-0.594,0.137-0.787,0.359l-1.154-0.66
			C44.859,28.615,44.865,28.434,44.816,28.258L44.816,28.258z M43.379,28.291c0.088-0.152,0.25-0.244,0.418-0.244
			c0.088,0,0.17,0.023,0.244,0.066c0.113,0.064,0.193,0.172,0.225,0.295c0.031,0.125,0.02,0.256-0.049,0.361
			c-0.125,0.225-0.432,0.314-0.662,0.184C43.33,28.82,43.248,28.52,43.379,28.291L43.379,28.291z M40.451,30.043
			c0.006-0.262,0.225-0.475,0.492-0.475c0.131,0,0.25,0.053,0.338,0.145c0.094,0.094,0.145,0.219,0.137,0.344
			c0,0.268-0.219,0.48-0.48,0.48h-0.006C40.664,30.531,40.451,30.312,40.451,30.043L40.451,30.043z M40.539,33.129
			c0.086-0.15,0.242-0.242,0.418-0.242c0.086,0,0.168,0.018,0.242,0.062c0.113,0.062,0.195,0.168,0.227,0.291
			c0.031,0.125,0.018,0.256-0.051,0.371c-0.125,0.217-0.432,0.305-0.654,0.172C40.482,33.652,40.408,33.359,40.539,33.129
			L40.539,33.129z M37.673,35.186c-0.138-0.232-0.063-0.533,0.168-0.672c0.075-0.041,0.157-0.068,0.25-0.068
			c0.169,0,0.325,0.088,0.412,0.24c0.069,0.111,0.088,0.236,0.057,0.367c-0.032,0.125-0.106,0.23-0.22,0.295
			C38.116,35.484,37.804,35.402,37.673,35.186L37.673,35.186z M38.584,38.475c-0.131,0.225-0.437,0.312-0.662,0.182
			c-0.112-0.068-0.193-0.168-0.23-0.293c-0.031-0.125-0.013-0.256,0.05-0.369c0.088-0.15,0.25-0.242,0.419-0.242
			c0.087,0,0.168,0.023,0.243,0.068C38.634,37.951,38.716,38.244,38.584,38.475L38.584,38.475z M41.457,40.066
			c-0.127,0.227-0.432,0.307-0.656,0.182c-0.119-0.068-0.193-0.168-0.23-0.293c-0.031-0.125-0.014-0.256,0.049-0.369
			c0.086-0.15,0.25-0.242,0.418-0.242c0.088,0,0.17,0.025,0.244,0.062C41.512,39.537,41.594,39.836,41.457,40.066L41.457,40.066z
			 M42.873,38.244c0,0.113,0.02,0.219,0.051,0.318l-1.068,0.6c-0.082-0.1-0.174-0.188-0.293-0.25
			c-0.156-0.094-0.338-0.143-0.52-0.143c-0.348,0-0.666,0.174-0.86,0.455l-1.049-0.6c0.193-0.48,0.013-1.043-0.443-1.305
			c-0.106-0.057-0.218-0.1-0.338-0.119l-0.019-1.248c0.106-0.025,0.206-0.064,0.3-0.121c0.237-0.143,0.413-0.373,0.473-0.646
			c0.064-0.232,0.033-0.471-0.06-0.689l1.023-0.58c0.087,0.143,0.205,0.275,0.361,0.363c0.162,0.092,0.344,0.143,0.525,0.143
			c0.281,0,0.543-0.113,0.736-0.307l1.193,0.686c-0.014,0.051-0.02,0.102-0.02,0.156c-0.006,0.469,0.299,0.865,0.719,1.006
			l0.018,1.301C43.186,37.4,42.879,37.789,42.873,38.244L42.873,38.244z M43.436,34.965c0-0.264,0.219-0.475,0.486-0.475
			c0.131,0,0.25,0.051,0.344,0.145c0.088,0.092,0.139,0.211,0.131,0.342c0,0.266-0.219,0.482-0.48,0.482v0.262l-0.006-0.262
			C43.643,35.453,43.43,35.234,43.436,34.965L43.436,34.965z M43.93,38.744v0.287l-0.008-0.287c-0.268,0-0.48-0.225-0.48-0.488
			c0.006-0.262,0.225-0.48,0.494-0.48c0.268,0.008,0.48,0.225,0.475,0.494C44.41,38.531,44.191,38.744,43.93,38.744L43.93,38.744z
			 M47.283,40.156c-0.133,0.217-0.438,0.305-0.662,0.174c-0.113-0.062-0.195-0.168-0.225-0.295c-0.039-0.123-0.02-0.256,0.043-0.367
			c0.088-0.15,0.25-0.236,0.424-0.236c0.082,0,0.162,0.018,0.238,0.061C47.332,39.625,47.414,39.918,47.283,40.156L47.283,40.156z
			 M50.236,38.352c-0.008,0.268-0.219,0.48-0.482,0.48v0.281l-0.006-0.281c-0.131,0-0.256-0.057-0.344-0.15
			c-0.094-0.094-0.137-0.213-0.137-0.344c0.006-0.262,0.219-0.475,0.494-0.475C50.023,37.863,50.242,38.088,50.236,38.352
			L50.236,38.352z M49.748,34.57c0.125,0,0.25,0.057,0.338,0.145c0.094,0.094,0.143,0.219,0.137,0.352
			c0,0.262-0.219,0.475-0.48,0.475v0.268l-0.006-0.268c-0.27,0-0.482-0.225-0.482-0.488C49.262,34.783,49.48,34.57,49.748,34.57
			L49.748,34.57z M47.52,34.203l1.186,0.688c-0.008,0.051-0.018,0.098-0.018,0.156c-0.008,0.543,0.406,0.992,0.943,1.057
			l0.012,1.197c-0.525,0.057-0.938,0.494-0.945,1.031c-0.004,0.111,0.016,0.211,0.047,0.318l-1.068,0.6
			c-0.08-0.102-0.178-0.188-0.287-0.25c-0.162-0.094-0.344-0.145-0.525-0.145c-0.35,0-0.668,0.176-0.861,0.449l-1.105-0.629
			c0.051-0.127,0.082-0.258,0.082-0.4c0.006-0.418-0.23-0.775-0.588-0.955l-0.02-1.404c0.352-0.17,0.594-0.52,0.6-0.934
			c0-0.143-0.031-0.287-0.08-0.412l0.992-0.566c0.094,0.145,0.213,0.27,0.369,0.361c0.162,0.094,0.344,0.137,0.523,0.137
			C47.057,34.502,47.318,34.396,47.52,34.203L47.52,34.203z M47.252,33.322c0.031,0.131,0.012,0.256-0.051,0.369
			c-0.131,0.225-0.438,0.312-0.662,0.182c-0.23-0.131-0.312-0.432-0.182-0.662c0.088-0.15,0.25-0.244,0.426-0.244
			c0.08,0,0.162,0.025,0.236,0.062C47.133,33.098,47.213,33.197,47.252,33.322L47.252,33.322z M46.77,29.65
			c0.125,0,0.244,0.057,0.338,0.15c0.088,0.094,0.137,0.213,0.137,0.346c-0.006,0.26-0.225,0.479-0.486,0.479h-0.006
			c-0.264-0.006-0.482-0.225-0.475-0.494C46.277,29.869,46.496,29.65,46.77,29.65L46.77,29.65z M45.727,29.969
			c-0.012,0.051-0.018,0.1-0.018,0.156c-0.008,0.543,0.404,1,0.936,1.055l0.025,1.225c-0.33,0.037-0.637,0.225-0.805,0.525
			c-0.094,0.156-0.131,0.336-0.131,0.506l-1.199,0.686c-0.182-0.131-0.387-0.199-0.619-0.205c-0.312,0-0.594,0.148-0.793,0.369
			l-1.148-0.662c0.043-0.17,0.051-0.35,0-0.531c-0.062-0.227-0.201-0.426-0.387-0.562l0.025,0.006
			c-0.062-0.049-0.133-0.094-0.201-0.131L41.395,31c0.35-0.174,0.592-0.523,0.598-0.932c0-0.15-0.031-0.287-0.08-0.418l0.998-0.566
			c0.088,0.145,0.207,0.275,0.363,0.359c0.162,0.096,0.344,0.145,0.523,0.145c0.281,0,0.543-0.111,0.738-0.305L45.727,29.969z
			 M45.727,29.969"/>
		<g>
			<path fill="#143156" d="M20.624,26.729c4.993-1.166,9.498,0.707,10.775,1.311c0.207,0.102,0.454,0.02,0.562-0.18L32,27.791
				c0.121-0.219,0.036-0.49-0.189-0.6c-1.388-0.67-6.069-2.629-11.4-1.383c-0.239,0.059-0.381,0.301-0.322,0.535l0.019,0.072
				C20.168,26.643,20.391,26.781,20.624,26.729z"/>
			<path fill="#143156" d="M20.624,29.393c4.993-1.164,9.498,0.703,10.775,1.311c0.207,0.102,0.454,0.02,0.562-0.182L32,30.459
				c0.121-0.219,0.036-0.49-0.189-0.604c-1.388-0.67-6.069-2.627-11.4-1.381c-0.239,0.057-0.381,0.295-0.322,0.533l0.019,0.072
				C20.168,29.305,20.391,29.443,20.624,29.393z"/>
			<path fill="#143156" d="M20.624,31.891c4.993-1.164,9.498,0.705,10.775,1.312c0.207,0.102,0.454,0.018,0.562-0.182L32,32.953
				c0.121-0.217,0.036-0.49-0.189-0.602c-1.388-0.674-6.069-2.631-11.4-1.383c-0.239,0.062-0.381,0.305-0.322,0.537l0.019,0.074
				C20.168,31.805,20.391,31.943,20.624,31.891z"/>
			<path fill="#143156" d="M20.411,33.715c-0.239,0.057-0.381,0.293-0.322,0.533l0.019,0.074c0.062,0.225,0.284,0.363,0.517,0.312
				c4.993-1.168,9.498,0.699,10.78,1.312c0.207,0.1,0.454,0.016,0.562-0.182l0.039-0.066c0.122-0.219,0.035-0.49-0.19-0.602
				C30.432,34.426,25.749,32.469,20.411,33.715z"/>
			<path fill="#143156" d="M20.414,36.254c-0.242,0.057-0.384,0.299-0.325,0.531l0.019,0.074c0.062,0.227,0.284,0.363,0.517,0.311
				c4.993-1.164,9.498,0.703,10.78,1.312c0.207,0.1,0.454,0.02,0.562-0.18l0.039-0.07c0.122-0.217,0.035-0.49-0.19-0.596
				C30.428,36.963,25.749,35.004,20.414,36.254z"/>
			<path fill="#143156" d="M20.411,38.861c-0.239,0.057-0.381,0.299-0.322,0.531l0.019,0.074c0.062,0.227,0.284,0.363,0.517,0.312
				c4.993-1.166,9.498,0.705,10.775,1.311c0.207,0.1,0.454,0.018,0.562-0.18L32,40.846c0.121-0.219,0.036-0.492-0.189-0.605
				C30.423,39.572,25.742,37.613,20.411,38.861z"/>
			<path fill="#143156" d="M20.406,41.477c-0.234,0.055-0.376,0.297-0.317,0.535l0.019,0.072c0.062,0.223,0.284,0.361,0.517,0.312
				c4.993-1.168,9.498,0.705,10.775,1.311c0.207,0.098,0.454,0.018,0.562-0.182l0.035-0.064c0.12-0.219,0.035-0.49-0.19-0.604
				C30.419,42.188,25.739,40.227,20.406,41.477z"/>
			<path fill="#143156" d="M55.05,25.295c-0.328-0.33-0.899-0.791-1.646-0.928v-1.746c0-0.371-0.244-0.705-0.596-0.822
				c-1.163-0.379-3.883-1.148-6.887-1.148c-4.281,0-7.965,1.305-10.963,3.879c-2.998-2.574-6.682-3.879-10.963-3.879
				c-3.005,0-5.724,0.77-6.886,1.148c-0.353,0.117-0.597,0.451-0.597,0.822v1.746c-0.746,0.137-1.317,0.598-1.646,0.928
				c-0.204,0.205-0.317,0.477-0.317,0.768v23.051c0,0.396,0.349,0.688,0.723,0.645h15.036c0,0,0.3-0.029,0.387,0.041
				c0.08,0.068,0.111,0.168,0.163,0.266c0.475,0.895,2.128,1.555,4.101,1.555c2.007,0,3.683-0.684,4.121-1.602
				c0.043-0.084,0.051-0.168,0.119-0.227c0.065-0.051,0.308-0.033,0.308-0.033h15.137c0.375,0.043,0.724-0.248,0.724-0.645V26.062
				C55.367,25.771,55.254,25.5,55.05,25.295z M23.03,45.504c-2.028,0-3.825,0.312-5.352,0.928V22.818
				c0.892-0.301,3.324-1.002,6.318-1.002c3.57,0,7.155,1.254,9.852,3.219v12.652c0,0-0.012,0.188,0.186,0
				c0.114-0.105,0.393-0.293,0.617-0.439l-0.012,10.785C32.826,47.305,27.831,45.504,23.03,45.504z M52.239,46.432
				c-1.526-0.615-3.323-0.928-5.353-0.928c-4.801,0-9.722,1.773-11.533,2.504l-0.031-10.699l0.601,0.441
				c0,0,0.105,0.057,0.105-0.061c0-0.105,0-10.947,0-12.602c2.703-1.994,6.29-3.271,9.894-3.271c2.994,0,5.425,0.701,6.317,1.002
				V46.432z"/>
		</g>
	</g>
</g>
</svg>
