<?xml version="1.0" encoding="utf-8"?>
<!-- Generator: Adobe Illustrator 16.0.0, SVG Export Plug-In . SVG Version: 6.00 Build 0)  -->
<!DOCTYPE svg PUBLIC "-//W3C//DTD SVG 1.1//EN" "http://www.w3.org/Graphics/SVG/1.1/DTD/svg11.dtd">
<svg version="1.1" id="Layer_1" xmlns="http://www.w3.org/2000/svg" xmlns:xlink="http://www.w3.org/1999/xlink" x="0px" y="0px"
	 width="70px" height="70px" viewBox="0 0 70 70" enable-background="new 0 0 70 70" xml:space="preserve">
<g>
	
		<rect x="18.988" y="23.693" transform="matrix(0.6727 0.7399 -0.7399 0.6727 33.0516 -26.3389)" fill="#00AEB8" width="54.622" height="1"/>
	<path fill="#143156" d="M35.001,67.5C17.082,67.5,2.5,52.922,2.5,35c0-17.92,14.582-32.5,32.5-32.5S67.5,17.08,67.5,35
		C67.5,52.922,52.92,67.5,35.001,67.5z M35.001,5.38C18.67,5.38,5.381,18.668,5.381,35c0,16.333,13.289,29.62,29.62,29.62
		S64.619,51.333,64.619,35C64.619,18.668,51.332,5.38,35.001,5.38z"/>
	<g>
		<g>
			<path fill="#143156" d="M51.412,46.501l-7.592-7.588c1.199-2.092,1.832-4.467,1.832-6.939c0-3.744-1.453-7.262-4.1-9.904
				c-2.646-2.646-6.165-4.104-9.904-4.104c-3.743,0-7.261,1.457-9.905,4.104c-2.646,2.643-4.102,6.165-4.102,9.904
				s1.457,7.258,4.102,9.904c2.644,2.646,6.162,4.103,9.905,4.103c2.795,0,5.467-0.815,7.744-2.331l7.434,7.436
				c0.631,0.631,1.461,0.949,2.291,0.949s1.66-0.318,2.29-0.949C52.676,49.817,52.676,47.768,51.412,46.501L51.412,46.501z
				 M39.336,39.661c-2.054,2.053-4.785,3.188-7.688,3.188c-2.907,0-5.633-1.136-7.687-3.188c-2.058-2.053-3.188-4.781-3.188-7.688
				c0-2.905,1.131-5.635,3.184-7.688c2.054-2.055,4.785-3.188,7.692-3.188c2.902,0,5.634,1.131,7.688,3.188
				C43.576,28.522,43.576,35.424,39.336,39.661L39.336,39.661z M39.336,39.661"/>
		</g>
		<g>
			<defs>
				<circle id="SVGID_3_" cx="31.621" cy="32.415" r="8.953"/>
			</defs>
			<clipPath id="SVGID_2_">
				<use xlink:href="#SVGID_3_"  overflow="visible"/>
			</clipPath>
			<g clip-path="url(#SVGID_2_)">
				<path fill="#143156" d="M33.74,34.198c0.479,0.765,1.328,1.275,2.299,1.275c1.498,0,2.712-1.215,2.712-2.714
					c0-1.497-1.214-2.71-2.712-2.71s-2.712,1.213-2.712,2.71c0,0.038,0,0.075,0.004,0.112l-3.795,1.172
					c-0.265-0.557-0.629-1.057-1.072-1.473l4.685-6.673c0.367,0.149,0.766,0.23,1.187,0.23c1.727,0,3.128-1.399,3.128-3.127
					s-1.401-3.129-3.128-3.129c-1.375,0-2.543,0.887-2.961,2.118l-2.93-0.308c-0.223-0.694-0.874-1.198-1.643-1.198
					c-0.952,0-1.726,0.771-1.726,1.725c0,0.953,0.772,1.725,1.726,1.725c0.642,0,1.199-0.35,1.496-0.868l2.929,0.308
					c0.079,0.659,0.362,1.258,0.786,1.725l-4.686,6.673c-0.667-0.338-1.419-0.53-2.219-0.53c-0.842,0-1.634,0.214-2.326,0.589
					l-1.699-2.293c0.187-0.295,0.295-0.647,0.295-1.024c0-1.062-0.857-1.92-1.919-1.92c-1.06,0-1.919,0.857-1.919,1.917
					s0.859,1.919,1.919,1.919c0.176,0,0.346-0.022,0.508-0.066l1.699,2.295c-0.898,0.887-1.453,2.12-1.453,3.482
					c0,2.705,2.192,4.896,4.896,4.896c2.704,0,4.896-2.191,4.896-4.896c0-0.263-0.021-0.52-0.059-0.77L33.74,34.198z M33.74,34.198"
					/>
			</g>
		</g>
	</g>
</g>
</svg>
