<?xml version="1.0" encoding="utf-8"?>
<!-- Generator: Adobe Illustrator 16.0.0, SVG Export Plug-In . SVG Version: 6.00 Build 0)  -->
<!DOCTYPE svg PUBLIC "-//W3C//DTD SVG 1.1//EN" "http://www.w3.org/Graphics/SVG/1.1/DTD/svg11.dtd">
<svg version="1.1" id="Layer_1" xmlns="http://www.w3.org/2000/svg" xmlns:xlink="http://www.w3.org/1999/xlink" x="0px" y="0px"
	 width="70px" height="70px" viewBox="0 0 70 70" enable-background="new 0 0 70 70" xml:space="preserve">
<g>
	
		<rect x="2.205" y="48.747" transform="matrix(0.9216 0.3882 -0.3882 0.9216 21.3991 -7.4172)" fill="#00AEB8" width="53.7" height="1"/>
	<path fill="#143156" d="M35.001,67.5C17.082,67.5,2.5,52.922,2.5,35c0-17.92,14.582-32.5,32.5-32.5S67.5,17.08,67.5,35
		C67.5,52.922,52.92,67.5,35.001,67.5z M35.001,5.379C18.67,5.379,5.381,18.668,5.381,35s13.289,29.619,29.62,29.619
		S64.619,51.332,64.619,35S51.332,5.379,35.001,5.379z"/>
	<g>
		<g>
			<path fill="#143156" d="M51.412,46.5l-7.592-7.588c1.199-2.091,1.832-4.467,1.832-6.939c0-3.743-1.453-7.262-4.1-9.904
				c-2.646-2.646-6.165-4.104-9.904-4.104c-3.743,0-7.261,1.457-9.905,4.104c-2.646,2.643-4.102,6.166-4.102,9.904
				c0,3.74,1.457,7.258,4.102,9.905c2.644,2.646,6.162,4.103,9.905,4.103c2.795,0,5.467-0.816,7.744-2.332l7.434,7.436
				c0.631,0.631,1.461,0.95,2.291,0.95s1.66-0.319,2.29-0.95C52.676,49.816,52.676,47.768,51.412,46.5L51.412,46.5z M39.336,39.661
				c-2.054,2.053-4.785,3.188-7.688,3.188c-2.907,0-5.633-1.136-7.687-3.188c-2.058-2.054-3.188-4.781-3.188-7.688
				c0-2.904,1.131-5.634,3.184-7.688c2.054-2.055,4.785-3.188,7.692-3.188c2.902,0,5.634,1.131,7.688,3.188
				C43.576,28.521,43.576,35.424,39.336,39.661L39.336,39.661z M39.336,39.661"/>
		</g>
		<g>
			<defs>
				<circle id="SVGID_1_" cx="31.933" cy="32.414" r="8.953"/>
			</defs>
			<clipPath id="SVGID_2_">
				<use xlink:href="#SVGID_1_"  overflow="visible"/>
			</clipPath>
			<g clip-path="url(#SVGID_2_)">
				<g>
					<path fill="#143156" d="M32.38,31.046c-5.659-1.321-10.762,0.8-12.21,1.484c-0.234,0.115-0.514,0.021-0.637-0.203l-0.043-0.079
						c-0.139-0.246-0.041-0.555,0.214-0.679c1.572-0.761,6.877-2.979,12.917-1.567c0.271,0.066,0.432,0.342,0.363,0.607
						l-0.021,0.082C32.895,30.947,32.642,31.104,32.38,31.046z"/>
					<path fill="#143156" d="M32.38,34.064c-5.659-1.32-10.762,0.795-12.21,1.484c-0.234,0.115-0.514,0.021-0.637-0.205
						l-0.043-0.071c-0.139-0.247-0.041-0.556,0.214-0.685c1.572-0.76,6.877-2.978,12.917-1.564c0.271,0.064,0.432,0.332,0.363,0.604
						l-0.021,0.084C32.895,33.965,32.642,34.123,32.38,34.064z"/>
					<path fill="#143156" d="M32.38,36.894c-5.659-1.319-10.762,0.8-12.21,1.487c-0.234,0.115-0.514,0.021-0.637-0.205l-0.043-0.078
						c-0.139-0.244-0.041-0.555,0.214-0.681c1.572-0.763,6.877-2.981,12.917-1.566c0.271,0.069,0.432,0.343,0.363,0.608
						l-0.021,0.082C32.895,36.797,32.642,36.955,32.38,36.894z"/>
					<path fill="#143156" d="M32.621,38.96c0.271,0.065,0.432,0.333,0.363,0.604l-0.021,0.084c-0.069,0.254-0.322,0.412-0.584,0.354
						c-5.659-1.321-10.762,0.795-12.214,1.488c-0.236,0.111-0.516,0.017-0.639-0.205l-0.044-0.075
						c-0.137-0.247-0.038-0.557,0.217-0.683C21.265,39.767,26.573,37.549,32.621,38.96z"/>
					<path fill="#143156" d="M38.473,29.422c-0.371-0.374-1.019-0.896-1.864-1.051v-1.98c0-0.421-0.274-0.8-0.676-0.931
						c-1.315-0.433-4.399-1.302-7.802-1.302c-4.852,0-9.026,1.477-12.422,4.395c-3.397-2.918-7.572-4.395-12.422-4.395
						c-3.404,0-6.488,0.869-7.803,1.302c-0.4,0.131-0.676,0.51-0.676,0.931v1.98c-0.846,0.154-1.493,0.677-1.864,1.051
						c-0.231,0.23-0.359,0.538-0.359,0.867V56.41c0,0.449,0.395,0.777,0.818,0.729h17.037c0,0,0.341-0.033,0.438,0.049
						c0.093,0.074,0.128,0.188,0.186,0.301c0.538,1.012,2.411,1.762,4.646,1.762c2.273,0,4.173-0.773,4.67-1.814
						c0.048-0.096,0.057-0.191,0.134-0.259c0.074-0.056,0.349-0.038,0.349-0.038h17.152c0.425,0.049,0.819-0.279,0.819-0.729V30.289
						C38.832,29.96,38.704,29.652,38.473,29.422z M2.191,52.32c-2.298,0-4.334,0.354-6.065,1.051V26.613
						c1.009-0.34,3.767-1.133,7.16-1.133c4.046,0,8.108,1.42,11.164,3.645v14.34c0,0-0.014,0.21,0.21,0
						c0.13-0.121,0.443-0.333,0.7-0.5l-0.013,12.221C13.292,54.361,7.63,52.32,2.191,52.32z M35.29,53.371
						c-1.732-0.697-3.769-1.051-6.066-1.051c-5.438,0-11.015,2.01-13.068,2.837l-0.037-12.123l0.681,0.499
						c0,0,0.12,0.064,0.12-0.068c0-0.119,0-12.404,0-14.277c3.063-2.262,7.127-3.707,11.21-3.707c3.391,0,6.147,0.793,7.16,1.133
						V53.371z"/>
					<g>
						<path fill="#143156" d="M9.246,42.199c0.337,0.539,0.935,0.897,1.617,0.897c1.055,0,1.909-0.854,1.909-1.909
							c0-1.053-0.854-1.906-1.909-1.906c-1.053,0-1.907,0.854-1.907,1.906c0,0.027,0,0.053,0.003,0.08l-2.67,0.823
							c-0.187-0.392-0.443-0.743-0.755-1.036l3.297-4.694c0.258,0.105,0.538,0.162,0.833,0.162c1.215,0,2.201-0.985,2.201-2.2
							s-0.986-2.201-2.201-2.201c-0.967,0-1.789,0.624-2.082,1.49l-2.063-0.217c-0.155-0.488-0.613-0.843-1.154-0.843
							c-0.671,0-1.215,0.542-1.215,1.213s0.544,1.214,1.215,1.214c0.452,0,0.845-0.246,1.053-0.611l2.062,0.217
							c0.056,0.464,0.254,0.885,0.552,1.215l-3.296,4.693c-0.47-0.237-0.999-0.373-1.562-0.373c-0.592,0-1.149,0.15-1.637,0.414
							L0.341,38.92c0.132-0.207,0.207-0.455,0.207-0.721c0-0.746-0.604-1.35-1.35-1.35c-0.746,0-1.352,0.602-1.352,1.348
							s0.605,1.352,1.352,1.352c0.124,0,0.242-0.018,0.356-0.049l1.195,1.615c-0.632,0.625-1.022,1.492-1.022,2.45
							c0,1.903,1.543,3.444,3.445,3.444s3.444-1.541,3.444-3.444c0-0.185-0.014-0.364-0.041-0.54L9.246,42.199z M9.246,42.199"/>
					</g>
					<path fill="#143156" d="M26.725,47.41c0.05-0.004,0.102-0.004,0.151-0.01c1.756-0.158,3.697-0.116,5.741,0.363
						c0.265,0.062,0.426,0.336,0.358,0.605l-0.021,0.078c-0.068,0.254-0.32,0.41-0.58,0.354c-1.927-0.451-3.774-0.482-5.449-0.326
						c-0.063,0.007-0.13,0.007-0.191,0.014c-0.287-0.043-0.518-0.256-0.518-0.54C26.216,47.668,26.443,47.457,26.725,47.41z"/>
					<path fill="#143156" d="M26.725,44.819c0.05-0.006,0.102-0.006,0.151-0.011c1.756-0.159,3.697-0.117,5.741,0.363
						c0.265,0.062,0.426,0.336,0.358,0.605l-0.021,0.079c-0.068,0.253-0.32,0.41-0.58,0.352c-1.927-0.451-3.774-0.482-5.449-0.325
						c-0.063,0.007-0.13,0.007-0.191,0.014c-0.287-0.042-0.518-0.255-0.518-0.541C26.216,45.076,26.443,44.865,26.725,44.819z"/>
				</g>
			</g>
		</g>
	</g>
</g>
</svg>
