<?xml version="1.0" encoding="utf-8"?>
<!-- Generator: Adobe Illustrator 16.0.0, SVG Export Plug-In . SVG Version: 6.00 Build 0)  -->
<!DOCTYPE svg PUBLIC "-//W3C//DTD SVG 1.1//EN" "http://www.w3.org/Graphics/SVG/1.1/DTD/svg11.dtd">
<svg version="1.1" id="Layer_1" xmlns="http://www.w3.org/2000/svg" xmlns:xlink="http://www.w3.org/1999/xlink" x="0px" y="0px"
	 width="70px" height="70px" viewBox="0 0 70 70" enable-background="new 0 0 70 70" xml:space="preserve">
<g>
	
		<rect x="4.389" y="54.988" transform="matrix(0.8988 0.4385 -0.4385 0.8988 26.919 -5.6003)" fill="#00AEB8" width="42.394" height="0.999"/>
	<path fill="#143156" d="M35.001,67.5C17.082,67.5,2.5,52.922,2.5,35c0-17.92,14.582-32.5,32.5-32.5S67.5,17.08,67.5,35
		C67.5,52.922,52.92,67.5,35.001,67.5z M35.001,5.381C18.67,5.381,5.381,18.668,5.381,35c0,16.334,13.289,29.621,29.62,29.621
		S64.619,51.334,64.619,35C64.619,18.668,51.332,5.381,35.001,5.381z"/>
	<g>
		<g>
			<path fill="#143156" d="M55.965,37.025c-1.133-0.973-2.855-0.834-3.826,0.309l-8.914,10.451l-4.462-3.834
				c-1.135-0.973-2.846-0.834-3.824,0.299c-0.973,1.137-0.838,2.848,0.297,3.822l6.517,5.604c0.504,0.426,1.123,0.656,1.775,0.656
				c0.064,0,0.135,0,0.209,0c0.719-0.062,1.389-0.4,1.852-0.945L56.281,40.85C57.244,39.715,57.115,38.002,55.965,37.025
				L55.965,37.025z M55.965,37.025"/>
			<path fill="#143156" d="M44.305,19.113H22.562c-1.482,0-2.688,1.215-2.688,2.709v26.389c0,1.564,1.265,2.838,2.819,2.838H34.03
				l-0.785-0.682c-0.586-0.498-1.062-1.119-1.416-1.85h-6.746c-1.519,0-2.755-1.213-2.755-2.705V24.258
				c0-1.479,1.236-2.682,2.755-2.682h16.829c1.51,0,2.738,1.203,2.738,2.682v17.182l2.457-2.928V21.953
				C47.107,20.361,45.877,19.113,44.305,19.113z"/>
			<path fill="#143156" d="M30.604,28.664h10.013c0.674,0,1.221-0.553,1.221-1.23c0.002-0.324-0.125-0.631-0.357-0.863
				c-0.23-0.234-0.539-0.361-0.863-0.361H30.604c-0.678,0-1.229,0.549-1.229,1.225C29.375,28.111,29.927,28.664,30.604,28.664z"/>
			<path fill="#143156" d="M30.604,33.838h10.013c0.674,0,1.221-0.551,1.221-1.229c0.002-0.322-0.123-0.625-0.35-0.854
				c-0.23-0.232-0.541-0.359-0.871-0.359H30.604c-0.689,0-1.229,0.531-1.229,1.213C29.375,33.287,29.927,33.838,30.604,33.838z"/>
			<path fill="#143156" d="M30.604,38.941h10.013c0.684,0,1.221-0.523,1.221-1.191c0.002-0.312-0.119-0.604-0.336-0.824
				c-0.232-0.232-0.547-0.359-0.885-0.359H30.604c-0.689,0-1.229,0.52-1.229,1.184C29.375,38.418,29.915,38.941,30.604,38.941z"/>
			<path fill="#143156" d="M30.604,43.889h1.041c0.251-0.605,0.597-1.182,0.984-1.639c0.231-0.271,0.494-0.52,0.792-0.748h-2.817
				c-0.691,0-1.233,0.525-1.233,1.197C29.372,43.367,29.913,43.889,30.604,43.889z"/>
			<circle fill="#143156" cx="26.082" cy="27.437" r="1.175"/>
			<circle fill="#143156" cx="26.082" cy="32.618" r="1.175"/>
			<circle fill="#143156" cx="26.082" cy="37.755" r="1.175"/>
			<circle fill="#143156" cx="26.082" cy="42.694" r="1.175"/>
		</g>
	</g>
</g>
</svg>
