<?xml version="1.0" encoding="utf-8"?>
<!-- Generator: Adobe Illustrator 16.0.0, SVG Export Plug-In . SVG Version: 6.00 Build 0)  -->
<!DOCTYPE svg PUBLIC "-//W3C//DTD SVG 1.1//EN" "http://www.w3.org/Graphics/SVG/1.1/DTD/svg11.dtd">
<svg version="1.1" id="Layer_1" xmlns="http://www.w3.org/2000/svg" xmlns:xlink="http://www.w3.org/1999/xlink" x="0px" y="0px"
	 width="70px" height="70px" viewBox="0 0 70 70" enable-background="new 0 0 70 70" xml:space="preserve">
<g>
	
		<rect x="8.063" y="55.538" transform="matrix(0.9804 0.1971 -0.1971 0.9804 11.6469 -4.9676)" fill="#00AEB8" width="45.442" height="1"/>
	<path fill="#143156" d="M35.001,67.5C17.082,67.5,2.5,52.922,2.5,35c0-17.92,14.582-32.5,32.5-32.5S67.5,17.08,67.5,35
		C67.5,52.922,52.92,67.5,35.001,67.5z M35.001,5.379C18.67,5.379,5.381,18.668,5.381,35s13.289,29.619,29.62,29.619
		S64.619,51.332,64.619,35S51.332,5.379,35.001,5.379z"/>
	<g>
		<path fill="#143156" d="M53.787,47.166c0.048-0.148,0.075-0.309,0.075-0.471V29.297c0-0.824-0.667-1.492-1.494-1.492h-8.31V46.32
			c0,0.297-0.055,0.582-0.148,0.846h-0.973c0.047-0.148,0.076-0.309,0.076-0.471V22.801c0-0.824-0.672-1.492-1.494-1.492H28.477
			c-0.822,0-1.491,0.668-1.491,1.492v23.895c0,0.162,0.028,0.322,0.077,0.471h-0.975c-0.093-0.264-0.148-0.549-0.148-0.846V27.805
			h-8.111c-0.826,0-1.492,0.668-1.492,1.492v17.398c0,0.162,0.028,0.322,0.075,0.471h-2.566v3.088h42.309v-3.088H53.787z
			 M20.814,41.07h-2.138V38.93h2.138V41.07z M20.814,37.311h-2.138V35.17h2.138V37.311z M20.814,33.676h-2.138v-2.139h2.138V33.676z
			 M24.147,41.07h-2.14V38.93h2.14V41.07z M24.147,37.311h-2.14V35.17h2.14V37.311z M24.147,33.676h-2.14v-2.139h2.14V33.676z
			 M38.322,47.068h-6.284v-7.842h6.284V47.068z M34.999,32.508c-2.907,0-5.264-2.357-5.264-5.264c0-2.91,2.357-5.266,5.264-5.266
			c2.908,0,5.264,2.355,5.264,5.266C40.263,30.15,37.907,32.508,34.999,32.508L34.999,32.508z M48.588,41.07h-2.139V38.93h2.139
			V41.07z M48.588,37.311h-2.139V35.17h2.139V37.311z M48.588,33.676h-2.139v-2.139h2.139V33.676z M51.922,41.07h-2.141V38.93h2.141
			V41.07z M51.922,37.311h-2.141V35.17h2.141V37.311z M51.922,33.676h-2.141v-2.139h2.141V33.676z M36.306,25.939h2.017v2.611
			h-2.017v2.016h-2.611v-2.016h-2.019v-2.611h2.019v-2.02h2.611V25.939z M36.306,25.939"/>
	</g>
</g>
</svg>
