<?xml version="1.0" encoding="utf-8"?>
<!-- Generator: Adobe Illustrator 16.0.0, SVG Export Plug-In . SVG Version: 6.00 Build 0)  -->
<!DOCTYPE svg PUBLIC "-//W3C//DTD SVG 1.1//EN" "http://www.w3.org/Graphics/SVG/1.1/DTD/svg11.dtd">
<svg version="1.1" id="Layer_1" xmlns="http://www.w3.org/2000/svg" xmlns:xlink="http://www.w3.org/1999/xlink" x="0px" y="0px"
	 width="70px" height="70px" viewBox="0 0 70 70" enable-background="new 0 0 70 70" xml:space="preserve">
<g>
	
		<rect x="18.887" y="2.267" transform="matrix(0.9278 0.3731 -0.3731 0.9278 12.2305 -5.1369)" fill="#00AEB8" width="1" height="53.528"/>
	<path fill="#143156" d="M35.001,67.5C17.082,67.5,2.5,52.922,2.5,35c0-17.92,14.582-32.5,32.5-32.5S67.5,17.08,67.5,35
		C67.5,52.922,52.92,67.5,35.001,67.5z M35.001,5.381C18.67,5.381,5.381,18.668,5.381,35c0,16.334,13.289,29.621,29.62,29.621
		S64.619,51.334,64.619,35C64.619,18.668,51.332,5.381,35.001,5.381z"/>
	<g>
		<g>
			<path fill="#143156" d="M49.344,29.051c-0.002-0.066-0.016-0.129-0.039-0.188c-0.008-0.023-0.012-0.043-0.021-0.064
				c-0.035-0.072-0.076-0.143-0.137-0.201L39.649,19.1c-0.173-0.176-0.423-0.236-0.658-0.178c-0.046-0.012-0.092-0.029-0.142-0.029
				H27.516c-1.228,0-2.189,1.26-2.189,2.867v8.516c0.454-0.094,0.924-0.141,1.401-0.158V21.76c0-0.84,0.415-1.465,0.788-1.465
				h10.939v6.631c0,1.607,0.94,2.867,2.141,2.867h7.357v16.461c0,0.826-0.422,1.465-0.787,1.465h-15.64v1.398h15.64
				c1.225,0,2.188-1.256,2.188-2.863V29.092C49.354,29.076,49.346,29.064,49.344,29.051z M40.596,28.393
				c-0.3,0-0.74-0.57-0.74-1.467v-5.387l7.07,6.854H40.596z"/>
			<path fill="#143156" d="M30.069,26.293h5.289c0.386,0,0.697-0.314,0.697-0.699c0-0.387-0.312-0.699-0.697-0.699h-5.289
				c-0.387,0-0.7,0.312-0.7,0.699C29.37,25.979,29.683,26.293,30.069,26.293z"/>
			<path fill="#143156" d="M30.069,30.104h5.289c0.386,0,0.697-0.314,0.697-0.701s-0.312-0.699-0.697-0.699h-5.289
				c-0.387,0-0.7,0.312-0.7,0.699S29.683,30.104,30.069,30.104z"/>
			<path fill="#143156" d="M37.341,35.701h7.89c0.387,0,0.699-0.314,0.699-0.701c0-0.385-0.312-0.699-0.699-0.699h-7.89
				c-0.387,0-0.7,0.314-0.7,0.699C36.641,35.387,36.954,35.701,37.341,35.701z"/>
			<path fill="#143156" d="M37.341,39.512h7.89c0.387,0,0.699-0.314,0.699-0.699c0-0.387-0.312-0.701-0.699-0.701h-7.89
				c-0.387,0-0.7,0.314-0.7,0.701C36.641,39.197,36.954,39.512,37.341,39.512z"/>
			<path fill="#143156" d="M37.341,43.32h7.89c0.387,0,0.699-0.312,0.699-0.699s-0.312-0.699-0.699-0.699h-7.89
				c-0.387,0-0.7,0.312-0.7,0.699S36.954,43.32,37.341,43.32z"/>
		</g>
		<g>
			<path fill="#143156" d="M32.651,36.311c-0.198-0.18-0.427-0.379-0.475-0.531c-0.055-0.168,0.007-0.461,0.068-0.748
				c0.097-0.441,0.204-0.947-0.072-1.324c-0.275-0.381-0.793-0.434-1.249-0.479c-0.271-0.027-0.581-0.062-0.72-0.162
				c-0.133-0.098-0.258-0.377-0.367-0.625c-0.184-0.424-0.396-0.902-0.848-1.049c-0.085-0.029-0.172-0.043-0.268-0.043
				c-0.345,0-0.678,0.195-1.001,0.383c-0.254,0.146-0.52,0.299-0.702,0.299c-0.181,0-0.446-0.152-0.7-0.299
				c-0.323-0.188-0.658-0.383-1.005-0.383c-0.092,0-0.181,0.014-0.264,0.043c-0.454,0.146-0.663,0.625-0.849,1.049
				c-0.109,0.248-0.232,0.527-0.369,0.625c-0.137,0.1-0.448,0.135-0.72,0.162c-0.454,0.045-0.972,0.098-1.25,0.479
				c-0.273,0.377-0.168,0.883-0.071,1.324c0.062,0.287,0.125,0.58,0.071,0.748c-0.051,0.152-0.277,0.352-0.478,0.531
				c-0.345,0.307-0.737,0.66-0.737,1.141c0,0.488,0.393,0.838,0.737,1.146c0.2,0.18,0.427,0.379,0.478,0.531
				c0.054,0.168-0.01,0.463-0.071,0.746c-0.097,0.445-0.202,0.947,0.071,1.326c0.278,0.381,0.796,0.434,1.25,0.48
				c0.271,0.025,0.583,0.057,0.72,0.158c0.137,0.098,0.26,0.381,0.369,0.629c0.186,0.422,0.395,0.9,0.849,1.047
				c0.083,0.027,0.172,0.041,0.264,0.041c0.347,0,0.682-0.193,1.005-0.381c0.254-0.148,0.52-0.301,0.7-0.301
				c0.183,0,0.448,0.152,0.702,0.301c0.323,0.188,0.656,0.381,1.001,0.381c0.096,0,0.183-0.014,0.268-0.041
				c0.452-0.146,0.665-0.625,0.848-1.047c0.109-0.248,0.234-0.531,0.367-0.629c0.139-0.102,0.448-0.133,0.72-0.158
				c0.456-0.047,0.974-0.1,1.249-0.48c0.276-0.379,0.169-0.881,0.072-1.326c-0.062-0.283-0.123-0.578-0.068-0.746
				c0.048-0.152,0.276-0.352,0.475-0.531c0.347-0.309,0.741-0.658,0.741-1.146C33.393,36.971,32.998,36.617,32.651,36.311
				L32.651,36.311z M27.018,39.773c-1.283,0-2.32-1.039-2.32-2.322c0-1.275,1.037-2.316,2.32-2.316c1.281,0,2.32,1.041,2.32,2.316
				C29.338,38.734,28.299,39.773,27.018,39.773L27.018,39.773z M27.018,39.773"/>
			<path fill="#143156" d="M29.2,44.164c-0.153,0.047-0.313,0.074-0.479,0.074c-0.527,0-0.979-0.264-1.343-0.475
				c-0.103-0.061-0.266-0.152-0.36-0.191c-0.096,0.039-0.256,0.133-0.359,0.191c-0.362,0.211-0.814,0.475-1.346,0.475
				c-0.163,0-0.323-0.027-0.475-0.074c-0.448-0.146-0.733-0.451-0.939-0.781v6.408c0,0.145,0.085,0.277,0.218,0.338
				c0.135,0.055,0.29,0.031,0.398-0.068l2.503-2.303l2.505,2.303c0.069,0.064,0.158,0.098,0.247,0.098
				c0.05,0,0.102-0.01,0.149-0.029c0.131-0.061,0.22-0.193,0.22-0.338v-6.41C29.933,43.707,29.643,44.018,29.2,44.164L29.2,44.164z
				 M29.2,44.164"/>
		</g>
	</g>
</g>
</svg>
