<?xml version="1.0" encoding="utf-8"?>
<!-- Generator: Adobe Illustrator 16.0.0, SVG Export Plug-In . SVG Version: 6.00 Build 0)  -->
<!DOCTYPE svg PUBLIC "-//W3C//DTD SVG 1.1//EN" "http://www.w3.org/Graphics/SVG/1.1/DTD/svg11.dtd">
<svg version="1.1" id="Layer_1" xmlns="http://www.w3.org/2000/svg" xmlns:xlink="http://www.w3.org/1999/xlink" x="0px" y="0px"
	 width="70px" height="70px" viewBox="0 0 70 70" enable-background="new 0 0 70 70" xml:space="preserve">
<g>
	
		<rect x="-0.541" y="50.821" transform="matrix(0.8064 0.5914 -0.5914 0.8064 34.8207 -3.7201)" fill="#00AEB8" width="47.266" height="1"/>
	<path fill="#143156" d="M35.001,67.5C17.082,67.5,2.5,52.922,2.5,35c0-17.92,14.582-32.5,32.5-32.5S67.5,17.08,67.5,35
		C67.5,52.922,52.92,67.5,35.001,67.5z M35.001,5.38C18.67,5.38,5.381,18.668,5.381,35c0,16.333,13.289,29.62,29.62,29.62
		S64.619,51.333,64.619,35C64.619,18.668,51.332,5.38,35.001,5.38z"/>
	<g>
		<path fill="#143156" d="M30.308,26.889h9.041c0.618,0,1.126-0.491,1.126-1.116c0-0.625-0.508-1.117-1.126-1.117h-9.041
			c-0.624,0-1.131,0.492-1.131,1.117C29.176,26.398,29.684,26.889,30.308,26.889L30.308,26.889z M30.308,26.889"/>
		<path fill="#143156" d="M26.699,41.258c0.229,0,0.459-0.069,0.662-0.218c0.507-0.364,0.62-1.066,0.251-1.574l-4.123-5.693
			c-0.368-0.508-1.073-0.62-1.575-0.25c-0.508,0.362-0.619,1.073-0.251,1.575l4.117,5.697
			C26.004,41.093,26.351,41.258,26.699,41.258L26.699,41.258z M26.699,41.258"/>
		<path fill="#143156" d="M46.498,33.628c-0.523-0.342-1.223-0.188-1.561,0.341l-3.557,5.549c-0.336,0.521-0.18,1.221,0.342,1.563
			c0.188,0.117,0.402,0.176,0.609,0.176c0.375,0,0.738-0.182,0.957-0.523l3.551-5.547C47.182,34.664,47.025,33.964,46.498,33.628
			L46.498,33.628z M46.498,33.628"/>
		<g>
			<circle fill="#143156" cx="34.589" cy="35.72" r="4.266"/>
			<path fill="#143156" d="M38.425,41.252h-0.049h-2.102c0,0-0.131,0.018-0.173,0.035c-0.056,0.022-0.183,0.132-0.183,0.132
				l-1.148,1.13c0,0-0.065,0.14-0.081,0.188c-0.023,0.085,0.016,0.302,0.016,0.302l1.32,5.588c0,0,0.044,0.196,0.021,0.266
				c-0.014,0.049-0.107,0.167-0.107,0.167l-1.168,1.146c0,0-0.122,0.125-0.189,0.125c-0.06,0-0.174-0.107-0.174-0.107l-1.194-1.175
				c0,0-0.072-0.103-0.085-0.148c-0.02-0.068,0.014-0.258,0.014-0.258l1.324-5.597c0,0,0.045-0.25,0.016-0.336
				c-0.012-0.049-0.084-0.155-0.084-0.155l-1.191-1.171c0,0-0.117-0.087-0.16-0.105c-0.04-0.016-0.146-0.025-0.146-0.025h-2.1
				h-0.049c-2.622,0-4.751,2.13-4.751,4.754l0.471,4.294c0,0.733,0.597,1.331,1.332,1.331c0,0,10.892,0,13.538,0l0,0
				c0.736,0,1.332-0.598,1.332-1.331l0.492-4.309C43.164,43.376,41.041,41.252,38.425,41.252z"/>
		</g>
		<g>
			<path fill="#143156" d="M22.157,24.013c1.559,0,2.818-1.263,2.818-2.823c0-1.558-1.26-2.82-2.818-2.82
				c-1.561,0-2.822,1.263-2.822,2.82C19.334,22.75,20.596,24.013,22.157,24.013z"/>
			<path fill="#143156" d="M24.694,24.851h-0.032h-1.391c0,0-0.087,0.011-0.116,0.023c-0.038,0.014-0.121,0.087-0.121,0.087
				l-0.759,0.748c0,0-0.043,0.092-0.052,0.125c-0.017,0.056,0.009,0.199,0.009,0.199l0.872,3.696c0,0,0.029,0.13,0.016,0.177
				c-0.01,0.032-0.071,0.11-0.071,0.11l-0.772,0.757c0,0-0.081,0.083-0.125,0.083c-0.042,0-0.114-0.071-0.114-0.071l-0.791-0.777
				c0,0-0.047-0.068-0.057-0.098c-0.012-0.045,0.01-0.171,0.01-0.171l0.875-3.703c0,0,0.029-0.165,0.011-0.222
				c-0.009-0.033-0.055-0.103-0.055-0.103l-0.789-0.775c0,0-0.077-0.058-0.105-0.069c-0.025-0.011-0.096-0.017-0.096-0.017h-1.392
				h-0.03c-1.735,0-3.143,1.409-3.143,3.145l0.312,2.84c0,0.485,0.394,0.88,0.88,0.88c0,0,7.207,0,8.956,0l0,0
				c0.487,0,0.882-0.395,0.882-0.88l0.325-2.851C27.829,26.255,26.423,24.851,24.694,24.851z"/>
		</g>
		<g>
			<path fill="#143156" d="M47.854,24.013c1.559,0,2.818-1.263,2.818-2.823c0-1.558-1.26-2.82-2.818-2.82
				c-1.561,0-2.822,1.263-2.822,2.82C45.031,22.75,46.293,24.013,47.854,24.013z"/>
			<path fill="#143156" d="M50.391,24.851h-0.033h-1.391c0,0-0.086,0.011-0.115,0.023c-0.037,0.014-0.121,0.087-0.121,0.087
				l-0.76,0.748c0,0-0.041,0.092-0.051,0.125c-0.016,0.056,0.01,0.199,0.01,0.199l0.871,3.696c0,0,0.029,0.13,0.016,0.177
				c-0.01,0.032-0.07,0.11-0.07,0.11l-0.773,0.757c0,0-0.08,0.083-0.125,0.083c-0.041,0-0.115-0.071-0.115-0.071l-0.791-0.777
				c0,0-0.045-0.068-0.055-0.098c-0.012-0.045,0.01-0.171,0.01-0.171l0.873-3.703c0,0,0.029-0.165,0.012-0.222
				c-0.008-0.033-0.055-0.103-0.055-0.103l-0.787-0.775c0,0-0.078-0.058-0.105-0.069c-0.029-0.011-0.098-0.017-0.098-0.017h-1.393
				h-0.029c-1.736,0-3.145,1.409-3.145,3.145l0.312,2.84c0,0.485,0.395,0.88,0.883,0.88c0,0,7.203,0,8.954,0l0,0
				c0.487,0,0.882-0.395,0.882-0.88l0.324-2.851C53.524,26.255,52.119,24.851,50.391,24.851z"/>
		</g>
	</g>
</g>
</svg>
