<?xml version="1.0" encoding="utf-8"?>
<!-- Generator: Adobe Illustrator 16.0.0, SVG Export Plug-In . SVG Version: 6.00 Build 0)  -->
<!DOCTYPE svg PUBLIC "-//W3C//DTD SVG 1.1//EN" "http://www.w3.org/Graphics/SVG/1.1/DTD/svg11.dtd">
<svg version="1.1" id="Layer_1" xmlns="http://www.w3.org/2000/svg" xmlns:xlink="http://www.w3.org/1999/xlink" x="0px" y="0px"
	 width="70px" height="70px" viewBox="0 0 70 70" enable-background="new 0 0 70 70" xml:space="preserve">
<g>
	
		<rect x="42.803" y="23.633" transform="matrix(0.4425 0.8968 -0.8968 0.4425 68.9364 -10.9842)" fill="#00AEB8" width="1" height="52.64"/>
	<path fill="#143156" d="M35.001,67.5C17.082,67.5,2.5,52.922,2.5,35c0-17.92,14.582-32.5,32.5-32.5S67.5,17.08,67.5,35
		C67.5,52.922,52.92,67.5,35.001,67.5z M35.001,5.381C18.67,5.381,5.381,18.668,5.381,35c0,16.334,13.289,29.621,29.62,29.621
		S64.619,51.334,64.619,35C64.619,18.668,51.332,5.381,35.001,5.381z"/>
	<g>
		<path fill="#143156" d="M54.26,25.135v12.1c0,0-2.497,0.508-3.01,0.576c-0.514,0.068-2.121,0.605-3.291-0.557
			c-1.801-1.791-8.198-8.389-8.198-8.389s-1.102-1.121-2.873-0.15c-1.618,0.885-4.02,2.182-5.031,2.691
			c-0.359,0.264-0.796,0.418-1.269,0.418c-1.223,0-2.213-1.029-2.213-2.299c0-0.994,0.607-1.84,1.462-2.16
			c2.307-1.447,7.112-4.248,9.12-5.352c1.226-0.676,2.107-0.732,3.789,0.73c2.07,1.811,3.908,3.455,3.908,3.455
			s0.863,0.414,1.561,0.311C49.67,26.295,54.26,25.135,54.26,25.135L54.26,25.135z"/>
		<path fill="#143156" d="M28.804,45.635c0.311-0.824,0.207-1.75-0.39-2.381c-0.533-0.57-1.31-0.721-2.053-0.543
			c0.205-0.764,0.092-1.574-0.446-2.148c-0.535-0.57-1.309-0.717-2.052-0.541c0.204-0.762,0.089-1.576-0.446-2.15
			c-0.842-0.895-2.296-0.855-3.25,0.09c-0.95,0.947-1.559,2.658-0.712,3.664c0.848,1.004,1.818,0.393,2.563,0.219
			c-0.206,0.762-0.825,1.473-0.063,2.471c0.757,1.002,1.816,0.395,2.561,0.219c-0.209,0.762-0.801,1.543-0.066,2.471
			c0.737,0.928,1.948,0.434,2.746,0.176c-0.309,0.824-0.968,1.709-0.121,2.707c0.846,0.996,2.802,0.533,3.758-0.412
			c0.954-0.945,1.046-2.443,0.209-3.338C30.464,45.52,29.6,45.377,28.804,45.635L28.804,45.635z"/>
		<path fill="#143156" d="M46.213,39.309c-6.873-7.127-3.637-3.771-7.345-7.627c0,0-1.121-1.156-2.591-0.484
			c-1.034,0.469-2.365,1.107-3.369,1.598c-1.103,0.596-2.064,0.779-2.267,0.779c-2.124,0-3.849-1.787-3.849-3.992
			c0-1.432,0.73-2.676,1.823-3.383c1.535-1.102,5.067-3.053,5.067-3.053s-1.074-1.416-3.434-1.416c-2.357,0-7.283,3.352-7.283,3.352
			s-1.396,0.928-3.388,0.092l-3.838-1.385v13.84c0,0,1.094,0.332,2.081,0.746c0.223-0.656,0.579-1.266,1.078-1.766
			c1.634-1.617,4.341-1.633,5.829-0.047c0.445,0.48,0.758,1.061,0.919,1.693c0.602,0.193,1.139,0.531,1.577,0.998
			c0.449,0.477,0.762,1.059,0.923,1.693c0.602,0.191,1.138,0.529,1.578,0.998c0.492,0.523,0.819,1.164,0.976,1.855
			c0.624,0.189,1.192,0.539,1.647,1.027c0.89,0.949,1.211,2.24,1.018,3.484v0.006c0.001,0,0.004,0.002,0.006,0.004
			c0.033,0.039,0.556,0.65,0.888,0.992c0.659,0.686,1.732,0.684,2.393,0c0.657-0.684,0.66-1.797,0-2.482
			c-0.021-0.021-0.046-0.037-0.069-0.059c0.002-0.004,0.004-0.01,0.004-0.014c-2.223-2.309-2.338-2.475-2.119-2.703
			c0.221-0.229,0.547,0.275,3.034,2.859c0.012,0.01,0.026,0.02,0.047,0.027c0.048,0.072,0.098,0.146,0.16,0.211
			c0.659,0.684,1.734,0.684,2.394,0c0.656-0.684,0.66-1.799,0-2.484c-0.035-0.035-0.074-0.064-0.111-0.096
			c-0.033-0.041-0.064-0.078-0.103-0.119c-2.271-2.354-2.528-2.801-2.354-2.98c0.196-0.205,1.253,0.998,3.512,3.34
			c0.006,0,0.01-0.002,0.016-0.002c0.66,0.627,1.688,0.609,2.33-0.051c0.615-0.641,0.648-1.654,0.109-2.342
			c-0.01-0.049-0.027-0.088-0.057-0.117c-2.857-2.969-2.734-3.014-2.562-3.191c0.174-0.18,0.186-0.193,2.967,2.693
			c0.012,0.012,0.02,0.025,0.029,0.037c0.658,0.686,1.734,0.684,2.395,0c0.656-0.684,0.66-1.799,0-2.484
			C46.252,39.342,46.23,39.328,46.213,39.309L46.213,39.309z"/>
		<path fill="#143156" d="M46.213,39.309"/>
	</g>
</g>
</svg>
