<?xml version="1.0" encoding="utf-8"?>
<!-- Generator: Adobe Illustrator 16.0.0, SVG Export Plug-In . SVG Version: 6.00 Build 0)  -->
<!DOCTYPE svg PUBLIC "-//W3C//DTD SVG 1.1//EN" "http://www.w3.org/Graphics/SVG/1.1/DTD/svg11.dtd">
<svg version="1.1" id="Layer_1" xmlns="http://www.w3.org/2000/svg" xmlns:xlink="http://www.w3.org/1999/xlink" x="0px" y="0px"
	 width="70px" height="70px" viewBox="0 0 70 70" enable-background="new 0 0 70 70" xml:space="preserve">
<g>
	
		<rect x="23.515" y="19.714" transform="matrix(0.7256 0.6882 -0.6882 0.7256 26.9011 -27.0274)" fill="#00AEB8" width="47.642" height="0.999"/>
	<path fill="#143156" d="M35.001,67.499c-17.919,0-32.501-14.578-32.501-32.5C2.5,17.08,17.082,2.501,35.001,2.501
		C52.922,2.501,67.5,17.08,67.5,34.999C67.5,52.921,52.922,67.499,35.001,67.499z M35.001,5.381
		C18.67,5.381,5.38,18.669,5.38,34.999c0,16.333,13.29,29.62,29.621,29.62c16.333,0,29.619-13.287,29.619-29.62
		C64.62,18.669,51.334,5.381,35.001,5.381z"/>
	<path fill="#143156" d="M54.562,49.261h-1.284v-9.779c0-0.148-0.084-0.285-0.218-0.353l-7.05-3.572
		c-0.263-0.133-0.573,0.059-0.573,0.353v2.258c0,0.294-0.308,0.485-0.57,0.355l-6.094-2.979c-0.263-0.13-0.57,0.062-0.57,0.355
		v2.268c0,0.294-0.308,0.485-0.569,0.355l-6.094-2.979c-0.263-0.13-0.568,0.062-0.568,0.355v13.361h-1.097V22.749
		c0-0.22-0.179-0.396-0.397-0.396h-0.939c-0.218,0-0.394-0.178-0.394-0.396V16.87c0-0.219-0.179-0.397-0.397-0.397h-8.423
		c-0.22,0-0.396,0.179-0.396,0.397v5.087c0,0.219-0.177,0.396-0.396,0.396h-0.939c-0.22,0-0.396,0.176-0.396,0.396v26.512H16.27
		c-0.217,0-0.396,0.177-0.396,0.396v1.037c0,0.218,0.179,0.396,0.396,0.396h38.293c0.22,0,0.396-0.178,0.396-0.396v-1.037
		C54.958,49.438,54.782,49.261,54.562,49.261L54.562,49.261z M18.495,45.076V25.189c0-0.217,0.179-0.396,0.396-0.396h0.809
		c0.22,0,0.396,0.179,0.396,0.396v19.887c0,0.219-0.176,0.396-0.396,0.396h-0.809C18.674,45.472,18.495,45.295,18.495,45.076
		L18.495,45.076z M22.353,49.261h-3.345v-1.048c0-0.22,0.176-0.396,0.396-0.396h2.554c0.219,0,0.396,0.176,0.396,0.396V49.261z
		 M22.922,45.076c0,0.219-0.176,0.396-0.396,0.396h-0.808c-0.218,0-0.396-0.177-0.396-0.396V25.189c0-0.217,0.178-0.396,0.396-0.396
		h0.808c0.22,0,0.396,0.179,0.396,0.396V45.076z M24.148,45.076V25.189c0-0.217,0.179-0.396,0.397-0.396h0.807
		c0.219,0,0.397,0.179,0.397,0.396v19.887c0,0.219-0.179,0.396-0.397,0.396h-0.807C24.327,45.472,24.148,45.295,24.148,45.076
		L24.148,45.076z M28.063,49.261h-3.345v-1.048c0-0.22,0.176-0.396,0.396-0.396h2.554c0.22,0,0.396,0.176,0.396,0.396V49.261z
		 M28.575,45.076c0,0.219-0.176,0.396-0.396,0.396h-0.808c-0.218,0-0.396-0.177-0.396-0.396V25.189c0-0.217,0.179-0.396,0.396-0.396
		h0.808c0.22,0,0.396,0.179,0.396,0.396V45.076z M36.143,46.825c0,0.219-0.178,0.396-0.396,0.396h-1.056
		c-0.219,0-0.396-0.177-0.396-0.396V43.58c0-0.22,0.177-0.396,0.396-0.396h1.056c0.218,0,0.396,0.177,0.396,0.396V46.825z
		 M43.086,46.825c0,0.219-0.178,0.396-0.396,0.396h-1.056c-0.218,0-0.396-0.177-0.396-0.396V43.58c0-0.22,0.178-0.396,0.396-0.396
		h1.056c0.218,0,0.396,0.177,0.396,0.396V46.825z M50.029,46.825c0,0.219-0.177,0.396-0.396,0.396h-1.054
		c-0.219,0-0.396-0.177-0.396-0.396V43.58c0-0.22,0.177-0.396,0.396-0.396h1.054c0.22,0,0.396,0.177,0.396,0.396V46.825z
		 M50.029,46.825"/>
</g>
</svg>
