<?xml version="1.0" encoding="utf-8"?>
<!-- Generator: Adobe Illustrator 16.0.0, SVG Export Plug-In . SVG Version: 6.00 Build 0)  -->
<!DOCTYPE svg PUBLIC "-//W3C//DTD SVG 1.1//EN" "http://www.w3.org/Graphics/SVG/1.1/DTD/svg11.dtd">
<svg version="1.1" id="Layer_1" xmlns="http://www.w3.org/2000/svg" xmlns:xlink="http://www.w3.org/1999/xlink" x="0px" y="0px"
	 width="70px" height="70px" viewBox="0 0 70 70" enable-background="new 0 0 70 70" xml:space="preserve">
<g>
	
		<rect x="-8.626" y="40.097" transform="matrix(0.2319 0.9727 -0.9727 0.2319 51.9592 15.3884)" fill="#00AEB8" width="49.723" height="1"/>
	<path fill="#143156" d="M35.001,67.5C17.082,67.5,2.5,52.922,2.5,35c0-17.92,14.582-32.5,32.5-32.5S67.5,17.08,67.5,35
		C67.5,52.922,52.92,67.5,35.001,67.5z M35.001,5.381C18.67,5.381,5.381,18.668,5.381,35c0,16.334,13.289,29.621,29.62,29.621
		S64.619,51.334,64.619,35C64.619,18.668,51.332,5.381,35.001,5.381z"/>
	<g>
		<g>
			<path fill="#143156" d="M46.504,18.047H23.377c-1.581,0-2.866,1.281-2.866,2.854v28.068c0,1.646,1.345,2.984,2.998,2.984h22.989
				c1.652,0,2.996-1.338,2.996-2.984V21.037C49.494,19.389,48.152,18.047,46.504,18.047z M43.951,49.354h-17.9
				c-1.616,0-2.932-1.311-2.932-2.924V23.492c0-1.613,1.315-2.926,2.932-2.926h17.9c1.615,0,2.932,1.312,2.932,2.926l0.002,22.938
				C46.885,48.043,45.568,49.354,43.951,49.354z"/>
			<path fill="#143156" d="M42.424,38.195H27.579c-0.701,0-1.272,0.562-1.272,1.258c0,0.699,0.559,1.248,1.272,1.248h14.845
				c0.715,0,1.273-0.549,1.273-1.248C43.697,38.758,43.127,38.195,42.424,38.195z"/>
			<path fill="#143156" d="M42.424,43.486H27.579c-0.714,0-1.272,0.551-1.272,1.254c0,0.699,0.571,1.27,1.272,1.27h14.845
				c0.703,0,1.273-0.57,1.273-1.27C43.697,44.037,43.139,43.486,42.424,43.486z"/>
			<g>
				<path fill="#143156" d="M37.848,25.549c0,1.57-1.271,2.842-2.839,2.842c-1.569,0-2.84-1.271-2.84-2.842
					c0-1.568,1.271-2.84,2.84-2.84C36.577,22.709,37.848,23.98,37.848,25.549L37.848,25.549z M37.848,25.549"/>
				<path fill="#143156" d="M37.285,29.145h-0.029l-0.095,1.248c-0.014,0.174-0.141,0.318-0.313,0.354l-0.716,0.146l0.175,0.52
					c0.034,0.1,0.026,0.209-0.021,0.303c0,0-0.696,1.365-0.927,1.818c-0.002,0.002-0.114,0.182-0.342,0.182
					c-0.28,0-0.356-0.18-0.356-0.182c-0.233-0.453-0.929-1.818-0.929-1.818c-0.047-0.094-0.057-0.203-0.021-0.303l0.175-0.52
					l-0.717-0.145c-0.172-0.035-0.299-0.18-0.312-0.354l-0.096-1.25h-0.028c-1.559,0-2.822,1.264-2.822,2.82l0.361,3.168
					c0,0.434,0.355,0.789,0.791,0.789h7.886c0.435,0,0.79-0.355,0.79-0.789l0.361-3.176C40.099,30.404,38.839,29.145,37.285,29.145
					L37.285,29.145z M38.292,34.555h-0.593v0.582c0,0.219-0.175,0.395-0.389,0.395c-0.218,0-0.391-0.176-0.391-0.395v-0.582h-0.584
					c-0.216,0-0.392-0.174-0.392-0.391s0.176-0.389,0.392-0.389h0.584V33.18c0-0.215,0.173-0.391,0.391-0.391
					c0.214,0,0.389,0.176,0.389,0.391v0.596h0.593c0.218,0,0.394,0.172,0.394,0.389S38.51,34.555,38.292,34.555L38.292,34.555z
					 M38.292,34.555"/>
				<path fill="#143156" d="M35.539,30.213l0.864-0.176l0.068-0.893h-2.926l0.068,0.893l0.864,0.176
					c0.109,0.023,0.204,0.09,0.26,0.189c0.057,0.098,0.067,0.213,0.032,0.32l-0.267,0.783l0.505,0.988l0.503-0.988l-0.266-0.783
					c-0.035-0.107-0.023-0.223,0.031-0.32C35.335,30.303,35.43,30.236,35.539,30.213L35.539,30.213z M35.539,30.213"/>
			</g>
		</g>
	</g>
</g>
</svg>
