<?xml version="1.0" encoding="utf-8"?>
<!-- Generator: Adobe Illustrator 16.0.0, SVG Export Plug-In . SVG Version: 6.00 Build 0)  -->
<!DOCTYPE svg PUBLIC "-//W3C//DTD SVG 1.1//EN" "http://www.w3.org/Graphics/SVG/1.1/DTD/svg11.dtd">
<svg version="1.1" id="Layer_1" xmlns="http://www.w3.org/2000/svg" xmlns:xlink="http://www.w3.org/1999/xlink" x="0px" y="0px"
	 width="70px" height="70px" viewBox="0 0 70 70" enable-background="new 0 0 70 70" xml:space="preserve">
<g>
	
		<rect x="21.159" y="13.382" transform="matrix(0.9211 0.3893 -0.3893 0.9211 8.7858 -15.594)" fill="#00AEB8" width="43.424" height="1"/>
	<path fill="#143156" d="M35.001,67.5C17.082,67.5,2.5,52.922,2.5,35c0-17.92,14.582-32.5,32.5-32.5S67.5,17.08,67.5,35
		C67.5,52.922,52.92,67.5,35.001,67.5z M35.001,5.379C18.67,5.379,5.381,18.668,5.381,35s13.289,29.619,29.62,29.619
		S64.619,51.332,64.619,35S51.332,5.379,35.001,5.379z"/>
	<g>
		<path fill="#143156" d="M35.393,46.799l-0.031-10.633l0.598,0.438c0,0,0.105,0.059,0.105-0.059c0-0.105,0-10.881,0-12.523
			c2.686-1.982,6.25-3.252,9.832-3.252c2.975,0,5.392,0.695,6.278,0.994v11.561c1.204,0.654,2.257,1.547,3.107,2.611V24.988
			c0-0.289-0.111-0.559-0.314-0.762c-0.326-0.328-0.895-0.785-1.635-0.922v-1.736c0-0.369-0.242-0.701-0.594-0.816
			c-1.154-0.379-3.856-1.143-6.843-1.143c-4.256,0-7.916,1.297-10.896,3.855c-2.98-2.559-6.64-3.855-10.894-3.855
			c-2.988,0-5.691,0.764-6.845,1.143c-0.352,0.115-0.594,0.447-0.594,0.816v1.736c-0.74,0.137-1.309,0.594-1.635,0.922
			c-0.203,0.203-0.314,0.473-0.314,0.762v22.908c0,0.396,0.346,0.686,0.717,0.641h14.944c0,0,0.299-0.027,0.383,0.043
			c0.082,0.066,0.111,0.166,0.164,0.264c0.471,0.889,2.113,1.545,4.074,1.545c1.994,0,3.66-0.68,4.098-1.592
			c0.041-0.084,0.049-0.168,0.117-0.225c-0.613-0.791-1.11-1.672-1.472-2.623C36.743,46.275,35.929,46.584,35.393,46.799z
			 M34.684,46.824c-1.803-0.725-6.767-2.514-11.539-2.514c-2.016,0-3.801,0.311-5.32,0.922V21.764
			c0.886-0.299,3.304-0.994,6.281-0.994c3.547,0,7.109,1.246,9.791,3.197v12.576c0,0-0.012,0.186,0.184,0
			c0.113-0.105,0.391-0.291,0.613-0.438L34.684,46.824z"/>
		<g>
			<path fill="#143156" d="M47.297,33.816c-4.688,0-8.5,3.812-8.5,8.498c0,4.688,3.812,8.5,8.5,8.5c4.687,0,8.497-3.812,8.497-8.5
				C55.794,37.629,51.983,33.816,47.297,33.816L47.297,33.816z M47.297,49.051c-3.715,0-6.736-3.021-6.736-6.736
				c0-3.713,3.021-6.734,6.736-6.734c3.713,0,6.733,3.021,6.733,6.734C54.03,46.029,51.01,49.051,47.297,49.051L47.297,49.051z
				 M47.297,49.051"/>
			<path fill="#143156" d="M49.922,38.006c-0.186-0.096-0.893-0.412-2.172-0.412c-2.855,0-4.773,1.928-4.773,4.799
				c0,2.822,1.773,4.648,4.518,4.648c1.143,0,1.99-0.229,2.402-0.441c0.115-0.057,0.174-0.188,0.143-0.312l-0.217-0.895
				c-0.02-0.082-0.076-0.15-0.152-0.186c-0.076-0.037-0.162-0.037-0.238,0.002c-0.42,0.201-1.072,0.33-1.707,0.33
				c-1.889,0-3.016-1.189-3.016-3.186c0-2.049,1.15-3.273,3.08-3.273c0.6,0,1.184,0.119,1.6,0.328
				c0.074,0.037,0.16,0.041,0.234,0.008c0.074-0.031,0.133-0.096,0.156-0.174l0.279-0.906C50.1,38.207,50.043,38.068,49.922,38.006
				L49.922,38.006z M49.922,38.006"/>
		</g>
	</g>
</g>
</svg>
