<?xml version="1.0" encoding="utf-8"?>
<!-- Generator: Adobe Illustrator 16.0.0, SVG Export Plug-In . SVG Version: 6.00 Build 0)  -->
<!DOCTYPE svg PUBLIC "-//W3C//DTD SVG 1.1//EN" "http://www.w3.org/Graphics/SVG/1.1/DTD/svg11.dtd">
<svg version="1.1" id="Layer_1" xmlns="http://www.w3.org/2000/svg" xmlns:xlink="http://www.w3.org/1999/xlink" x="0px" y="0px"
	 width="70px" height="70px" viewBox="0 0 70 70" enable-background="new 0 0 70 70" xml:space="preserve">
<g>
	
		<rect x="41.067" y="34.647" transform="matrix(0.3027 0.9531 -0.9531 0.3027 82.5734 -0.4096)" fill="#00AEB8" width="1" height="43.163"/>
	<path fill="#143156" d="M35.001,67.5C17.082,67.5,2.5,52.922,2.5,35c0-17.92,14.582-32.5,32.5-32.5S67.5,17.08,67.5,35
		C67.5,52.922,52.92,67.5,35.001,67.5z M35.001,5.38C18.67,5.38,5.381,18.668,5.381,35c0,16.333,13.289,29.62,29.62,29.62
		S64.619,51.333,64.619,35C64.619,18.668,51.332,5.38,35.001,5.38z"/>
	<g>
		<g>
			<path fill="#143156" d="M39.899,40.027c0.418,0.67,1.161,1.116,2.011,1.116c1.312,0,2.375-1.063,2.375-2.376
				c0-1.31-1.062-2.371-2.375-2.371c-1.311,0-2.373,1.062-2.373,2.371c0,0.033,0,0.066,0.003,0.099l-3.323,1.026
				c-0.23-0.487-0.551-0.925-0.938-1.29l4.103-5.841c0.32,0.131,0.67,0.201,1.037,0.201c1.512,0,2.738-1.225,2.738-2.737
				s-1.227-2.739-2.738-2.739c-1.202,0-2.225,0.777-2.59,1.855l-2.566-0.27c-0.195-0.609-0.765-1.051-1.438-1.051
				c-0.833,0-1.511,0.676-1.511,1.511s0.676,1.511,1.511,1.511c0.562,0,1.05-0.307,1.311-0.761l2.564,0.27
				c0.069,0.577,0.317,1.101,0.688,1.51l-4.102,5.841c-0.584-0.295-1.242-0.463-1.942-0.463c-0.736,0-1.431,0.187-2.037,0.516
				l-1.487-2.008c0.163-0.259,0.259-0.567,0.259-0.897c0-0.929-0.752-1.681-1.681-1.681s-1.681,0.75-1.681,1.678
				c0,0.929,0.752,1.682,1.681,1.682c0.153,0,0.303-0.021,0.445-0.06l1.486,2.009c-0.786,0.777-1.271,1.857-1.271,3.049
				c0,2.367,1.918,4.287,4.286,4.287s4.285-1.92,4.285-4.287c0-0.229-0.017-0.454-0.051-0.673L39.899,40.027z M39.899,40.027"/>
		</g>
		<g>
			<path fill-rule="evenodd" clip-rule="evenodd" fill="#143156" d="M50.514,19.484H19.49c-1.431,0-2.588,1.157-2.588,2.584v25.863
				c0,1.421,1.157,2.584,2.588,2.584h31.024c1.426,0,2.585-1.163,2.585-2.584V22.068C53.099,20.642,51.939,19.484,50.514,19.484
				L50.514,19.484z M29.264,21.427c0.715,0,1.289,0.572,1.289,1.295c0,0.71-0.573,1.288-1.289,1.288
				c-0.717,0-1.294-0.578-1.294-1.288C27.97,22.006,28.547,21.427,29.264,21.427L29.264,21.427z M25.306,21.427
				c0.717,0,1.294,0.572,1.294,1.295c0,0.71-0.577,1.288-1.294,1.288c-0.716,0-1.296-0.578-1.296-1.288
				C24.01,22.006,24.59,21.427,25.306,21.427L25.306,21.427z M21.427,21.427c0.71,0,1.294,0.572,1.294,1.295
				c0,0.71-0.584,1.288-1.294,1.288c-0.716,0-1.296-0.578-1.296-1.288C20.131,22.006,20.711,21.427,21.427,21.427L21.427,21.427z
				 M50.514,47.932H19.49V25.977h31.024V47.932z M50.514,23.393H32.409v-1.295h18.104V23.393z M50.514,23.393"/>
		</g>
	</g>
</g>
</svg>
