<?xml version="1.0" encoding="utf-8"?>
<!-- Generator: Adobe Illustrator 16.0.0, SVG Export Plug-In . SVG Version: 6.00 Build 0)  -->
<!DOCTYPE svg PUBLIC "-//W3C//DTD SVG 1.1//EN" "http://www.w3.org/Graphics/SVG/1.1/DTD/svg11.dtd">
<svg version="1.1" id="Layer_1" xmlns="http://www.w3.org/2000/svg" xmlns:xlink="http://www.w3.org/1999/xlink" x="0px" y="0px"
	 width="70px" height="70px" viewBox="0 0 70 70" enable-background="new 0 0 70 70" xml:space="preserve">
<g>
	
		<rect x="50.567" y="13.644" transform="matrix(0.9608 0.2773 -0.2773 0.9608 13.0177 -12.6032)" fill="#00AEB8" width="1" height="52.157"/>
	<path fill="#143156" d="M35.001,67.5C17.082,67.5,2.5,52.922,2.5,35c0-17.92,14.582-32.5,32.5-32.5S67.5,17.08,67.5,35
		C67.5,52.922,52.92,67.5,35.001,67.5z M35.001,5.379C18.67,5.379,5.381,18.668,5.381,35s13.289,29.619,29.62,29.619
		S64.619,51.332,64.619,35S51.332,5.379,35.001,5.379z"/>
	<g>
		<g>
			<circle fill="#143156" cx="35.205" cy="20.965" r="5.039"/>
			<path fill="#143156" d="M39.736,27.502h-0.056h-2.487c0,0-0.151,0.02-0.202,0.041c-0.064,0.027-0.217,0.156-0.217,0.156
				l-1.355,1.334c0,0-0.077,0.166-0.095,0.223c-0.028,0.1,0.018,0.355,0.018,0.355l1.56,6.604c0,0,0.051,0.23,0.026,0.314
				c-0.017,0.059-0.128,0.197-0.128,0.197l-1.378,1.354c0,0-0.146,0.148-0.225,0.148c-0.072,0-0.205-0.129-0.205-0.129l-1.411-1.387
				c0,0-0.086-0.123-0.101-0.176c-0.021-0.08,0.018-0.305,0.018-0.305l1.562-6.613c0,0,0.051-0.295,0.021-0.398
				c-0.017-0.057-0.102-0.182-0.102-0.182l-1.408-1.385c0,0-0.14-0.104-0.189-0.123c-0.048-0.02-0.173-0.029-0.173-0.029h-2.48
				h-0.058c-3.099,0-5.614,2.516-5.614,5.617l0.557,5.072c0,0.869,0.705,1.572,1.574,1.572h14.762
				c-0.043-3.607-1.352-4.814-2.072-5.203h-1.531c-0.615,0-1.117-0.502-1.117-1.115c0-0.617,0.502-1.119,1.117-1.119h1.913
				c0.616,0,1.116,0.502,1.116,1.119c0,0.164-0.037,0.32-0.102,0.461c0.92,0.891,1.873,2.598,1.908,5.857l0,0
				c0.869,0,1.574-0.703,1.574-1.572l0.58-5.09C45.336,30.01,42.826,27.502,39.736,27.502z"/>
		</g>
		<path fill="#143156" d="M48.887,43.41c0,0.158-0.131,0.287-0.287,0.287H21.653c-0.157,0-0.286-0.129-0.286-0.287v-2.562
			c0-0.158,0.129-0.285,0.286-0.285H48.6c0.156,0,0.287,0.127,0.287,0.285V43.41z"/>
		<path fill="#143156" d="M44.732,52.984c0,0.158-0.127,0.287-0.285,0.287h-18.69c-0.156,0-0.284-0.129-0.284-0.287l-1.847-8.467
			c0-0.158,0.128-0.285,0.285-0.285h22.364c0.16,0,0.287,0.127,0.287,0.285L44.732,52.984z"/>
	</g>
</g>
</svg>
