<?xml version="1.0" encoding="utf-8"?>
<!-- Generator: Adobe Illustrator 16.0.0, SVG Export Plug-In . SVG Version: 6.00 Build 0)  -->
<!DOCTYPE svg PUBLIC "-//W3C//DTD SVG 1.1//EN" "http://www.w3.org/Graphics/SVG/1.1/DTD/svg11.dtd">
<svg version="1.1" id="Layer_1" xmlns="http://www.w3.org/2000/svg" xmlns:xlink="http://www.w3.org/1999/xlink" x="0px" y="0px"
	 width="70px" height="70px" viewBox="0 0 70 70" enable-background="new 0 0 70 70" xml:space="preserve">
<g>
	
		<rect x="49.003" y="18.892" transform="matrix(0.8398 0.5429 -0.5429 0.8398 32.1972 -19.7156)" fill="#00AEB8" width="1" height="51.604"/>
	<path fill="#143156" d="M35.001,67.5C17.082,67.5,2.5,52.922,2.5,35c0-17.92,14.582-32.5,32.5-32.5S67.5,17.08,67.5,35
		C67.5,52.922,52.92,67.5,35.001,67.5z M35.001,5.379C18.67,5.379,5.381,18.668,5.381,35s13.289,29.619,29.62,29.619
		S64.619,51.332,64.619,35S51.332,5.379,35.001,5.379z"/>
	<g>
		<path fill="#143156" d="M29.08,33.426l0.755-0.006l0.38-0.65c0.188-0.322,0.437-0.604,0.722-0.83l3.203-5.949l-3.834-7.117
			c-0.356-0.668-1.153-0.967-1.864-0.705l-6.116,2.277c-0.431,0.164-0.764,0.508-0.91,0.943c-0.147,0.432-0.091,0.906,0.156,1.293
			l6.841,10.826C28.628,33.461,28.849,33.426,29.08,33.426L29.08,33.426z M29.08,33.426"/>
		<path fill="#143156" d="M48.582,21.389c-0.146-0.438-0.477-0.783-0.908-0.943l-6.115-2.277c-0.713-0.262-1.506,0.037-1.864,0.705
			l-6.674,12.4c0.464,0.029,0.917,0.158,1.324,0.391l0.654,0.373l0.653-0.373c0.462-0.264,0.979-0.402,1.506-0.402
			c1.079,0,2.083,0.578,2.626,1.508l0.38,0.654l0.756,0.002c0.227,0,0.451,0.035,0.666,0.082l6.842-10.826
			C48.672,22.295,48.732,21.82,48.582,21.389L48.582,21.389z M48.582,21.389"/>
		<path fill="#143156" d="M43.832,38.895l-1.4-0.816l-0.01-1.623c-0.004-0.832-0.676-1.508-1.512-1.51l-1.622-0.008l-0.817-1.404
			c-0.418-0.717-1.341-0.965-2.064-0.553l-1.407,0.805l-1.408-0.805c-0.723-0.412-1.645-0.164-2.064,0.553l-0.82,1.402l-1.618,0.01
			c-0.832,0.006-1.504,0.678-1.512,1.51l-0.009,1.623l-1.4,0.816c-0.723,0.422-0.967,1.34-0.552,2.064l0.803,1.408l-0.803,1.408
			c-0.415,0.721-0.171,1.643,0.552,2.066l1.4,0.816l0.009,1.621c0.008,0.832,0.68,1.508,1.512,1.512l1.618,0.006l0.82,1.404
			c0.42,0.719,1.342,0.967,2.064,0.553l1.408-0.805l1.407,0.805c0.239,0.135,0.496,0.201,0.752,0.201
			c0.523,0,1.032-0.271,1.312-0.754l0.817-1.404l1.622-0.006c0.836-0.004,1.508-0.68,1.512-1.512l0.01-1.621l1.4-0.816
			c0.717-0.424,0.965-1.342,0.553-2.066l-0.807-1.408l0.807-1.408C44.799,40.234,44.549,39.314,43.832,38.895L43.832,38.895z
			 M40.775,41.215l-2.889,2.102l1.103,3.396c0.1,0.299-0.007,0.621-0.257,0.801c-0.127,0.09-0.274,0.139-0.422,0.139
			c-0.148,0-0.296-0.049-0.42-0.139l-2.892-2.102l-2.891,2.102c-0.249,0.182-0.592,0.182-0.842,0
			c-0.249-0.18-0.355-0.502-0.261-0.801l1.105-3.396l-2.893-2.102c-0.248-0.182-0.354-0.506-0.254-0.799
			c0.092-0.293,0.368-0.494,0.676-0.494h3.574l1.103-3.4c0.1-0.293,0.376-0.492,0.685-0.492c0.306,0,0.579,0.199,0.68,0.492
			l1.101,3.4h3.575c0.307,0,0.586,0.201,0.68,0.494C41.135,40.709,41.027,41.033,40.775,41.215L40.775,41.215z M40.775,41.215"/>
	</g>
</g>
</svg>
