<?xml version="1.0" encoding="utf-8"?>
<!-- Generator: Adobe Illustrator 16.0.0, SVG Export Plug-In . SVG Version: 6.00 Build 0)  -->
<!DOCTYPE svg PUBLIC "-//W3C//DTD SVG 1.1//EN" "http://www.w3.org/Graphics/SVG/1.1/DTD/svg11.dtd">
<svg version="1.1" id="Layer_1" xmlns="http://www.w3.org/2000/svg" xmlns:xlink="http://www.w3.org/1999/xlink" x="0px" y="0px"
	 width="70px" height="70px" viewBox="0 0 70 70" enable-background="new 0 0 70 70" xml:space="preserve">
<g>
	
		<rect x="38.432" y="32.385" transform="matrix(0.2324 0.9726 -0.9726 0.2324 84.2341 5.0279)" fill="#00AEB8" width="1" height="46.991"/>
	<path fill="#143156" d="M35.001,67.5C17.082,67.5,2.5,52.922,2.5,35c0-17.92,14.582-32.5,32.5-32.5S67.5,17.08,67.5,35
		C67.5,52.922,52.92,67.5,35.001,67.5z M35.001,5.381C18.67,5.381,5.381,18.668,5.381,35c0,16.334,13.289,29.621,29.62,29.621
		S64.619,51.334,64.619,35C64.619,18.668,51.332,5.381,35.001,5.381z"/>
	<g>
		<path fill="#143156" d="M26.288,33.65c0,0.264-0.168,0.482-0.376,0.482c0,0-1.565,0.002-2.214,0.002
			c-1.041,0-3.115,0.24-3.115,0.24c-0.208,0-0.375-0.219-0.375-0.482v-7.641c0-0.268,0.167-0.484,0.375-0.484
			c0,0,2.051-0.447,3.13-0.447c0.691,0,2.199,0,2.199,0c0.208,0,0.376,0.217,0.376,0.484V33.65z"/>
		<g>
			<path fill="#143156" d="M20.543,36.113c-0.24,0.057-0.382,0.297-0.322,0.527l0.019,0.074c0.061,0.227,0.282,0.361,0.512,0.309
				c4.964-1.156,9.441,0.699,10.714,1.305c0.207,0.1,0.451,0.02,0.559-0.18l0.039-0.068c0.121-0.217,0.034-0.488-0.189-0.594
				C30.496,36.818,25.845,34.873,20.543,36.113z"/>
			<path fill="#143156" d="M20.541,38.707c-0.237,0.053-0.379,0.295-0.319,0.527l0.019,0.072c0.061,0.225,0.282,0.361,0.512,0.311
				c4.964-1.158,9.441,0.701,10.709,1.303c0.207,0.1,0.452,0.018,0.559-0.18l0.039-0.064c0.121-0.217,0.036-0.486-0.188-0.6
				C30.491,39.41,25.839,37.465,20.541,38.707z"/>
			<path fill="#143156" d="M20.537,41.303c-0.233,0.057-0.375,0.297-0.315,0.535l0.019,0.068c0.061,0.225,0.282,0.361,0.512,0.311
				c4.964-1.16,9.441,0.703,10.709,1.303c0.207,0.098,0.452,0.018,0.559-0.18l0.036-0.064c0.119-0.215,0.034-0.486-0.189-0.6
				C30.488,42.012,25.836,40.062,20.537,41.303z"/>
			<path fill="#143156" d="M38.128,27.107c-0.223,0.107-0.311,0.379-0.188,0.596l0.039,0.068c0.106,0.197,0.352,0.279,0.559,0.178
				c1.269-0.6,5.745-2.461,10.71-1.301c0.227,0.051,0.451-0.088,0.512-0.312l0.018-0.072c0.059-0.232-0.082-0.475-0.318-0.531
				C44.16,24.494,39.508,26.439,38.128,27.107z"/>
			<path fill="#143156" d="M49.459,28.383c-5.299-1.24-9.951,0.705-11.331,1.371c-0.223,0.113-0.311,0.383-0.188,0.6l0.039,0.062
				c0.106,0.199,0.352,0.281,0.559,0.18c1.269-0.604,5.745-2.459,10.71-1.301c0.227,0.051,0.451-0.088,0.512-0.311l0.018-0.072
				C49.836,28.674,49.695,28.438,49.459,28.383z"/>
			<path fill="#143156" d="M49.459,30.861c-5.299-1.24-9.951,0.705-11.331,1.373c-0.223,0.111-0.311,0.383-0.188,0.598l0.039,0.068
				c0.106,0.199,0.352,0.283,0.559,0.182c1.269-0.604,5.745-2.463,10.71-1.305c0.227,0.053,0.451-0.086,0.512-0.309l0.018-0.074
				C49.836,31.162,49.695,30.922,49.459,30.861z"/>
			<path fill="#143156" d="M49.459,33.59c-5.305-1.238-9.961,0.707-11.334,1.373c-0.224,0.111-0.311,0.383-0.189,0.6l0.039,0.064
				c0.107,0.197,0.353,0.279,0.559,0.182c1.273-0.609,5.75-2.465,10.715-1.305c0.227,0.051,0.451-0.088,0.512-0.311l0.018-0.074
				C49.836,33.881,49.695,33.646,49.459,33.59z"/>
			<path fill="#143156" d="M49.455,36.113c-5.301-1.24-9.952,0.705-11.33,1.373c-0.224,0.105-0.311,0.377-0.189,0.594l0.039,0.068
				c0.107,0.199,0.353,0.279,0.559,0.18c1.273-0.605,5.75-2.461,10.715-1.305c0.227,0.053,0.451-0.082,0.512-0.309l0.018-0.074
				C49.836,36.41,49.695,36.17,49.455,36.113z"/>
			<path fill="#143156" d="M49.459,38.707c-5.299-1.242-9.951,0.703-11.331,1.369c-0.223,0.113-0.311,0.383-0.188,0.6l0.039,0.064
				c0.106,0.197,0.352,0.279,0.559,0.18c1.269-0.602,5.745-2.461,10.71-1.303c0.227,0.051,0.451-0.086,0.512-0.311l0.018-0.072
				C49.836,39.002,49.695,38.76,49.459,38.707z"/>
			<path fill="#143156" d="M49.463,41.303c-5.299-1.24-9.952,0.709-11.33,1.373c-0.225,0.113-0.309,0.385-0.189,0.6l0.036,0.064
				c0.106,0.197,0.352,0.277,0.559,0.18c1.269-0.6,5.745-2.463,10.71-1.303c0.227,0.051,0.451-0.086,0.512-0.311l0.018-0.068
				C49.836,41.6,49.695,41.359,49.463,41.303z"/>
			<path fill="#143156" d="M54.967,25.223c-0.325-0.328-0.894-0.785-1.635-0.922v-1.736c0-0.369-0.242-0.701-0.593-0.816
				c-1.154-0.379-3.858-1.143-6.845-1.143c-4.254,0-7.915,1.297-10.895,3.855c-2.98-2.559-6.641-3.855-10.895-3.855
				c-2.987,0-5.691,0.764-6.845,1.143c-0.351,0.115-0.593,0.447-0.593,0.816v1.736c-0.741,0.137-1.31,0.594-1.635,0.922
				c-0.204,0.203-0.315,0.473-0.315,0.762v22.908c0,0.396,0.346,0.686,0.717,0.641h14.944c0,0,0.299-0.027,0.384,0.043
				c0.081,0.066,0.111,0.166,0.163,0.264c0.472,0.889,2.114,1.545,4.075,1.545c1.994,0,3.66-0.68,4.097-1.592
				c0.041-0.084,0.049-0.168,0.117-0.225c0.065-0.051,0.306-0.035,0.306-0.035h15.045c0.372,0.045,0.718-0.244,0.718-0.641V25.984
				C55.282,25.695,55.171,25.426,54.967,25.223z M23.144,45.307c-2.016,0-3.801,0.311-5.32,0.922V22.76
				c0.886-0.299,3.304-0.994,6.281-0.994c3.548,0,7.11,1.246,9.791,3.197v12.576c0,0-0.012,0.186,0.185,0
				c0.113-0.105,0.39-0.291,0.613-0.438L34.683,47.82C32.881,47.096,27.916,45.307,23.144,45.307z M52.175,46.229
				c-1.519-0.611-3.304-0.922-5.319-0.922c-4.771,0-9.663,1.764-11.463,2.488L35.36,37.162l0.598,0.438c0,0,0.105,0.059,0.105-0.059
				c0-0.105,0-10.881,0-12.523c2.686-1.982,6.251-3.252,9.831-3.252c2.977,0,5.393,0.695,6.28,0.994V46.229z"/>
			<path fill="#143156" d="M31.871,27.107c-0.646-0.312-2.024-0.896-3.833-1.312c-0.205-0.047-0.406-0.09-0.622-0.133
				c-0.191,0.086-0.324,0.275-0.324,0.496c0,0.197,0.11,0.361,0.267,0.459c0.12,0.023,0.231,0.049,0.348,0.074
				c1.786,0.395,3.146,0.969,3.755,1.258c0.207,0.102,0.452,0.02,0.559-0.178l0.039-0.068C32.18,27.486,32.095,27.215,31.871,27.107
				z"/>
			<path fill="#143156" d="M31.871,29.754c-0.646-0.312-2.024-0.896-3.833-1.312c-0.205-0.047-0.406-0.09-0.622-0.133
				c-0.191,0.086-0.324,0.275-0.324,0.498c0,0.195,0.11,0.361,0.267,0.457c0.12,0.023,0.231,0.049,0.348,0.074
				c1.786,0.396,3.146,0.971,3.755,1.258c0.207,0.102,0.452,0.02,0.559-0.178l0.039-0.068C32.18,30.133,32.095,29.863,31.871,29.754
				z"/>
			<path fill="#143156" d="M31.896,32.301c-0.646-0.312-2.024-0.898-3.833-1.314c-0.204-0.045-0.406-0.09-0.622-0.131
				c-0.19,0.086-0.324,0.275-0.324,0.496c0,0.197,0.11,0.361,0.268,0.459c0.119,0.021,0.23,0.049,0.347,0.074
				c1.786,0.395,3.146,0.969,3.756,1.258c0.206,0.102,0.451,0.018,0.559-0.178l0.038-0.068
				C32.204,32.678,32.119,32.408,31.896,32.301z"/>
			<path fill="#143156" d="M31.896,34.963c-0.646-0.311-2.024-0.896-3.833-1.312c-0.204-0.045-0.406-0.09-0.622-0.131
				c-0.19,0.086-0.324,0.275-0.324,0.496c0,0.197,0.11,0.361,0.268,0.457c0.119,0.023,0.23,0.051,0.347,0.076
				c1.786,0.395,3.146,0.969,3.756,1.258c0.206,0.1,0.451,0.018,0.559-0.18l0.038-0.066C32.204,35.342,32.119,35.072,31.896,34.963z
				"/>
		</g>
	</g>
</g>
</svg>
