<?xml version="1.0" encoding="utf-8"?>
<!-- Generator: Adobe Illustrator 16.0.0, SVG Export Plug-In . SVG Version: 6.00 Build 0)  -->
<!DOCTYPE svg PUBLIC "-//W3C//DTD SVG 1.1//EN" "http://www.w3.org/Graphics/SVG/1.1/DTD/svg11.dtd">
<svg version="1.1" id="Layer_1" xmlns="http://www.w3.org/2000/svg" xmlns:xlink="http://www.w3.org/1999/xlink" x="0px" y="0px"
	 width="70px" height="70px" viewBox="0 0 70 70" enable-background="new 0 0 70 70" xml:space="preserve">
<g>
	
		<rect x="42.352" y="32.634" transform="matrix(0.3811 0.9245 -0.9245 0.3811 77.5355 -5.4676)" fill="#00AEB8" width="0.999" height="45.096"/>
	<path fill="#143156" d="M35.001,67.5C17.082,67.5,2.5,52.922,2.5,35c0-17.92,14.582-32.5,32.5-32.5S67.5,17.08,67.5,35
		C67.5,52.922,52.92,67.5,35.001,67.5z M35.001,5.381C18.67,5.381,5.381,18.668,5.381,35c0,16.334,13.289,29.621,29.62,29.621
		S64.619,51.334,64.619,35C64.619,18.668,51.332,5.381,35.001,5.381z"/>
	<g>
		<g>
			<path fill="#143156" d="M54.133,19.941c0-1.07-0.868-1.939-1.939-1.939h-33.9c-1.074,0-1.942,0.869-1.942,1.939
				c0,0.715,0.395,1.334,0.971,1.666v22.318c0.521-0.477,1.161-1.062,1.935-1.771V21.877h31.968v21.314H26.256
				c-0.646,0.709-1.239,1.355-1.77,1.936h1.708l-3.479,4.434c-0.28,1.037,0.336,2.094,1.371,2.373c1.028,0.27,2.096-0.34,2.37-1.373
				l3.493-4.465h10.584l3.494,4.465c0.23,0.865,1.014,1.436,1.867,1.436c0.168,0,0.332-0.018,0.502-0.062
				c1.037-0.279,1.646-1.342,1.373-2.373l-3.482-4.434h7.906c0.536,0,0.97-0.434,0.97-0.967V21.607
				C53.739,21.275,54.133,20.656,54.133,19.941L54.133,19.941z M54.133,19.941"/>
			<path fill="#143156" d="M37.894,39.816v-5.711c0-0.842-0.75-1.523-1.676-1.523c-0.928,0-1.68,0.682-1.68,1.523v5.711
				c0,0.84,0.752,1.52,1.68,1.52C37.144,41.336,37.894,40.652,37.894,39.816L37.894,39.816z M37.894,39.816"/>
			<path fill="#143156" d="M43.346,39.66V27.492c0-0.924-0.752-1.676-1.676-1.676c-0.928,0-1.679,0.752-1.679,1.676v12.164
				c0,0.928,0.751,1.68,1.679,1.68C42.594,41.336,43.346,40.584,43.346,39.66L43.346,39.66z M43.346,39.66"/>
			<path fill="#143156" d="M48.799,39.66v-8.812c0-0.926-0.752-1.676-1.676-1.676c-0.928,0-1.68,0.75-1.68,1.676v8.812
				c0,0.928,0.752,1.676,1.68,1.676C48.047,41.336,48.799,40.584,48.799,39.66L48.799,39.66z M48.799,39.66"/>
			<path fill="#143156" d="M29.938,35.629c-0.187-0.182-0.484-0.182-0.669,0c0,0-12.971,11.857-13.033,11.92
				c-0.49,0.492-0.49,1.289,0,1.781c0.491,0.49,1.293,0.49,1.785,0c0.062-0.062,11.917-13.029,11.917-13.029
				C30.123,36.115,30.123,35.812,29.938,35.629L29.938,35.629z M29.938,35.629"/>
			<g>
				<path fill="#143156" d="M26.025,34.389c2.595,0,4.738-1.941,5.056-4.447c0.044-0.346-0.227-0.652-0.574-0.652h-3.613
					c-0.479,0-0.869-0.389-0.869-0.869v-3.615c0-0.348-0.307-0.617-0.652-0.574c-2.508,0.322-4.445,2.465-4.445,5.059
					C20.927,32.109,23.204,34.389,26.025,34.389L26.025,34.389z M26.025,34.389"/>
				<path fill="#143156" d="M27.426,23.502c-0.344-0.045-0.648,0.227-0.648,0.572v3.904c0,0.32,0.259,0.58,0.58,0.58h3.905
					c0.346,0,0.618-0.303,0.574-0.648C31.545,25.613,29.726,23.793,27.426,23.502L27.426,23.502z M27.426,23.502"/>
			</g>
		</g>
	</g>
</g>
</svg>
