<?xml version="1.0" encoding="utf-8"?>
<!-- Generator: Adobe Illustrator 16.0.0, SVG Export Plug-In . SVG Version: 6.00 Build 0)  -->
<!DOCTYPE svg PUBLIC "-//W3C//DTD SVG 1.1//EN" "http://www.w3.org/Graphics/SVG/1.1/DTD/svg11.dtd">
<svg version="1.1" id="Layer_1" xmlns="http://www.w3.org/2000/svg" xmlns:xlink="http://www.w3.org/1999/xlink" x="0px" y="0px"
	 width="70px" height="70px" viewBox="0 0 70 70" enable-background="new 0 0 70 70" xml:space="preserve">
<g>
	
		<rect x="-8.331" y="39.816" transform="matrix(0.2415 0.9704 -0.9704 0.2415 50.8904 15.521)" fill="#00AEB8" width="47.695" height="1"/>
	<path fill="#143156" d="M35.001,67.499c-17.919,0-32.501-14.578-32.501-32.5C2.5,17.08,17.082,2.5,35.001,2.5
		C52.922,2.5,67.5,17.08,67.5,34.999C67.5,52.921,52.922,67.499,35.001,67.499z M35.001,5.38C18.67,5.38,5.38,18.669,5.38,34.999
		c0,16.333,13.29,29.62,29.621,29.62c16.333,0,29.619-13.287,29.619-29.62C64.62,18.669,51.334,5.38,35.001,5.38z"/>
	<g>
		<path fill="#143156" d="M25.748,49.31c-1.447,0-2.627-1.179-2.627-2.617V23.146c0-1.447,1.18-2.622,2.627-2.622h18.375
			c1.451,0,2.627,1.175,2.627,2.622l0.001,16.395l3.444-4.041V20.627c0-1.905-1.548-3.452-3.451-3.452H23.003
			c-1.834,0-3.324,1.487-3.324,3.312v28.812c0,1.905,1.547,3.445,3.459,3.445h16.736l-3.995-3.434H25.748z"/>
		<path fill="#143156" d="M34.135,40.815c1.021-1.185,2.493-1.856,4.044-1.856c1.266,0,2.488,0.45,3.448,1.271l1.103,0.946
			c0.854-0.086,1.515-0.772,1.515-1.648c0-0.927-0.751-1.672-1.69-1.672H27.315c-0.936,0-1.689,0.745-1.689,1.672
			c0,0.937,0.754,1.665,1.689,1.665h6.555C33.96,41.069,34.029,40.934,34.135,40.815z"/>
		<path fill="#143156" d="M27.315,43.287c-0.936,0-1.689,0.736-1.689,1.668c0,0.935,0.754,1.688,1.689,1.688h6.102
			c-0.516-1.043-0.653-2.222-0.443-3.355H27.315z"/>
		<path fill="#143156" d="M57.516,35.105c-1.155-0.992-2.912-0.852-3.901,0.314l-3.419,4.01l-3.444,4.038l-2.229,2.612l-0.452-0.39
			l-2.798-2.403l-1.303-1.118c-1.157-0.99-2.9-0.852-3.9,0.304c-0.21,0.247-0.359,0.525-0.472,0.814
			c-0.401,1.061-0.134,2.304,0.775,3.085l0.315,0.271l3.104,2.667l3.229,2.776c0.478,0.402,1.058,0.627,1.67,0.657h0.422
			c0.707-0.078,1.363-0.413,1.821-0.95l3.262-3.825l7.643-8.964C58.82,37.849,58.689,36.102,57.516,35.105z"/>
		<path fill="#143156" d="M42.893,35.191h-0.502v-3.818c0-0.059-0.032-0.113-0.083-0.139l-2.754-1.395
			c-0.104-0.052-0.226,0.022-0.226,0.138v0.881c0,0.115-0.118,0.19-0.221,0.14l-2.38-1.163c-0.103-0.051-0.223,0.024-0.223,0.139
			v0.885c0,0.115-0.12,0.19-0.224,0.14l-2.379-1.163c-0.102-0.051-0.224,0.024-0.224,0.139v5.218h-0.427V24.838
			c0-0.085-0.069-0.154-0.154-0.154H32.73c-0.086,0-0.154-0.069-0.154-0.154v-1.986c0-0.086-0.069-0.155-0.155-0.155h-3.289
			c-0.086,0-0.155,0.069-0.155,0.155v1.986c0,0.085-0.067,0.154-0.153,0.154h-0.366c-0.086,0-0.155,0.069-0.155,0.154v10.354h-0.362
			c-0.086,0-0.153,0.07-0.153,0.154v0.405c0,0.085,0.067,0.153,0.153,0.153h14.953c0.086,0,0.156-0.068,0.156-0.153v-0.405
			C43.049,35.262,42.979,35.191,42.893,35.191L42.893,35.191z M28.81,33.557v-7.764c0-0.087,0.067-0.156,0.154-0.156h0.316
			c0.084,0,0.152,0.069,0.152,0.156v7.764c0,0.087-0.068,0.156-0.152,0.156h-0.316C28.877,33.713,28.81,33.644,28.81,33.557
			L28.81,33.557z M30.315,35.191h-1.307v-0.409c0-0.085,0.069-0.154,0.153-0.154h0.998c0.086,0,0.155,0.069,0.155,0.154V35.191z
			 M30.536,33.557c0,0.087-0.067,0.156-0.153,0.156h-0.315c-0.086,0-0.155-0.069-0.155-0.156v-7.764
			c0-0.087,0.069-0.156,0.155-0.156h0.315c0.086,0,0.153,0.069,0.153,0.156V33.557z M31.017,33.557v-7.764
			c0-0.087,0.069-0.156,0.153-0.156h0.317c0.084,0,0.153,0.069,0.153,0.156v7.764c0,0.087-0.069,0.156-0.153,0.156H31.17
			C31.086,33.713,31.017,33.644,31.017,33.557L31.017,33.557z M32.545,35.191h-1.307v-0.409c0-0.085,0.071-0.154,0.155-0.154h0.997
			c0.085,0,0.154,0.069,0.154,0.154V35.191z M32.745,33.557c0,0.087-0.069,0.156-0.155,0.156h-0.315
			c-0.084,0-0.153-0.069-0.153-0.156v-7.764c0-0.087,0.069-0.156,0.153-0.156h0.315c0.086,0,0.155,0.069,0.155,0.156V33.557z
			 M35.7,34.239c0,0.087-0.071,0.155-0.155,0.155h-0.413c-0.084,0-0.153-0.068-0.153-0.155v-1.267c0-0.085,0.069-0.154,0.153-0.154
			h0.413c0.084,0,0.155,0.069,0.155,0.154V34.239z M38.411,34.239c0,0.087-0.069,0.155-0.155,0.155h-0.41
			c-0.087,0-0.156-0.068-0.156-0.155v-1.267c0-0.085,0.069-0.154,0.156-0.154h0.41c0.086,0,0.155,0.069,0.155,0.154V34.239z
			 M41.123,34.239c0,0.087-0.069,0.155-0.154,0.155h-0.412c-0.085,0-0.155-0.068-0.155-0.155v-1.267c0-0.085,0.07-0.154,0.155-0.154
			h0.412c0.085,0,0.154,0.069,0.154,0.154V34.239z M41.123,34.239"/>
	</g>
</g>
</svg>
