<?xml version="1.0" encoding="utf-8"?>
<!-- Generator: Adobe Illustrator 16.0.0, SVG Export Plug-In . SVG Version: 6.00 Build 0)  -->
<!DOCTYPE svg PUBLIC "-//W3C//DTD SVG 1.1//EN" "http://www.w3.org/Graphics/SVG/1.1/DTD/svg11.dtd">
<svg version="1.1" id="Layer_1" xmlns="http://www.w3.org/2000/svg" xmlns:xlink="http://www.w3.org/1999/xlink" x="0px" y="0px"
	 width="70px" height="70px" viewBox="0 0 70 70" enable-background="new 0 0 70 70" xml:space="preserve">
<g>
	
		<rect x="49.749" y="21.115" transform="matrix(0.8088 0.5881 -0.5881 0.8088 36.4573 -20.8199)" fill="#00AEB8" width="1" height="49.09"/>
	<path fill="#143156" d="M35.001,67.5C17.082,67.5,2.5,52.922,2.5,35c0-17.92,14.582-32.5,32.5-32.5S67.5,17.08,67.5,35
		C67.5,52.922,52.92,67.5,35.001,67.5z M35.001,5.379C18.67,5.379,5.381,18.668,5.381,35s13.289,29.619,29.62,29.619
		S64.619,51.332,64.619,35S51.332,5.379,35.001,5.379z"/>
	<g>
		<path fill="#143156" d="M45.746,32.262c-1.357-1.91-3.201-3.395-5.332-4.34v-2.52h0.648c1.791,0,3.232-1.486,3.232-3.279v-2.029
			c0-1.791-1.441-3.215-3.232-3.215H28.926c-1.797,0-3.28,1.424-3.28,3.215v2.029c0,1.793,1.483,3.279,3.28,3.279h0.602v2.531
			c-4.642,2.137-7.715,6.83-7.715,12.006c0,7.27,5.922,13.182,13.199,13.182c7.268,0,13.176-5.912,13.176-13.182
			C48.188,37.152,47.338,34.494,45.746,32.262L45.746,32.262z M35.017,50.053c-5.586,0-10.13-4.537-10.13-10.113
			c0-4.25,2.678-8.086,6.691-9.533c0.605-0.221,0.993-0.797,0.993-1.443v-5.387c0-0.703-0.536-1.293-1.238-1.293h-2.071
			c-0.288,0-0.493-0.209-0.493-0.494v-1.361c0-0.283,0.205-0.502,0.493-0.502h11.467c0.283,0,0.518,0.219,0.518,0.502v1.361
			c0,0.285-0.234,0.494-0.518,0.494h-2.072c-0.706,0-1.289,0.59-1.289,1.293v5.387c0,0.654,0.42,1.232,1.037,1.453
			c4.08,1.414,6.721,5.156,6.721,9.523C45.125,45.516,40.592,50.053,35.017,50.053L35.017,50.053z M35.017,50.053"/>
		<path fill="#143156" d="M39.322,36.396c0,0.969-0.786,1.756-1.758,1.756c-0.969,0-1.757-0.787-1.757-1.756
			c0-0.973,0.788-1.758,1.757-1.758C38.536,34.639,39.322,35.424,39.322,36.396L39.322,36.396z M39.322,36.396"/>
		<path fill="#143156" d="M35.435,32.504c0,0.547-0.446,0.994-0.997,0.994c-0.548,0-0.994-0.447-0.994-0.994
			c0-0.553,0.446-1,0.994-1C34.988,31.504,35.435,31.951,35.435,32.504L35.435,32.504z M35.435,32.504"/>
		<path fill="#143156" d="M34.32,39.533c0-1.564-1.271-2.84-2.841-2.84c-1.571,0-2.843,1.275-2.843,2.84
			c0,0.275,0.038,0.562,0.113,0.791h-2.351c0.164,4.639,3.953,8.316,8.609,8.316c4.663,0,8.445-3.678,8.607-8.316H34.21
			C34.283,40.096,34.32,39.809,34.32,39.533L34.32,39.533z M34.32,39.533"/>
	</g>
</g>
</svg>
