<?xml version="1.0" encoding="utf-8"?>
<!-- Generator: Adobe Illustrator 16.0.0, SVG Export Plug-In . SVG Version: 6.00 Build 0)  -->
<!DOCTYPE svg PUBLIC "-//W3C//DTD SVG 1.1//EN" "http://www.w3.org/Graphics/SVG/1.1/DTD/svg11.dtd">
<svg version="1.1" id="Layer_1" xmlns="http://www.w3.org/2000/svg" xmlns:xlink="http://www.w3.org/1999/xlink" x="0px" y="0px"
	 width="70px" height="70px" viewBox="0 0 70 70" enable-background="new 0 0 70 70" xml:space="preserve">
<g>
	
		<rect x="7.354" y="54.626" transform="matrix(0.9797 0.2006 -0.2006 0.9797 11.6878 -5.1118)" fill="#00AEB8" width="47.433" height="0.999"/>
	<path fill="#143156" d="M35.001,67.5C17.082,67.5,2.5,52.922,2.5,35c0-17.92,14.582-32.5,32.5-32.5S67.5,17.08,67.5,35
		C67.5,52.922,52.92,67.5,35.001,67.5z M35.001,5.379C18.67,5.379,5.381,18.668,5.381,35s13.289,29.619,29.62,29.619
		S64.619,51.332,64.619,35S51.332,5.379,35.001,5.379z"/>
	<g>
		<path fill="#143156" d="M38.128,27.252c-0.223,0.107-0.311,0.379-0.188,0.596l0.039,0.068c0.106,0.197,0.352,0.279,0.559,0.178
			c1.269-0.6,5.745-2.461,10.71-1.301c0.227,0.051,0.451-0.088,0.512-0.312l0.018-0.072c0.059-0.232-0.082-0.475-0.318-0.531
			C44.16,24.639,39.508,26.584,38.128,27.252z"/>
		<path fill="#143156" d="M49.459,28.527c-5.299-1.24-9.951,0.705-11.331,1.371c-0.223,0.113-0.311,0.383-0.188,0.6l0.039,0.062
			c0.106,0.199,0.352,0.281,0.559,0.18c1.269-0.604,5.745-2.459,10.71-1.301c0.227,0.051,0.451-0.088,0.512-0.311l0.018-0.072
			C49.836,28.818,49.695,28.582,49.459,28.527z"/>
		<path fill="#143156" d="M49.459,31.006c-5.299-1.24-9.951,0.705-11.331,1.373c-0.223,0.111-0.311,0.383-0.188,0.598l0.039,0.068
			c0.106,0.199,0.352,0.283,0.559,0.182c1.269-0.604,5.745-2.463,10.71-1.305c0.227,0.053,0.451-0.086,0.512-0.309l0.018-0.074
			C49.836,31.307,49.695,31.066,49.459,31.006z"/>
		<path fill="#143156" d="M49.459,33.734c-5.305-1.238-9.961,0.707-11.334,1.373c-0.224,0.111-0.311,0.383-0.189,0.6l0.039,0.064
			c0.107,0.197,0.353,0.279,0.559,0.182c1.273-0.609,5.75-2.465,10.715-1.305c0.227,0.051,0.451-0.088,0.512-0.311l0.018-0.074
			C49.836,34.025,49.695,33.791,49.459,33.734z"/>
		<path fill="#143156" d="M49.455,36.258c-5.301-1.24-9.952,0.705-11.33,1.373c-0.224,0.105-0.311,0.377-0.189,0.594l0.039,0.068
			c0.107,0.199,0.353,0.279,0.559,0.18c1.273-0.605,5.75-2.461,10.715-1.305c0.227,0.053,0.451-0.084,0.512-0.309l0.018-0.074
			C49.836,36.555,49.695,36.314,49.455,36.258z"/>
		<path fill="#143156" d="M49.459,38.85c-5.299-1.24-9.951,0.705-11.331,1.371c-0.223,0.113-0.311,0.383-0.188,0.6l0.039,0.064
			c0.106,0.197,0.352,0.279,0.559,0.18c1.269-0.602,5.745-2.461,10.71-1.303c0.227,0.051,0.451-0.086,0.512-0.311l0.018-0.072
			C49.836,39.146,49.695,38.904,49.459,38.85z"/>
		<path fill="#143156" d="M49.463,41.447c-5.299-1.24-9.952,0.709-11.33,1.373c-0.225,0.113-0.309,0.385-0.189,0.6l0.036,0.064
			c0.106,0.197,0.352,0.277,0.559,0.18c1.269-0.6,5.745-2.463,10.71-1.303c0.227,0.051,0.451-0.086,0.512-0.311l0.018-0.068
			C49.836,41.744,49.695,41.504,49.463,41.447z"/>
		<path fill="#143156" d="M54.967,25.367c-0.325-0.328-0.894-0.785-1.635-0.922v-1.736c0-0.369-0.242-0.701-0.593-0.816
			c-1.154-0.379-3.858-1.143-6.845-1.143c-4.254,0-7.915,1.297-10.895,3.855c-2.98-2.559-6.641-3.855-10.895-3.855
			c-2.987,0-5.691,0.764-6.845,1.143c-0.351,0.115-0.593,0.447-0.593,0.816v1.736c-0.741,0.137-1.31,0.594-1.635,0.922
			c-0.204,0.203-0.315,0.473-0.315,0.762v22.908c0,0.396,0.346,0.686,0.717,0.641h14.944c0,0,0.299-0.027,0.384,0.043
			c0.081,0.066,0.111,0.166,0.163,0.264c0.472,0.889,2.114,1.545,4.075,1.545c1.994,0,3.66-0.68,4.097-1.592
			c0.041-0.084,0.049-0.168,0.117-0.225c0.065-0.051,0.306-0.035,0.306-0.035h15.045c0.372,0.045,0.718-0.244,0.718-0.641V26.129
			C55.282,25.84,55.171,25.57,54.967,25.367z M23.144,45.451c-2.016,0-3.801,0.311-5.32,0.922V22.904
			c0.886-0.299,3.304-0.994,6.281-0.994c3.548,0,7.11,1.246,9.791,3.197v12.576c0,0-0.012,0.186,0.185,0
			c0.113-0.105,0.39-0.291,0.613-0.438l-0.011,10.719C32.881,47.24,27.916,45.451,23.144,45.451z M52.175,46.373
			c-1.519-0.611-3.304-0.922-5.319-0.922c-4.771,0-9.663,1.764-11.463,2.488L35.36,37.307l0.598,0.438c0,0,0.105,0.057,0.105-0.059
			c0-0.105,0-10.881,0-12.523c2.686-1.982,6.251-3.252,9.831-3.252c2.977,0,5.393,0.695,6.28,0.994V46.373z"/>
		<path fill="#143156" d="M25.729,41.137c-0.044-0.004-0.09-0.004-0.134-0.008c-1.547-0.141-3.258-0.104-5.059,0.318
			c-0.233,0.057-0.375,0.297-0.315,0.535l0.019,0.068c0.061,0.225,0.282,0.361,0.512,0.311c1.697-0.396,3.325-0.424,4.801-0.287
			c0.056,0.006,0.114,0.006,0.169,0.014c0.253-0.039,0.456-0.227,0.456-0.477C26.177,41.363,25.977,41.178,25.729,41.137z"/>
		<path fill="#143156" d="M25.729,38.854c-0.044-0.004-0.09-0.004-0.134-0.01c-1.547-0.139-3.258-0.102-5.059,0.32
			c-0.233,0.057-0.375,0.297-0.315,0.533l0.019,0.07c0.061,0.223,0.282,0.361,0.512,0.311c1.697-0.398,3.325-0.426,4.801-0.287
			c0.056,0.006,0.114,0.006,0.169,0.012c0.253-0.037,0.456-0.225,0.456-0.477C26.177,39.08,25.977,38.895,25.729,38.854z"/>
	</g>
</g>
</svg>
