<?xml version="1.0" encoding="utf-8"?>
<!-- Generator: Adobe Illustrator 16.0.0, SVG Export Plug-In . SVG Version: 6.00 Build 0)  -->
<!DOCTYPE svg PUBLIC "-//W3C//DTD SVG 1.1//EN" "http://www.w3.org/Graphics/SVG/1.1/DTD/svg11.dtd">
<svg version="1.1" id="Layer_1" xmlns="http://www.w3.org/2000/svg" xmlns:xlink="http://www.w3.org/1999/xlink" x="0px" y="0px"
	 width="70px" height="70px" viewBox="0 0 70 70" enable-background="new 0 0 70 70" xml:space="preserve">
<g>
	
		<rect x="22.593" y="27.81" transform="matrix(0.4442 0.8959 -0.8959 0.4442 52.9685 -28.7683)" fill="#00AEB8" width="54.158" height="0.999"/>
	<path fill="#143156" d="M35.001,67.5C17.082,67.5,2.5,52.922,2.5,35c0-17.92,14.582-32.5,32.5-32.5S67.5,17.08,67.5,35
		C67.5,52.922,52.92,67.5,35.001,67.5z M35.001,5.38C18.67,5.38,5.381,18.668,5.381,35c0,16.333,13.289,29.62,29.62,29.62
		S64.619,51.333,64.619,35C64.619,18.668,51.332,5.38,35.001,5.38z"/>
	<g>
		<path fill="#143156" d="M48.049,41.809v-5.176c0-1.804-1.463-3.265-3.262-3.265h-8.154V28.19c1.899-0.672,3.261-2.475,3.261-4.606
			c0-2.704-2.19-4.893-4.894-4.893s-4.894,2.189-4.894,4.893c0,2.131,1.361,3.934,3.262,4.606v5.177h-8.154
			c-1.801,0-3.262,1.461-3.262,3.265v5.176c-1.899,0.673-3.261,2.476-3.261,4.607c0,2.699,2.19,4.893,4.894,4.893
			c2.699,0,4.893-2.194,4.893-4.893c0-2.131-1.364-3.934-3.264-4.607v-5.176h19.573v5.176c-1.9,0.673-3.266,2.476-3.266,4.607
			c0,2.699,2.191,4.893,4.893,4.893c2.703,0,4.894-2.194,4.894-4.893C51.308,44.285,49.947,42.481,48.049,41.809L48.049,41.809z
			 M23.585,48.047c-0.9,0-1.633-0.733-1.633-1.632c0-0.9,0.732-1.629,1.633-1.629c0.899,0,1.629,0.729,1.629,1.629
			C25.214,47.314,24.485,48.047,23.585,48.047L23.585,48.047z M35,25.213c-0.9,0-1.632-0.729-1.632-1.628
			c0-0.904,0.731-1.632,1.632-1.632s1.633,0.729,1.633,1.632C36.633,24.484,35.9,25.213,35,25.213L35,25.213z M46.414,48.047
			c-0.898,0-1.627-0.733-1.627-1.632c0-0.9,0.729-1.629,1.627-1.629c0.9,0,1.635,0.729,1.635,1.629
			C48.049,47.314,47.314,48.047,46.414,48.047L46.414,48.047z M46.414,48.047"/>
	</g>
</g>
</svg>
