<?xml version="1.0" encoding="utf-8"?>
<!-- Generator: Adobe Illustrator 16.0.0, SVG Export Plug-In . SVG Version: 6.00 Build 0)  -->
<!DOCTYPE svg PUBLIC "-//W3C//DTD SVG 1.1//EN" "http://www.w3.org/Graphics/SVG/1.1/DTD/svg11.dtd">
<svg version="1.1" id="Layer_1" xmlns="http://www.w3.org/2000/svg" xmlns:xlink="http://www.w3.org/1999/xlink" x="0px" y="0px"
	 width="70px" height="70px" viewBox="0 0 70 70" enable-background="new 0 0 70 70" xml:space="preserve">
<g>
	
		<rect x="20.533" y="-2.025" transform="matrix(0.7579 0.6524 -0.6524 0.7579 20.0805 -8.1594)" fill="#00AEB8" width="1" height="49.997"/>
	<path fill="#143156" d="M35.001,67.758c-17.919,0-32.5-14.578-32.5-32.5c0-17.92,14.582-32.5,32.5-32.5S67.5,17.338,67.5,35.258
		C67.5,53.18,52.92,67.758,35.001,67.758z M35.001,5.639c-16.331,0-29.62,13.287-29.62,29.619c0,16.334,13.289,29.621,29.62,29.621
		s29.618-13.287,29.618-29.621C64.619,18.926,51.332,5.639,35.001,5.639z"/>
	<g>
		<path fill="#143156" d="M49.395,31.521c0,0.119-0.098,0.213-0.215,0.213H20.821c-0.121,0-0.215-0.094-0.215-0.213v-1.395
			c0-0.119,0.094-0.211,0.215-0.211H49.18c0.117,0,0.215,0.092,0.215,0.211V31.521z"/>
		<g>
			<path fill="#143156" d="M26.252,46.23c0,0.123-0.094,0.215-0.213,0.215h-2.462c-0.113,0-0.213-0.092-0.213-0.215V30.934
				c0-0.119,0.1-0.215,0.213-0.215h2.462c0.119,0,0.213,0.096,0.213,0.215V46.23z"/>
			<path fill="#143156" d="M33.046,46.23c0,0.123-0.095,0.215-0.216,0.215h-2.46c-0.115,0-0.213-0.092-0.213-0.215V30.934
				c0-0.119,0.098-0.215,0.213-0.215h2.46c0.121,0,0.216,0.096,0.216,0.215V46.23z"/>
			<path fill="#143156" d="M39.839,46.23c0,0.123-0.094,0.215-0.214,0.215H37.17c-0.121,0-0.218-0.092-0.218-0.215V30.934
				c0-0.119,0.097-0.215,0.218-0.215h2.455c0.12,0,0.214,0.096,0.214,0.215V46.23z"/>
			<path fill="#143156" d="M46.633,46.23c0,0.123-0.096,0.215-0.215,0.215h-2.459c-0.117,0-0.217-0.092-0.217-0.215V30.934
				c0-0.119,0.1-0.215,0.217-0.215h2.459c0.119,0,0.215,0.096,0.215,0.215V46.23z"/>
		</g>
		<path fill="#143156" d="M49.395,48.842c0,0.135-0.098,0.242-0.215,0.242H20.821c-0.121,0-0.215-0.107-0.215-0.242v-1.578
			c0-0.133,0.094-0.244,0.215-0.244H49.18c0.117,0,0.215,0.111,0.215,0.244V48.842z"/>
		<path fill="#143156" d="M50.512,50.967c0,0.105-0.094,0.189-0.215,0.189H19.704c-0.121,0-0.215-0.084-0.215-0.189v-1.939
			c0-0.105,0.094-0.189,0.215-0.189h30.593c0.121,0,0.215,0.084,0.215,0.189V50.967z"/>
		<path fill="#143156" d="M18.541,28.984c-0.152-0.154,0.157-0.346,0.157-0.346l15.462-9.012c0,0,0.548-0.266,0.946-0.266
			c0.506,0,0.91,0.242,0.91,0.242l15.27,8.885c0,0,0.375,0.238,0.135,0.477c-0.139,0.145-0.601,0.109-0.601,0.109H18.898
			C18.898,29.074,18.646,29.086,18.541,28.984z"/>
	</g>
</g>
</svg>
