<?xml version="1.0" encoding="utf-8"?>
<!-- Generator: Adobe Illustrator 16.0.0, SVG Export Plug-In . SVG Version: 6.00 Build 0)  -->
<!DOCTYPE svg PUBLIC "-//W3C//DTD SVG 1.1//EN" "http://www.w3.org/Graphics/SVG/1.1/DTD/svg11.dtd">
<svg version="1.1" id="Layer_1" xmlns="http://www.w3.org/2000/svg" xmlns:xlink="http://www.w3.org/1999/xlink" x="0px" y="0px"
	 width="70px" height="70px" viewBox="0 0 70 70" enable-background="new 0 0 70 70" xml:space="preserve">
<g>
	
		<rect x="16.439" y="3.615" transform="matrix(0.9231 0.3847 -0.3847 0.9231 11.7621 -4.4237)" fill="#00AEB8" width="1" height="47.15"/>
	<path fill="#143156" d="M35.001,67.5C17.082,67.5,2.5,52.922,2.5,35c0-17.92,14.582-32.5,32.5-32.5S67.5,17.08,67.5,35
		C67.5,52.922,52.92,67.5,35.001,67.5z M35.001,5.379C18.67,5.379,5.381,18.668,5.381,35s13.289,29.619,29.62,29.619
		S64.619,51.332,64.619,35S51.332,5.379,35.001,5.379z"/>
	<g>
		<g>
			<g>
				<path fill="#143156" d="M46.615,34.461c-4.688,0-8.5,3.812-8.5,8.498c0,4.688,3.812,8.5,8.5,8.5c4.687,0,8.497-3.812,8.497-8.5
					C55.112,38.273,51.302,34.461,46.615,34.461L46.615,34.461z M46.615,49.695c-3.715,0-6.736-3.021-6.736-6.736
					c0-3.713,3.021-6.734,6.736-6.734c3.713,0,6.733,3.021,6.733,6.734C53.349,46.674,50.328,49.695,46.615,49.695L46.615,49.695z
					 M46.615,49.695"/>
				<path fill="#143156" d="M49.24,38.65c-0.186-0.096-0.893-0.412-2.172-0.412c-2.855,0-4.773,1.928-4.773,4.799
					c0,2.822,1.773,4.648,4.518,4.648c1.143,0,1.99-0.229,2.402-0.441c0.115-0.057,0.174-0.188,0.143-0.312l-0.217-0.895
					c-0.02-0.082-0.076-0.15-0.152-0.186c-0.076-0.037-0.162-0.037-0.238,0.002c-0.42,0.201-1.072,0.33-1.707,0.33
					c-1.889,0-3.016-1.189-3.016-3.186c0-2.049,1.15-3.273,3.08-3.273c0.6,0,1.184,0.119,1.6,0.328
					c0.074,0.037,0.16,0.041,0.234,0.008c0.074-0.031,0.133-0.096,0.156-0.174l0.279-0.906C49.418,38.852,49.361,38.713,49.24,38.65
					L49.24,38.65z M49.24,38.65"/>
			</g>
		</g>
		<g>
			<path fill="#143156" d="M28.303,32.24l5.837,5.457l-7.28,7.785l-5.838-5.457l1.532-1.637l1.442,1.348l0.717-0.766l-1.442-1.348
				l2.29-2.455l1.39,1.299l0.713-0.766l-1.386-1.299L28.303,32.24z M34.436,28.691l-1.409-1.322l-0.717,0.766l1.409,1.318
				L34.436,28.691z M37.078,25.713l-1.413-1.324l-0.717,0.768l1.413,1.318L37.078,25.713z M45.387,21.777l-1.855,1.984l4.121,3.857
				L27.086,49.615l-4.33-4.045l-4.826,5.156l-3.635,0.803l6.919-7.4l-4.244-3.971l20.565-21.996l4.584,4.285l1.859-1.986
				l-4.014-3.75l2.602-2.777l8.722,8.148l-2.601,2.779L45.387,21.777z M42.379,24.988l-8.32,8.902l1.954,1.826l-1.11,1.186
				l-5.837-5.457l1.11-1.186l2.479,2.32l8.325-8.904l-3.363-3.141L19.343,40.08l7.661,7.162l18.275-19.547L42.379,24.988z
				 M42.379,24.988"/>
		</g>
	</g>
</g>
</svg>
