<?xml version="1.0" encoding="utf-8"?>
<!-- Generator: Adobe Illustrator 16.0.0, SVG Export Plug-In . SVG Version: 6.00 Build 0)  -->
<!DOCTYPE svg PUBLIC "-//W3C//DTD SVG 1.1//EN" "http://www.w3.org/Graphics/SVG/1.1/DTD/svg11.dtd">
<svg version="1.1" id="Layer_1" xmlns="http://www.w3.org/2000/svg" xmlns:xlink="http://www.w3.org/1999/xlink" x="0px" y="0px"
	 width="70px" height="70px" viewBox="0 0 70 70" enable-background="new 0 0 70 70" xml:space="preserve">
<g>
	
		<rect x="24.578" y="25.339" transform="matrix(0.5337 0.8456 -0.8456 0.5337 45.1552 -30.2199)" fill="#00AEB8" width="50.809" height="1"/>
	<path fill="#143156" d="M35.001,67.5C17.082,67.5,2.5,52.922,2.5,35c0-17.92,14.582-32.5,32.5-32.5S67.5,17.08,67.5,35
		C67.5,52.922,52.92,67.5,35.001,67.5z M35.001,5.379C18.67,5.379,5.381,18.668,5.381,35s13.289,29.619,29.62,29.619
		S64.619,51.332,64.619,35S51.332,5.379,35.001,5.379z"/>
	<g>
		<path fill="#143156" d="M27.274,47.838c-0.452,0-0.82-0.367-0.82-0.818v-8.352h3.537c0.222,0,0.431-0.123,0.539-0.316l0.465-0.84
			l2.391,4.277c0.242,0.434,0.876,0.414,1.09-0.037l3.268-6.879l1.23,3.391c0.089,0.24,0.319,0.404,0.578,0.404h3.246v6.445h3.783
			V23.688c0-0.68-0.549-1.227-1.229-1.227h-3.6v2.389h0.229c0.451,0,0.82,0.367,0.82,0.82v11.016h-2.289l-2.02-5.568
			c-0.185-0.514-0.897-0.545-1.13-0.055l-3.538,7.445l-2.297-4.104c-0.233-0.422-0.84-0.418-1.072,0l-1.268,2.285h-2.729V25.67
			c-0.004-0.457,0.364-0.82,0.816-0.82h0.229v-2.389h-3.605c-0.679,0-1.229,0.547-1.229,1.227v28.1c0,0.68,0.55,1.23,1.229,1.23
			h7.927v-5.18H27.274z"/>
		<path fill="#143156" d="M30.171,25.816h8.917c0.679,0,1.23-0.549,1.23-1.23v-2.547c0-0.125-0.021-0.244-0.056-0.359
			c-0.154-0.504-0.621-0.869-1.175-0.869h-1.567c0.005-0.07,0.01-0.137,0.01-0.205c0-0.176-0.016-0.344-0.046-0.514
			c-0.046-0.25-0.122-0.49-0.226-0.717c-0.467-0.992-1.468-1.676-2.632-1.676c-1.163,0-2.165,0.684-2.627,1.672
			c-0.108,0.225-0.185,0.467-0.227,0.719c-0.028,0.168-0.045,0.336-0.045,0.512c0,0.068,0.004,0.137,0.008,0.205h-1.565
			c-0.559,0-1.025,0.369-1.175,0.873c-0.034,0.115-0.055,0.234-0.055,0.359v2.547C28.941,25.268,29.491,25.816,30.171,25.816z
			 M33.52,20.09c0.194-0.42,0.616-0.709,1.107-0.709c0.492,0,0.914,0.289,1.107,0.709c0.072,0.154,0.114,0.326,0.114,0.512
			c0,0.068-0.008,0.139-0.016,0.205c-0.066,0.377-0.3,0.697-0.628,0.869c-0.172,0.094-0.368,0.143-0.578,0.143
			s-0.404-0.053-0.578-0.143c-0.322-0.176-0.562-0.492-0.628-0.869c-0.007-0.066-0.015-0.137-0.015-0.205
			C33.406,20.416,33.445,20.244,33.52,20.09z"/>
		<g>
			<path fill="#143156" d="M33.891,47.203c0.424-0.072,1.018-0.127,1.854-0.127c0.847,0,1.45,0.162,1.855,0.486
				c0.396,0.307,0.647,0.811,0.647,1.404c0,0.596-0.188,1.107-0.558,1.441c-0.469,0.432-1.161,0.639-1.972,0.639
				c-0.181,0-0.342-0.008-0.469-0.035v2.178h-1.359V47.203z M35.25,49.957c0.117,0.027,0.253,0.037,0.46,0.037
				c0.729,0,1.179-0.369,1.179-0.982c0-0.557-0.387-0.891-1.08-0.891c-0.271,0-0.459,0.018-0.559,0.045V49.957z"/>
			<path fill="#143156" d="M39.119,53.189v-6.066h1.602l1.262,2.223c0.359,0.639,0.711,1.395,0.99,2.08h0.018
				c-0.08-0.801-0.107-1.621-0.107-2.539v-1.764h1.26v6.066h-1.441l-1.295-2.34c-0.361-0.648-0.766-1.432-1.054-2.143h-0.035
				c0.044,0.811,0.062,1.666,0.062,2.656v1.826H39.119z"/>
			<path fill="#143156" d="M49.775,53.027c-0.242,0.117-0.818,0.262-1.547,0.262c-2.098,0-3.178-1.314-3.178-3.043
				c0-2.07,1.477-3.215,3.312-3.215c0.711,0,1.252,0.137,1.494,0.271l-0.289,1.08c-0.27-0.117-0.656-0.225-1.152-0.225
				c-1.08,0-1.926,0.656-1.926,2.006c0,1.217,0.721,1.982,1.936,1.982c0.424,0,0.873-0.082,1.152-0.199L49.775,53.027z"/>
			<path fill="#143156" d="M50.684,47.203c0.424-0.072,1.017-0.127,1.854-0.127c0.847,0,1.45,0.162,1.855,0.486
				c0.396,0.307,0.647,0.811,0.647,1.404c0,0.596-0.188,1.107-0.558,1.441c-0.469,0.432-1.161,0.639-1.972,0.639
				c-0.181,0-0.342-0.008-0.469-0.035v2.178h-1.358V47.203z M52.042,49.957c0.117,0.027,0.253,0.037,0.46,0.037
				c0.729,0,1.179-0.369,1.179-0.982c0-0.557-0.387-0.891-1.08-0.891c-0.271,0-0.459,0.018-0.559,0.045V49.957z"/>
		</g>
	</g>
</g>
</svg>
