<?xml version="1.0" encoding="utf-8"?>
<!-- Generator: Adobe Illustrator 16.0.0, SVG Export Plug-In . SVG Version: 6.00 Build 0)  -->
<!DOCTYPE svg PUBLIC "-//W3C//DTD SVG 1.1//EN" "http://www.w3.org/Graphics/SVG/1.1/DTD/svg11.dtd">
<svg version="1.1" id="Layer_1" xmlns="http://www.w3.org/2000/svg" xmlns:xlink="http://www.w3.org/1999/xlink" x="0px" y="0px"
	 width="70px" height="70px" viewBox="0 0 70 70" enable-background="new 0 0 70 70" xml:space="preserve">
<g>
	
		<rect x="17.743" y="1.589" transform="matrix(0.8885 0.4589 -0.4589 0.8885 14.1146 -5.4359)" fill="#00AEB8" width="1" height="49.472"/>
	<path fill="#143156" d="M35.001,67.5C17.083,67.5,2.5,52.922,2.5,35c0-17.92,14.583-32.5,32.501-32.5C52.92,2.5,67.5,17.08,67.5,35
		C67.5,52.922,52.92,67.5,35.001,67.5z M35.001,5.379C18.67,5.379,5.382,18.668,5.382,35s13.289,29.619,29.62,29.619
		c16.331,0,29.618-13.287,29.618-29.619S51.332,5.379,35.001,5.379z"/>
	<g>
		<path fill="#143156" d="M26.758,38.176h3.537c0.223,0,0.432-0.123,0.539-0.316l0.465-0.84l2.391,4.277
			c0.242,0.434,0.877,0.414,1.09-0.037l3.268-6.879l1.23,3.391c0.09,0.24,0.32,0.404,0.578,0.404h3.245v6.445h3.785V23.195
			c0-0.68-0.549-1.227-1.229-1.227h-3.602v2.389h0.229c0.453,0,0.82,0.367,0.82,0.82v11.016h-2.287l-2.021-5.568
			c-0.184-0.514-0.896-0.545-1.129-0.055l-3.54,7.445l-2.297-4.104c-0.232-0.422-0.84-0.418-1.072,0l-1.267,2.285h-2.73v-11.02
			c-0.004-0.457,0.365-0.82,0.816-0.82h0.23v-2.389h-3.605c-0.68,0-1.229,0.547-1.229,1.227v21.426h3.783V38.176z"/>
		<path fill="#143156" d="M30.476,25.324h8.917c0.68,0,1.229-0.549,1.229-1.23v-2.547c0-0.125-0.021-0.244-0.055-0.359
			c-0.153-0.504-0.62-0.869-1.175-0.869h-1.566c0.004-0.07,0.01-0.137,0.01-0.205c0-0.176-0.016-0.344-0.047-0.514
			c-0.045-0.25-0.121-0.49-0.225-0.717c-0.467-0.992-1.469-1.676-2.633-1.676c-1.162,0-2.164,0.684-2.627,1.672
			c-0.107,0.225-0.184,0.467-0.227,0.719c-0.027,0.168-0.045,0.336-0.045,0.512c0,0.068,0.004,0.137,0.008,0.205h-1.564
			c-0.559,0-1.025,0.369-1.175,0.873c-0.035,0.115-0.055,0.234-0.055,0.359v2.547C29.246,24.775,29.794,25.324,30.476,25.324z
			 M33.824,19.598c0.195-0.42,0.617-0.709,1.107-0.709c0.492,0,0.914,0.289,1.108,0.709c0.072,0.154,0.115,0.326,0.115,0.512
			c0,0.068-0.008,0.139-0.016,0.205c-0.066,0.377-0.301,0.697-0.629,0.869c-0.172,0.094-0.367,0.143-0.578,0.143
			c-0.209,0-0.404-0.053-0.578-0.143c-0.322-0.176-0.562-0.492-0.627-0.869c-0.008-0.066-0.016-0.137-0.016-0.205
			C33.71,19.924,33.75,19.752,33.824,19.598z"/>
		<g>
			<path fill="#143156" d="M34.195,46.711c0.424-0.072,1.018-0.127,1.854-0.127c0.848,0,1.451,0.162,1.855,0.486
				c0.396,0.307,0.648,0.811,0.648,1.404c0,0.596-0.189,1.107-0.559,1.441c-0.469,0.432-1.16,0.639-1.971,0.639
				c-0.181,0-0.342-0.008-0.469-0.035v2.178h-1.359V46.711z M35.554,49.465c0.117,0.027,0.253,0.037,0.459,0.037
				c0.729,0,1.18-0.369,1.18-0.982c0-0.557-0.387-0.891-1.08-0.891c-0.271,0-0.459,0.018-0.559,0.045V49.465z"/>
			<path fill="#143156" d="M39.424,52.697v-6.066h1.602l1.261,2.223c0.36,0.639,0.711,1.395,0.99,2.08h0.019
				c-0.081-0.801-0.108-1.621-0.108-2.539v-1.764h1.261v6.066h-1.441l-1.296-2.34c-0.36-0.648-0.766-1.432-1.054-2.143h-0.035
				c0.045,0.811,0.062,1.666,0.062,2.656v1.826H39.424z"/>
			<path fill="#143156" d="M50.08,52.535c-0.242,0.117-0.818,0.262-1.548,0.262c-2.098,0-3.178-1.314-3.178-3.043
				c0-2.07,1.477-3.215,3.312-3.215c0.711,0,1.252,0.137,1.494,0.271l-0.288,1.08c-0.27-0.117-0.656-0.225-1.152-0.225
				c-1.08,0-1.926,0.656-1.926,2.006c0,1.217,0.72,1.982,1.936,1.982c0.423,0,0.873-0.082,1.152-0.199L50.08,52.535z"/>
			<path fill="#143156" d="M50.987,46.711c0.423-0.072,1.017-0.127,1.854-0.127c0.846,0,1.449,0.162,1.855,0.486
				c0.395,0.307,0.646,0.811,0.646,1.404c0,0.596-0.188,1.107-0.557,1.441c-0.469,0.432-1.162,0.639-1.973,0.639
				c-0.18,0-0.342-0.008-0.469-0.035v2.178h-1.358V46.711z M52.346,49.465c0.117,0.027,0.254,0.037,0.461,0.037
				c0.729,0,1.178-0.369,1.178-0.982c0-0.557-0.387-0.891-1.08-0.891c-0.27,0-0.459,0.018-0.559,0.045V49.465z"/>
		</g>
		<g>
			<path fill="#143156" d="M18.607,52.697v-6.066h1.602l1.261,2.223c0.36,0.639,0.711,1.395,0.99,2.08h0.019
				c-0.081-0.801-0.108-1.621-0.108-2.539v-1.764h1.261v6.066h-1.441l-1.296-2.34c-0.36-0.648-0.766-1.432-1.054-2.143h-0.035
				c0.045,0.811,0.062,1.666,0.062,2.656v1.826H18.607z"/>
			<path fill="#143156" d="M30.371,49.602c0,1.998-1.197,3.195-2.979,3.195c-1.792,0-2.854-1.359-2.854-3.098
				c0-1.818,1.17-3.178,2.952-3.178C29.354,46.521,30.371,47.918,30.371,49.602z M25.987,49.672c0,1.199,0.558,2.035,1.477,2.035
				c0.927,0,1.458-0.883,1.458-2.061c0-1.1-0.513-2.035-1.458-2.035C26.527,47.611,25.987,48.494,25.987,49.672z"/>
		</g>
	</g>
</g>
</svg>
