<?xml version="1.0" encoding="utf-8"?>
<!-- Generator: Adobe Illustrator 16.0.0, SVG Export Plug-In . SVG Version: 6.00 Build 0)  -->
<!DOCTYPE svg PUBLIC "-//W3C//DTD SVG 1.1//EN" "http://www.w3.org/Graphics/SVG/1.1/DTD/svg11.dtd">
<svg version="1.1" id="Layer_1" xmlns="http://www.w3.org/2000/svg" xmlns:xlink="http://www.w3.org/1999/xlink" x="0px" y="0px"
	 width="70px" height="70px" viewBox="0 0 70 70" enable-background="new 0 0 70 70" xml:space="preserve">
<g>
	
		<rect x="6.662" y="51.691" transform="matrix(0.9953 0.0965 -0.0965 0.9953 5.1899 -2.932)" fill="#00AEB8" width="52.493" height="1.001"/>
	<path fill="#143156" d="M35.001,67.5C17.082,67.5,2.5,52.922,2.5,35c0-17.92,14.582-32.5,32.5-32.5S67.5,17.08,67.5,35
		C67.5,52.922,52.92,67.5,35.001,67.5z M35.001,5.38C18.67,5.38,5.381,18.668,5.381,35c0,16.333,13.289,29.619,29.62,29.619
		S64.619,51.333,64.619,35C64.619,18.668,51.332,5.38,35.001,5.38z"/>
	<g>
		<g>
			<path fill="#143156" d="M53.333,22.404h-1.332c-0.333,0-0.603,0.27-0.603,0.6v6.479c0,0.46-0.166,0.939-0.525,1.51
				c-0.234,0.374-0.523,0.726-0.859,1.04c-0.359,0.34-0.76,0.632-1.193,0.873c0.273,0.084,0.533,0.179,0.785,0.282
				c0.643,0.26,1.26,0.588,1.831,0.976c0.11-0.092,0.217-0.191,0.324-0.289c1.339-1.271,2.173-2.924,2.173-4.312v-6.559
				C53.934,22.674,53.663,22.404,53.333,22.404z"/>
			<path fill="#143156" d="M41.242,36.81c-0.65-0.264-1.267-0.592-1.836-0.978c-0.11,0.094-0.217,0.191-0.322,0.291
				c-1.341,1.271-2.174,2.924-2.174,4.312v6.556c0,0.332,0.271,0.602,0.602,0.602h1.333c0.33,0,0.602-0.27,0.602-0.602v-6.474
				c0-0.459,0.166-0.94,0.524-1.51c0.235-0.376,0.523-0.726,0.859-1.044c0.355-0.338,0.756-0.63,1.193-0.872
				C41.76,37.008,41.496,36.913,41.242,36.81z"/>
			<path fill="#143156" d="M51.32,35.737c-0.123-0.103-0.252-0.198-0.379-0.292c-0.131-0.097-0.27-0.189-0.404-0.277
				c-0.455-0.293-0.938-0.543-1.438-0.745c-1.123-0.459-2.361-0.69-3.678-0.69c-0.748,0-1.459-0.097-2.105-0.288
				c-0.281-0.082-0.562-0.185-0.832-0.306c-0.623-0.28-1.18-0.65-1.658-1.103c-0.227-0.216-0.428-0.444-0.603-0.676l-0.24-0.317
				h9.144c0.291-0.279,0.531-0.589,0.715-0.92c0.08-0.15,0.158-0.298,0.197-0.442H39.446v-1.678h10.622v-1.361H39.446v-1.676h10.622
				v-1.362H39.446v-0.6c0-0.33-0.271-0.6-0.602-0.6h-1.333c-0.33,0-0.602,0.27-0.602,0.6v6.559c0,1.388,0.833,3.04,2.175,4.312
				c0.139,0.132,0.284,0.263,0.435,0.383c0.125,0.104,0.253,0.2,0.38,0.294c0.132,0.097,0.268,0.19,0.404,0.277
				c0.458,0.295,0.942,0.546,1.437,0.746c1.127,0.459,2.365,0.692,3.682,0.692c0.75,0,1.459,0.097,2.107,0.288
				c0.273,0.081,0.555,0.183,0.83,0.304c0.623,0.281,1.182,0.653,1.658,1.104c0.229,0.218,0.43,0.444,0.604,0.674l0.24,0.318h-9.145
				c-0.293,0.283-0.531,0.593-0.713,0.92c-0.078,0.145-0.158,0.296-0.199,0.443h10.594v1.677H40.775v1.362h10.623v1.676H40.775
				v1.361h10.623v0.6c0,0.332,0.27,0.601,0.603,0.601h1.332c0.33,0,0.601-0.269,0.601-0.601v-6.558c0-1.388-0.834-3.041-2.177-4.315
				C51.616,35.989,51.472,35.859,51.32,35.737z"/>
		</g>
		<path fill="#143156" d="M34.875,25.866c0.446,0,0.81-0.361,0.81-0.809v-1.389c0-0.447-0.363-0.809-0.81-0.809H16.876
			c-0.447,0-0.81,0.361-0.81,0.809v0.044v1.345v15.35v1.308v0.082c0,0.446,0.362,0.808,0.81,0.808h9v3.231h-1.198
			c-0.261,0-0.475,0.213-0.475,0.474v0.812c0,0.262,0.214,0.473,0.475,0.473h10.534c0.262,0,0.474-0.211,0.474-0.473V46.31
			c0-0.261-0.212-0.474-0.474-0.474h-1.342v-3.231h1.006c0.446,0,0.81-0.361,0.81-0.808v-1.39c0-0.446-0.363-0.81-0.81-0.81H19.073
			V25.866H34.875z"/>
	</g>
</g>
</svg>
