<?xml version="1.0" encoding="utf-8"?>
<!-- Generator: Adobe Illustrator 16.0.0, SVG Export Plug-In . SVG Version: 6.00 Build 0)  -->
<!DOCTYPE svg PUBLIC "-//W3C//DTD SVG 1.1//EN" "http://www.w3.org/Graphics/SVG/1.1/DTD/svg11.dtd">
<svg version="1.1" id="Layer_1" xmlns="http://www.w3.org/2000/svg" xmlns:xlink="http://www.w3.org/1999/xlink" x="0px" y="0px"
	 width="70px" height="70px" viewBox="0 0 70 70" enable-background="new 0 0 70 70" xml:space="preserve">
<g>
	
		<rect x="-7.585" y="41.786" transform="matrix(0.3268 0.9451 -0.9451 0.3268 51.9139 11.6915)" fill="#00AEB8" width="50.671" height="1"/>
	<path fill="#143156" d="M35.001,67.5C17.082,67.5,2.5,52.922,2.5,35c0-17.92,14.582-32.5,32.5-32.5S67.5,17.08,67.5,35
		C67.5,52.922,52.92,67.5,35.001,67.5z M35.001,5.38C18.67,5.38,5.381,18.668,5.381,35c0,16.333,13.289,29.62,29.62,29.62
		S64.619,51.333,64.619,35C64.619,18.668,51.332,5.38,35.001,5.38z"/>
	<g>
		<path fill="#143156" d="M44.283,41.212c0.793,1.269,2.203,2.115,3.814,2.115c2.484,0,4.498-2.016,4.498-4.502
			c0-2.483-2.014-4.496-4.498-4.496c-2.486,0-4.5,2.013-4.5,4.496c0,0.062,0,0.123,0.006,0.186l-6.296,1.943
			c-0.439-0.922-1.045-1.751-1.779-2.442l7.772-11.071c0.609,0.25,1.271,0.383,1.969,0.383c2.865,0,5.189-2.322,5.189-5.188
			c0-2.867-2.324-5.191-5.189-5.191c-2.281,0-4.219,1.472-4.912,3.516l-4.862-0.512c-0.369-1.152-1.449-1.988-2.725-1.988
			c-1.58,0-2.863,1.278-2.863,2.861c0,1.582,1.281,2.861,2.863,2.861c1.064,0,1.99-0.58,2.482-1.44l4.861,0.511
			c0.131,1.094,0.599,2.087,1.302,2.861l-7.772,11.071c-1.107-0.562-2.355-0.88-3.682-0.88c-1.396,0-2.71,0.354-3.859,0.977
			l-2.82-3.805c0.311-0.489,0.49-1.074,0.49-1.699c0-1.762-1.424-3.185-3.184-3.185s-3.185,1.421-3.185,3.18
			s1.425,3.185,3.185,3.185c0.291,0,0.572-0.037,0.842-0.111l2.818,3.808c-1.49,1.472-2.41,3.518-2.41,5.777
			c0,4.487,3.637,8.124,8.123,8.124c4.486,0,8.123-3.637,8.123-8.124c0-0.435-0.033-0.86-0.098-1.276L44.283,41.212z M44.283,41.212
			"/>
	</g>
</g>
</svg>
