<?xml version="1.0" encoding="utf-8"?>
<!-- Generator: Adobe Illustrator 16.0.0, SVG Export Plug-In . SVG Version: 6.00 Build 0)  -->
<!DOCTYPE svg PUBLIC "-//W3C//DTD SVG 1.1//EN" "http://www.w3.org/Graphics/SVG/1.1/DTD/svg11.dtd">
<svg version="1.1" id="Layer_1" xmlns="http://www.w3.org/2000/svg" xmlns:xlink="http://www.w3.org/1999/xlink" x="0px" y="0px"
	 width="70px" height="70px" viewBox="0 0 70 70" enable-background="new 0 0 70 70" xml:space="preserve">
<g>
	
		<rect x="24.174" y="16.063" transform="matrix(0.8539 0.5204 -0.5204 0.8539 15.388 -21.6984)" fill="#00AEB8" width="44.346" height="0.999"/>
	<path fill="#143156" d="M35.001,67.5C17.082,67.5,2.5,52.922,2.5,35c0-17.92,14.582-32.5,32.5-32.5S67.5,17.08,67.5,35
		C67.5,52.922,52.92,67.5,35.001,67.5z M35.001,5.379C18.67,5.379,5.381,18.668,5.381,35s13.289,29.619,29.62,29.619
		S64.619,51.332,64.619,35S51.332,5.379,35.001,5.379z"/>
	<g>
		<path fill="#143156" d="M45.812,17.781h-1.82c-0.453,0-0.822,0.367-0.822,0.818v8.857c0,0.629-0.229,1.283-0.717,2.062
			c-0.322,0.516-0.719,0.992-1.178,1.426c-0.49,0.463-1.038,0.861-1.631,1.189c0.372,0.117,0.732,0.246,1.072,0.387
			c0.879,0.355,1.723,0.805,2.506,1.336c0.15-0.127,0.295-0.264,0.441-0.396c1.832-1.736,2.973-3.998,2.973-5.895V18.6
			C46.637,18.148,46.266,17.781,45.812,17.781z"/>
		<path fill="#143156" d="M29.283,37.473c-0.887-0.359-1.729-0.809-2.508-1.334c-0.15,0.127-0.296,0.262-0.443,0.396
			c-1.831,1.738-2.968,3.996-2.968,5.895v8.963c0,0.453,0.368,0.822,0.821,0.822h1.822c0.453,0,0.821-0.369,0.821-0.822v-8.852
			c0-0.627,0.229-1.283,0.719-2.062c0.322-0.514,0.718-0.994,1.175-1.428c0.486-0.463,1.032-0.861,1.63-1.191
			C29.991,37.744,29.632,37.615,29.283,37.473z"/>
		<path fill="#143156" d="M43.062,36.008c-0.17-0.141-0.344-0.27-0.518-0.398c-0.18-0.135-0.367-0.26-0.555-0.379
			c-0.621-0.4-1.281-0.744-1.961-1.021C38.491,33.584,36.8,33.266,35,33.266c-1.024,0-1.993-0.133-2.881-0.393
			c-0.384-0.111-0.769-0.254-1.137-0.418c-0.85-0.385-1.61-0.889-2.265-1.506c-0.31-0.297-0.586-0.607-0.824-0.926l-0.329-0.434
			h12.499c0.398-0.383,0.727-0.805,0.979-1.258c0.109-0.205,0.215-0.406,0.27-0.604H26.829v-2.293h14.525v-1.863H26.829v-2.291
			h14.525v-1.863H26.829V18.6c0-0.451-0.368-0.818-0.821-0.818h-1.822c-0.453,0-0.821,0.367-0.821,0.818v8.967
			c0,1.896,1.137,4.156,2.97,5.895c0.191,0.182,0.389,0.357,0.597,0.525c0.171,0.139,0.346,0.271,0.518,0.398
			c0.183,0.133,0.368,0.262,0.555,0.381c0.628,0.402,1.287,0.746,1.961,1.02c1.542,0.627,3.234,0.945,5.036,0.945
			c1.024,0,1.993,0.133,2.879,0.393c0.376,0.113,0.758,0.252,1.137,0.416c0.852,0.387,1.613,0.895,2.268,1.512
			c0.311,0.297,0.588,0.605,0.824,0.922l0.328,0.436H29.934c-0.399,0.385-0.727,0.807-0.975,1.256
			c-0.107,0.197-0.216,0.404-0.271,0.607H43.17v2.291H28.647v1.861H43.17v2.293H28.647v1.861H43.17v0.818
			c0,0.453,0.369,0.822,0.822,0.822h1.82c0.453,0,0.824-0.369,0.824-0.822v-8.965c0-1.895-1.143-4.156-2.977-5.898
			C43.469,36.354,43.27,36.174,43.062,36.008z"/>
	</g>
</g>
</svg>
