<?xml version="1.0" encoding="utf-8"?>
<!-- Generator: Adobe Illustrator 16.0.0, SVG Export Plug-In . SVG Version: 6.00 Build 0)  -->
<!DOCTYPE svg PUBLIC "-//W3C//DTD SVG 1.1//EN" "http://www.w3.org/Graphics/SVG/1.1/DTD/svg11.dtd">
<svg version="1.1" id="Layer_1" xmlns="http://www.w3.org/2000/svg" xmlns:xlink="http://www.w3.org/1999/xlink" x="0px" y="0px"
	 width="70px" height="70px" viewBox="0 0 70 70" enable-background="new 0 0 70 70" xml:space="preserve">
<g>
	
		<rect x="14.173" y="17.04" transform="matrix(0.9786 0.2058 -0.2058 0.9786 4.4403 -7.6199)" fill="#00AEB8" width="49.371" height="1"/>
	<path fill="#143156" d="M35.001,67.5C17.082,67.5,2.5,52.922,2.5,35c0-17.92,14.582-32.5,32.5-32.5S67.5,17.08,67.5,35
		C67.5,52.922,52.92,67.5,35.001,67.5z M35.001,5.379C18.67,5.379,5.381,18.668,5.381,35s13.289,29.619,29.62,29.619
		S64.619,51.332,64.619,35S51.332,5.379,35.001,5.379z"/>
	<g>
		<g>
			<path fill="#143156" d="M49.689,27.604c-4.986-1.164-9.482,0.705-10.758,1.309c-0.207,0.102-0.453,0.018-0.562-0.18l-0.038-0.068
				c-0.122-0.219-0.036-0.49,0.188-0.6c1.386-0.67,6.06-2.623,11.382-1.381c0.238,0.059,0.381,0.303,0.32,0.535l-0.018,0.072
				C50.143,27.518,49.92,27.654,49.689,27.604z"/>
			<path fill="#143156" d="M49.689,30.264c-4.986-1.164-9.482,0.701-10.758,1.307c-0.207,0.102-0.453,0.02-0.562-0.18l-0.038-0.062
				c-0.122-0.219-0.036-0.49,0.188-0.604c1.386-0.67,6.06-2.623,11.382-1.379c0.238,0.057,0.381,0.293,0.32,0.533l-0.018,0.072
				C50.143,30.176,49.92,30.314,49.689,30.264z"/>
			<path fill="#143156" d="M49.689,32.756c-4.986-1.162-9.482,0.705-10.758,1.311c-0.207,0.102-0.453,0.018-0.562-0.182
				l-0.038-0.068c-0.122-0.215-0.036-0.488,0.188-0.6c1.386-0.672,6.06-2.627,11.382-1.379c0.238,0.061,0.381,0.301,0.32,0.535
				l-0.018,0.072C50.143,32.67,49.92,32.811,49.689,32.756z"/>
			<path fill="#143156" d="M49.902,34.576c0.238,0.059,0.381,0.293,0.32,0.533l-0.018,0.074c-0.062,0.225-0.285,0.363-0.516,0.311
				c-4.986-1.164-9.482,0.701-10.762,1.312c-0.208,0.098-0.454,0.014-0.562-0.182l-0.039-0.066c-0.12-0.217-0.033-0.49,0.191-0.602
				C39.896,35.287,44.572,33.334,49.902,34.576z"/>
			<path fill="#143156" d="M55.058,26.172c-0.327-0.328-0.897-0.789-1.643-0.926v-1.744c0-0.371-0.242-0.705-0.596-0.82
				c-1.159-0.381-3.876-1.146-6.874-1.146c-4.275,0-7.953,1.301-10.945,3.871c-2.993-2.57-6.671-3.871-10.945-3.871
				c-3,0-5.716,0.766-6.875,1.146c-0.353,0.115-0.596,0.449-0.596,0.82v1.744c-0.745,0.137-1.315,0.598-1.643,0.926
				c-0.204,0.203-0.316,0.475-0.316,0.766v23.014c0,0.396,0.348,0.686,0.721,0.643h15.012c0,0,0.3-0.029,0.385,0.043
				c0.082,0.066,0.113,0.166,0.164,0.266c0.474,0.891,2.124,1.551,4.094,1.551c2.003,0,3.678-0.682,4.115-1.598
				c0.042-0.084,0.05-0.168,0.118-0.229c0.065-0.049,0.307-0.033,0.307-0.033h15.112c0.374,0.043,0.722-0.246,0.722-0.643V26.938
				C55.374,26.646,55.262,26.375,55.058,26.172z M23.09,46.348c-2.024,0-3.818,0.312-5.343,0.926V23.697
				c0.89-0.299,3.319-0.998,6.308-0.998c3.564,0,7.143,1.252,9.835,3.213v12.633c0,0-0.012,0.186,0.186,0
				c0.114-0.105,0.391-0.293,0.616-0.439l-0.011,10.768C32.871,48.146,27.883,46.348,23.09,46.348z M52.253,47.273
				c-1.526-0.613-3.319-0.926-5.345-0.926c-4.791,0-9.705,1.771-11.514,2.5l-0.032-10.682l0.6,0.439c0,0,0.105,0.059,0.105-0.059
				c0-0.105,0-10.93,0-12.58c2.699-1.992,6.28-3.268,9.878-3.268c2.988,0,5.416,0.699,6.308,0.998V47.273z"/>
			<g>
				<path fill="#143156" d="M29.307,37.432c0.297,0.475,0.823,0.79,1.424,0.79c0.929,0,1.682-0.753,1.682-1.683
					c0-0.928-0.753-1.68-1.682-1.68c-0.928,0-1.68,0.752-1.68,1.68c0,0.023,0,0.047,0.003,0.07l-2.354,0.727
					c-0.164-0.346-0.391-0.655-0.665-0.914l2.905-4.136c0.228,0.093,0.475,0.144,0.734,0.144c1.07,0,1.939-0.868,1.939-1.939
					c0-1.07-0.869-1.939-1.939-1.939c-0.851,0-1.576,0.551-1.834,1.313l-1.817-0.19c-0.137-0.432-0.541-0.743-1.018-0.743
					c-0.591,0-1.07,0.478-1.07,1.069c0,0.591,0.479,1.068,1.07,1.068c0.398,0,0.744-0.217,0.928-0.537l1.816,0.19
					c0.049,0.408,0.224,0.779,0.486,1.069l-2.904,4.137c-0.414-0.21-0.88-0.329-1.376-0.329c-0.521,0-1.013,0.132-1.441,0.364
					l-1.054-1.422c0.116-0.182,0.183-0.4,0.183-0.635c0-0.658-0.532-1.189-1.189-1.189s-1.19,0.531-1.19,1.188s0.533,1.19,1.19,1.19
					c0.109,0,0.214-0.016,0.314-0.043l1.053,1.424c-0.557,0.549-0.9,1.313-0.9,2.158c0,1.676,1.359,3.035,3.035,3.035
					c1.677,0,3.035-1.359,3.035-3.035c0-0.162-0.012-0.321-0.036-0.477L29.307,37.432z M29.307,37.432"/>
			</g>
			<path fill="#143156" d="M44.707,42.022c0.043-0.004,0.09-0.004,0.133-0.009c1.547-0.14,3.258-0.103,5.059,0.319
				c0.234,0.056,0.375,0.297,0.316,0.534l-0.02,0.069c-0.061,0.224-0.281,0.361-0.512,0.311c-1.697-0.397-3.324-0.425-4.801-0.287
				c-0.055,0.006-0.113,0.006-0.168,0.013c-0.254-0.038-0.457-0.226-0.457-0.477C44.258,42.249,44.459,42.063,44.707,42.022z"/>
			<path fill="#143156" d="M44.707,39.739c0.043-0.005,0.09-0.005,0.133-0.01c1.547-0.14,3.258-0.103,5.059,0.32
				c0.234,0.056,0.375,0.296,0.316,0.533l-0.02,0.07c-0.061,0.223-0.281,0.361-0.512,0.31c-1.697-0.397-3.324-0.425-4.801-0.287
				c-0.055,0.007-0.113,0.007-0.168,0.013c-0.254-0.037-0.457-0.225-0.457-0.477C44.258,39.966,44.459,39.779,44.707,39.739z"/>
		</g>
	</g>
</g>
</svg>
