<?xml version="1.0" encoding="utf-8"?>
<!-- Generator: Adobe Illustrator 16.0.0, SVG Export Plug-In . SVG Version: 6.00 Build 0)  -->
<!DOCTYPE svg PUBLIC "-//W3C//DTD SVG 1.1//EN" "http://www.w3.org/Graphics/SVG/1.1/DTD/svg11.dtd">
<svg version="1.1" id="Layer_1" xmlns="http://www.w3.org/2000/svg" xmlns:xlink="http://www.w3.org/1999/xlink" x="0px" y="0px"
	 width="70px" height="70px" viewBox="0 0 70 70" enable-background="new 0 0 70 70" xml:space="preserve">
<g>
	
		<rect x="21.394" y="19.346" transform="matrix(0.8143 0.5804 -0.5804 0.8143 20.1027 -23.1496)" fill="#00AEB8" width="49.679" height="1"/>
	<path fill="#143156" d="M35.001,67.5C17.082,67.5,2.5,52.922,2.5,35c0-17.92,14.582-32.5,32.5-32.5S67.5,17.08,67.5,35
		C67.5,52.922,52.92,67.5,35.001,67.5z M35.001,5.379C18.67,5.379,5.381,18.668,5.381,35s13.289,29.619,29.62,29.619
		S64.619,51.332,64.619,35S51.332,5.379,35.001,5.379z"/>
	<g>
		<path fill="#143156" d="M34.999,17.311c-9.753,0-17.687,7.934-17.687,17.688s7.933,17.689,17.687,17.689
			c9.755,0,17.688-7.936,17.688-17.689S44.754,17.311,34.999,17.311L34.999,17.311z M34.999,49.016
			c-7.728,0-14.015-6.287-14.015-14.018c0-7.729,6.287-14.016,14.015-14.016c7.729,0,14.017,6.287,14.017,14.016
			C49.016,42.729,42.729,49.016,34.999,49.016L34.999,49.016z M34.999,49.016"/>
		<path fill="#143156" d="M40.465,26.029c-0.388-0.203-1.856-0.861-4.519-0.861c-5.947,0-9.939,4.014-9.939,9.988
			c0,5.877,3.693,9.674,9.406,9.674c2.377,0,4.141-0.475,4.999-0.914c0.238-0.123,0.359-0.393,0.297-0.652l-0.452-1.861
			c-0.041-0.17-0.158-0.312-0.316-0.387c-0.156-0.074-0.34-0.074-0.498,0.004c-0.871,0.422-2.232,0.686-3.551,0.686
			c-3.932,0-6.279-2.477-6.279-6.627c0-4.266,2.398-6.812,6.414-6.812c1.248,0,2.461,0.248,3.33,0.682
			c0.152,0.078,0.33,0.084,0.486,0.016c0.156-0.066,0.275-0.197,0.326-0.361l0.581-1.887C40.836,26.447,40.713,26.158,40.465,26.029
			L40.465,26.029z M40.465,26.029"/>
	</g>
</g>
</svg>
