<?xml version="1.0" encoding="utf-8"?>
<!-- Generator: Adobe Illustrator 16.0.0, SVG Export Plug-In . SVG Version: 6.00 Build 0)  -->
<!DOCTYPE svg PUBLIC "-//W3C//DTD SVG 1.1//EN" "http://www.w3.org/Graphics/SVG/1.1/DTD/svg11.dtd">
<svg version="1.1" id="Layer_1" xmlns="http://www.w3.org/2000/svg" xmlns:xlink="http://www.w3.org/1999/xlink" x="0px" y="0px"
	 width="70px" height="70px" viewBox="0 0 70 70" enable-background="new 0 0 70 70" xml:space="preserve">
<g>
	<g>
		<path fill="#143156" d="M53.79,38.857l-5.538,0c-0.471,0-0.85-0.38-0.85-0.85v-5.54c0-0.944-0.77-1.713-1.713-1.713l-0.748,0
			c-0.945,0-1.711,0.768-1.711,1.711v5.541c0,0.469-0.381,0.85-0.852,0.85h-5.537c-0.945,0-1.712,0.768-1.714,1.712v0.747
			c0,0.943,0.769,1.711,1.712,1.711l5.539-0.001c0.471,0,0.852,0.382,0.852,0.85v5.541c0,0.945,0.766,1.712,1.711,1.712h0.748
			c0.943,0,1.713-0.768,1.713-1.713v-5.54c0-0.468,0.379-0.851,0.85-0.851l5.538,0.001c0.945-0.001,1.712-0.768,1.712-1.711
			l0.002-0.747C55.504,39.625,54.735,38.856,53.79,38.857z"/>
		<path fill="#143156" d="M43.23,45.358v4.058c0,0.945,0.766,1.712,1.711,1.712h0.748c0.943,0,1.713-0.768,1.713-1.713v-5.54
			c0-0.468,0.379-0.851,0.85-0.851l5.538,0.001c0.945-0.001,1.712-0.768,1.712-1.711l0.002-0.747c0-0.944-0.769-1.712-1.714-1.711
			l-5.538,0c-0.471,0-0.85-0.38-0.85-0.85v-5.54c0-0.944-0.77-1.713-1.713-1.713l-0.748,0c-0.945,0-1.711,0.768-1.711,1.711v4.914
			c0.375,0.865,0.586,1.818,0.586,2.821L43.23,45.358z"/>
		<path fill="#143156" d="M30.957,31.197c3.533,0,6.392-2.864,6.392-6.398c0-3.53-2.858-6.394-6.392-6.394
			c-3.53,0-6.394,2.864-6.394,6.394C24.563,28.333,27.427,31.197,30.957,31.197z"/>
		<path fill="#143156" d="M36.84,44.726c-1.882,0-3.411-1.53-3.411-3.411v-0.747c0-1.882,1.529-3.411,3.411-3.411l4.691,0v-2.164
			c-1.268-1.174-2.958-1.897-4.821-1.897h-0.073h-3.151c0,0-0.198,0.028-0.26,0.053c-0.083,0.033-0.273,0.198-0.273,0.198
			l-1.723,1.695c0,0-0.097,0.209-0.121,0.281c-0.034,0.127,0.024,0.452,0.024,0.452l1.979,8.379c0,0,0.066,0.294,0.031,0.399
			c-0.02,0.074-0.161,0.249-0.161,0.249l-1.75,1.719c0,0-0.184,0.187-0.284,0.187c-0.09,0-0.262-0.16-0.262-0.16l-1.791-1.762
			c0,0-0.107-0.154-0.126-0.222c-0.029-0.103,0.021-0.387,0.021-0.387l1.984-8.393c0,0,0.068-0.375,0.024-0.503
			c-0.017-0.074-0.127-0.232-0.127-0.232l-1.785-1.755c0,0-0.176-0.132-0.239-0.158c-0.061-0.025-0.221-0.039-0.221-0.039h-3.147
			h-0.073c-3.931,0-7.124,3.194-7.124,7.128l0.705,6.438c0,1.099,0.896,1.995,1.997,1.995c0,0,16.333,0,20.298,0
			c0.154,0,0.304-0.021,0.449-0.055v-3.876H36.84z"/>
	</g>
	
		<rect x="20.738" y="19.682" transform="matrix(0.8248 0.5654 -0.5654 0.8248 19.3551 -22.0992)" fill="#00AEB8" width="49.199" height="1"/>
	<path fill="#143156" d="M35.001,67.5C17.082,67.5,2.5,52.922,2.5,35c0-17.92,14.582-32.5,32.5-32.5S67.5,17.08,67.5,35
		C67.5,52.922,52.92,67.5,35.001,67.5z M35.001,5.38C18.67,5.38,5.381,18.668,5.381,35c0,16.333,13.289,29.62,29.62,29.62
		S64.619,51.333,64.619,35C64.619,18.668,51.332,5.38,35.001,5.38z"/>
</g>
</svg>
