<?xml version="1.0" encoding="utf-8"?>
<!-- Generator: Adobe Illustrator 16.0.0, SVG Export Plug-In . SVG Version: 6.00 Build 0)  -->
<!DOCTYPE svg PUBLIC "-//W3C//DTD SVG 1.1//EN" "http://www.w3.org/Graphics/SVG/1.1/DTD/svg11.dtd">
<svg version="1.1" id="Layer_1" xmlns="http://www.w3.org/2000/svg" xmlns:xlink="http://www.w3.org/1999/xlink" x="0px" y="0px"
	 width="70px" height="70px" viewBox="0 0 70 70" enable-background="new 0 0 70 70" xml:space="preserve">
<g>
	
		<rect x="14.173" y="17.041" transform="matrix(0.9786 0.2057 -0.2057 0.9786 4.4395 -7.6186)" fill="#00AEB8" width="49.371" height="1"/>
	<path fill="#143156" d="M35.001,67.5C17.082,67.5,2.5,52.922,2.5,35c0-17.92,14.582-32.5,32.5-32.5S67.5,17.08,67.5,35
		C67.5,52.922,52.92,67.5,35.001,67.5z M35.001,5.381C18.67,5.381,5.381,18.668,5.381,35c0,16.334,13.289,29.621,29.62,29.621
		S64.619,51.334,64.619,35C64.619,18.668,51.332,5.381,35.001,5.381z"/>
	<g>
		<g>
			<path fill="#143156" d="M47.998,34.527c-0.518-0.729-1.223-1.295-2.037-1.656V31.91h0.248c0.684,0,1.232-0.568,1.232-1.254
				v-0.773c0-0.684-0.549-1.229-1.232-1.229h-4.633c-0.686,0-1.254,0.545-1.254,1.229v0.773c0,0.686,0.568,1.254,1.254,1.254h0.229
				v0.967c-1.772,0.814-2.945,2.607-2.945,4.582c0,2.775,2.26,5.033,5.037,5.033s5.033-2.258,5.033-5.033
				C48.93,36.395,48.604,35.379,47.998,34.527L47.998,34.527z M43.898,41.32c-2.131,0-3.866-1.732-3.866-3.861
				c0-1.623,1.022-3.088,2.556-3.639c0.23-0.084,0.377-0.305,0.377-0.553v-2.055c0-0.27-0.203-0.494-0.473-0.494h-0.789
				c-0.111,0-0.189-0.08-0.189-0.189v-0.52c0-0.107,0.078-0.191,0.189-0.191h4.379c0.105,0,0.197,0.084,0.197,0.191v0.52
				c0,0.109-0.092,0.189-0.197,0.189h-0.793c-0.27,0-0.492,0.225-0.492,0.494v2.055c0,0.25,0.16,0.473,0.398,0.555
				c1.557,0.541,2.564,1.969,2.564,3.637C47.76,39.588,46.029,41.32,43.898,41.32L43.898,41.32z M43.898,41.32"/>
			<path fill="#143156" d="M45.545,36.107c0,0.369-0.301,0.67-0.672,0.67s-0.67-0.301-0.67-0.67c0-0.371,0.299-0.672,0.67-0.672
				S45.545,35.736,45.545,36.107L45.545,36.107z M45.545,36.107"/>
			<path fill="#143156" d="M44.059,34.621c0,0.207-0.17,0.379-0.379,0.379s-0.381-0.172-0.381-0.379
				c0-0.211,0.172-0.383,0.381-0.383S44.059,34.41,44.059,34.621L44.059,34.621z M44.059,34.621"/>
			<path fill="#143156" d="M43.635,37.305c0-0.598-0.484-1.084-1.084-1.084c-0.602,0-1.088,0.486-1.088,1.084
				c0,0.105,0.016,0.213,0.045,0.301h-0.896c0.062,1.771,1.508,3.176,3.285,3.176c1.781,0,3.225-1.404,3.287-3.176h-3.592
				C43.621,37.518,43.635,37.41,43.635,37.305L43.635,37.305z M43.635,37.305"/>
		</g>
		<g>
			<path fill="#143156" d="M20.687,27.605c4.986-1.164,9.483,0.705,10.758,1.307c0.207,0.102,0.453,0.02,0.562-0.178l0.038-0.07
				c0.122-0.217,0.036-0.488-0.188-0.598c-1.386-0.67-6.059-2.625-11.381-1.381c-0.238,0.059-0.381,0.301-0.32,0.535l0.018,0.072
				C20.234,27.518,20.457,27.656,20.687,27.605z"/>
			<path fill="#143156" d="M20.687,30.264c4.986-1.162,9.483,0.701,10.758,1.309c0.207,0.102,0.453,0.018,0.562-0.182l0.038-0.062
				c0.122-0.217,0.036-0.488-0.188-0.604c-1.386-0.668-6.059-2.623-11.381-1.377c-0.238,0.057-0.381,0.293-0.32,0.531l0.018,0.074
				C20.234,30.178,20.457,30.316,20.687,30.264z"/>
			<path fill="#143156" d="M20.687,32.758c4.986-1.162,9.483,0.705,10.758,1.311c0.207,0.102,0.453,0.018,0.562-0.182l0.038-0.068
				c0.122-0.215,0.036-0.488-0.188-0.6c-1.386-0.672-6.059-2.627-11.381-1.381c-0.238,0.061-0.381,0.303-0.32,0.537l0.018,0.072
				C20.234,32.672,20.457,32.811,20.687,32.758z"/>
			<path fill="#143156" d="M20.475,34.578c-0.238,0.057-0.381,0.293-0.32,0.533l0.018,0.072c0.062,0.225,0.284,0.363,0.515,0.312
				c4.986-1.164,9.483,0.699,10.762,1.311c0.208,0.1,0.454,0.016,0.562-0.18l0.039-0.066c0.12-0.219,0.033-0.49-0.191-0.602
				C30.48,35.289,25.804,33.334,20.475,34.578z"/>
			<path fill="#143156" d="M20.478,37.113c-0.241,0.059-0.384,0.299-0.323,0.531l0.018,0.074c0.062,0.227,0.284,0.363,0.515,0.311
				c4.986-1.164,9.483,0.701,10.762,1.311c0.208,0.1,0.454,0.02,0.562-0.182l0.039-0.07c0.12-0.215,0.033-0.488-0.191-0.594
				C30.477,37.822,25.804,35.867,20.478,37.113z"/>
			<path fill="#143156" d="M20.475,39.719c-0.238,0.055-0.381,0.297-0.32,0.529l0.018,0.074c0.062,0.225,0.284,0.361,0.515,0.311
				c4.986-1.162,9.483,0.705,10.758,1.309c0.207,0.102,0.453,0.018,0.562-0.18l0.038-0.064c0.122-0.219,0.036-0.488-0.188-0.604
				C30.471,40.426,25.797,38.471,20.475,39.719z"/>
			<path fill="#143156" d="M20.47,42.328c-0.233,0.055-0.376,0.297-0.315,0.537l0.018,0.068c0.062,0.223,0.284,0.363,0.515,0.311
				c4.986-1.164,9.483,0.709,10.758,1.309c0.207,0.102,0.453,0.02,0.562-0.18l0.035-0.064c0.12-0.217,0.034-0.486-0.189-0.604
				C30.468,43.039,25.794,41.08,20.47,42.328z"/>
			<path fill="#143156" d="M55.058,26.174c-0.327-0.33-0.897-0.789-1.643-0.926v-1.744c0-0.371-0.242-0.705-0.596-0.82
				c-1.159-0.381-3.876-1.146-6.874-1.146c-4.275,0-7.953,1.301-10.945,3.871c-2.993-2.57-6.671-3.871-10.945-3.871
				c-3,0-5.716,0.766-6.875,1.146c-0.353,0.115-0.596,0.449-0.596,0.82v1.744c-0.745,0.137-1.315,0.596-1.643,0.926
				c-0.204,0.203-0.316,0.475-0.316,0.764v23.016c0,0.395,0.348,0.686,0.721,0.641h15.012c0,0,0.3-0.027,0.385,0.045
				c0.082,0.064,0.113,0.164,0.164,0.264c0.474,0.893,2.124,1.553,4.094,1.553c2.003,0,3.678-0.682,4.115-1.598
				c0.042-0.086,0.05-0.17,0.118-0.229c0.065-0.049,0.307-0.035,0.307-0.035h15.112c0.374,0.045,0.722-0.246,0.722-0.641V26.938
				C55.374,26.648,55.262,26.377,55.058,26.174z M23.09,46.35c-2.024,0-3.818,0.311-5.343,0.926V23.699
				c0.89-0.299,3.319-0.998,6.308-0.998c3.564,0,7.143,1.252,9.835,3.211v12.635c0,0-0.012,0.186,0.186,0
				c0.114-0.107,0.391-0.293,0.616-0.439l-0.011,10.766C32.871,48.148,27.883,46.35,23.09,46.35z M52.253,47.275
				c-1.526-0.615-3.319-0.926-5.345-0.926c-4.791,0-9.705,1.77-11.514,2.5l-0.032-10.682l0.6,0.439c0,0,0.105,0.057,0.105-0.061
				c0-0.105,0-10.93,0-12.58c2.699-1.992,6.28-3.266,9.878-3.266c2.988,0,5.416,0.699,6.308,0.998V47.275z"/>
		</g>
	</g>
</g>
</svg>
