<?xml version="1.0" encoding="utf-8"?>
<!-- Generator: Adobe Illustrator 16.0.0, SVG Export Plug-In . SVG Version: 6.00 Build 0)  -->
<!DOCTYPE svg PUBLIC "-//W3C//DTD SVG 1.1//EN" "http://www.w3.org/Graphics/SVG/1.1/DTD/svg11.dtd">
<svg version="1.1" id="Layer_1" xmlns="http://www.w3.org/2000/svg" xmlns:xlink="http://www.w3.org/1999/xlink" x="0px" y="0px"
	 width="70px" height="70px" viewBox="0 0 70 70" enable-background="new 0 0 70 70" xml:space="preserve">
<g>
	<g>
		<path fill="#143156" d="M37.017,47.58H18.503V25.625h31.024v7.42c0.934,0.348,1.802,0.826,2.584,1.418V21.717
			c0-1.426-1.158-2.584-2.584-2.584H18.503c-1.432,0-2.589,1.158-2.589,2.584V47.58c0,1.422,1.157,2.584,2.589,2.584h20.565
			C38.255,49.42,37.557,48.553,37.017,47.58z M31.422,21.746h18.105v1.295H31.422V21.746z M28.277,21.076
			c0.716,0,1.289,0.572,1.289,1.295c0,0.709-0.573,1.287-1.289,1.287c-0.717,0-1.294-0.578-1.294-1.287
			C26.983,21.654,27.56,21.076,28.277,21.076z M24.319,21.076c0.717,0,1.294,0.572,1.294,1.295c0,0.709-0.577,1.287-1.294,1.287
			c-0.716,0-1.296-0.578-1.296-1.287C23.023,21.654,23.603,21.076,24.319,21.076z M20.44,21.076c0.71,0,1.294,0.572,1.294,1.295
			c0,0.709-0.584,1.287-1.294,1.287c-0.716,0-1.296-0.578-1.296-1.287C19.144,21.654,19.724,21.076,20.44,21.076z"/>
		<g>
			<path fill="#143156" d="M45.963,34.123c-4.688,0-8.5,3.812-8.5,8.498c0,4.688,3.812,8.5,8.5,8.5s8.497-3.812,8.497-8.5
				C54.46,37.936,50.65,34.123,45.963,34.123L45.963,34.123z M45.963,49.357c-3.715,0-6.736-3.021-6.736-6.736
				c0-3.713,3.021-6.734,6.736-6.734c3.713,0,6.733,3.021,6.733,6.734C52.696,46.336,49.676,49.357,45.963,49.357L45.963,49.357z
				 M45.963,49.357"/>
			<path fill="#143156" d="M48.588,38.312c-0.186-0.096-0.893-0.412-2.172-0.412c-2.855,0-4.773,1.928-4.773,4.799
				c0,2.822,1.773,4.648,4.518,4.648c1.143,0,1.99-0.229,2.402-0.441c0.115-0.057,0.174-0.188,0.143-0.312l-0.217-0.895
				c-0.02-0.082-0.076-0.15-0.152-0.186c-0.076-0.037-0.162-0.037-0.238,0.002c-0.42,0.201-1.072,0.33-1.707,0.33
				c-1.889,0-3.016-1.189-3.016-3.186c0-2.049,1.15-3.273,3.08-3.273c0.6,0,1.184,0.119,1.6,0.328
				c0.074,0.037,0.16,0.041,0.234,0.008c0.074-0.031,0.133-0.096,0.156-0.174l0.279-0.906
				C48.766,38.514,48.709,38.375,48.588,38.312L48.588,38.312z M48.588,38.312"/>
		</g>
	</g>
	
		<rect x="38.321" y="29.434" transform="matrix(0.1875 0.9823 -0.9823 0.1875 84.5012 5.6742)" fill="#00AEB8" width="1" height="48.959"/>
	<path fill="#143156" d="M35.001,67.5C17.082,67.5,2.5,52.922,2.5,35c0-17.92,14.582-32.5,32.5-32.5S67.5,17.08,67.5,35
		C67.5,52.922,52.92,67.5,35.001,67.5z M35.001,5.379C18.67,5.379,5.381,18.668,5.381,35s13.289,29.619,29.62,29.619
		S64.619,51.332,64.619,35S51.332,5.379,35.001,5.379z"/>
</g>
</svg>
