<?xml version="1.0" encoding="utf-8"?>
<!-- Generator: Adobe Illustrator 16.0.0, SVG Export Plug-In . SVG Version: 6.00 Build 0)  -->
<!DOCTYPE svg PUBLIC "-//W3C//DTD SVG 1.1//EN" "http://www.w3.org/Graphics/SVG/1.1/DTD/svg11.dtd">
<svg version="1.1" id="Layer_1" xmlns="http://www.w3.org/2000/svg" xmlns:xlink="http://www.w3.org/1999/xlink" x="0px" y="0px"
	 width="70px" height="70px" viewBox="0 0 70 70" enable-background="new 0 0 70 70" xml:space="preserve">
<g>
	
		<rect x="-6.563" y="44.173" transform="matrix(0.4631 0.8863 -0.8863 0.4631 48.7339 8.8958)" fill="#00AEB8" width="47.174" height="1"/>
	<path fill="#143156" d="M35.001,67.5C17.082,67.5,2.5,52.922,2.5,35c0-17.92,14.582-32.5,32.5-32.5S67.5,17.08,67.5,35
		C67.5,52.922,52.92,67.5,35.001,67.5z M35.001,5.38C18.67,5.38,5.381,18.668,5.381,35c0,16.333,13.289,29.62,29.62,29.62
		S64.619,51.333,64.619,35C64.619,18.668,51.332,5.38,35.001,5.38z"/>
	<g>
		<g>
			<path fill="#143156" d="M47.865,29.688c-0.004-0.069-0.018-0.136-0.041-0.2c-0.008-0.023-0.014-0.046-0.023-0.068
				c-0.037-0.078-0.082-0.152-0.146-0.216l-10.18-10.18c-0.186-0.188-0.453-0.252-0.705-0.19c-0.051-0.011-0.098-0.029-0.15-0.029
				h-12.15c-1.314,0-2.344,1.349-2.344,3.07v26.251c0,1.722,1.029,3.07,2.344,3.07h21.062c1.314,0,2.344-1.349,2.344-3.07V29.734
				C47.875,29.717,47.867,29.704,47.865,29.688z M37.695,21.64l7.578,7.344H38.49c-0.324,0-0.795-0.612-0.795-1.571V21.64z
				 M45.531,49.696H24.469c-0.391,0-0.844-0.686-0.844-1.57V21.875c0-0.898,0.445-1.57,0.844-1.57h11.726v7.108
				c0,1.722,1.008,3.071,2.295,3.071h7.885v17.642C46.375,49.01,45.922,49.696,45.531,49.696z"/>
			<path fill="#143156" d="M32.875,25.234h-5.667c-0.414,0-0.75,0.336-0.75,0.75s0.336,0.75,0.75,0.75h5.667
				c0.414,0,0.75-0.336,0.75-0.75S33.289,25.234,32.875,25.234z"/>
			<path fill="#143156" d="M32.875,29.317h-5.667c-0.414,0-0.75,0.336-0.75,0.75s0.336,0.75,0.75,0.75h5.667
				c0.414,0,0.75-0.336,0.75-0.75S33.289,29.317,32.875,29.317z"/>
			<path fill="#143156" d="M43.479,35.317H27.688c-0.402,0-0.729,0.336-0.729,0.75s0.326,0.75,0.729,0.75h15.791
				c0.402,0,0.729-0.336,0.729-0.75S43.881,35.317,43.479,35.317z"/>
			<path fill="#143156" d="M43.457,39.4h-16.25c-0.414,0-0.75,0.336-0.75,0.75s0.336,0.75,0.75,0.75h16.25
				c0.414,0,0.75-0.336,0.75-0.75S43.871,39.4,43.457,39.4z"/>
			<path fill="#143156" d="M43.457,43.483h-16.25c-0.414,0-0.75,0.336-0.75,0.75s0.336,0.75,0.75,0.75h16.25
				c0.414,0,0.75-0.336,0.75-0.75S43.871,43.483,43.457,43.483z"/>
		</g>
	</g>
</g>
</svg>
