<?xml version="1.0" encoding="utf-8"?>
<!-- Generator: Adobe Illustrator 16.0.0, SVG Export Plug-In . SVG Version: 6.00 Build 0)  -->
<!DOCTYPE svg PUBLIC "-//W3C//DTD SVG 1.1//EN" "http://www.w3.org/Graphics/SVG/1.1/DTD/svg11.dtd">
<svg version="1.1" id="Layer_1" xmlns="http://www.w3.org/2000/svg" xmlns:xlink="http://www.w3.org/1999/xlink" x="0px" y="0px"
	 width="70px" height="70px" viewBox="0 0 70 70" enable-background="new 0 0 70 70" xml:space="preserve">
<g>
	
		<rect x="-5.263" y="44.313" transform="matrix(0.5576 0.8301 -0.8301 0.5576 46.3086 2.7369)" fill="#00AEB8" width="51.7" height="1"/>
	<path fill="#143156" d="M35.001,67.5C17.082,67.5,2.5,52.922,2.5,35c0-17.92,14.582-32.5,32.5-32.5S67.5,17.08,67.5,35
		C67.5,52.922,52.92,67.5,35.001,67.5z M35.001,5.38C18.67,5.38,5.381,18.668,5.381,35c0,16.333,13.289,29.62,29.62,29.62
		S64.619,51.333,64.619,35C64.619,18.668,51.332,5.38,35.001,5.38z"/>
	<g>
		<g>
			<path fill="#143156" d="M51.412,46.5l-7.592-7.588c1.199-2.091,1.832-4.466,1.832-6.939c0-3.743-1.453-7.261-4.1-9.904
				c-2.646-2.646-6.165-4.104-9.904-4.104c-3.743,0-7.261,1.458-9.905,4.104c-2.646,2.643-4.102,6.166-4.102,9.904
				c0,3.74,1.457,7.258,4.102,9.905c2.644,2.646,6.162,4.102,9.905,4.102c2.795,0,5.467-0.815,7.744-2.331l7.434,7.436
				c0.631,0.631,1.461,0.95,2.291,0.95s1.66-0.319,2.29-0.95C52.676,49.817,52.676,47.768,51.412,46.5L51.412,46.5z M39.336,39.662
				c-2.054,2.053-4.785,3.188-7.688,3.188c-2.907,0-5.633-1.135-7.687-3.188c-2.058-2.054-3.188-4.781-3.188-7.688
				c0-2.905,1.131-5.634,3.184-7.688c2.054-2.054,4.785-3.188,7.692-3.188c2.902,0,5.634,1.131,7.688,3.188
				C43.576,28.522,43.576,35.424,39.336,39.662L39.336,39.662z M39.336,39.662"/>
		</g>
		<g>
			<defs>
				<circle id="SVGID_5_" cx="31.933" cy="32.415" r="8.953"/>
			</defs>
			<clipPath id="SVGID_2_">
				<use xlink:href="#SVGID_5_"  overflow="visible"/>
			</clipPath>
			<g clip-path="url(#SVGID_2_)">
				<g>
					<g>
						<path fill="#143156" d="M31.182,35.912c-0.425,0.597-0.947,1.067-1.556,1.398c-0.607,0.328-1.324,0.496-2.133,0.496
							c-0.828,0-1.578-0.148-2.226-0.44c-0.651-0.292-1.211-0.695-1.66-1.2c-0.453-0.505-0.803-1.099-1.044-1.765
							c-0.241-0.668-0.36-1.385-0.36-2.134c0-0.804,0.127-1.567,0.382-2.269c0.253-0.701,0.616-1.319,1.075-1.837
							s1.016-0.932,1.661-1.23c0.641-0.299,1.372-0.45,2.172-0.45c0.647,0,1.286,0.141,1.895,0.418
							c0.606,0.279,1.114,0.68,1.509,1.192l0.096,0.126l1.905-1.454l-0.099-0.127c-0.608-0.79-1.396-1.385-2.348-1.763
							c-0.941-0.376-1.917-0.569-2.897-0.569c-1.145,0-2.206,0.199-3.156,0.591c-0.954,0.391-1.779,0.948-2.457,1.656
							c-0.682,0.708-1.217,1.559-1.596,2.53c-0.377,0.97-0.568,2.041-0.568,3.185c0,0.937,0.178,1.877,0.526,2.791
							c0.352,0.917,0.867,1.751,1.527,2.477c0.665,0.728,1.481,1.325,2.425,1.771c0.947,0.448,2.022,0.676,3.194,0.676
							c0.853,0,1.615-0.111,2.27-0.327c0.648-0.217,1.212-0.473,1.677-0.76c0.46-0.288,0.84-0.58,1.122-0.871
							c0.275-0.283,0.477-0.507,0.594-0.667l0.093-0.126l-1.929-1.452L31.182,35.912z"/>
						<rect x="34.89" y="31.056" fill="#143156" width="2.174" height="8.554"/>
						<circle fill="#143156" cx="35.977" cy="28.64" r="1.202"/>
					</g>
				</g>
			</g>
		</g>
	</g>
</g>
</svg>
