<?xml version="1.0" encoding="utf-8"?>
<!-- Generator: Adobe Illustrator 16.0.0, SVG Export Plug-In . SVG Version: 6.00 Build 0)  -->
<!DOCTYPE svg PUBLIC "-//W3C//DTD SVG 1.1//EN" "http://www.w3.org/Graphics/SVG/1.1/DTD/svg11.dtd">
<svg version="1.1" id="Layer_1" xmlns="http://www.w3.org/2000/svg" xmlns:xlink="http://www.w3.org/1999/xlink" x="0px" y="0px"
	 width="70px" height="70px" viewBox="0 0 70 70" enable-background="new 0 0 70 70" xml:space="preserve">
<g>
	
		<rect x="-4.698" y="44.334" transform="matrix(0.5868 0.8098 -0.8098 0.5868 44.911 1.6642)" fill="#00AEB8" width="51.047" height="0.999"/>
	<path fill="#143156" d="M35.001,67.5C17.082,67.5,2.5,52.922,2.5,35c0-17.92,14.582-32.5,32.5-32.5S67.5,17.08,67.5,35
		C67.5,52.922,52.92,67.5,35.001,67.5z M35.001,5.381C18.67,5.381,5.381,18.668,5.381,35c0,16.334,13.289,29.621,29.62,29.621
		S64.619,51.334,64.619,35C64.619,18.668,51.332,5.381,35.001,5.381z"/>
	<g>
		<path fill="#143156" d="M43.281,19.404H26.719c-0.651,0-1.18,0.529-1.18,1.188c0,0.65,0.528,1.18,1.18,1.18h0.818v25.361
			c0,4.117,3.344,7.463,7.462,7.463c2.065,0,3.932-0.838,5.284-2.191c1.349-1.342,2.181-3.213,2.187-5.271l-0.006-25.361h0.816
			c0.656,0,1.18-0.529,1.18-1.18C44.461,19.934,43.938,19.404,43.281,19.404L43.281,19.404z M36.447,34.139
			c-0.729,0.73-1.917,0.73-2.643,0c-0.729-0.732-0.729-1.91,0-2.637c0.734-0.729,1.913-0.729,2.643,0
			C37.179,32.229,37.179,33.406,36.447,34.139L36.447,34.139z M33.369,26.662c0.485-0.492,1.275-0.484,1.759,0
			c0.487,0.48,0.487,1.273,0,1.756c-0.483,0.488-1.273,0.488-1.759,0C32.888,27.936,32.888,27.143,33.369,26.662L33.369,26.662z
			 M36.744,28.564c0.355-0.359,0.938-0.355,1.292,0c0.364,0.355,0.364,0.941,0,1.293c-0.354,0.363-0.937,0.363-1.292,0
			C36.381,29.506,36.381,28.92,36.744,28.564L36.744,28.564z M39.976,38.041l-9.951-2.408V21.771h9.951V38.041z M39.976,38.041"/>
	</g>
</g>
</svg>
