<?xml version="1.0" encoding="utf-8"?>
<!-- Generator: Adobe Illustrator 16.0.0, SVG Export Plug-In . SVG Version: 6.00 Build 0)  -->
<!DOCTYPE svg PUBLIC "-//W3C//DTD SVG 1.1//EN" "http://www.w3.org/Graphics/SVG/1.1/DTD/svg11.dtd">
<svg version="1.1" id="Layer_1" xmlns="http://www.w3.org/2000/svg" xmlns:xlink="http://www.w3.org/1999/xlink" x="0px" y="0px"
	 width="70px" height="70px" viewBox="0 0 70 70" enable-background="new 0 0 70 70" xml:space="preserve">
<g>
	
		<rect x="36.199" y="28.304" transform="matrix(0.1132 0.9936 -0.9936 0.1132 85.4999 10.7999)" fill="#00AEB8" width="1.001" height="49.987"/>
	<path fill="#143156" d="M35.001,67.5C17.082,67.5,2.5,52.922,2.5,35c0-17.92,14.582-32.5,32.5-32.5S67.5,17.08,67.5,35
		C67.5,52.922,52.92,67.5,35.001,67.5z M35.001,5.381C18.67,5.381,5.381,18.668,5.381,35c0,16.334,13.289,29.621,29.62,29.621
		S64.619,51.334,64.619,35C64.619,18.668,51.332,5.381,35.001,5.381z"/>
	<g>
		<path fill="#143156" d="M20.752,26.793c4.963-1.158,9.44,0.703,10.708,1.303c0.207,0.102,0.452,0.018,0.559-0.178l0.039-0.068
			c0.121-0.219,0.036-0.488-0.188-0.596c-1.379-0.668-6.032-2.613-11.33-1.375c-0.238,0.057-0.379,0.299-0.32,0.531l0.019,0.072
			C20.3,26.707,20.522,26.846,20.752,26.793z"/>
		<path fill="#143156" d="M20.752,29.441c4.963-1.158,9.44,0.697,10.708,1.301c0.207,0.102,0.452,0.02,0.559-0.18l0.039-0.062
			c0.121-0.217,0.036-0.486-0.188-0.6c-1.379-0.666-6.032-2.611-11.33-1.371c-0.238,0.055-0.379,0.291-0.32,0.527l0.019,0.074
			C20.3,29.354,20.522,29.492,20.752,29.441z"/>
		<path fill="#143156" d="M20.752,31.924c4.963-1.158,9.44,0.701,10.708,1.305c0.207,0.1,0.452,0.016,0.559-0.182l0.039-0.068
			c0.121-0.215,0.036-0.486-0.188-0.598c-1.379-0.668-6.032-2.615-11.33-1.373c-0.238,0.061-0.379,0.301-0.32,0.533l0.019,0.074
			C20.3,31.838,20.522,31.977,20.752,31.924z"/>
		<path fill="#143156" d="M20.542,33.734c-0.238,0.059-0.379,0.293-0.32,0.531l0.019,0.072c0.061,0.225,0.282,0.363,0.513,0.311
			c4.963-1.158,9.44,0.697,10.713,1.305c0.206,0.1,0.452,0.016,0.559-0.18l0.039-0.064c0.121-0.217,0.034-0.488-0.189-0.6
			C30.501,34.443,25.845,32.498,20.542,33.734z"/>
		<path fill="#143156" d="M20.544,36.26c-0.241,0.057-0.382,0.297-0.323,0.527l0.019,0.074c0.061,0.225,0.282,0.361,0.513,0.309
			c4.963-1.156,9.44,0.699,10.713,1.305c0.206,0.1,0.452,0.02,0.559-0.18l0.039-0.07c0.121-0.215,0.034-0.486-0.189-0.592
			C30.496,36.965,25.845,35.018,20.544,36.26z"/>
		<path fill="#143156" d="M20.542,38.852c-0.238,0.055-0.379,0.297-0.32,0.527l0.019,0.074c0.061,0.225,0.282,0.361,0.513,0.311
			c4.963-1.158,9.44,0.701,10.708,1.303c0.207,0.1,0.452,0.018,0.559-0.18l0.039-0.064c0.121-0.217,0.036-0.486-0.188-0.6
			C30.492,39.557,25.839,37.611,20.542,38.852z"/>
		<path fill="#143156" d="M20.537,41.449c-0.233,0.057-0.374,0.297-0.315,0.533l0.019,0.07c0.061,0.223,0.282,0.361,0.513,0.311
			c4.963-1.16,9.44,0.703,10.708,1.303c0.207,0.098,0.452,0.018,0.559-0.18l0.036-0.064c0.119-0.217,0.034-0.486-0.189-0.6
			C30.488,42.156,25.836,40.209,20.537,41.449z"/>
		<path fill="#143156" d="M38.128,27.254c-0.224,0.107-0.31,0.377-0.188,0.596l0.039,0.068c0.106,0.195,0.352,0.279,0.559,0.178
			c1.269-0.6,5.745-2.461,10.71-1.303c0.227,0.053,0.451-0.086,0.512-0.311l0.018-0.072c0.059-0.232-0.082-0.475-0.318-0.531
			C44.16,24.641,39.508,26.586,38.128,27.254z"/>
		<path fill="#143156" d="M49.459,28.529c-5.299-1.24-9.951,0.705-11.331,1.371c-0.224,0.113-0.31,0.383-0.188,0.6l0.039,0.062
			c0.106,0.199,0.352,0.281,0.559,0.18c1.269-0.604,5.745-2.459,10.71-1.301c0.227,0.051,0.451-0.088,0.512-0.311l0.018-0.074
			C49.836,28.82,49.695,28.584,49.459,28.529z"/>
		<path fill="#143156" d="M49.459,31.008c-5.299-1.242-9.951,0.705-11.331,1.373c-0.224,0.111-0.31,0.383-0.188,0.598l0.039,0.068
			c0.106,0.197,0.352,0.281,0.559,0.182c1.269-0.604,5.745-2.463,10.71-1.305c0.227,0.053,0.451-0.086,0.512-0.309l0.018-0.074
			C49.836,31.309,49.695,31.068,49.459,31.008z"/>
		<path fill="#143156" d="M49.459,33.734c-5.305-1.236-9.961,0.709-11.334,1.375c-0.224,0.111-0.311,0.383-0.189,0.6l0.039,0.064
			c0.107,0.195,0.352,0.279,0.559,0.18c1.273-0.607,5.75-2.463,10.715-1.305c0.227,0.053,0.451-0.086,0.512-0.311l0.018-0.072
			C49.836,34.027,49.695,33.793,49.459,33.734z"/>
		<path fill="#143156" d="M49.455,36.26c-5.301-1.242-9.952,0.705-11.33,1.373c-0.224,0.105-0.311,0.377-0.189,0.592l0.039,0.07
			c0.107,0.199,0.352,0.279,0.559,0.18c1.273-0.605,5.75-2.461,10.715-1.305c0.227,0.053,0.451-0.084,0.512-0.309l0.018-0.074
			C49.836,36.557,49.695,36.316,49.455,36.26z"/>
		<path fill="#143156" d="M49.459,38.852c-5.299-1.24-9.951,0.705-11.331,1.371c-0.224,0.113-0.31,0.383-0.188,0.6l0.039,0.064
			c0.106,0.197,0.352,0.279,0.559,0.18c1.269-0.602,5.745-2.461,10.71-1.303c0.227,0.051,0.451-0.086,0.512-0.311l0.018-0.074
			C49.836,39.148,49.695,38.906,49.459,38.852z"/>
		<path fill="#143156" d="M49.463,41.449c-5.299-1.24-9.952,0.707-11.33,1.373c-0.225,0.113-0.309,0.383-0.189,0.6l0.036,0.064
			c0.106,0.197,0.352,0.277,0.559,0.18c1.269-0.6,5.745-2.463,10.71-1.303c0.227,0.051,0.451-0.088,0.512-0.311l0.018-0.07
			C49.836,41.746,49.695,41.506,49.463,41.449z"/>
		<path fill="#143156" d="M54.967,25.367c-0.325-0.326-0.894-0.783-1.635-0.92v-1.736c0-0.369-0.242-0.701-0.593-0.816
			c-1.154-0.379-3.858-1.143-6.845-1.143c-4.254,0-7.915,1.297-10.895,3.854c-2.98-2.557-6.641-3.854-10.895-3.854
			c-2.987,0-5.691,0.764-6.845,1.143c-0.351,0.115-0.593,0.447-0.593,0.816v1.736c-0.741,0.137-1.309,0.594-1.635,0.92
			c-0.203,0.205-0.315,0.475-0.315,0.764v22.908c0,0.396,0.347,0.684,0.717,0.641h14.945c0,0,0.298-0.027,0.383,0.043
			c0.081,0.066,0.111,0.166,0.163,0.264c0.472,0.889,2.114,1.545,4.075,1.545c1.994,0,3.66-0.68,4.096-1.592
			c0.043-0.084,0.05-0.168,0.118-0.225c0.065-0.053,0.306-0.035,0.306-0.035h15.044c0.372,0.043,0.719-0.244,0.719-0.641V26.131
			C55.282,25.842,55.17,25.572,54.967,25.367z M23.144,45.451c-2.015,0-3.801,0.312-5.319,0.922V22.906
			c0.885-0.299,3.304-0.994,6.28-0.994c3.548,0,7.11,1.246,9.791,3.197v12.576c0,0-0.013,0.184,0.185,0
			c0.113-0.105,0.39-0.291,0.613-0.438l-0.011,10.717C32.881,47.242,27.916,45.451,23.144,45.451z M52.175,46.373
			c-1.519-0.609-3.304-0.922-5.319-0.922c-4.771,0-9.663,1.766-11.463,2.49L35.36,37.309l0.598,0.438c0,0,0.105,0.057,0.105-0.059
			c0-0.105,0-10.881,0-12.523c2.686-1.984,6.251-3.252,9.831-3.252c2.977,0,5.393,0.695,6.28,0.994V46.373z"/>
	</g>
</g>
</svg>
