<?xml version="1.0" encoding="utf-8"?>
<!-- Generator: Adobe Illustrator 16.0.0, SVG Export Plug-In . SVG Version: 6.00 Build 0)  -->
<!DOCTYPE svg PUBLIC "-//W3C//DTD SVG 1.1//EN" "http://www.w3.org/Graphics/SVG/1.1/DTD/svg11.dtd">
<svg version="1.1" id="Layer_1" xmlns="http://www.w3.org/2000/svg" xmlns:xlink="http://www.w3.org/1999/xlink" x="0px" y="0px"
	 width="70px" height="70px" viewBox="0 0 70 70" enable-background="new 0 0 70 70" xml:space="preserve">
<g>
	
		<rect x="23.228" y="-3.971" transform="matrix(0.6381 0.77 -0.77 0.6381 25.0484 -10.5324)" fill="#00AEB8" width="0.999" height="50.698"/>
	<path fill="#143156" d="M35.001,67.5C17.082,67.5,2.5,52.922,2.5,35c0-17.92,14.582-32.5,32.5-32.5S67.5,17.08,67.5,35
		C67.5,52.922,52.92,67.5,35.001,67.5z M35.001,5.381C18.67,5.381,5.381,18.668,5.381,35c0,16.334,13.289,29.621,29.62,29.621
		S64.619,51.334,64.619,35C64.619,18.668,51.332,5.381,35.001,5.381z"/>
	<g>
		<g>
			<path fill="#143156" d="M53.886,48.334c0.049-0.148,0.075-0.309,0.075-0.473V36.494c0-0.604-0.627-1.41-1.461-1.75l-8.395-3.684
				v16.424c0,0.299-0.053,0.584-0.148,0.85h-0.98c0.047-0.148,0.078-0.309,0.078-0.473V28.164c0-0.828-0.631-1.537-1.5-1.816
				l-6.47-2.891l-6.642,2.891c-0.893,0.441-1.499,1.08-1.499,1.908v19.605c0,0.164,0.028,0.324,0.079,0.473h-0.981
				c-0.095-0.266-0.147-0.551-0.147-0.85V30.941l-8.155,3.57c-0.822,0.332-1.502,0.957-1.502,1.785v11.564
				c0,0.164,0.029,0.324,0.077,0.473h-2.58v3.104h42.531v-3.104H53.886z M20.74,42.205h-2.15v-2.15h2.15V42.205z M20.74,38.428
				h-2.15v-2.152h2.15V38.428z M24.09,42.205h-2.152v-2.15h2.152V42.205z M24.09,38.428h-2.152v-2.152h2.152V38.428z M32.681,38.418
				h-2.151v-2.15h2.151V38.418z M32.681,34.641h-2.151v-2.154h2.151V34.641z M32.681,30.984h-2.151v-2.148h2.151V30.984z
				 M39.441,38.418h-2.15v-2.15h2.15V38.418z M39.441,34.641h-2.15v-2.154h2.15V34.641z M39.441,30.984h-2.15v-2.148h2.15V30.984z
				 M36.031,38.418H33.88v-2.15h2.151V38.418z M36.031,34.641H33.88v-2.154h2.151V34.641z M36.031,30.984H33.88v-2.148h2.151V30.984
				z M38.339,48.236h-6.316v-7.883h6.316V48.236z M48.66,42.205h-2.15v-2.15h2.15V42.205z M48.66,38.428h-2.15v-2.152h2.15V38.428z
				 M52.011,42.205h-2.151v-2.15h2.151V42.205z M52.011,38.428h-2.151v-2.152h2.151V38.428z"/>
		</g>
		<path fill="#143156" d="M25.774,26.844c-0.322,0-0.63-0.18-0.781-0.49c-0.209-0.432-0.03-0.951,0.4-1.162l9.33-4.541
			c0.229-0.111,0.492-0.117,0.725-0.018l8.477,3.652c0.441,0.189,0.645,0.701,0.453,1.143c-0.189,0.439-0.697,0.646-1.141,0.453
			l-8.111-3.494l-8.97,4.367C26.032,26.814,25.903,26.844,25.774,26.844z"/>
		<path fill="#143156" d="M16.002,34.238c-0.334,0-0.652-0.191-0.795-0.518c-0.193-0.439,0.006-0.953,0.444-1.146l9.578-4.225
			c0.441-0.191,0.954,0.006,1.146,0.443c0.193,0.439-0.006,0.953-0.444,1.146l-9.579,4.225
			C16.237,34.215,16.119,34.238,16.002,34.238z"/>
		<path fill="#143156" d="M54.024,34.238c-0.116,0-0.236-0.023-0.352-0.074l-9.577-4.225c-0.438-0.193-0.639-0.707-0.443-1.146
			c0.193-0.438,0.705-0.635,1.145-0.443l9.579,4.225c0.438,0.193,0.638,0.707,0.444,1.146
			C54.677,34.047,54.358,34.238,54.024,34.238z"/>
	</g>
</g>
</svg>
