<?xml version="1.0" encoding="utf-8"?>
<!-- Generator: Adobe Illustrator 16.0.0, SVG Export Plug-In . SVG Version: 6.00 Build 0)  -->
<!DOCTYPE svg PUBLIC "-//W3C//DTD SVG 1.1//EN" "http://www.w3.org/Graphics/SVG/1.1/DTD/svg11.dtd">
<svg version="1.1" id="Layer_1" xmlns="http://www.w3.org/2000/svg" xmlns:xlink="http://www.w3.org/1999/xlink" x="0px" y="0px"
	 width="150px" height="150px" viewBox="0 0 150 150" enable-background="new 0 0 150 150" xml:space="preserve">
<g>
	
		<rect x="44.402" y="41.501" transform="matrix(0.7794 0.6265 -0.6265 0.7794 48.6873 -53.2767)" fill="#00B0B9" width="111.196" height="2"/>
	<path fill="#FFFFFF" d="M75.002,147.934c-40.214,0-72.938-32.715-72.938-72.934c0-40.214,32.724-72.933,72.938-72.933
		S147.936,34.785,147.936,75C147.936,115.219,115.216,147.934,75.002,147.934z M75.002,8.527C38.352,8.527,8.53,38.349,8.53,75
		c0,36.651,29.822,66.467,66.472,66.467c36.651,0,66.468-29.816,66.468-66.467C141.47,38.349,111.653,8.527,75.002,8.527z"/>
	<path fill="#FFFFFF" d="M119.643,109.764h-2.997V86.959c0-0.344-0.195-0.664-0.505-0.822l-16.437-8.328
		c-0.615-0.312-1.341,0.134-1.341,0.82v5.266c0,0.684-0.716,1.131-1.329,0.832l-14.209-6.947c-0.611-0.301-1.328,0.146-1.328,0.83
		v5.285c0,0.684-0.716,1.131-1.328,0.832l-14.209-6.947c-0.613-0.301-1.329,0.146-1.329,0.83v31.154h-2.557V47.941
		c0-0.511-0.415-0.923-0.923-0.923h-2.19c-0.51,0-0.922-0.414-0.922-0.924V34.235c0-0.511-0.415-0.923-0.924-0.923h-19.64
		c-0.511,0-0.924,0.412-0.924,0.923v11.858c0,0.51-0.413,0.924-0.924,0.924h-2.188c-0.511,0-0.924,0.412-0.924,0.923v61.823h-2.162
		c-0.511,0-0.924,0.414-0.924,0.922v2.418c0,0.51,0.413,0.922,0.924,0.922h89.29c0.51,0,0.923-0.412,0.923-0.922v-2.418
		C120.566,110.178,120.153,109.764,119.643,109.764L119.643,109.764z M35.541,100.004V53.637c0-0.511,0.413-0.925,0.924-0.925h1.883
		c0.511,0,0.925,0.414,0.925,0.925v46.367c0,0.512-0.414,0.926-0.925,0.926h-1.883C35.954,100.93,35.541,100.516,35.541,100.004
		L35.541,100.004z M44.536,109.764h-7.802v-2.443c0-0.51,0.413-0.924,0.924-0.924h5.955c0.511,0,0.924,0.414,0.924,0.924V109.764z
		 M45.865,100.004c0,0.512-0.413,0.926-0.924,0.926h-1.886c-0.509,0-0.921-0.414-0.921-0.926V53.637
		c0-0.511,0.412-0.925,0.921-0.925h1.886c0.511,0,0.924,0.414,0.924,0.925V100.004z M48.725,100.004V53.637
		c0-0.511,0.413-0.925,0.923-0.925h1.882c0.511,0,0.924,0.414,0.924,0.925v46.367c0,0.512-0.413,0.926-0.924,0.926h-1.882
		C49.138,100.93,48.725,100.516,48.725,100.004L48.725,100.004z M57.853,109.764h-7.801v-2.443c0-0.51,0.413-0.924,0.924-0.924
		h5.954c0.511,0,0.923,0.414,0.923,0.924V109.764z M59.045,100.004c0,0.512-0.413,0.926-0.923,0.926H56.24
		c-0.51,0-0.924-0.414-0.924-0.926V53.637c0-0.511,0.414-0.925,0.924-0.925h1.882c0.51,0,0.923,0.414,0.923,0.925V100.004z
		 M76.691,104.084c0,0.51-0.415,0.926-0.923,0.926h-2.462c-0.507,0-0.92-0.416-0.92-0.926v-7.568c0-0.512,0.413-0.922,0.92-0.922
		h2.462c0.508,0,0.923,0.41,0.923,0.922V104.084z M92.882,104.084c0,0.51-0.414,0.926-0.924,0.926h-2.459
		c-0.51,0-0.923-0.416-0.923-0.926v-7.568c0-0.512,0.413-0.922,0.923-0.922h2.459c0.51,0,0.924,0.41,0.924,0.922V104.084z
		 M109.072,104.084c0,0.51-0.413,0.926-0.924,0.926h-2.458c-0.511,0-0.924-0.416-0.924-0.926v-7.568
		c0-0.512,0.413-0.922,0.924-0.922h2.458c0.511,0,0.924,0.41,0.924,0.922V104.084z M109.072,104.084"/>
</g>
</svg>
