<?xml version="1.0" encoding="utf-8"?>
<!-- Generator: Adobe Illustrator 16.0.0, SVG Export Plug-In . SVG Version: 6.00 Build 0)  -->
<!DOCTYPE svg PUBLIC "-//W3C//DTD SVG 1.1//EN" "http://www.w3.org/Graphics/SVG/1.1/DTD/svg11.dtd">
<svg version="1.1" id="Layer_1" xmlns="http://www.w3.org/2000/svg" xmlns:xlink="http://www.w3.org/1999/xlink" x="0px" y="0px"
	 width="45px" height="40px" viewBox="0 0 45 40" enable-background="new 0 0 45 40" xml:space="preserve">
<g>
	<path fill="#FFFFFF" d="M42.015,33.617h-1.286V23.84c0-0.149-0.083-0.285-0.217-0.353l-7.046-3.57
		c-0.263-0.134-0.575,0.058-0.575,0.354v2.255c0,0.292-0.305,0.483-0.567,0.356l-6.093-2.979c-0.262-0.129-0.569,0.063-0.569,0.355
		v2.267c0,0.292-0.306,0.483-0.569,0.356L19,19.904c-0.263-0.129-0.57,0.063-0.57,0.355v13.358h-1.096V7.114
		c0-0.219-0.178-0.396-0.396-0.396h-0.94c-0.218,0-0.395-0.176-0.395-0.396V1.237c0-0.219-0.177-0.396-0.396-0.396H6.789
		c-0.218,0-0.396,0.177-0.396,0.396v5.085c0,0.22-0.178,0.396-0.396,0.396H5.059c-0.219,0-0.396,0.176-0.396,0.396v26.503H3.736
		c-0.218,0-0.396,0.176-0.396,0.392v1.038c0,0.22,0.177,0.396,0.396,0.396h38.278c0.218,0,0.395-0.176,0.395-0.396v-1.038
		C42.41,33.793,42.232,33.617,42.015,33.617L42.015,33.617z M5.961,29.433V9.555c0-0.219,0.177-0.395,0.396-0.395h0.808
		c0.218,0,0.396,0.176,0.396,0.395v19.878c0,0.22-0.177,0.395-0.396,0.395H6.356C6.138,29.827,5.961,29.652,5.961,29.433
		L5.961,29.433z M9.816,33.617H6.472v-1.048c0-0.22,0.177-0.397,0.396-0.397h2.552c0.218,0,0.396,0.178,0.396,0.397V33.617z
		 M10.386,29.433c0,0.22-0.177,0.395-0.396,0.395H9.182c-0.218,0-0.395-0.175-0.395-0.395V9.555c0-0.219,0.177-0.395,0.395-0.395
		H9.99c0.219,0,0.396,0.176,0.396,0.395V29.433z M11.612,29.433V9.555c0-0.219,0.177-0.395,0.396-0.395h0.806
		c0.22,0,0.396,0.176,0.396,0.395v19.878c0,0.22-0.176,0.395-0.396,0.395h-0.806C11.79,29.827,11.612,29.652,11.612,29.433
		L11.612,29.433z M15.525,33.617H12.18v-1.048c0-0.22,0.178-0.397,0.397-0.397h2.552c0.218,0,0.396,0.178,0.396,0.397V33.617z
		 M16.036,29.433c0,0.22-0.176,0.395-0.396,0.395h-0.806c-0.22,0-0.398-0.175-0.398-0.395V9.555c0-0.219,0.178-0.395,0.398-0.395
		h0.806c0.22,0,0.396,0.176,0.396,0.395V29.433z M23.601,31.181c0,0.218-0.178,0.396-0.396,0.396h-1.056
		c-0.217,0-0.394-0.179-0.394-0.396v-3.244c0-0.219,0.177-0.396,0.394-0.396h1.056c0.218,0,0.396,0.178,0.396,0.396V31.181z
		 M30.542,31.181c0,0.218-0.178,0.396-0.395,0.396h-1.056c-0.218,0-0.395-0.179-0.395-0.396v-3.244c0-0.219,0.177-0.396,0.395-0.396
		h1.056c0.217,0,0.395,0.178,0.395,0.396V31.181z M37.482,31.181c0,0.218-0.178,0.396-0.395,0.396h-1.054
		c-0.22,0-0.396-0.179-0.396-0.396v-3.244c0-0.219,0.176-0.396,0.396-0.396h1.054c0.217,0,0.395,0.178,0.395,0.396V31.181z
		 M37.482,31.181"/>
</g>
</svg>
