<?xml version="1.0" encoding="utf-8"?>
<!-- Generator: Adobe Illustrator 16.0.0, SVG Export Plug-In . SVG Version: 6.00 Build 0)  -->
<!DOCTYPE svg PUBLIC "-//W3C//DTD SVG 1.1//EN" "http://www.w3.org/Graphics/SVG/1.1/DTD/svg11.dtd">
<svg version="1.1" id="Layer_1" xmlns="http://www.w3.org/2000/svg" xmlns:xlink="http://www.w3.org/1999/xlink" x="0px" y="0px"
	 width="45px" height="40px" viewBox="0 0 45 40" enable-background="new 0 0 45 40" xml:space="preserve">
<g>
	<g>
		<path fill="#FFFFFF" d="M6.562,29.187c-1.234,1.234-1.234,3.229,0,4.463c0.615,0.618,1.429,0.928,2.232,0.928
			c0.81,0,1.62-0.31,2.239-0.928L21.4,23.274l-4.463-4.465L6.562,29.187z M6.562,29.187"/>
		<path fill="#FFFFFF" d="M32.488,9.954l4.516-2.333l2.361-4.577l-2.198-2.203l-4.574,2.364l-2.336,4.518l-5.504,5.501l2.232,2.235
			L32.488,9.954z M32.488,9.954"/>
		<path fill="#FFFFFF" d="M33.476,21.947l-0.423-0.042c-0.771,0-1.501,0.153-2.189,0.411L17.896,9.347
			c0.257-0.688,0.408-1.419,0.408-2.191l-0.039-0.42c-0.229-3.293-2.932-5.895-6.274-5.895c-0.976,0-1.895,0.238-2.716,0.627
			l4.195,4.208c0.229,0.217,0.382,0.483,0.476,0.751c0.279,0.749,0.134,1.623-0.476,2.22c-0.411,0.413-0.945,0.617-1.479,0.617
			c-0.258,0-0.501-0.049-0.729-0.141c-0.279-0.106-0.545-0.248-0.761-0.476L6.304,4.452C5.904,5.276,5.665,6.188,5.665,7.156
			c0,3.353,2.613,6.056,5.896,6.284l0.43,0.041c0.772,0,1.5-0.165,2.179-0.408L27.14,26.04c-0.246,0.679-0.41,1.41-0.41,2.181
			l0.039,0.432c0.229,3.282,2.932,5.894,6.284,5.894c0.968,0,1.882-0.234,2.707-0.642l-4.196-4.192
			c-0.226-0.216-0.37-0.484-0.483-0.75c-0.271-0.751-0.122-1.625,0.483-2.222c0.412-0.412,0.946-0.618,1.489-0.618
			c0.25,0,0.495,0.051,0.73,0.143c0.268,0.104,0.534,0.249,0.751,0.476l4.209,4.194c0.39-0.823,0.622-1.738,0.622-2.714
			C39.365,24.878,36.766,22.172,33.476,21.947L33.476,21.947z M33.476,21.947"/>
	</g>
</g>
</svg>
