<?xml version="1.0" encoding="utf-8"?>
<!-- Generator: Adobe Illustrator 16.0.0, SVG Export Plug-In . SVG Version: 6.00 Build 0)  -->
<!DOCTYPE svg PUBLIC "-//W3C//DTD SVG 1.1//EN" "http://www.w3.org/Graphics/SVG/1.1/DTD/svg11.dtd">
<svg version="1.1" id="Layer_1" xmlns="http://www.w3.org/2000/svg" xmlns:xlink="http://www.w3.org/1999/xlink" x="0px" y="0px"
	 width="45px" height="40px" viewBox="0 0 45 40" enable-background="new 0 0 45 40" xml:space="preserve">
<g>
	<g>
		<path fill="#FFFFFF" d="M16.438,29.588H9.641c-1.301,0-2.375-1.021-2.375-2.324V6.189c0-1.293,1.074-2.304,2.375-2.304h16.451
			c1.296,0,2.361,1.011,2.361,2.304v17.669l3.037-3.62V3.936c0-1.713-1.348-3.095-3.057-3.095H7.174
			c-1.639,0-2.945,1.332-2.945,2.967v25.8c0,1.712,1.363,3.089,3.074,3.089h11.937l-1.411-1.222
			C17.207,30.946,16.75,30.287,16.438,29.588L16.438,29.588z M16.438,29.588"/>
		<path fill="#FFFFFF" d="M24.828,7.776h-9.79c-0.846,0-1.521,0.685-1.521,1.52c0,0.833,0.675,1.519,1.521,1.519h9.79
			c0.837,0,1.51-0.686,1.51-1.519C26.343,8.461,25.657,7.776,24.828,7.776L24.828,7.776z M24.828,7.776"/>
		<path fill="#FFFFFF" d="M24.828,12.851h-9.79c-0.846,0-1.521,0.662-1.521,1.501c0,0.837,0.675,1.519,1.521,1.519h9.79
			c0.837,0,1.51-0.682,1.51-1.519C26.343,13.513,25.657,12.851,24.828,12.851L24.828,12.851z M24.828,12.851"/>
		<path fill="#FFFFFF" d="M24.828,17.902h-9.79c-0.846,0-1.521,0.645-1.521,1.476c0,0.841,0.675,1.485,1.521,1.485h9.79
			c0.837,0,1.51-0.644,1.51-1.485C26.343,18.547,25.657,17.902,24.828,17.902L24.828,17.902z M24.828,17.902"/>
		<path fill="#FFFFFF" d="M13.516,24.217c0,0.829,0.677,1.481,1.522,1.481h1.233c0.209-0.554,0.541-1.187,0.99-1.717
			c0.463-0.541,1.024-0.94,1.629-1.252h-3.853C14.192,22.729,13.516,23.372,13.516,24.217L13.516,24.217z M13.516,24.217"/>
		<path fill="#FFFFFF" d="M24.828,22.729h-1.145c0.383,0.152,0.731,0.427,1.061,0.711l1.508,1.29
			c0.059-0.165,0.091-0.33,0.091-0.501C26.343,23.391,25.657,22.729,24.828,22.729L24.828,22.729z M24.828,22.729"/>
		<path fill="#FFFFFF" d="M39.832,18.671c-1.107-0.951-2.791-0.816-3.739,0.3l-8.715,10.219l-4.364-3.75
			c-1.11-0.947-2.782-0.813-3.738,0.294c-0.952,1.11-0.82,2.782,0.29,3.738l6.372,5.476c0.494,0.416,1.099,0.645,1.735,0.645
			c0.062,0,0.132,0,0.204,0c0.703-0.063,1.358-0.395,1.811-0.924L40.142,22.41C41.084,21.302,40.957,19.625,39.832,18.671
			L39.832,18.671z M39.832,18.671"/>
	</g>
	<circle fill="#FFFFFF" cx="10.616" cy="9.296" r="1.467"/>
	<circle fill="#FFFFFF" cx="10.616" cy="14.362" r="1.467"/>
	<path fill="#FFFFFF" d="M12.083,19.383c0-0.813-0.657-1.465-1.468-1.465s-1.466,0.652-1.466,1.465c0,0.809,0.655,1.466,1.466,1.466
		S12.083,20.192,12.083,19.383z"/>
	<path fill="#FFFFFF" d="M12.083,24.215c0-0.812-0.657-1.466-1.468-1.466s-1.466,0.653-1.466,1.466c0,0.809,0.655,1.465,1.466,1.465
		S12.083,25.023,12.083,24.215z"/>
</g>
</svg>
