<?xml version="1.0" encoding="utf-8"?>
<!-- Generator: Adobe Illustrator 16.0.0, SVG Export Plug-In . SVG Version: 6.00 Build 0)  -->
<!DOCTYPE svg PUBLIC "-//W3C//DTD SVG 1.1//EN" "http://www.w3.org/Graphics/SVG/1.1/DTD/svg11.dtd">
<svg version="1.1" id="Layer_1" xmlns="http://www.w3.org/2000/svg" xmlns:xlink="http://www.w3.org/1999/xlink" x="0px" y="0px"
	 width="45px" height="40px" viewBox="0 0 45 40" enable-background="new 0 0 45 40" xml:space="preserve">
<g>
	<g>
		<path fill="#FFFFFF" d="M29.275,7.73c0,3.811-3.084,6.896-6.89,6.896c-3.807,0-6.893-3.085-6.893-6.896
			c0-3.803,3.086-6.89,6.893-6.89C26.191,0.841,29.275,3.928,29.275,7.73L29.275,7.73z M29.275,7.73"/>
		<path fill="#FFFFFF" d="M28.583,16.678h-0.078l-0.26,3.399c-0.038,0.477-0.385,0.87-0.852,0.963l-1.951,0.396l0.48,1.417
			c0.09,0.272,0.07,0.57-0.063,0.826c0,0-1.893,3.712-2.523,4.947c-0.005,0.004-0.31,0.493-0.93,0.493
			c-0.763,0-0.969-0.489-0.969-0.493c-0.635-1.235-2.527-4.947-2.527-4.947c-0.128-0.256-0.155-0.554-0.06-0.826l0.478-1.414
			l-1.95-0.396c-0.466-0.094-0.814-0.489-0.851-0.962l-0.263-3.404h-0.076c-4.243,0-7.684,3.44-7.684,7.684v8.621
			c0,1.187,0.965,2.149,2.153,2.149h23.438c1.188,0,2.151-0.963,2.151-2.149v-8.648C36.243,20.107,32.814,16.678,28.583,16.678
			L28.583,16.678z M31.328,31.407h-1.616V33c0,0.586-0.474,1.063-1.062,1.063c-0.589,0-1.059-0.478-1.059-1.063v-1.593H26
			c-0.589,0-1.064-0.471-1.064-1.06c0-0.591,0.476-1.06,1.064-1.06h1.592v-1.621c0-0.589,0.47-1.066,1.059-1.066
			c0.587,0,1.062,0.478,1.062,1.066v1.621h1.616c0.589,0,1.068,0.469,1.068,1.06C32.396,30.937,31.917,31.407,31.328,31.407
			L31.328,31.407z M31.328,31.407"/>
		<path fill="#FFFFFF" d="M23.829,19.589l2.351-0.477l0.188-2.434H18.4l0.19,2.434l2.35,0.477c0.3,0.062,0.557,0.246,0.71,0.515
			c0.152,0.267,0.184,0.584,0.085,0.871l-0.724,2.139l1.374,2.683l1.371-2.683l-0.724-2.139c-0.097-0.287-0.065-0.604,0.085-0.871
			C23.272,19.835,23.53,19.651,23.829,19.589L23.829,19.589z M23.829,19.589"/>
	</g>
</g>
</svg>
