<?xml version="1.0" encoding="utf-8"?>
<!-- Generator: Adobe Illustrator 16.0.0, SVG Export Plug-In . SVG Version: 6.00 Build 0)  -->
<!DOCTYPE svg PUBLIC "-//W3C//DTD SVG 1.1//EN" "http://www.w3.org/Graphics/SVG/1.1/DTD/svg11.dtd">
<svg version="1.1" id="Layer_1" xmlns="http://www.w3.org/2000/svg" xmlns:xlink="http://www.w3.org/1999/xlink" x="0px" y="0px"
	 width="45px" height="40px" viewBox="0 0 45 40" enable-background="new 0 0 45 40" xml:space="preserve">
<g>
	<g>
		<path fill="#FFFFFF" d="M37.124,4.178c0-1.841-1.496-3.337-3.336-3.337h-22.95c-1.77,0-3.212,1.438-3.212,3.201v27.851
			c0,1.839,1.497,3.328,3.345,3.328h22.811c1.841,0,3.343-1.489,3.343-3.328V4.178z M33.795,29.373c0,1.393-1.133,2.529-2.542,2.529
			H13.494c-1.4,0-2.541-1.137-2.541-2.529V6.614c0-1.399,1.141-2.534,2.541-2.534h17.759c1.404,0,2.539,1.135,2.539,2.534
			L33.795,29.373z M33.795,29.373"/>
		<path fill="#FFFFFF" d="M15.009,24.058h14.729c0.907,0,1.634-0.704,1.634-1.61c0-0.894-0.728-1.615-1.634-1.615H15.009
			c-0.906,0-1.633,0.721-1.633,1.615C13.375,23.354,14.103,24.058,15.009,24.058L15.009,24.058z M15.009,24.058"/>
		<path fill="#FFFFFF" d="M15.009,29.326h14.729c0.907,0,1.634-0.729,1.634-1.632c0-0.9-0.728-1.613-1.634-1.613H15.009
			c-0.906,0-1.633,0.713-1.633,1.613C13.375,28.598,14.103,29.326,15.009,29.326L15.009,29.326z M15.009,29.326"/>
		<g>
			<path fill="#FFFFFF" d="M24.927,8.798c0,1.411-1.142,2.553-2.549,2.553c-1.411,0-2.552-1.142-2.552-2.553
				c0-1.41,1.142-2.552,2.552-2.552C23.785,6.246,24.927,7.388,24.927,8.798L24.927,8.798z M24.927,8.798"/>
			<path fill="#FFFFFF" d="M24.672,12.112h-0.027l-0.097,1.256c-0.015,0.178-0.144,0.324-0.318,0.357l-0.721,0.148l0.179,0.524
				c0.032,0.102,0.024,0.211-0.024,0.306c0,0-0.703,1.376-0.935,1.833c-0.002,0.001-0.115,0.181-0.344,0.181
				c-0.282,0-0.359-0.18-0.359-0.181c-0.235-0.457-0.935-1.833-0.935-1.833c-0.049-0.095-0.058-0.204-0.022-0.306l0.175-0.524
				l-0.721-0.148c-0.173-0.032-0.304-0.179-0.314-0.355l-0.099-1.259h-0.03c-1.57,0-2.842,1.273-2.842,2.844v3.192
				c0,0.442,0.354,0.797,0.793,0.797h8.684c0.438,0,0.797-0.355,0.797-0.797v-3.202C27.511,13.382,26.24,12.112,24.672,12.112
				L24.672,12.112z M25.688,17.567h-0.596v0.589c0,0.218-0.176,0.395-0.393,0.395c-0.22,0-0.393-0.177-0.393-0.395v-0.589h-0.589
				c-0.221,0-0.396-0.172-0.396-0.392c0-0.22,0.175-0.393,0.396-0.393h0.589v-0.6c0-0.219,0.173-0.395,0.393-0.395
				c0.216,0,0.393,0.176,0.393,0.395v0.6h0.596c0.219,0,0.397,0.173,0.397,0.393C26.085,17.395,25.907,17.567,25.688,17.567
				L25.688,17.567z M25.688,17.567"/>
			<path fill="#FFFFFF" d="M22.911,13.189l0.871-0.177l0.071-0.9h-2.951l0.069,0.9l0.871,0.177c0.112,0.024,0.206,0.091,0.263,0.19
				c0.056,0.098,0.068,0.216,0.033,0.323l-0.269,0.792l0.51,0.995l0.508-0.995l-0.269-0.792c-0.035-0.106-0.024-0.225,0.032-0.323
				C22.707,13.281,22.801,13.213,22.911,13.189L22.911,13.189z M22.911,13.189"/>
		</g>
	</g>
</g>
</svg>
