<?xml version="1.0" encoding="utf-8"?>
<!-- Generator: Adobe Illustrator 16.0.0, SVG Export Plug-In . SVG Version: 6.00 Build 0)  -->
<!DOCTYPE svg PUBLIC "-//W3C//DTD SVG 1.1//EN" "http://www.w3.org/Graphics/SVG/1.1/DTD/svg11.dtd">
<svg version="1.1" id="Layer_1" xmlns="http://www.w3.org/2000/svg" xmlns:xlink="http://www.w3.org/1999/xlink" x="0px" y="0px"
	 width="45px" height="40px" viewBox="0 0 45 40" enable-background="new 0 0 45 40" xml:space="preserve">
<path fill="#FFFFFF" d="M37.353,30.83c-0.374-0.375-0.377-0.984,0-1.358l4.429-4.428c0.755-0.755,0.755-1.981,0-2.734l-0.598-0.6
	c-0.754-0.754-1.984-0.754-2.735,0.002l-4.43,4.427c-0.376,0.375-0.98,0.375-1.358,0l-4.429-4.429c-0.755-0.754-1.984-0.754-2.737,0
	l-0.595,0.6c-0.757,0.753-0.753,1.979,0,2.734l4.429,4.428c0.374,0.376,0.374,0.983,0,1.358l-4.429,4.432
	c-0.753,0.751-0.753,1.978,0,2.735l0.595,0.595c0.753,0.754,1.982,0.754,2.737,0l4.429-4.427c0.373-0.379,0.982-0.376,1.358,0
	l4.428,4.427c0.753,0.754,1.98,0.756,2.737,0l0.598-0.595c0.755-0.758,0.755-1.986,0-2.74L37.353,30.83z"/>
<path fill="#FFFFFF" d="M35.296,35.442l3.15,3.149c0.377,0.377,0.872,0.566,1.368,0.566c0.495,0,0.991-0.188,1.369-0.566
	l0.598-0.595c0.723-0.726,0.745-1.877,0.086-2.636c-0.065,0.048-0.142,0.081-0.228,0.081H35.296z"/>
<path fill="#FFFFFF" d="M29.771,31.577c0.218,0,0.396-0.179,0.396-0.396v-3.244c0-0.219-0.178-0.396-0.396-0.396h-1.055
	c-0.219,0-0.396,0.178-0.396,0.396v0.527l1.008,1.008c0.374,0.376,0.374,0.983,0,1.358l-0.724,0.725
	c0.036,0.011,0.071,0.022,0.111,0.022H29.771z"/>
<path fill="#FFFFFF" d="M24.899,37.997l0.595,0.595c0.377,0.377,0.872,0.565,1.368,0.565c0.495,0,0.991-0.188,1.369-0.565
	l3.15-3.149h-6.63C24.159,36.198,24.203,37.296,24.899,37.997z"/>
<path fill="#FFFFFF" d="M25.284,22.526v-0.604l-0.385,0.388c-0.148,0.147-0.259,0.316-0.349,0.493l0.165,0.08
	C24.979,23.01,25.284,22.818,25.284,22.526z"/>
<path fill="#FFFFFF" d="M40.353,23.84v2.633l1.429-1.429c0.755-0.755,0.755-1.981,0-2.734l-0.598-0.6
	c-0.377-0.377-0.872-0.565-1.368-0.565s-0.991,0.189-1.367,0.567l-0.611,0.61l2.299,1.165C40.271,23.555,40.353,23.69,40.353,23.84z
	"/>
<path fill="#FFFFFF" d="M36.712,27.54h-1.055c-0.22,0-0.396,0.178-0.396,0.396v3.244c0,0.218,0.177,0.396,0.396,0.396h1.055
	c0.217,0,0.395-0.179,0.395-0.396v-0.849c-0.024-0.122-0.023-0.243,0-0.365v-2.03C37.106,27.718,36.929,27.54,36.712,27.54z"/>
<path fill="#FFFFFF" d="M27.462,30.151l-3.837-3.836c-0.706-0.708-1.094-1.648-1.092-2.648c0.001-0.588,0.151-1.146,0.405-1.653
	l-4.313-2.109c-0.263-0.129-0.569,0.063-0.569,0.355v13.358H16.96V7.114c0-0.219-0.179-0.396-0.396-0.396h-0.939
	c-0.219,0-0.396-0.176-0.396-0.396V1.237c0-0.219-0.177-0.396-0.396-0.396H6.413c-0.218,0-0.395,0.177-0.395,0.396v5.085
	c0,0.22-0.178,0.396-0.396,0.396H4.684c-0.22,0-0.396,0.176-0.396,0.396v26.503H3.36c-0.218,0-0.395,0.176-0.395,0.392v1.038
	c0,0.22,0.177,0.396,0.395,0.396h19.383c0.177-0.531,0.461-1.032,0.883-1.453L27.462,30.151z M5.585,29.433V9.555
	c0-0.219,0.178-0.395,0.396-0.395h0.807c0.219,0,0.396,0.176,0.396,0.395v19.878c0,0.22-0.178,0.395-0.396,0.395H5.981
	C5.763,29.827,5.585,29.652,5.585,29.433z M9.44,33.617H6.097v-1.048c0-0.22,0.177-0.397,0.396-0.397h2.553
	c0.218,0,0.395,0.178,0.395,0.397V33.617z M10.011,29.433c0,0.22-0.178,0.395-0.396,0.395H8.807c-0.218,0-0.396-0.175-0.396-0.395
	V9.555c0-0.219,0.178-0.395,0.396-0.395h0.808c0.219,0,0.396,0.176,0.396,0.395V29.433z M11.237,29.433V9.555
	c0-0.219,0.177-0.395,0.396-0.395h0.806c0.22,0,0.396,0.176,0.396,0.395v19.878c0,0.22-0.176,0.395-0.396,0.395h-0.806
	C11.414,29.827,11.237,29.652,11.237,29.433z M15.149,33.617h-3.345v-1.048c0-0.22,0.178-0.397,0.397-0.397h2.553
	c0.218,0,0.395,0.178,0.395,0.397V33.617z M15.661,29.433c0,0.22-0.177,0.395-0.396,0.395h-0.807c-0.219,0-0.397-0.175-0.397-0.395
	V9.555c0-0.219,0.179-0.395,0.397-0.395h0.807c0.22,0,0.396,0.176,0.396,0.395V29.433z M23.226,31.181
	c0,0.218-0.178,0.396-0.396,0.396h-1.056c-0.218,0-0.394-0.179-0.394-0.396v-3.244c0-0.219,0.176-0.396,0.394-0.396h1.056
	c0.219,0,0.396,0.178,0.396,0.396V31.181z"/>
<path fill="#FFFFFF" d="M37.353,30.83c-0.14-0.141-0.211-0.316-0.246-0.498v0.849c0,0.218-0.178,0.396-0.395,0.396h-1.055
	c-0.22,0-0.396-0.179-0.396-0.396v-3.244c0-0.219,0.177-0.396,0.396-0.396h1.055c0.217,0,0.395,0.178,0.395,0.396v2.03
	c0.035-0.181,0.105-0.355,0.246-0.495l3-2.999V23.84c0-0.149-0.082-0.285-0.217-0.353l-2.299-1.165l-3.818,3.816
	c-0.188,0.188-0.433,0.281-0.679,0.281c-0.245,0-0.49-0.094-0.68-0.281l-4.429-4.429c-0.378-0.377-0.874-0.565-1.369-0.565
	c-0.496,0-0.991,0.188-1.368,0.565l-0.21,0.212v0.604c0,0.292-0.305,0.483-0.568,0.356l-0.165-0.08
	c-0.369,0.726-0.257,1.634,0.349,2.241l3.421,3.42v-0.527c0-0.219,0.177-0.396,0.396-0.396h1.055c0.218,0,0.396,0.178,0.396,0.396
	v3.244c0,0.218-0.178,0.396-0.396,0.396h-1.055c-0.04,0-0.075-0.012-0.111-0.022l-3.705,3.707c-0.057,0.057-0.1,0.119-0.147,0.181
	h6.63l1.278-1.277c0.187-0.189,0.432-0.283,0.677-0.283c0.246,0,0.493,0.095,0.682,0.283l1.277,1.277h6.344
	c0.086,0,0.162-0.033,0.228-0.081c-0.03-0.034-0.054-0.072-0.086-0.104L37.353,30.83z"/>
<path fill="#FFFFFF" d="M37.106,30.332v-0.365C37.083,30.089,37.082,30.21,37.106,30.332z"/>
</svg>
