<?xml version="1.0" encoding="utf-8"?>
<!-- Generator: Adobe Illustrator 16.0.0, SVG Export Plug-In . SVG Version: 6.00 Build 0)  -->
<!DOCTYPE svg PUBLIC "-//W3C//DTD SVG 1.1//EN" "http://www.w3.org/Graphics/SVG/1.1/DTD/svg11.dtd">
<svg version="1.1" id="Layer_1" xmlns="http://www.w3.org/2000/svg" xmlns:xlink="http://www.w3.org/1999/xlink" x="0px" y="0px"
	 width="45px" height="40px" viewBox="0 0 45 40" enable-background="new 0 0 45 40" xml:space="preserve">
<g>
	<g>
		<path fill="#FFFFFF" d="M40.771,3.526c0-1.026-0.829-1.855-1.852-1.855H6.544c-1.025,0-1.854,0.829-1.854,1.855
			c0,0.679,0.377,1.273,0.928,1.589v21.311c0.499-0.455,1.108-1.014,1.847-1.689V5.372h30.529v20.353H14.149
			c-0.618,0.68-1.184,1.295-1.69,1.85h1.631l-3.321,4.234c-0.268,0.988,0.318,1.998,1.309,2.266
			c0.982,0.256,2.001-0.324,2.264-1.311l3.336-4.266h10.107l3.336,4.266c0.221,0.826,0.969,1.371,1.783,1.371
			c0.162,0,0.316-0.016,0.479-0.061c0.988-0.268,1.573-1.281,1.31-2.266l-3.322-4.234h7.549c0.51,0,0.927-0.414,0.927-0.922V5.115
			C40.396,4.799,40.771,4.205,40.771,3.526L40.771,3.526z M40.771,3.526"/>
		<path fill="#FFFFFF" d="M25.262,22.5v-5.45c0-0.804-0.714-1.457-1.599-1.457c-0.887,0-1.604,0.653-1.604,1.457v5.45
			c0,0.807,0.717,1.453,1.604,1.453C24.548,23.953,25.262,23.303,25.262,22.5L25.262,22.5z M25.262,22.5"/>
		<path fill="#FFFFFF" d="M30.47,22.354V10.733c0-0.88-0.72-1.599-1.6-1.599c-0.887,0-1.604,0.719-1.604,1.599V22.35
			c0,0.887,0.717,1.604,1.604,1.604C29.75,23.953,30.47,23.236,30.47,22.354L30.47,22.354z M30.47,22.354"/>
		<path fill="#FFFFFF" d="M35.676,22.354V13.94c0-0.885-0.718-1.602-1.599-1.602c-0.887,0-1.604,0.717-1.604,1.602v8.414
			c0,0.887,0.717,1.6,1.604,1.6C34.958,23.953,35.676,23.236,35.676,22.354L35.676,22.354z M35.676,22.354"/>
		<path fill="#FFFFFF" d="M17.666,18.503c-0.181-0.174-0.465-0.174-0.64,0c0,0-12.388,11.325-12.447,11.383
			c-0.467,0.469-0.467,1.23,0,1.701c0.471,0.469,1.234,0.469,1.706,0c0.058-0.061,11.381-12.441,11.381-12.441
			C17.843,18.968,17.843,18.681,17.666,18.503L17.666,18.503z M17.666,18.503"/>
		<g>
			<path fill="#FFFFFF" d="M13.929,17.319c2.478,0,4.524-1.853,4.829-4.247c0.039-0.33-0.216-0.623-0.55-0.623h-3.45
				c-0.456,0-0.829-0.371-0.829-0.829V8.166c0-0.332-0.293-0.587-0.623-0.546C10.911,7.927,9.06,9.972,9.06,12.45
				C9.06,15.144,11.232,17.319,13.929,17.319L13.929,17.319z M13.929,17.319"/>
			<path fill="#FFFFFF" d="M15.267,6.922c-0.328-0.042-0.618,0.219-0.618,0.549V11.2c0,0.305,0.247,0.552,0.553,0.552h3.729
				c0.331,0,0.59-0.291,0.546-0.619C19.2,8.938,17.462,7.202,15.267,6.922L15.267,6.922z M15.267,6.922"/>
		</g>
	</g>
</g>
</svg>
