<?xml version="1.0" encoding="utf-8"?>
<!-- Generator: Adobe Illustrator 16.0.0, SVG Export Plug-In . SVG Version: 6.00 Build 0)  -->
<!DOCTYPE svg PUBLIC "-//W3C//DTD SVG 1.1//EN" "http://www.w3.org/Graphics/SVG/1.1/DTD/svg11.dtd">
<svg version="1.1" id="Layer_1" xmlns="http://www.w3.org/2000/svg" xmlns:xlink="http://www.w3.org/1999/xlink" x="0px" y="0px"
	 width="45px" height="40px" viewBox="0 0 45 40" enable-background="new 0 0 45 40" xml:space="preserve">
<g>
	<path fill="#FFFFFF" d="M28.053,35.232c0.065,0,0.135,0,0.208,0c0.021-0.002,0.042-0.01,0.062-0.012h-0.406
		C27.965,35.223,28.01,35.232,28.053,35.232z"/>
	<g>
		<path fill="#FFFFFF" d="M9.608,31.902c-1.401,0-2.541-1.137-2.541-2.529V6.613c0-1.399,1.14-2.533,2.541-2.533h17.76
			c1.404,0,2.54,1.134,2.54,2.533v15.844l3.33-3.902V4.178c0-1.841-1.497-3.337-3.336-3.337H6.954c-1.771,0-3.215,1.438-3.215,3.201
			v27.849c0,1.841,1.497,3.33,3.346,3.33h16.175l-3.861-3.318H9.608z"/>
		<path fill="#FFFFFF" d="M17.714,23.692c0.987-1.144,2.411-1.795,3.911-1.795c1.22,0,2.403,0.436,3.333,1.229l1.065,0.916
			c0.826-0.082,1.463-0.749,1.463-1.596c0-0.894-0.727-1.616-1.635-1.616h-14.73c-0.904,0-1.631,0.722-1.631,1.616
			c0,0.906,0.727,1.609,1.631,1.609h6.337C17.547,23.938,17.613,23.809,17.714,23.692z"/>
		<path fill="#FFFFFF" d="M11.121,26.081c-0.904,0-1.631,0.713-1.631,1.613c0,0.903,0.727,1.632,1.631,1.632h5.899
			c-0.497-1.007-0.632-2.148-0.426-3.245H11.121z"/>
		<circle fill="#FFFFFF" cx="18.491" cy="8.798" r="2.552"/>
		<path fill="#FFFFFF" d="M13.352,14.956v3.193c0,0.441,0.359,0.796,0.798,0.796h8.681c0.438,0,0.795-0.355,0.795-0.796v-3.202
			c-0.002-1.566-1.273-2.836-2.839-2.836h-0.027l-0.096,1.257c-0.015,0.178-0.143,0.324-0.318,0.357l-0.722,0.148l0.179,0.524
			c0.032,0.1,0.025,0.211-0.021,0.306c0,0-0.704,1.376-0.938,1.832c-0.001,0.003-0.116,0.183-0.345,0.183
			c-0.279,0-0.358-0.179-0.358-0.183c-0.234-0.456-0.936-1.832-0.936-1.832c-0.049-0.095-0.059-0.206-0.022-0.306l0.175-0.523
			l-0.723-0.149c-0.171-0.032-0.301-0.178-0.312-0.356l-0.098-1.259h-0.027C14.624,12.111,13.352,13.386,13.352,14.956z
			 M19.831,16.781h0.589v-0.599c0-0.218,0.174-0.395,0.392-0.395c0.219,0,0.395,0.177,0.395,0.395v0.599h0.596
			c0.218,0,0.397,0.174,0.397,0.394c0,0.219-0.18,0.392-0.397,0.392h-0.596v0.587c0,0.22-0.175,0.396-0.395,0.396
			c-0.218,0-0.392-0.176-0.392-0.396v-0.587h-0.589c-0.219,0-0.395-0.172-0.395-0.392C19.437,16.956,19.612,16.781,19.831,16.781z"
			/>
		<path fill="#FFFFFF" d="M19.027,13.189l0.869-0.177l0.069-0.901h-2.947l0.068,0.901l0.869,0.177
			c0.112,0.023,0.207,0.091,0.266,0.19c0.054,0.098,0.066,0.216,0.034,0.321l-0.272,0.793l0.507,0.995L19,14.494l-0.268-0.793
			c-0.036-0.105-0.025-0.224,0.031-0.321C18.82,13.281,18.917,13.213,19.027,13.189z"/>
		<path fill="#FFFFFF" d="M40.314,18.173c-1.116-0.959-2.816-0.823-3.771,0.303l-3.306,3.876l-3.33,3.902l-2.153,2.525l-0.436-0.376
			l-2.704-2.323L23.355,25c-1.118-0.957-2.804-0.821-3.771,0.293c-0.204,0.24-0.349,0.509-0.454,0.788
			c-0.39,1.026-0.13,2.227,0.749,2.982l0.301,0.263l3.002,2.576l3.121,2.683c0.463,0.392,1.024,0.607,1.615,0.636h0.406
			c0.685-0.074,1.319-0.399,1.761-0.917l3.153-3.697l7.39-8.665C41.576,20.824,41.447,19.136,40.314,18.173z"/>
	</g>
</g>
</svg>
