<?xml version="1.0" encoding="utf-8"?>
<!-- Generator: Adobe Illustrator 16.0.0, SVG Export Plug-In . SVG Version: 6.00 Build 0)  -->
<!DOCTYPE svg PUBLIC "-//W3C//DTD SVG 1.1//EN" "http://www.w3.org/Graphics/SVG/1.1/DTD/svg11.dtd">
<svg version="1.1" id="Layer_1" xmlns="http://www.w3.org/2000/svg" xmlns:xlink="http://www.w3.org/1999/xlink" x="0px" y="0px"
	 width="45px" height="40px" viewBox="0 0 45 40" enable-background="new 0 0 45 40" xml:space="preserve">
<g>
	<path fill="#FFFFFF" d="M32.824,1.304h-1.738c-0.577,0-1.045,0.464-1.045,1.042V10.8c0,0.658-0.305,1.29-0.646,1.832
		c-0.299,0.481-0.667,0.922-1.079,1.308c-0.498,0.469-1.182,0.985-2.09,1.393c0.56,0.146,1.106,0.326,1.635,0.542
		c0.894,0.36,1.732,0.818,2.506,1.36c0.2-0.163,0.392-0.337,0.582-0.514c1.803-1.709,2.92-3.937,2.92-5.817V2.346
		C33.868,1.768,33.401,1.304,32.824,1.304L32.824,1.304z M32.824,1.304"/>
	<path fill="#FFFFFF" d="M16.684,22.056c0.496-0.469,1.183-0.982,2.091-1.391c-0.562-0.146-1.106-0.328-1.635-0.542
		c-0.895-0.363-1.732-0.818-2.505-1.36c-0.203,0.163-0.394,0.337-0.585,0.514c-1.801,1.708-2.918,3.934-2.918,5.817v8.557
		c0,0.577,0.467,1.044,1.044,1.044h1.74c0.577,0,1.043-0.467,1.043-1.044v-8.448c0-0.655,0.305-1.291,0.646-1.834
		C15.908,22.886,16.272,22.447,16.684,22.056L16.684,22.056z M16.684,22.056"/>
	<path fill="#FFFFFF" d="M30.945,19.277c-0.188-0.177-0.382-0.352-0.584-0.514c-0.163-0.137-0.334-0.264-0.504-0.389
		c-0.178-0.13-0.359-0.255-0.543-0.373c-0.601-0.387-1.242-0.721-1.916-0.995c-1.499-0.61-3.149-0.919-4.898-0.919
		c-1.021,0-1.906-0.139-2.675-0.365c-0.38-0.111-0.731-0.243-1.054-0.387c-0.905-0.408-1.594-0.921-2.091-1.391
		c-0.296-0.283-0.547-0.568-0.759-0.849h11.517c0.417-0.386,0.78-0.836,1.056-1.334c0.155-0.288,0.33-0.625,0.33-0.962H14.959V9.129
		h13.865V6.833H14.959V5.165h13.865V2.869H14.959V2.346c0-0.578-0.466-1.042-1.043-1.042h-1.74c-0.577,0-1.044,0.464-1.044,1.042
		v8.559c0,1.881,1.12,4.111,2.918,5.817c0.188,0.177,0.382,0.351,0.585,0.514c0.163,0.134,0.333,0.264,0.504,0.389
		c0.178,0.129,0.358,0.254,0.542,0.372c0.604,0.387,1.242,0.722,1.917,0.995c1.504,0.613,3.151,0.922,4.902,0.922
		c1.02,0,1.907,0.139,2.676,0.365c0.379,0.113,0.73,0.245,1.054,0.387c0.904,0.408,1.593,0.922,2.091,1.391
		c0.294,0.283,0.547,0.568,0.759,0.849H17.56c-0.412,0.387-0.777,0.837-1.054,1.334c-0.158,0.288-0.33,0.625-0.33,0.964h13.865
		v1.669H16.176v2.296h13.865v1.669H16.176v2.296h13.865v0.523c0,0.577,0.468,1.044,1.045,1.044h1.738
		c0.577,0,1.044-0.467,1.044-1.044v-8.559C33.868,23.216,32.746,20.985,30.945,19.277L30.945,19.277z M30.945,19.277"/>
</g>
</svg>
