<?xml version="1.0" encoding="utf-8"?>
<!-- Generator: Adobe Illustrator 16.0.0, SVG Export Plug-In . SVG Version: 6.00 Build 0)  -->
<!DOCTYPE svg PUBLIC "-//W3C//DTD SVG 1.1//EN" "http://www.w3.org/Graphics/SVG/1.1/DTD/svg11.dtd">
<svg version="1.1" id="Layer_1" xmlns="http://www.w3.org/2000/svg" xmlns:xlink="http://www.w3.org/1999/xlink" x="0px" y="0px"
	 width="90px" height="80px" viewBox="0 0 90 80" enable-background="new 0 0 90 80" xml:space="preserve">
<g>
	<path fill="#FFFFFF" d="M63.195,51.844c1.587,2.537,4.407,4.229,7.626,4.229c4.965,0,8.991-4.029,8.991-8.998
		c0-4.965-4.026-8.99-8.991-8.99c-4.969,0-8.993,4.024-8.993,8.99c0,0.123,0,0.247,0.009,0.37l-12.585,3.886
		c-0.88-1.843-2.092-3.501-3.558-4.884l15.541-22.13c1.216,0.499,2.541,0.765,3.933,0.765c5.731,0,10.377-4.642,10.377-10.372
		c0-5.729-4.646-10.376-10.377-10.376c-4.561,0-8.432,2.941-9.819,7.027l-9.72-1.021c-0.737-2.304-2.896-3.977-5.445-3.977
		c-3.159,0-5.725,2.556-5.725,5.72c0,3.165,2.561,5.721,5.725,5.721c2.126,0,3.977-1.159,4.96-2.879l9.721,1.021
		c0.261,2.186,1.197,4.171,2.604,5.721l-15.541,22.13c-2.214-1.121-4.708-1.758-7.359-1.758c-2.793,0-5.421,0.708-7.716,1.953
		l-5.637-7.606c0.62-0.979,0.981-2.148,0.981-3.397c0-3.521-2.847-6.366-6.364-6.366c-3.519,0-6.369,2.841-6.369,6.357
		c0,3.516,2.851,6.366,6.369,6.366c0.582,0,1.143-0.076,1.679-0.223l5.635,7.611c-2.977,2.941-4.818,7.031-4.818,11.55
		c0,8.97,7.269,16.239,16.239,16.239c8.97,0,16.239-7.269,16.239-16.239c0-0.87-0.066-1.72-0.194-2.551L63.195,51.844z
		 M63.195,51.844"/>
</g>
</svg>
