<?xml version="1.0" encoding="utf-8"?>
<!-- Generator: Adobe Illustrator 16.0.0, SVG Export Plug-In . SVG Version: 6.00 Build 0)  -->
<!DOCTYPE svg PUBLIC "-//W3C//DTD SVG 1.1//EN" "http://www.w3.org/Graphics/SVG/1.1/DTD/svg11.dtd">
<svg version="1.1" id="Layer_1" xmlns="http://www.w3.org/2000/svg" xmlns:xlink="http://www.w3.org/1999/xlink" x="0px" y="0px"
	 width="90px" height="80px" viewBox="0 0 90 80" enable-background="new 0 0 90 80" xml:space="preserve">
<g>
	<path fill="#FFFFFF" d="M27.258,34.66c0.146-0.094,0.297-0.189,0.441-0.284c0.933-0.572,1.902-1.053,2.916-1.433
		c0.595-0.222,1.195-0.412,1.808-0.564v-9.024c0-0.798-0.649-1.447-1.447-1.447h-2.77c-0.794,0-1.447,0.649-1.447,1.447v5.733
		l-3.046-3.043c-0.562-0.565-1.48-0.565-2.045,0l-0.127,0.131c-0.565,0.561-0.565,1.483,0,2.044l5.212,5.215v1.563
		C26.927,34.882,27.093,34.766,27.258,34.66L27.258,34.66z M27.258,34.66"/>
	<path fill="#FFFFFF" d="M65.483,34.5l-0.258-0.608c-0.318-0.729-1.172-1.072-1.901-0.751l-3.872,1.669
		c0.327,1.181,0.505,2.395,0.55,3.637l4.729-2.044C65.463,36.082,65.796,35.236,65.483,34.5L65.483,34.5z M65.483,34.5"/>
	<path fill="#FFFFFF" d="M49.224,11.16h-1.213c-0.794,0-1.447,0.649-1.447,1.447v11.382c1.411,0.087,2.785,0.387,4.107,0.896v-2.3
		l4.261-4.26c0.565-0.561,0.565-1.48,0-2.048l-0.131-0.127c-0.562-0.565-1.48-0.565-2.045,0l-2.092,2.088v-5.631
		C50.671,11.809,50.026,11.16,49.224,11.16L49.224,11.16z M49.224,11.16"/>
	<path fill="#FFFFFF" d="M64.907,48.71c-1.101-1.032-2.321-1.874-3.48-2.817c-1.517-1.243-3.608-4.18-3.911-6.367
		c-0.025-0.171-0.036-0.346-0.036-0.514v-0.007c0-1.09-0.131-2.154-0.387-3.167c-0.889-3.637-3.272-6.626-6.414-8.178
		c-1.265-0.624-2.646-1.013-4.108-1.123c-0.27-0.021-0.542-0.029-0.816-0.029c-0.769,0-1.52,0.08-2.252,0.229V7.209
		c0-0.794-0.648-1.447-1.447-1.447h-3.579c-0.795,0-1.447,0.652-1.447,1.447v23.446c-0.629,0.751-1.177,1.582-1.627,2.478
		c-0.414,0.817-1.165,1.418-2.054,1.619c-0.245,0.058-0.485,0.124-0.729,0.189c-0.065,0.022-0.131,0.037-0.196,0.058
		c-1.006,0.303-1.964,0.718-2.872,1.221c-1.004,0.565-1.939,1.247-2.792,2.019c-1.149,1.057-2.157,2.292-2.966,3.674l-2.038-1.505
		l-0.47-0.346v-4.428c0-0.794-0.652-1.447-1.447-1.447h-0.722c-0.798,0-1.45,0.652-1.45,1.447v5.521
		c0,0.456,0.219,0.889,0.587,1.163l1.912,1.41l1.069,0.795l1.072,0.791c-0.5,1.589-0.765,3.291-0.765,5.062
		c0,10.689,9.574,16.338,18.493,19.52c3.226,1.152,6.85,2.18,10.299,3.018c2.249,0.543,5.273,1.735,7.928,1.735
		c0.962,0,1.865-0.149,2.674-0.547c3.748-1.848,12.458-7.11,10.352-15.307C70.265,54.858,67.822,51.462,64.907,48.71L64.907,48.71z
		 M64.907,48.71"/>
</g>
</svg>
