<?xml version="1.0" encoding="utf-8"?>
<!-- Generator: Adobe Illustrator 16.0.0, SVG Export Plug-In . SVG Version: 6.00 Build 0)  -->
<!DOCTYPE svg PUBLIC "-//W3C//DTD SVG 1.1//EN" "http://www.w3.org/Graphics/SVG/1.1/DTD/svg11.dtd">
<svg version="1.1" id="Layer_1" xmlns="http://www.w3.org/2000/svg" xmlns:xlink="http://www.w3.org/1999/xlink" x="0px" y="0px"
	 width="90px" height="80px" viewBox="0 0 90 80" enable-background="new 0 0 90 80" xml:space="preserve">
<g>
	<path fill="#FFFFFF" d="M39.776,23.279v-3.497c-2.859-2.773-4.792-6.462-8.063-8.794c-3.721-2.647-8.288-3.603-12.77-2.941
		c-3.855,0.576-8.198,1.487-11.976,0.102C6.628,8.026,6.305,8.357,6.436,8.688c1.147,2.896,5.707,11.756,18.267,12.728
		C34.021,22.139,37.783,22.662,39.776,23.279L39.776,23.279z M39.776,23.279"/>
	<path fill="#FFFFFF" d="M82.3,8.157c-3.779,1.385-8.121,0.474-11.974-0.098c-4.484-0.666-9.052,0.29-12.772,2.937
		c-3.272,2.325-5.208,6.013-8.063,8.794v3.497c1.993-0.617,5.755-1.148,15.073-1.871c12.552-0.972,17.115-9.832,18.274-12.72
		C82.973,8.365,82.639,8.035,82.3,8.157L82.3,8.157z M82.3,8.157"/>
	<path fill="#FFFFFF" d="M41.23,16.47c0.421,0.388,0.911,0.715,1.451,0.939v17.303l-2.905-1.38l-6.638-3.129h4.771
		c0.829,0,1.532-0.539,1.781-1.286c0.065-0.192,0.102-0.393,0.102-0.597v-1.863c0-0.208-0.037-0.412-0.102-0.596
		c-0.249-0.748-0.952-1.287-1.781-1.287h-8.141c-1.045,0-1.883,0.845-1.883,1.883v6.246c0,0.748,0.441,1.421,1.111,1.719
		l9.191,4.134l-5.669,3.386c-0.572,0.343-0.923,0.956-0.923,1.621v0.862c0,0.731,0.425,1.396,1.09,1.711l5.936,2.791l-3.876,2.168
		c-0.596,0.331-0.964,0.96-0.964,1.643v0.907c0,0.718,0.417,1.384,1.062,1.699l4.097,1.985l-3.713,2.572
		c-0.506,0.352-0.812,0.932-0.812,1.557v1.193c0,0.764,0.461,1.454,1.168,1.743l3.456,1.43l-1.43,1.418
		c-0.356,0.359-0.556,0.833-0.556,1.336c0,0.751,0.441,1.421,1.115,1.72l0.315,0.143c0.408,0.185,0.862,0.217,1.287,0.09
		c0.106-0.032,0.216-0.072,0.322-0.122l1.132-0.563l1.45-0.724v4.489c0,1.014,0.817,1.831,1.827,1.831h0.24
		c1.014,0,1.827-0.817,1.827-1.831v-4.473l1.454,0.723l1.132,0.556c0.099,0.049,0.204,0.09,0.322,0.123
		c0.425,0.126,0.879,0.094,1.287-0.09l0.314-0.143C51.758,70,52.19,69.33,52.19,68.592c0-0.498-0.2-0.98-0.56-1.341l-1.401-1.426
		l3.456-1.43c0.706-0.289,1.172-0.979,1.172-1.743v-1.206c0-0.62-0.302-1.192-0.817-1.551l-3.712-2.574l4.092-1.985
		c0.65-0.313,1.067-0.973,1.067-1.699v-0.907c0-0.682-0.369-1.311-0.965-1.641l-3.876-2.161l5.935-2.791
		c0.666-0.306,1.087-0.979,1.087-1.711v-0.862c0-0.665-0.348-1.278-0.919-1.621l-5.674-3.386l9.203-4.126
		c0.682-0.307,1.11-0.98,1.11-1.72v-6.245c0-1.046-0.846-1.883-1.883-1.883l-8.133-0.025c-0.829,0-1.532,0.54-1.78,1.287
		c-0.07,0.192-0.103,0.389-0.103,0.605v1.863c0,0.204,0.032,0.413,0.103,0.604c0.248,0.747,0.951,1.286,1.78,1.286l4.751,0.025
		l-6.642,3.112l-2.909,1.381V17.409c0.544-0.233,1.034-0.552,1.458-0.939c0.695-0.654,1.21-1.503,1.451-2.459
		c0.102-0.392,0.151-0.789,0.151-1.213c0-0.413-0.05-0.821-0.151-1.213c-0.127-0.49-0.314-0.952-0.572-1.376
		c-0.879-1.446-2.467-2.414-4.286-2.414c-1.817,0-3.402,0.96-4.285,2.414c-0.257,0.425-0.449,0.887-0.572,1.376
		c-0.103,0.392-0.151,0.793-0.151,1.213c0,0.417,0.049,0.821,0.151,1.213C40.013,14.966,40.532,15.812,41.23,16.47L41.23,16.47z
		 M42.681,54.732l-2.925-1.562l2.925-1.56V54.732z M38.612,43.837l4.069-2.058v4.117L38.612,43.837z M39.755,61.672l2.925-1.561
		v3.12L39.755,61.672z M46.573,63.231v-3.112l2.925,1.561L46.573,63.231z M46.573,54.732v-3.114l2.925,1.562L46.573,54.732z
		 M50.646,43.837l-4.073,2.06v-4.117L50.646,43.837z M50.646,43.837"/>
</g>
</svg>
