<?xml version="1.0" encoding="utf-8"?>
<!-- Generator: Adobe Illustrator 16.0.0, SVG Export Plug-In . SVG Version: 6.00 Build 0)  -->
<!DOCTYPE svg PUBLIC "-//W3C//DTD SVG 1.1//EN" "http://www.w3.org/Graphics/SVG/1.1/DTD/svg11.dtd">
<svg version="1.1" id="Layer_1" xmlns="http://www.w3.org/2000/svg" xmlns:xlink="http://www.w3.org/1999/xlink" x="0px" y="0px"
	 width="90px" height="80px" viewBox="0 0 90 80" enable-background="new 0 0 90 80" xml:space="preserve">
<g>
	<path fill="#FFFFFF" d="M32.187,71.189h-2.402c-1.344,1.322-2.817,2.426-4.424,3.318h6.826c0.416,0,0.755-0.337,0.755-0.749v-1.816
		C32.942,71.527,32.603,71.189,32.187,71.189L32.187,71.189z M32.187,71.189"/>
	<path fill="#FFFFFF" d="M46.277,71.189h-9.167c-0.416,0-0.751,0.338-0.751,0.753v1.816c0,0.412,0.335,0.749,0.751,0.749h9.167
		c0.411,0,0.749-0.337,0.749-0.749v-1.816C47.026,71.527,46.688,71.189,46.277,71.189L46.277,71.189z M46.277,71.189"/>
	<path fill="#FFFFFF" d="M60.361,71.189h-9.166c-0.414,0-0.751,0.338-0.751,0.753v1.816c0,0.412,0.337,0.749,0.751,0.749h9.166
		c0.413,0,0.751-0.337,0.751-0.749v-1.816C61.112,71.527,60.774,71.189,60.361,71.189L60.361,71.189z M60.361,71.189"/>
	<path fill="#FFFFFF" d="M74.445,71.189h-9.163c-0.413,0-0.753,0.338-0.753,0.753v1.816c0,0.412,0.34,0.749,0.753,0.749h9.163
		c0.412,0,0.753-0.337,0.753-0.749v-1.816C75.198,71.527,74.857,71.189,74.445,71.189L74.445,71.189z M74.445,71.189"/>
	<path fill="#FFFFFF" d="M32.235,63.37c4.964-9.646,6.504-12.191,8.496-13.637l-4.411-4.408L8.595,73.053
		c-0.204,0.201-0.116,0.549,0.157,0.624c1.019,0.293,3.274,0.831,6.082,0.831c2.242,0,4.832-0.344,7.438-1.417
		c1.152-0.474,2.309-1.098,3.435-1.895C28.095,69.493,30.365,66.998,32.235,63.37L32.235,63.37z M32.235,63.37"/>
	<path fill="#FFFFFF" d="M76.196,6.673c-0.791-0.788-1.817-1.18-2.847-1.18c-1.031,0-2.06,0.392-2.84,1.18L36.833,40.35
		c-0.482,0.484-0.482,1.265,0,1.745l2.056,2.058l21.238-21.237c0.052-0.051,0.1-0.095,0.15-0.136
		c0.007-0.008,0.023-0.014,0.031-0.021c0.023-0.023,0.053-0.037,0.082-0.061c0.82-0.587,1.953-0.508,2.688,0.218l0.296,0.293
		c0.645,0.647,0.78,1.625,0.397,2.405c-0.097,0.194-0.232,0.382-0.397,0.549L52.758,36.769l-7.371,7.371l-3.252,3.25l2.06,2.061
		c0.24,0.239,0.555,0.358,0.872,0.358c0.314,0,0.631-0.119,0.87-0.358l33.677-33.677c1.571-1.571,1.571-4.12,0-5.69L76.196,6.673z
		 M76.196,6.673"/>
</g>
</svg>
