<?xml version="1.0" encoding="utf-8"?>
<!-- Generator: Adobe Illustrator 16.0.0, SVG Export Plug-In . SVG Version: 6.00 Build 0)  -->
<!DOCTYPE svg PUBLIC "-//W3C//DTD SVG 1.1//EN" "http://www.w3.org/Graphics/SVG/1.1/DTD/svg11.dtd">
<svg version="1.1" id="Layer_1" xmlns="http://www.w3.org/2000/svg" xmlns:xlink="http://www.w3.org/1999/xlink" x="0px" y="0px"
	 width="90px" height="80px" viewBox="0 0 90 80" enable-background="new 0 0 90 80" xml:space="preserve">
<g>
	<path fill="#FFFFFF" d="M46.271,51.1c0.789,0,1.434-0.646,1.434-1.435v-0.668c0-0.787-0.645-1.432-1.434-1.432H22.327
		c-0.789,0-1.433,0.645-1.433,1.432v0.668c0,0.788,0.644,1.435,1.433,1.435H46.271z M46.271,51.1"/>
	<path fill="#FFFFFF" d="M61.306,21.541c-2.252-2.252-4.868-4.013-7.79-5.255l-0.017-0.008c-0.954-0.401-2.059-0.058-2.618,0.812
		l-1.663,2.588c-0.416-0.144-0.858-0.229-1.319-0.267c-0.136-0.007-0.277-0.012-0.422-0.012c-0.388,0-0.768,0.041-1.132,0.122
		l2.931-4.575l0.911-1.42c0.637-0.997,0.352-2.33-0.652-2.969L41.698,5.52c-0.36-0.232-0.761-0.336-1.162-0.336
		c-0.71,0-1.405,0.35-1.816,0.989L25.092,27.421c-0.636,0.996-0.349,2.33,0.654,2.968l1.484,0.952l-0.673,1.055l-0.676,1.054
		l-0.423,0.66c-0.637,0.996-0.35,2.332,0.654,2.966l1.277,0.82c0.995,0.639,2.33,0.349,2.966-0.653l0.423-0.66l0.673-1.054
		l0.673-1.054l1.465,0.939c0.356,0.229,0.758,0.336,1.159,0.336c0.712,0,1.406-0.352,1.813-0.988l5.596-8.727
		c0.112,0.52,0.297,1.005,0.558,1.458c0.222,0.395,0.485,0.757,0.794,1.081c1.032,1.09,2.503,1.764,4.129,1.713
		c2.876-0.085,5.212-2.424,5.29-5.298c0.025-0.702-0.093-1.377-0.315-2.001c1.501,0.819,2.89,1.857,4.132,3.1
		c3.41,3.412,5.291,7.941,5.291,12.767c0,4.826-1.881,9.355-5.291,12.768c-2.123,2.123-4.676,3.649-7.464,4.503
		c-0.209,0.064-0.423,0.094-0.64,0.094h-7.052c-1.192,0-2.152-0.961-2.152-2.15v-0.479H29.167v9.679
		c0.222-0.016,0.45-0.024,0.673-0.024h30.842c2.451-0.438,4.321-2.579,4.321-5.159c0-1.594-0.709-3.019-1.826-3.98
		c1.376-1.735,2.517-3.642,3.383-5.692c1.276-3.024,1.929-6.235,1.929-9.543c0-3.303-0.646-6.518-1.929-9.54
		C65.321,26.409,63.557,23.786,61.306,21.541L61.306,21.541z M47.477,26.81c-0.91,0-1.671-0.615-1.893-1.46
		c-0.044-0.159-0.065-0.331-0.065-0.504c0-0.968,0.705-1.771,1.627-1.928c0.108-0.023,0.225-0.029,0.34-0.029
		c1.08,0,1.956,0.874,1.956,1.957S48.562,26.81,47.477,26.81L47.477,26.81z M60.517,59.754c-0.229,0.106-0.486,0.164-0.762,0.164
		c-0.722,0-1.346-0.415-1.641-1.025c-0.122-0.242-0.186-0.524-0.186-0.809c0-1.01,0.816-1.837,1.836-1.837
		c0.274,0,0.527,0.058,0.763,0.165c0.12,0.058,0.239,0.13,0.349,0.208c0.438,0.337,0.724,0.861,0.724,1.456
		C61.594,58.83,61.146,59.467,60.517,59.754L60.517,59.754z M60.517,59.754"/>
	<path fill="#FFFFFF" d="M29.167,65.782c-4.69,0.345-8.382,4.258-8.382,9.034h37.581c1.188,0,2.15-0.962,2.15-2.152v-6.905H29.84
		C29.611,65.759,29.389,65.767,29.167,65.782L29.167,65.782z M29.167,65.782"/>
</g>
</svg>
