<?xml version="1.0" encoding="utf-8"?>
<!-- Generator: Adobe Illustrator 16.0.0, SVG Export Plug-In . SVG Version: 6.00 Build 0)  -->
<!DOCTYPE svg PUBLIC "-//W3C//DTD SVG 1.1//EN" "http://www.w3.org/Graphics/SVG/1.1/DTD/svg11.dtd">
<svg version="1.1" id="Layer_1" xmlns="http://www.w3.org/2000/svg" xmlns:xlink="http://www.w3.org/1999/xlink" x="0px" y="0px"
	 width="68px" height="68px" viewBox="0 0 68 68" enable-background="new 0 0 68 68" xml:space="preserve">
<g>
	
		<rect x="19.535" y="-0.271" transform="matrix(0.8926 0.4508 -0.4508 0.8926 14.4287 -6.1549)" fill="#00B7C0" width="1.2" height="54.965"/>
	<path fill="#FFFFFF" d="M34.001,67.166C15.714,67.166,0.833,52.289,0.833,34c0-18.287,14.881-33.166,33.168-33.166
		S67.167,15.713,67.167,34C67.167,52.289,52.288,67.166,34.001,67.166z M34.001,3.773C17.334,3.773,3.773,17.333,3.773,34
		s13.562,30.228,30.228,30.228c16.667,0,30.226-13.561,30.226-30.228S50.668,3.773,34.001,3.773z"/>
	<g>
		<path fill="#FFFFFF" d="M41.779,22.744c0,4.297-3.477,7.777-7.77,7.777s-7.772-3.479-7.772-7.777c0-4.292,3.479-7.771,7.772-7.771
			S41.779,18.452,41.779,22.744L41.779,22.744z M41.779,22.744"/>
		<path fill="#FFFFFF" d="M40.425,32.644h-0.08l-0.269,3.521c-0.04,0.491-0.398,0.898-0.883,0.997l-2.019,0.409l0.496,1.468
			c0.094,0.281,0.072,0.592-0.063,0.854c0,0-1.961,3.844-2.614,5.123c-0.003,0.004-0.32,0.508-0.962,0.508
			c-0.789,0-1.002-0.504-1.002-0.508c-0.658-1.279-2.617-5.123-2.617-5.123c-0.133-0.262-0.159-0.572-0.062-0.854l0.495-1.463
			l-2.019-0.412c-0.482-0.097-0.843-0.503-0.879-0.996l-0.273-3.523h-0.08c-4.39,0-7.953,3.562-7.953,7.953l1.021,8.926
			c0,1.227,0.999,2.226,2.228,2.226h22.222c1.228,0,2.226-0.999,2.226-2.226l1.021-8.952C48.355,36.195,44.804,32.644,40.425,32.644
			L40.425,32.644z M43.265,47.892h-1.672v1.646c0,0.61-0.491,1.104-1.099,1.104c-0.609,0-1.096-0.494-1.096-1.104v-1.646H37.75
			c-0.609,0-1.102-0.487-1.102-1.096c0-0.613,0.493-1.1,1.102-1.1h1.648v-1.676c0-0.611,0.487-1.104,1.096-1.104
			c0.608,0,1.099,0.493,1.099,1.104v1.676h1.672c0.61,0,1.106,0.486,1.106,1.1C44.371,47.404,43.875,47.892,43.265,47.892
			L43.265,47.892z M43.265,47.892"/>
		<path fill="#FFFFFF" d="M35.504,35.657l2.434-0.495l0.195-2.519h-8.248l0.195,2.519l2.431,0.495
			c0.312,0.066,0.578,0.255,0.736,0.534c0.16,0.273,0.192,0.602,0.09,0.901l-0.75,2.212l1.421,2.778l1.418-2.778l-0.749-2.212
			c-0.1-0.3-0.067-0.628,0.09-0.901C34.928,35.912,35.194,35.724,35.504,35.657L35.504,35.657z M35.504,35.657"/>
	</g>
</g>
</svg>
