<?xml version="1.0" encoding="utf-8"?>
<!-- Generator: Adobe Illustrator 16.0.0, SVG Export Plug-In . SVG Version: 6.00 Build 0)  -->
<!DOCTYPE svg PUBLIC "-//W3C//DTD SVG 1.1//EN" "http://www.w3.org/Graphics/SVG/1.1/DTD/svg11.dtd">
<svg version="1.1" id="Layer_1" xmlns="http://www.w3.org/2000/svg" xmlns:xlink="http://www.w3.org/1999/xlink" x="0px" y="0px"
	 width="23px" height="23px" viewBox="0 0 23 23" enable-background="new 0 0 23 23" xml:space="preserve">
<g>
	<g>
		<path fill="#00B7C0" d="M17.3,11.226h-0.342V8.442c0-2.964-2.355-5.444-5.298-5.497c-0.08-0.002-0.24-0.002-0.321,0
			C8.395,2.998,6.042,5.478,6.042,8.442v0.063c0,0.622,0.505,1.132,1.128,1.132c0.626,0,1.129-0.51,1.129-1.132V8.442
			c0-1.767,1.438-3.228,3.2-3.228s3.198,1.461,3.198,3.228v2.784H5.7c-0.529,0-0.96,0.544-0.96,1.219v8.046
			c0,0.672,0.432,1.223,0.96,1.223H17.3c0.529,0,0.961-0.551,0.961-1.223v-8.046C18.261,11.77,17.829,11.226,17.3,11.226
			L17.3,11.226z M12.586,16.461v2.43c0,0.277-0.232,0.514-0.512,0.514h-1.149c-0.28,0-0.512-0.236-0.512-0.514v-2.43
			c-0.273-0.268-0.427-0.636-0.427-1.041c0-0.774,0.594-1.434,1.353-1.465c0.081-0.004,0.241-0.004,0.321,0
			c0.759,0.031,1.355,0.69,1.355,1.465C13.016,15.825,12.857,16.193,12.586,16.461L12.586,16.461z M12.586,16.461"/>
	</g>
</g>
</svg>
