<?xml version="1.0" encoding="utf-8"?>
<!-- Generator: Adobe Illustrator 16.0.0, SVG Export Plug-In . SVG Version: 6.00 Build 0)  -->
<!DOCTYPE svg PUBLIC "-//W3C//DTD SVG 1.1//EN" "http://www.w3.org/Graphics/SVG/1.1/DTD/svg11.dtd">
<svg version="1.1" id="Layer_1" xmlns="http://www.w3.org/2000/svg" xmlns:xlink="http://www.w3.org/1999/xlink" x="0px" y="0px"
	 width="23px" height="23px" viewBox="0 0 23 23" enable-background="new 0 0 23 23" xml:space="preserve">
<path fill="#00B7C0" d="M17.305,10.523h-0.367V8.811c0-3.166-2.513-5.809-5.655-5.867c-0.084-0.002-0.256-0.002-0.34,0
	c-3.14,0.059-5.655,2.702-5.655,5.867v1.713H4.923c-0.563,0-1.023,0.581-1.023,1.298v8.586c0,0.719,0.46,1.306,1.023,1.306h12.381
	c0.563,0,1.022-0.587,1.022-1.306v-8.586C18.327,11.104,17.868,10.523,17.305,10.523L17.305,10.523z M12.273,16.106v2.596
	c0,0.295-0.249,0.547-0.544,0.547H10.5c-0.296,0-0.546-0.252-0.546-0.547v-2.596c-0.289-0.283-0.458-0.677-0.458-1.109
	c0-0.822,0.637-1.528,1.446-1.563c0.084-0.002,0.256-0.002,0.34,0c0.811,0.035,1.447,0.741,1.447,1.563
	C12.729,15.43,12.562,15.823,12.273,16.106L12.273,16.106z M14.527,10.523H7.701V8.811c0-1.887,1.533-3.443,3.413-3.443
	s3.413,1.556,3.413,3.443V10.523z M14.527,10.523"/>
</svg>
