<?xml version="1.0" encoding="utf-8"?>
<!-- Generator: Adobe Illustrator 16.0.0, SVG Export Plug-In . SVG Version: 6.00 Build 0)  -->
<!DOCTYPE svg PUBLIC "-//W3C//DTD SVG 1.1//EN" "http://www.w3.org/Graphics/SVG/1.1/DTD/svg11.dtd">
<svg version="1.1" id="Layer_1" xmlns="http://www.w3.org/2000/svg" xmlns:xlink="http://www.w3.org/1999/xlink" x="0px" y="0px"
	 width="23px" height="23px" viewBox="0 0 23 23" enable-background="new 0 0 23 23" xml:space="preserve">
<g>
	<g>
		<path fill="#00B7C0" d="M2.993,8.879C3.141,8.828,3.3,8.792,3.464,8.792h16.069c0.167,0,0.326,0.036,0.474,0.087l-7.201,6.85
			c-0.732,0.697-1.879,0.697-2.613,0L2.993,8.879z M20.007,8.911c-0.148,0.056-0.306,0.09-0.472,0.09H3.466
			c-0.166,0-0.325-0.034-0.473-0.09l7.201-6.845c0.732-0.699,1.879-0.699,2.615,0L20.007,8.911z M20.694,21.048
			c0.125-0.209,0.201-0.449,0.201-0.709V10.166c0-0.187-0.039-0.358-0.101-0.521l-6.739,6.403L20.694,21.048z M13.447,16.622
			c-0.561,0.483-1.254,0.728-1.947,0.728c-0.697,0-1.387-0.244-1.945-0.728l-6.623,4.982c0.164,0.068,0.346,0.109,0.532,0.109
			h16.069c0.191,0,0.369-0.041,0.532-0.109L13.447,16.622z M2.208,9.645c-0.064,0.163-0.103,0.335-0.103,0.521v10.173
			c0,0.26,0.078,0.5,0.2,0.709l6.639-5L2.208,9.645z M2.208,9.645"/>
	</g>
</g>
</svg>
