<?xml version="1.0" encoding="utf-8"?>
<!-- Generator: Adobe Illustrator 16.0.0, SVG Export Plug-In . SVG Version: 6.00 Build 0)  -->
<!DOCTYPE svg PUBLIC "-//W3C//DTD SVG 1.1//EN" "http://www.w3.org/Graphics/SVG/1.1/DTD/svg11.dtd">
<svg version="1.1" id="Layer_1" xmlns="http://www.w3.org/2000/svg" xmlns:xlink="http://www.w3.org/1999/xlink" x="0px" y="0px"
	 width="23px" height="23px" viewBox="0 0 23 23" enable-background="new 0 0 23 23" xml:space="preserve">
<g>
	<g>
		<path fill="#00B7C0" d="M18.198,3.92c0,1.453-1.202,2.633-2.684,2.633c-1.482,0-2.683-1.18-2.683-2.633
			c0-1.455,1.2-2.635,2.683-2.635C16.996,1.285,18.198,2.465,18.198,3.92L18.198,3.92z M18.198,3.92"/>
		<path fill="#00B7C0" d="M7.396,10.978c0,0.927-0.768,1.679-1.712,1.679c-0.95,0-1.716-0.751-1.716-1.679
			c0-0.932,0.766-1.683,1.716-1.683C6.629,9.294,7.396,10.046,7.396,10.978L7.396,10.978z M7.396,10.978"/>
		<path fill="#00B7C0" d="M17.246,7.206c-0.092-0.041-0.188-0.068-0.291-0.084C16.713,7.023,16.45,6.947,16.181,6.9l-0.666,0.486
			l-0.646-0.493c-0.002,0-0.005,0-0.009,0c-0.341,0.062-0.677,0.164-0.975,0.308c-0.058,0.014-0.112,0.033-0.166,0.059
			c-2.034,0.901-3.229,2.771-4.742,5.139c-0.175,0.275-0.099,0.589,0.155,0.807c-0.818,0.52-2.853-0.345-3.021-0.374l-0.427,0.312
			l-0.414-0.316c-0.005,0-0.005,0.002-0.009,0.002c-0.289,0.052-1.098,0.438-1.383,0.561c-0.026,0.006-0.054,0.013-0.082,0.026
			c-0.058,0.022-1.481,0.63-1.481,2.409c0,0.242,0.271,0.441,0.607,0.441c0.34,0,0.611-0.199,0.611-0.441
			c0-0.587,0.19-0.984,0.394-1.239v2.061c0,0.129,0.035,0.25,0.095,0.361c-0.004,0.024-0.006,0.051-0.006,0.075v4.063
			c0,0.314,0.353,0.566,0.785,0.566c0.436,0,0.788-0.252,0.788-0.566v-3.41c0.033,0.002,0.062,0.004,0.095,0.004
			c0.004,0,0.008,0,0.017,0v3.406c0,0.314,0.353,0.566,0.788,0.566c0.431,0,0.783-0.252,0.783-0.566v-4.036
			c0.105-0.136,0.165-0.292,0.165-0.464v-2.26c0.246,0.066,0.509,0.104,0.788,0.104c0.582,0,1.243-0.18,2.007-0.708
			c0.16-0.108,0.226-0.267,0.196-0.41c0.186-0.078,0.345-0.192,0.443-0.345c0.671-1.055,1.276-2.003,1.896-2.77v2.582
			c-0.304,0.941-1.625,4.418-1.63,4.99c-0.004,0.296,0.733,0.548,1.77,0.708v2.227c0,0.493,0.55,0.891,1.231,0.891
			c0.677,0,1.23-0.397,1.23-0.891V18.72c0.054,0,0.111,0,0.169,0v0.138h0.004v1.908c0,0.493,0.55,0.891,1.231,0.891
			c0.677,0,1.231-0.397,1.231-0.891v-2.279c0.724-0.162,1.276-0.415,1.481-0.771c0.006-1.065-0.94-4.021-1.226-4.878v-2.701
			c0.306,0.587,0.434,1.379,0.277,2.504c-0.058,0.414,0.357,0.782,0.93,0.825c0.035,0.002,0.071,0.004,0.104,0.004
			c0.529,0,0.98-0.292,1.038-0.68C21.077,9.401,19.27,8.104,17.246,7.206z"/>
	</g>
</g>
</svg>
