<?xml version="1.0" encoding="utf-8"?>
<!-- Generator: Adobe Illustrator 16.0.0, SVG Export Plug-In . SVG Version: 6.00 Build 0)  -->
<!DOCTYPE svg PUBLIC "-//W3C//DTD SVG 1.1//EN" "http://www.w3.org/Graphics/SVG/1.1/DTD/svg11.dtd">
<svg version="1.1" id="Layer_1" xmlns="http://www.w3.org/2000/svg" xmlns:xlink="http://www.w3.org/1999/xlink" x="0px" y="0px"
	 width="68px" height="68px" viewBox="0 0 68 68" enable-background="new 0 0 68 68" xml:space="preserve">
<g>
	
		<rect x="-7.685" y="45.256" transform="matrix(0.5229 0.8524 -0.8524 0.5229 45.8553 9.7838)" fill="#00B7C0" width="43.745" height="1.2"/>
	<path fill="#FFFFFF" d="M34.001,67.166C15.714,67.166,0.833,52.289,0.833,34c0-18.287,14.881-33.166,33.168-33.166
		c18.288,0,33.166,14.879,33.166,33.166C67.167,52.289,52.289,67.166,34.001,67.166z M34.001,3.773
		C17.335,3.773,3.773,17.333,3.773,34s13.562,30.228,30.228,30.228S64.228,50.667,64.228,34S50.668,3.773,34.001,3.773z"/>
	<path fill="#FFFFFF" d="M46.062,29.976H45.35v-3.333c0-6.164-4.893-11.314-11.008-11.423c-0.166-0.004-0.499-0.004-0.666,0
		c-6.114,0.109-11.005,5.259-11.005,11.423v3.333h-0.716c-1.092,0-1.989,1.13-1.989,2.529v16.717c0,1.394,0.897,2.539,1.989,2.539
		h24.106c1.098,0,1.991-1.146,1.991-2.539V32.505C48.053,31.106,47.159,29.976,46.062,29.976L46.062,29.976z M36.27,40.846v5.051
		c0,0.576-0.489,1.066-1.062,1.066h-2.393c-0.578,0-1.063-0.49-1.063-1.066v-5.051c-0.559-0.553-0.887-1.315-0.887-2.163
		c0-1.598,1.235-2.975,2.812-3.041c0.167-0.006,0.5-0.006,0.666,0c1.576,0.066,2.812,1.443,2.812,3.041
		C37.154,39.53,36.829,40.293,36.27,40.846L36.27,40.846z M40.655,29.976H27.367v-3.333c0-3.672,2.982-6.706,6.643-6.706
		c3.664,0,6.646,3.034,6.646,6.706V29.976z M40.655,29.976"/>
</g>
</svg>
