<?xml version="1.0" encoding="utf-8"?>
<!-- Generator: Adobe Illustrator 16.0.0, SVG Export Plug-In . SVG Version: 6.00 Build 0)  -->
<!DOCTYPE svg PUBLIC "-//W3C//DTD SVG 1.1//EN" "http://www.w3.org/Graphics/SVG/1.1/DTD/svg11.dtd">
<svg version="1.1" id="Layer_1" xmlns="http://www.w3.org/2000/svg" xmlns:xlink="http://www.w3.org/1999/xlink" x="0px" y="0px"
	 width="23px" height="23px" viewBox="0 0 23 23" enable-background="new 0 0 23 23" xml:space="preserve">
<g>
	<g>
		<path fill="#00B7C0" d="M15.842,5.767c0,2.398-1.941,4.339-4.338,4.339c-2.394,0-4.334-1.94-4.334-4.339
			c0-2.394,1.94-4.334,4.334-4.334C13.9,1.432,15.842,3.373,15.842,5.767L15.842,5.767z M15.842,5.767"/>
		<path fill="#00B7C0" d="M15.173,10.798h-0.048l-0.153,2.011c-0.021,0.283-0.226,0.514-0.505,0.57l-1.152,0.237l0.284,0.837
			c0.053,0.159,0.04,0.337-0.037,0.487c0,0-1.12,2.196-1.495,2.927c0,0.002-0.181,0.29-0.549,0.29c-0.447,0-0.571-0.288-0.571-0.29
			c-0.375-0.73-1.496-2.927-1.496-2.927c-0.075-0.15-0.091-0.328-0.035-0.487l0.283-0.837l-1.155-0.234
			c-0.276-0.056-0.481-0.288-0.502-0.571l-0.155-2.013H7.841c-2.51,0-4.545,2.033-4.545,4.545v5.1c0,0.703,0.57,1.271,1.273,1.271
			h13.864c0.7,0,1.271-0.568,1.271-1.271v-5.114C19.704,12.827,17.673,10.798,15.173,10.798L15.173,10.798z M16.795,19.512h-0.953
			v0.941c0,0.348-0.282,0.63-0.631,0.63c-0.346,0-0.626-0.282-0.626-0.63v-0.941h-0.942c-0.348,0-0.628-0.277-0.628-0.626
			c0-0.35,0.28-0.628,0.628-0.628h0.942v-0.959c0-0.348,0.28-0.629,0.626-0.629c0.349,0,0.631,0.281,0.631,0.629v0.959h0.953
			c0.351,0,0.633,0.278,0.633,0.628C17.428,19.234,17.146,19.512,16.795,19.512L16.795,19.512z M16.795,19.512"/>
		<path fill="#00B7C0" d="M12.36,12.521l1.389-0.282l0.115-1.441H9.148l0.112,1.441l1.392,0.282c0.175,0.035,0.328,0.146,0.42,0.304
			c0.092,0.158,0.108,0.346,0.051,0.517l-0.428,1.265l0.809,1.586l0.814-1.586l-0.431-1.265c-0.055-0.171-0.038-0.358,0.052-0.517
			C12.032,12.668,12.185,12.557,12.36,12.521L12.36,12.521z M12.36,12.521"/>
	</g>
</g>
</svg>
