<?xml version="1.0" encoding="utf-8"?>
<!-- Generator: Adobe Illustrator 16.0.0, SVG Export Plug-In . SVG Version: 6.00 Build 0)  -->
<!DOCTYPE svg PUBLIC "-//W3C//DTD SVG 1.1//EN" "http://www.w3.org/Graphics/SVG/1.1/DTD/svg11.dtd">
<svg version="1.1" id="Layer_1" xmlns="http://www.w3.org/2000/svg" xmlns:xlink="http://www.w3.org/1999/xlink" x="0px" y="0px"
	 width="23px" height="23px" viewBox="0 0 23 23" enable-background="new 0 0 23 23" xml:space="preserve">
<g>
	<g>
		<path fill="#00B7C0" d="M19.62,10.748c-0.614,0.683-1.213,1.419-1.626,2.442c-0.192,0.47-0.646,0.775-1.153,0.775
			c-0.51,0-0.961-0.306-1.155-0.779c-0.482-1.185-1.214-1.992-1.925-2.771c-0.178-0.194-0.356-0.393-0.531-0.595
			c-0.01,0.004-0.014,0.008-0.026,0.013c-0.689,0.208-1.222,1.123-0.9,1.866c0.217,0.512,1.745,0.418,1.617,1.515
			c-0.108,0.9,1.067,1.139,1.486,1.095c0.414-0.051,1.059,0.684,0.734,1.008c-0.32,0.325-0.931,0.338-0.837,1.173
			c0.025,0.245,0.762,0.213,0.762,0.578c0,0.371-0.38,0.792-0.087,1.219c0.063,0.093,0.128,0.167,0.195,0.221
			c-1.408,1.297-3.287,2.094-5.345,2.094c-4.354,0-7.895-3.542-7.895-7.893c0-1.324,0.328-2.568,0.905-3.665
			c-0.004,1.417,0.754,2.593,1.107,2.951c1.162,1.156,2.84,0.792,3.055,1.76c0.219,0.965-1.151,0.97-1.062,1.706
			c0.094,0.742,1.879,0.939,1.481,1.62c-0.527,0.907,0.353,0.974,0.099,2.092c-0.138,0.61,0.742,0.73,1.071,0.264
			c0.25-0.355,0.2-0.791,0.7-1.324c0.614-0.651,2.039-0.76,1.879-1.84c-0.27-1.796-2.015-2.075-2.774-2.496
			c-0.863-0.474-0.651-1.611-0.838-2.154c-0.263-0.769-1.148,0.215-1.624-0.232c-0.779-0.737,0.14-1.776,0.793-1.753
			c1.382,0.041,1.805,1.386,2.312,1.336c0.496-0.043,0.815-0.735,0.905-1.102c0.184-0.8-0.312-0.442-0.512-0.86
			c-0.27-0.557,0.94-1.091,1.409-1.501c0.071-0.064,0.123-0.122,0.153-0.179c0.139-0.273-0.045-0.48-0.356-0.673
			c-0.621-0.377-1.762-0.674-1.812-1.264c-0.033-0.363,0.659-0.538,1.447-0.57c0.132,0.008,0.26,0.021,0.391,0.032
			c0.065-0.367,0.17-0.734,0.313-1.084c-0.376-0.049-0.76-0.072-1.148-0.072c-4.968,0-9.009,4.039-9.009,9.009
			c0,4.966,4.041,9.007,9.009,9.007c4.965,0,9.009-4.041,9.009-9.007C19.838,12.031,19.762,11.375,19.62,10.748L19.62,10.748z
			 M16.418,1.403c-2.543,0.241-4.284,2.705-3.843,5.22c0.453,2.555,2.81,3.343,3.979,6.213c0.103,0.256,0.466,0.258,0.572,0
			c1.296-3.182,4.052-3.803,4.052-7.112C21.179,3.188,19.006,1.16,16.418,1.403L16.418,1.403z M16.841,8.013
			c-1.266,0-2.291-1.024-2.291-2.289c0-1.266,1.025-2.293,2.291-2.293c1.264,0,2.291,1.027,2.291,2.293
			C19.132,6.988,18.104,8.013,16.841,8.013L16.841,8.013z M16.841,8.013"/>
	</g>
</g>
</svg>
