<?xml version="1.0" encoding="utf-8"?>
<!-- Generator: Adobe Illustrator 16.0.0, SVG Export Plug-In . SVG Version: 6.00 Build 0)  -->
<!DOCTYPE svg PUBLIC "-//W3C//DTD SVG 1.1//EN" "http://www.w3.org/Graphics/SVG/1.1/DTD/svg11.dtd">
<svg version="1.1" id="Layer_1" xmlns="http://www.w3.org/2000/svg" xmlns:xlink="http://www.w3.org/1999/xlink" x="0px" y="0px"
	 width="23px" height="23px" viewBox="0 0 23 23" enable-background="new 0 0 23 23" xml:space="preserve">
<g>
	<g>
		<path fill="#00B7C0" d="M4.804,3.904c0-1.447,1.202-2.619,2.684-2.619c1.479,0,2.681,1.172,2.681,2.619
			c0,1.442-1.201,2.616-2.681,2.616C6.006,6.52,4.804,5.346,4.804,3.904L4.804,3.904z M4.804,3.904"/>
		<path fill="#00B7C0" d="M5.756,7.142C3.732,8.045,1.922,9.346,2.39,12.748c0.054,0.391,0.507,0.684,1.037,0.684
			c0.034,0,0.069-0.002,0.104-0.004c0.57-0.043,0.989-0.415,0.932-0.829c-0.156-1.131-0.031-1.927,0.274-2.514v2.744
			c0,0.27,0.097,0.518,0.259,0.735v7.196c0,0.494,0.55,0.895,1.231,0.895c0.677,0,1.229-0.4,1.229-0.895v-6.212
			c0.01,0,0.021,0,0.03,0c0.045,0,0.097-0.004,0.144-0.004v6.216c0,0.494,0.55,0.895,1.231,0.895c0.68,0,1.229-0.4,1.229-0.895
			v-7.242c0-0.043-0.002-0.082-0.011-0.121c0.095-0.174,0.15-0.363,0.15-0.568v-2.62c0.619,0.771,1.225,1.722,1.897,2.784
			c0.097,0.152,0.255,0.265,0.443,0.341c-0.028,0.147,0.037,0.308,0.197,0.417c0.76,0.527,1.422,0.71,2.005,0.71
			c0.279,0,0.542-0.041,0.788-0.106v2.27c0,0.17,0.06,0.33,0.164,0.468v4.051c0,0.315,0.354,0.572,0.786,0.572
			s0.784-0.257,0.784-0.572v-3.421c0.008,0,0.016,0,0.021,0c0.03,0,0.062,0,0.094,0l-0.002,3.421c0,0.315,0.355,0.572,0.788,0.572
			c0.434,0,0.786-0.257,0.786-0.572v-4.078c0-0.026-0.002-0.053-0.008-0.077c0.062-0.111,0.096-0.232,0.096-0.363v-2.069
			c0.205,0.257,0.395,0.655,0.395,1.246c0,0.246,0.272,0.443,0.609,0.443s0.609-0.197,0.609-0.443c0-1.785-1.422-2.396-1.483-2.422
			c-0.027-0.01-0.054-0.019-0.078-0.024c-0.287-0.123-1.096-0.513-1.388-0.562c0,0,0-0.002-0.004-0.002l-0.414,0.314l-0.427-0.31
			c-0.171,0.03-2.204,0.895-3.025,0.375c0.259-0.22,0.333-0.535,0.156-0.812c-1.511-2.376-2.705-4.254-4.74-5.161
			C9.228,7.173,9.172,7.154,9.117,7.138C8.817,6.996,8.48,6.888,8.14,6.83c-0.004,0-0.004,0-0.008,0L7.487,7.323L6.818,6.834
			C6.552,6.881,6.285,6.957,6.045,7.056C5.942,7.074,5.846,7.101,5.756,7.142L5.756,7.142z M5.756,7.142"/>
		<path fill="#00B7C0" d="M15.604,10.949c0-0.948,0.766-1.709,1.714-1.709s1.715,0.761,1.715,1.709c0,0.942-0.767,1.704-1.715,1.704
			S15.604,11.891,15.604,10.949L15.604,10.949z M15.604,10.949"/>
	</g>
</g>
</svg>
