<?xml version="1.0" encoding="utf-8"?>
<!-- Generator: Adobe Illustrator 16.0.0, SVG Export Plug-In . SVG Version: 6.00 Build 0)  -->
<!DOCTYPE svg PUBLIC "-//W3C//DTD SVG 1.1//EN" "http://www.w3.org/Graphics/SVG/1.1/DTD/svg11.dtd">
<svg version="1.1" id="Layer_1" xmlns="http://www.w3.org/2000/svg" xmlns:xlink="http://www.w3.org/1999/xlink" x="0px" y="0px"
	 width="68px" height="68px" viewBox="0 0 68 68" enable-background="new 0 0 68 68" xml:space="preserve">
<g>
	
		<rect x="41.858" y="31.013" transform="matrix(0.3776 0.926 -0.926 0.3776 76.4318 -5.7037)" fill="#00B7C0" width="1.2" height="45.975"/>
	<path fill="#FFFFFF" d="M34.002,67.166C15.715,67.166,0.834,52.289,0.834,34c0-18.287,14.881-33.166,33.168-33.166
		S67.167,15.713,67.167,34C67.167,52.289,52.289,67.166,34.002,67.166z M34.002,3.773C17.335,3.773,3.773,17.333,3.773,34
		s13.562,30.228,30.229,30.228c16.666,0,30.226-13.561,30.226-30.228S50.668,3.773,34.002,3.773z"/>
	<g>
		<g>
			<path fill="#FFFFFF" d="M50.124,31.457c-1.142,1.279-2.258,2.655-3.033,4.557c-0.357,0.877-1.199,1.447-2.148,1.447
				c-0.951,0-1.794-0.57-2.154-1.454c-0.9-2.208-2.266-3.712-3.591-5.167c-0.333-0.365-0.663-0.733-0.99-1.111
				c-0.017,0.009-0.027,0.015-0.048,0.021c-1.288,0.389-2.281,2.098-1.683,3.484c0.408,0.954,3.259,0.775,3.018,2.826
				c-0.203,1.68,1.991,2.121,2.77,2.04c0.777-0.092,1.976,1.279,1.373,1.885c-0.6,0.603-1.733,0.627-1.559,2.185
				c0.047,0.453,1.418,0.393,1.418,1.078c0,0.692-0.708,1.477-0.163,2.272c0.118,0.175,0.24,0.311,0.367,0.412
				c-2.627,2.418-6.133,3.901-9.973,3.901c-8.119,0-14.721-6.604-14.721-14.719c0-2.467,0.609-4.79,1.687-6.836
				c-0.006,2.645,1.406,4.841,2.067,5.503c2.164,2.157,5.295,1.477,5.695,3.285c0.406,1.8-2.148,1.807-1.979,3.183
				c0.17,1.385,3.5,1.75,2.759,3.022c-0.982,1.691,0.659,1.813,0.186,3.899c-0.256,1.14,1.386,1.362,1.999,0.493
				c0.465-0.661,0.37-1.475,1.307-2.468c1.147-1.219,3.8-1.42,3.504-3.438c-0.505-3.346-3.76-3.869-5.178-4.653
				c-1.608-0.881-1.215-3.006-1.562-4.015c-0.488-1.436-2.145,0.401-3.029-0.437c-1.453-1.372,0.263-3.311,1.481-3.271
				c2.574,0.081,3.365,2.586,4.312,2.498c0.926-0.08,1.522-1.371,1.686-2.058c0.344-1.492-0.581-0.824-0.951-1.601
				c-0.502-1.042,1.756-2.037,2.625-2.805c0.135-0.114,0.233-0.223,0.286-0.33c0.261-0.51-0.082-0.9-0.663-1.255
				c-1.161-0.703-3.286-1.26-3.383-2.359c-0.058-0.672,1.232-1,2.702-1.058c0.247,0.013,0.484,0.037,0.729,0.058
				c0.123-0.689,0.319-1.371,0.585-2.021c-0.704-0.093-1.418-0.14-2.144-0.14c-9.265,0-16.802,7.537-16.802,16.803
				c0,9.262,7.537,16.8,16.802,16.8c9.263,0,16.804-7.538,16.804-16.8C50.531,33.855,50.39,32.632,50.124,31.457L50.124,31.457z
				 M44.151,14.033c-4.74,0.45-7.989,5.046-7.163,9.737c0.842,4.765,5.237,6.232,7.418,11.581c0.194,0.483,0.873,0.484,1.07,0.004
				c2.416-5.934,7.556-7.092,7.556-13.264C53.032,17.36,48.978,13.578,44.151,14.033L44.151,14.033z M44.942,26.361
				c-2.362,0-4.273-1.912-4.273-4.271c0-2.361,1.911-4.276,4.273-4.276c2.357,0,4.272,1.916,4.272,4.276
				C49.215,24.45,47.3,26.361,44.942,26.361L44.942,26.361z M44.942,26.361"/>
		</g>
	</g>
</g>
</svg>
