<?xml version="1.0" encoding="utf-8"?>
<!-- Generator: Adobe Illustrator 16.0.0, SVG Export Plug-In . SVG Version: 6.00 Build 0)  -->
<!DOCTYPE svg PUBLIC "-//W3C//DTD SVG 1.1//EN" "http://www.w3.org/Graphics/SVG/1.1/DTD/svg11.dtd">
<svg version="1.1" id="Layer_1" xmlns="http://www.w3.org/2000/svg" xmlns:xlink="http://www.w3.org/1999/xlink" x="0px" y="0px"
	 width="42.5px" height="40px" viewBox="0 0 42.5 40" enable-background="new 0 0 42.5 40" xml:space="preserve">
<g>
	<g>
		<path fill="#FFFFFF" d="M27.441,7.949c0,4.01-3.247,7.257-7.251,7.257c-4.007,0-7.252-3.247-7.252-7.257
			c0-4.003,3.245-7.25,7.252-7.25C24.194,0.7,27.441,3.946,27.441,7.949L27.441,7.949z M27.441,7.949"/>
		<path fill="#FFFFFF" d="M26.322,16.366h-0.076l-0.257,3.363c-0.039,0.473-0.38,0.861-0.846,0.955l-1.928,0.396l0.475,1.398
			c0.089,0.27,0.068,0.566-0.062,0.816c0,0-1.873,3.675-2.498,4.895c-0.003,0.007-0.305,0.486-0.92,0.486
			c-0.752,0-0.958-0.479-0.958-0.486c-0.626-1.22-2.5-4.895-2.5-4.895c-0.13-0.25-0.152-0.547-0.06-0.816l0.473-1.398l-1.929-0.393
			c-0.462-0.092-0.806-0.481-0.84-0.953l-0.262-3.368h-0.077c-4.196,0-7.599,3.403-7.599,7.598v8.532
			c0,1.176,0.954,2.129,2.13,2.129h23.189c1.174,0,2.129-0.953,2.129-2.129v-8.554C33.901,19.761,30.508,16.366,26.322,16.366
			L26.322,16.366z M29.038,30.939h-1.6v1.575c0,0.581-0.469,1.053-1.051,1.053s-1.049-0.472-1.049-1.053v-1.575h-1.572
			c-0.584,0-1.054-0.465-1.054-1.047c0-0.586,0.47-1.052,1.054-1.052h1.572v-1.602c0-0.582,0.467-1.054,1.049-1.054
			s1.051,0.472,1.051,1.054v1.602h1.6c0.581,0,1.057,0.466,1.057,1.052C30.095,30.475,29.619,30.939,29.038,30.939L29.038,30.939z
			 M29.038,30.939"/>
		<path fill="#FFFFFF" d="M21.62,19.247l2.325-0.472l0.188-2.409H16.25l0.187,2.409l2.324,0.472c0.297,0.062,0.551,0.245,0.704,0.51
			c0.152,0.261,0.183,0.577,0.087,0.861l-0.72,2.116l1.359,2.653l1.357-2.653l-0.716-2.116c-0.096-0.284-0.065-0.6,0.086-0.861
			C21.069,19.492,21.325,19.309,21.62,19.247L21.62,19.247z M21.62,19.247"/>
	</g>
</g>
</svg>
