<?xml version="1.0" encoding="utf-8"?>
<!-- Generator: Adobe Illustrator 16.0.0, SVG Export Plug-In . SVG Version: 6.00 Build 0)  -->
<!DOCTYPE svg PUBLIC "-//W3C//DTD SVG 1.1//EN" "http://www.w3.org/Graphics/SVG/1.1/DTD/svg11.dtd">
<svg version="1.1" id="Layer_1" xmlns="http://www.w3.org/2000/svg" xmlns:xlink="http://www.w3.org/1999/xlink" x="0px" y="0px"
	 width="42.5px" height="40px" viewBox="0 0 42.5 40" enable-background="new 0 0 42.5 40" xml:space="preserve">
<g>
	<path fill="#FFFFFF" d="M39.744,25.638l-6.129-0.002c-0.52,0.002-0.939-0.42-0.939-0.938v-6.13c0-1.043-0.852-1.895-1.896-1.895
		l-0.826,0.002c-1.045-0.002-1.893,0.848-1.893,1.893v6.13c0,0.519-0.422,0.94-0.941,0.94l-6.129-0.002
		c-1.043,0-1.894,0.851-1.894,1.896v0.826c0,1.043,0.849,1.892,1.894,1.894l6.129-0.002c0.52,0,0.941,0.423,0.941,0.94l-0.002,6.13
		c0.002,1.045,0.85,1.894,1.895,1.896h0.826c1.045-0.002,1.896-0.851,1.896-1.896v-6.13c0-0.518,0.42-0.94,0.939-0.94l6.129,0.002
		c1.045-0.002,1.893-0.851,1.893-1.894v-0.828C41.637,26.486,40.789,25.638,39.744,25.638z"/>
	<circle fill="#FFFFFF" cx="14.182" cy="7.789" r="7.003"/>
	<path fill="#FFFFFF" d="M20.99,32.13c-2.081,0-3.774-1.693-3.774-3.772v-0.826c0-2.082,1.693-3.773,3.774-3.773h5.19v-3.822
		c-1.328-1.917-3.541-3.175-6.049-3.175h-0.074l-0.25,3.262c-0.037,0.458-0.368,0.835-0.817,0.927l-1.873,0.381l0.461,1.358
		c0.086,0.261,0.068,0.549-0.059,0.793c0,0-1.82,3.563-2.424,4.75c-0.002,0.001-0.297,0.47-0.893,0.47
		c-0.731,0-0.929-0.469-0.929-0.469c-0.608-1.188-2.426-4.751-2.426-4.751c-0.123-0.244-0.146-0.532-0.057-0.793l0.459-1.357
		l-1.873-0.38c-0.446-0.09-0.781-0.469-0.815-0.925L8.307,16.76H8.233c-4.069,0-7.371,3.302-7.371,7.372l0.87,8.275
		c0,1.141,0.926,2.065,2.064,2.065h20.561c0.793,0,1.477-0.455,1.822-1.112v-1.23H20.99z M20.194,33.446
		c-0.005,0-0.011-0.004-0.018-0.004c0.061-0.007,0.125-0.013,0.18-0.034c0.006,0,0.009,0.002,0.015,0.004
		C20.312,33.423,20.257,33.446,20.194,33.446z"/>
	<path fill="#FFFFFF" d="M15.568,19.556l2.257-0.459l0.18-2.336h-7.647l0.182,2.336l2.255,0.459
		c0.287,0.059,0.534,0.237,0.681,0.494c0.147,0.255,0.178,0.559,0.084,0.836l-0.696,2.051l1.317,2.576l1.318-2.576l-0.696-2.051
		c-0.094-0.277-0.062-0.581,0.083-0.836C15.034,19.792,15.282,19.614,15.568,19.556z"/>
</g>
</svg>
