<?xml version="1.0" encoding="utf-8"?>
<!-- Generator: Adobe Illustrator 16.0.0, SVG Export Plug-In . SVG Version: 6.00 Build 0)  -->
<!DOCTYPE svg PUBLIC "-//W3C//DTD SVG 1.1//EN" "http://www.w3.org/Graphics/SVG/1.1/DTD/svg11.dtd">
<svg version="1.1" id="Layer_1" xmlns="http://www.w3.org/2000/svg" xmlns:xlink="http://www.w3.org/1999/xlink" x="0px" y="0px"
	 width="16px" height="16px" viewBox="0 0 16 16" enable-background="new 0 0 16 16" xml:space="preserve">
<path fill="#00B5BE" d="M14.072,1.824c-0.713-0.463-1.712-0.279-2.15,0.391L6.62,10.352L3.97,7.298
	C3.42,6.66,2.368,6.583,1.73,7.137c-0.661,0.575-0.732,1.58-0.159,2.242l4.039,4.658c0.316,0.363,0.773,0.564,1.256,0.547
	c0.106-0.004,0.207-0.022,0.308-0.045c0.012-0.004,0.02-0.007,0.03-0.01c0.09-0.022,0.177-0.053,0.263-0.092
	c0.042-0.02,0.084-0.039,0.125-0.061c0.075-0.045,0.146-0.094,0.213-0.147c0.016-0.013,0.033-0.021,0.046-0.034l0,0
	c0.167-0.145,0.296-0.316,0.387-0.504l6.351-9.742C15.036,3.256,14.806,2.304,14.072,1.824z"/>
</svg>
