<?xml version="1.0" encoding="utf-8"?>
<!-- Generator: Adobe Illustrator 16.0.0, SVG Export Plug-In . SVG Version: 6.00 Build 0)  -->
<!DOCTYPE svg PUBLIC "-//W3C//DTD SVG 1.1//EN" "http://www.w3.org/Graphics/SVG/1.1/DTD/svg11.dtd">
<svg version="1.1" id="Layer_1" xmlns="http://www.w3.org/2000/svg" xmlns:xlink="http://www.w3.org/1999/xlink" x="0px" y="0px"
	 width="16px" height="16px" viewBox="0 0 16 16" enable-background="new 0 0 16 16" xml:space="preserve">
<g>
	<path fill="#EC1464" d="M10.316,8.087l3.723-3.724c0.641-0.639,0.641-1.677,0-2.316c-0.639-0.639-1.676-0.639-2.316,0L8,5.771
		L4.276,2.047c-0.64-0.639-1.677-0.639-2.316,0C1.64,2.368,1.48,2.787,1.48,3.204c0,0.421,0.16,0.839,0.479,1.159l3.725,3.724
		l-3.725,3.724c-0.639,0.641-0.639,1.678,0,2.316c0.319,0.32,0.739,0.479,1.159,0.479c0.418,0,0.837-0.159,1.157-0.479L8,10.403
		l3.723,3.724c0.641,0.64,1.678,0.64,2.316,0c0.641-0.639,0.641-1.676,0-2.316L10.316,8.087z"/>
</g>
</svg>
