<?xml version="1.0" encoding="utf-8"?>
<!-- Generator: Adobe Illustrator 16.0.0, SVG Export Plug-In . SVG Version: 6.00 Build 0)  -->
<!DOCTYPE svg PUBLIC "-//W3C//DTD SVG 1.1//EN" "http://www.w3.org/Graphics/SVG/1.1/DTD/svg11.dtd">
<svg version="1.1" id="Layer_1" xmlns="http://www.w3.org/2000/svg" xmlns:xlink="http://www.w3.org/1999/xlink" x="0px" y="0px"
	 width="16px" height="16px" viewBox="0 0 16 16" enable-background="new 0 0 16 16" xml:space="preserve">
<g>
	<path fill="#0E3253" d="M13.942,1.195H5.085c-0.597,0-1.083,0.485-1.083,1.083v1.25v2.891C4.198,6.377,4.404,6.362,4.61,6.352
		V3.528h9.805v10.381c0,0.262-0.212,0.474-0.473,0.474H5.085c-0.253,0-0.456-0.2-0.47-0.448c-0.208-0.011-0.415-0.026-0.613-0.069
		v0.044c0,0.598,0.486,1.082,1.083,1.082h8.857c0.596,0,1.081-0.484,1.081-1.082V3.528v-1.25C15.023,1.68,14.538,1.195,13.942,1.195
		z M5.288,2.864c-0.233,0-0.423-0.189-0.423-0.423c0-0.233,0.189-0.423,0.423-0.423c0.234,0,0.424,0.19,0.424,0.423
		C5.711,2.675,5.522,2.864,5.288,2.864z M6.378,2.864c-0.234,0-0.423-0.189-0.423-0.423c0-0.233,0.189-0.423,0.423-0.423
		s0.423,0.19,0.423,0.423C6.802,2.675,6.612,2.864,6.378,2.864z M7.545,2.864c-0.234,0-0.423-0.189-0.423-0.423
		c0-0.233,0.189-0.423,0.423-0.423c0.234,0,0.424,0.19,0.424,0.423C7.969,2.675,7.779,2.864,7.545,2.864z"/>
	<path fill="#0E3253" d="M5.559,5.867h1.714c0.176,0,0.321-0.143,0.321-0.32c0-0.176-0.145-0.317-0.321-0.317H5.559
		c-0.177,0-0.32,0.141-0.32,0.317C5.239,5.725,5.382,5.867,5.559,5.867z"/>
	<path fill="#0E3253" d="M9.487,9.347h3.601c0.176,0,0.318-0.145,0.318-0.321c0-0.175-0.143-0.319-0.318-0.319H9.487
		c-0.179,0-0.32,0.145-0.32,0.319C9.167,9.202,9.309,9.347,9.487,9.347z"/>
	<path fill="#0E3253" d="M9.487,11.083h3.601c0.176,0,0.318-0.143,0.318-0.318c0-0.177-0.143-0.32-0.318-0.32H9.487
		c-0.179,0-0.32,0.144-0.32,0.32C9.167,10.94,9.309,11.083,9.487,11.083z"/>
	<path fill="#0E3253" d="M9.487,12.823h3.601c0.176,0,0.318-0.144,0.318-0.32c0-0.176-0.143-0.318-0.318-0.318H9.487
		c-0.179,0-0.32,0.143-0.32,0.318C9.167,12.68,9.309,12.823,9.487,12.823z"/>
	<path fill="#0E3253" d="M9.487,5.867h3.601c0.176,0,0.318-0.143,0.318-0.319c0-0.175-0.143-0.319-0.318-0.319H9.487
		c-0.179,0-0.32,0.144-0.32,0.319C9.167,5.725,9.309,5.867,9.487,5.867z"/>
	<path fill="#0E3253" d="M9.487,7.605h3.601c0.176,0,0.318-0.143,0.318-0.317c0-0.176-0.143-0.321-0.318-0.321H9.487
		c-0.179,0-0.32,0.145-0.32,0.321C9.167,7.463,9.309,7.605,9.487,7.605z"/>
	<path fill="#00B7C0" d="M4.921,6.925c-1.757,0-3.188,1.431-3.188,3.188c0,0.503,0.118,0.974,0.326,1.396l-1.514,1.514
		c-0.196,0.195-0.304,0.456-0.304,0.733s0.108,0.538,0.304,0.733c0.196,0.197,0.456,0.305,0.733,0.305
		c0.277,0,0.538-0.107,0.734-0.305l1.512-1.513c0.424,0.206,0.896,0.327,1.397,0.327c1.759,0,3.188-1.432,3.188-3.19
		C8.109,8.356,6.68,6.925,4.921,6.925z M4.921,11.947c-1.009,0-1.832-0.822-1.832-1.834c0-1.011,0.823-1.832,1.832-1.832
		c1.011,0,1.832,0.821,1.832,1.832C6.753,11.125,5.933,11.947,4.921,11.947z"/>
</g>
</svg>
