<?xml version="1.0" encoding="utf-8"?>
<!-- Generator: Adobe Illustrator 16.0.0, SVG Export Plug-In . SVG Version: 6.00 Build 0)  -->
<!DOCTYPE svg PUBLIC "-//W3C//DTD SVG 1.1//EN" "http://www.w3.org/Graphics/SVG/1.1/DTD/svg11.dtd">
<svg version="1.1" id="Layer_1" xmlns="http://www.w3.org/2000/svg" xmlns:xlink="http://www.w3.org/1999/xlink" x="0px" y="0px"
	 width="16px" height="16px" viewBox="0 0 16 16" enable-background="new 0 0 16 16" xml:space="preserve">
<g>
	<path fill="#0E3253" d="M13.941,1.195H5.093c-0.597,0-1.083,0.484-1.083,1.082v1.25v1.343L4.618,6.14V3.526h9.797v10.374
		c0,0.261-0.212,0.473-0.474,0.473H5.093c-0.262,0-0.475-0.212-0.475-0.473v-0.723c-0.045-0.039-0.101-0.085-0.139-0.122
		c-0.037-0.034-0.051-0.047-0.062-0.057c-0.061-0.054-0.123-0.112-0.199-0.221c-0.021-0.024-0.07-0.096-0.192-0.339L4.01,12.405
		v1.494c0,0.597,0.485,1.081,1.083,1.081h8.849c0.597,0,1.082-0.484,1.082-1.081V3.526v-1.25
		C15.023,1.679,14.538,1.195,13.941,1.195z M5.295,2.862c-0.234,0-0.423-0.188-0.423-0.423c0-0.233,0.189-0.423,0.423-0.423
		c0.233,0,0.423,0.19,0.423,0.423C5.718,2.674,5.529,2.862,5.295,2.862z M6.385,2.862c-0.233,0-0.423-0.188-0.423-0.423
		c0-0.233,0.189-0.423,0.423-0.423s0.423,0.19,0.423,0.423C6.808,2.674,6.618,2.862,6.385,2.862z M7.55,2.862
		c-0.233,0-0.423-0.188-0.423-0.423c0-0.233,0.189-0.423,0.423-0.423s0.423,0.19,0.423,0.423C7.973,2.674,7.784,2.862,7.55,2.862z"
		/>
	<path fill="#0E3253" d="M7.6,5.543c0-0.176-0.144-0.317-0.32-0.317H5.566c-0.176,0-0.32,0.141-0.32,0.317
		c0,0.177,0.144,0.32,0.32,0.32H7.28C7.456,5.863,7.6,5.721,7.6,5.543z"/>
	<path fill="#0E3253" d="M9.49,9.34h3.598c0.178,0,0.32-0.145,0.32-0.32S13.266,8.7,13.088,8.7H9.49
		c-0.178,0-0.319,0.144-0.319,0.319S9.312,9.34,9.49,9.34z"/>
	<path fill="#0E3253" d="M9.49,11.075h3.598c0.178,0,0.32-0.143,0.32-0.318s-0.143-0.319-0.32-0.319H9.49
		c-0.178,0-0.319,0.144-0.319,0.319S9.312,11.075,9.49,11.075z"/>
	<path fill="#0E3253" d="M9.49,12.814h3.598c0.178,0,0.32-0.145,0.32-0.32s-0.143-0.318-0.32-0.318H9.49
		c-0.178,0-0.319,0.143-0.319,0.318S9.312,12.814,9.49,12.814z"/>
	<path fill="#0E3253" d="M9.49,5.863h3.598c0.178,0,0.32-0.143,0.32-0.318s-0.143-0.32-0.32-0.32H9.49
		c-0.178,0-0.319,0.144-0.319,0.32S9.312,5.863,9.49,5.863z"/>
	<path fill="#0E3253" d="M9.49,7.601h3.598c0.178,0,0.32-0.143,0.32-0.318c0-0.176-0.143-0.32-0.32-0.32H9.49
		c-0.178,0-0.319,0.144-0.319,0.32C9.171,7.458,9.312,7.601,9.49,7.601z"/>
	<path fill="#00B7C0" d="M6.52,11.812c-0.014-0.155-0.029-0.207-0.051-0.283c-0.019-0.064-0.098-0.25-0.1-0.253l-2.32-4.844
		L2.264,7.288l2.337,4.877c0,0,0.094,0.184,0.131,0.237c0.03,0.04,0.046,0.056,0.085,0.092c0.02,0.018,0.046,0.043,0.089,0.083
		c0.199,0.188,0.543,0.465,0.796,0.668c0.092,0.074,0.172,0.14,0.228,0.186l0.028,0.023c0.066,0.059,0.149,0.13,0.267,0.13
		c0.046,0,0.091-0.011,0.136-0.033c0.178-0.086,0.19-0.237,0.2-0.372C6.581,12.898,6.558,12.183,6.52,11.812z"/>
	<path fill="#00B7C0" d="M3.385,5.044c-0.172-0.359-0.534-0.59-0.92-0.59c-0.146,0-0.285,0.031-0.417,0.095
		C1.558,4.783,1.357,5.39,1.599,5.9l0.363,0.759l1.785-0.858L3.385,5.044z"/>
</g>
</svg>
