<?xml version="1.0" encoding="utf-8"?>
<!-- Generator: Adobe Illustrator 16.0.0, SVG Export Plug-In . SVG Version: 6.00 Build 0)  -->
<!DOCTYPE svg PUBLIC "-//W3C//DTD SVG 1.1//EN" "http://www.w3.org/Graphics/SVG/1.1/DTD/svg11.dtd">
<svg version="1.1" id="Layer_1" xmlns="http://www.w3.org/2000/svg" xmlns:xlink="http://www.w3.org/1999/xlink" x="0px" y="0px"
	 width="16px" height="16px" viewBox="0 0 16 16" enable-background="new 0 0 16 16" xml:space="preserve">
<g>
	<path fill="#0E3253" d="M13.938,1.152H5.062c-0.598,0-1.086,0.486-1.086,1.085V3.49v3.205l0.611,0.61V3.49h9.827v10.404
		c0,0.263-0.213,0.476-0.475,0.476H5.062c-0.262,0-0.475-0.213-0.475-0.476v-0.843l-0.611,0.611v0.231
		c0,0.6,0.488,1.086,1.086,1.086h8.877c0.599,0,1.085-0.486,1.085-1.086V3.49V2.238C15.023,1.638,14.537,1.152,13.938,1.152z
		 M5.266,2.825c-0.234,0-0.424-0.189-0.424-0.424c0-0.234,0.19-0.424,0.424-0.424c0.233,0,0.423,0.19,0.423,0.424
		C5.689,2.636,5.499,2.825,5.266,2.825z M6.358,2.825c-0.235,0-0.425-0.189-0.425-0.424c0-0.234,0.19-0.424,0.425-0.424
		c0.234,0,0.423,0.19,0.423,0.424C6.782,2.636,6.592,2.825,6.358,2.825z M7.527,2.825c-0.234,0-0.425-0.189-0.425-0.424
		c0-0.234,0.19-0.424,0.425-0.424s0.424,0.19,0.424,0.424C7.952,2.636,7.762,2.825,7.527,2.825z"/>
	<path fill="#0E3253" d="M5.537,5.835h1.718c0.177,0,0.321-0.143,0.321-0.321c0-0.176-0.144-0.318-0.321-0.318H5.537
		c-0.178,0-0.321,0.142-0.321,0.318C5.216,5.692,5.359,5.835,5.537,5.835z"/>
	<path fill="#0E3253" d="M13.084,8.681H9.473c-0.178,0-0.32,0.145-0.32,0.321c0,0.176,0.143,0.32,0.32,0.32h3.611
		c0.177,0,0.319-0.145,0.319-0.32C13.403,8.825,13.261,8.681,13.084,8.681z"/>
	<path fill="#0E3253" d="M13.084,10.422H9.473c-0.178,0-0.32,0.146-0.32,0.321c0,0.179,0.143,0.32,0.32,0.32h3.611
		c0.177,0,0.319-0.142,0.319-0.32C13.403,10.567,13.261,10.422,13.084,10.422z"/>
	<path fill="#0E3253" d="M13.084,12.808c0.177,0,0.319-0.146,0.319-0.321c0-0.175-0.143-0.319-0.319-0.319H9.473
		c-0.087,0-0.164,0.036-0.222,0.09c0.05,0.166,0.075,0.335,0.071,0.508c0.046,0.025,0.097,0.043,0.15,0.043H13.084z"/>
	<path fill="#0E3253" d="M9.473,5.835h3.611c0.177,0,0.319-0.143,0.319-0.32c0-0.176-0.143-0.321-0.319-0.321H9.473
		c-0.178,0-0.32,0.146-0.32,0.321C9.152,5.692,9.295,5.835,9.473,5.835z"/>
	<path fill="#0E3253" d="M13.084,7.577c0.177,0,0.319-0.142,0.319-0.318s-0.143-0.321-0.319-0.321H9.473
		c-0.103,0-0.193,0.053-0.25,0.13c0.053,0.148,0.085,0.305,0.094,0.465c0.047,0.026,0.1,0.044,0.156,0.044H13.084z"/>
	<path fill="#00B7C0" d="M6.554,10.178l1.843-1.842c0.388-0.387,0.388-1.017,0-1.404c-0.374-0.375-1.027-0.375-1.404,0L5.149,8.775
		L3.308,6.932c-0.376-0.374-1.028-0.375-1.405,0C1.716,7.12,1.612,7.37,1.612,7.633c0,0.264,0.104,0.515,0.291,0.703l1.844,1.842
		l-1.844,1.844c-0.187,0.188-0.29,0.436-0.29,0.703c0,0.265,0.103,0.513,0.29,0.7c0.189,0.188,0.438,0.292,0.702,0.292
		c0.265,0,0.515-0.104,0.703-0.292l1.842-1.843l1.843,1.843c0.376,0.375,1.03,0.375,1.404,0c0.386-0.386,0.386-1.017,0-1.403
		L6.554,10.178z"/>
</g>
</svg>
