<?xml version="1.0" encoding="utf-8"?>
<!-- Generator: Adobe Illustrator 16.0.0, SVG Export Plug-In . SVG Version: 6.00 Build 0)  -->
<!DOCTYPE svg PUBLIC "-//W3C//DTD SVG 1.1//EN" "http://www.w3.org/Graphics/SVG/1.1/DTD/svg11.dtd">
<svg version="1.1" id="Layer_1" xmlns="http://www.w3.org/2000/svg" xmlns:xlink="http://www.w3.org/1999/xlink" x="0px" y="0px"
	 width="16px" height="16px" viewBox="0 0 16 16" enable-background="new 0 0 16 16" xml:space="preserve">
<g>
	<path fill="#0E3253" d="M13.938,1.152H5.063c-0.599,0-1.085,0.486-1.085,1.085V3.49v2.507c0.18-0.144,0.386-0.245,0.61-0.288V3.49
		h9.825v10.404c0,0.262-0.213,0.475-0.475,0.475H5.063c-0.01,0-0.018-0.005-0.027-0.006c-0.054,0.006-0.107,0.018-0.164,0.018
		c-0.315,0-0.607-0.099-0.85-0.266c0.105,0.489,0.52,0.864,1.041,0.864h8.875c0.599,0,1.085-0.486,1.085-1.085V3.49V2.237
		C15.023,1.638,14.537,1.152,13.938,1.152z M5.266,2.824c-0.233,0-0.424-0.189-0.424-0.424c0-0.233,0.19-0.424,0.424-0.424
		c0.235,0,0.424,0.191,0.424,0.424C5.69,2.635,5.501,2.824,5.266,2.824z M6.359,2.824c-0.233,0-0.424-0.189-0.424-0.424
		c0-0.233,0.19-0.424,0.424-0.424c0.235,0,0.424,0.191,0.424,0.424C6.783,2.635,6.594,2.824,6.359,2.824z M7.528,2.824
		c-0.234,0-0.424-0.189-0.424-0.424c0-0.233,0.19-0.424,0.424-0.424c0.234,0,0.424,0.191,0.424,0.424
		C7.952,2.635,7.763,2.824,7.528,2.824z"/>
	<path fill="#0E3253" d="M7.256,5.834c0.176,0,0.321-0.143,0.321-0.321c0-0.176-0.145-0.317-0.321-0.317H5.538
		c-0.176,0-0.321,0.141-0.321,0.317c0,0.12,0.068,0.219,0.166,0.275c0.024,0.01,0.05,0.018,0.074,0.029
		c0.026,0.007,0.053,0.017,0.081,0.017H7.256z"/>
	<path fill="#0E3253" d="M9.474,9.321h3.608c0.178,0,0.321-0.145,0.321-0.321c0-0.176-0.144-0.32-0.321-0.32H9.474
		C9.296,8.68,9.152,8.824,9.152,9C9.152,9.177,9.296,9.321,9.474,9.321z"/>
	<path fill="#0E3253" d="M9.474,11.062h3.608c0.178,0,0.321-0.143,0.321-0.319c0-0.176-0.144-0.32-0.321-0.32H9.474
		c-0.178,0-0.321,0.145-0.321,0.32C9.152,10.919,9.296,11.062,9.474,11.062z"/>
	<path fill="#0E3253" d="M9.474,12.806h3.608c0.178,0,0.321-0.145,0.321-0.321c0-0.176-0.144-0.318-0.321-0.318H9.474
		c-0.178,0-0.321,0.143-0.321,0.318C9.152,12.661,9.296,12.806,9.474,12.806z"/>
	<path fill="#0E3253" d="M9.474,5.834h3.608c0.178,0,0.321-0.143,0.321-0.319c0-0.177-0.144-0.321-0.321-0.321H9.474
		c-0.178,0-0.321,0.145-0.321,0.321C9.152,5.691,9.296,5.834,9.474,5.834z"/>
	<path fill="#0E3253" d="M9.474,7.577h3.608c0.178,0,0.321-0.143,0.321-0.319c0-0.177-0.144-0.321-0.321-0.321H9.474
		c-0.178,0-0.321,0.145-0.321,0.321C9.152,7.434,9.296,7.577,9.474,7.577z"/>
	<path fill="#00B9C1" d="M8.085,9.359L5.452,6.55C5.301,6.389,5.091,6.296,4.871,6.293c-0.071,0-0.137,0.021-0.205,0.039
		C4.64,6.338,4.613,6.338,4.588,6.347C4.575,6.351,4.561,6.35,4.549,6.355c-0.098,0.041-0.189,0.1-0.267,0.178L3.978,6.839
		L1.49,9.342c-0.316,0.319-0.314,0.834,0.003,1.149c0.08,0.08,0.171,0.139,0.269,0.178c0.021,0.009,0.046,0.007,0.068,0.013
		c0.078,0.024,0.157,0.047,0.237,0.047c0.045,0,0.087-0.018,0.13-0.025c0.06-0.01,0.12-0.012,0.176-0.035
		c0.098-0.04,0.189-0.101,0.269-0.18l1.334-1.342v3.729c0,0.001,0.001,0.001,0.001,0.003c0.001,0.393,0.258,0.713,0.61,0.834
		c0.091,0.03,0.184,0.057,0.284,0.057c0.494,0,0.895-0.4,0.895-0.894V9.264l1.132,1.207c0.079,0.084,0.171,0.146,0.27,0.189
		c0.037,0.016,0.076,0.016,0.114,0.025c0.065,0.018,0.129,0.039,0.195,0.039c0.071,0.002,0.143-0.016,0.212-0.033
		c0.029-0.008,0.06-0.006,0.089-0.016c0.098-0.036,0.189-0.092,0.27-0.167c0.171-0.16,0.257-0.376,0.257-0.594
		C8.306,9.717,8.232,9.517,8.085,9.359z"/>
</g>
</svg>
