<?xml version="1.0" encoding="utf-8"?>
<!-- Generator: Adobe Illustrator 16.0.0, SVG Export Plug-In . SVG Version: 6.00 Build 0)  -->
<!DOCTYPE svg PUBLIC "-//W3C//DTD SVG 1.1//EN" "http://www.w3.org/Graphics/SVG/1.1/DTD/svg11.dtd">
<svg version="1.1" id="Layer_1" xmlns="http://www.w3.org/2000/svg" xmlns:xlink="http://www.w3.org/1999/xlink" x="0px" y="0px"
	 width="16px" height="16px" viewBox="0 0 16 16" enable-background="new 0 0 16 16" xml:space="preserve">
<g>
	<g>
		<path fill="#798C9D" d="M8.385,7.334c-0.491-0.24-0.978-0.359-0.978-0.751c0-0.352,0.207-0.456,0.534-0.456
			c0.231,0,0.432,0.086,0.618,0.232c0.141,0.119,0.303,0.198,0.5,0.198c0.365,0,0.631-0.345,0.631-0.672
			c0-0.246-0.127-0.457-0.357-0.619C9.133,5.116,8.912,5,8.686,4.921V4.609c0-0.304-0.246-0.55-0.548-0.55H7.738
			c-0.305,0-0.55,0.246-0.55,0.55v0.346c-0.697,0.292-1.123,0.98-1.123,1.656c0,1.075,0.955,1.531,1.758,1.903
			c0.638,0.297,0.851,0.479,0.851,0.754c0,0.455-0.38,0.682-0.821,0.682c-0.254,0-0.485-0.027-0.764-0.23
			C6.946,9.598,6.782,9.5,6.585,9.5c-0.366,0-0.632,0.344-0.632,0.672c0,0.238,0.12,0.432,0.339,0.602
			c0.244,0.187,0.612,0.347,0.896,0.422v0.24c0,0.304,0.245,0.547,0.55,0.547h0.398c0.303,0,0.55-0.243,0.55-0.547v-0.283
			c0.803-0.272,1.353-0.942,1.353-1.926C10.036,8.24,9.354,7.804,8.385,7.334L8.385,7.334z"/>
		<path fill="#798C9D" d="M7.999,1.373C4.337,1.373,1.373,4.338,1.373,8s2.964,6.627,6.626,6.627c3.663,0,6.628-2.965,6.628-6.627
			S11.662,1.373,7.999,1.373L7.999,1.373z M8.007,13.123c-2.828,0-5.122-2.291-5.122-5.121c0-2.829,2.293-5.12,5.122-5.12
			c2.829,0,5.121,2.291,5.121,5.12C13.128,10.832,10.833,13.123,8.007,13.123L8.007,13.123z"/>
	</g>
</g>
</svg>
