<?xml version="1.0" encoding="utf-8"?>
<!-- Generator: Adobe Illustrator 16.0.0, SVG Export Plug-In . SVG Version: 6.00 Build 0)  -->
<!DOCTYPE svg PUBLIC "-//W3C//DTD SVG 1.1//EN" "http://www.w3.org/Graphics/SVG/1.1/DTD/svg11.dtd">
<svg version="1.1" id="Layer_1" xmlns="http://www.w3.org/2000/svg" xmlns:xlink="http://www.w3.org/1999/xlink" x="0px" y="0px"
	 width="16px" height="16px" viewBox="0 0 16 16" enable-background="new 0 0 16 16" xml:space="preserve">
<g>
	<path fill="#0E3253" d="M13.939,1.195H5.067c-0.599,0-1.084,0.487-1.084,1.086v1.253v3.407c0.072,0.022,0.144,0.048,0.207,0.091
		l0.403,0.276V3.534h9.822v10.4c0,0.261-0.213,0.475-0.475,0.475h-4.82l-0.041,0.041c-0.147,0.149-0.357,0.237-0.575,0.237
		c-0.169,0-0.331-0.051-0.466-0.148l-0.192-0.13H7.474l-0.073,0.394c-0.016,0.078-0.049,0.147-0.084,0.216h6.623
		c0.599,0,1.084-0.487,1.084-1.084v-10.4V2.281C15.023,1.682,14.538,1.195,13.939,1.195z M5.27,2.868
		c-0.233,0-0.424-0.19-0.424-0.424c0-0.235,0.19-0.424,0.424-0.424c0.235,0,0.424,0.189,0.424,0.424
		C5.694,2.678,5.505,2.868,5.27,2.868z M6.362,2.868c-0.233,0-0.424-0.19-0.424-0.424c0-0.235,0.19-0.424,0.424-0.424
		c0.235,0,0.424,0.189,0.424,0.424C6.787,2.678,6.598,2.868,6.362,2.868z M7.531,2.868c-0.233,0-0.424-0.19-0.424-0.424
		c0-0.235,0.191-0.424,0.424-0.424c0.235,0,0.424,0.189,0.424,0.424C7.955,2.678,7.766,2.868,7.531,2.868z"/>
	<path fill="#0E3253" d="M5.542,5.875H7.26c0.176,0,0.32-0.141,0.32-0.319c0-0.176-0.145-0.319-0.32-0.319H5.542
		c-0.176,0-0.321,0.143-0.321,0.319C5.221,5.734,5.365,5.875,5.542,5.875z"/>
	<path fill="#0E3253" d="M13.404,9.042c0-0.178-0.144-0.321-0.321-0.321H9.941C9.921,8.768,9.907,8.814,9.878,8.857L9.534,9.361
		h3.549C13.261,9.361,13.404,9.217,13.404,9.042z"/>
	<path fill="#0E3253" d="M13.083,11.103c0.178,0,0.321-0.143,0.321-0.319c0-0.176-0.144-0.32-0.321-0.32h-2.279v0.64H13.083z"/>
	<path fill="#0E3253" d="M9.93,12.845h3.153c0.178,0,0.321-0.144,0.321-0.319c0-0.177-0.144-0.321-0.321-0.321H9.522l0.352,0.512
		C9.9,12.756,9.91,12.802,9.93,12.845z"/>
	<path fill="#0E3253" d="M9.476,5.877h3.607c0.178,0,0.321-0.145,0.321-0.321s-0.144-0.319-0.321-0.319H9.476
		c-0.178,0-0.32,0.143-0.32,0.319S9.298,5.877,9.476,5.877z"/>
	<path fill="#0E3253" d="M13.404,7.3c0-0.178-0.144-0.321-0.321-0.321H9.476c-0.144,0-0.259,0.094-0.301,0.224l0.416,0.416h3.492
		C13.261,7.619,13.404,7.476,13.404,7.3z"/>
	<g>
		<g>
			<path fill="#00B9C1" d="M10.028,10.087l-0.98-0.185c-0.059-0.198-0.14-0.388-0.235-0.568L9.38,8.505
				c0.054-0.076,0.041-0.193-0.023-0.257l-0.7-0.702C8.59,7.479,8.475,7.47,8.399,7.522L7.567,8.091
				c-0.185-0.1-0.381-0.18-0.584-0.24L6.802,6.875c-0.02-0.091-0.109-0.166-0.201-0.166H5.61c-0.094,0-0.182,0.075-0.199,0.166
				L5.225,7.862C5.029,7.921,4.841,7.999,4.664,8.096l-0.82-0.561C3.768,7.482,3.653,7.492,3.585,7.559l-0.7,0.699
				C2.82,8.324,2.809,8.44,2.862,8.518l0.563,0.824C3.33,9.519,3.254,9.707,3.195,9.902l-0.98,0.185
				c-0.093,0.017-0.167,0.107-0.167,0.199v0.991c0,0.092,0.074,0.181,0.167,0.198l0.98,0.185c0.06,0.201,0.139,0.392,0.237,0.573
				l-0.558,0.815c-0.053,0.076-0.043,0.19,0.024,0.258l0.7,0.7c0.065,0.066,0.179,0.076,0.258,0.023l0.814-0.559
				c0.176,0.097,0.361,0.173,0.557,0.233l0.184,0.984c0.018,0.092,0.106,0.167,0.199,0.167h0.991c0.094,0,0.182-0.075,0.201-0.167
				l0.182-0.975c0.203-0.06,0.397-0.14,0.579-0.237l0.827,0.564c0.076,0.054,0.193,0.042,0.257-0.022l0.698-0.7
				c0.067-0.067,0.077-0.182,0.026-0.259l-0.562-0.821c0.1-0.183,0.181-0.376,0.239-0.579l0.98-0.185
				c0.093-0.018,0.166-0.106,0.166-0.198v-0.991C10.194,10.194,10.121,10.104,10.028,10.087L10.028,10.087z M6.121,12.482
				c-0.938,0-1.7-0.762-1.7-1.7c0-0.938,0.762-1.699,1.7-1.699c0.939,0,1.7,0.762,1.7,1.699C7.821,11.721,7.059,12.482,6.121,12.482
				L6.121,12.482z M6.121,12.482"/>
		</g>
	</g>
</g>
</svg>
