<?xml version="1.0" encoding="utf-8"?>
<!-- Generator: Adobe Illustrator 16.0.0, SVG Export Plug-In . SVG Version: 6.00 Build 0)  -->
<!DOCTYPE svg PUBLIC "-//W3C//DTD SVG 1.1//EN" "http://www.w3.org/Graphics/SVG/1.1/DTD/svg11.dtd">
<svg version="1.1" id="Layer_1" xmlns="http://www.w3.org/2000/svg" xmlns:xlink="http://www.w3.org/1999/xlink" x="0px" y="0px"
	 width="17px" height="17px" viewBox="0 0 17 17" enable-background="new 0 0 17 17" xml:space="preserve">
<g>
	<path fill="#00AFB8" d="M16.536,14.132l-3.72-3.716c0.588-1.023,0.898-2.188,0.898-3.398c0-1.832-0.712-3.556-2.009-4.85
		c-1.295-1.296-3.019-2.009-4.848-2.009c-1.834,0-3.558,0.713-4.85,2.009C0.711,3.462,0,5.188,0,7.018
		c0,1.832,0.712,3.555,2.009,4.851c1.292,1.295,3.016,2.009,4.85,2.009c1.367,0,2.676-0.399,3.792-1.142l3.641,3.641
		c0.309,0.309,0.714,0.465,1.122,0.465c0.405,0,0.813-0.156,1.121-0.465C17.154,15.755,17.154,14.752,16.536,14.132L16.536,14.132z
		 M10.398,10.561c-0.945,0.944-2.206,1.467-3.541,1.467c-1.342,0-2.596-0.521-3.543-1.467C2.368,9.613,1.848,8.356,1.848,7.018
		s0.52-2.595,1.466-3.541s2.203-1.469,3.545-1.469c1.335,0,2.594,0.522,3.542,1.469C12.352,5.429,12.352,8.607,10.398,10.561
		L10.398,10.561z"/>
	<g>
		<g>
			<defs>
				<circle id="SVGID_1_" cx="6.852" cy="6.984" r="4.343"/>
			</defs>
			<clipPath id="SVGID_2_">
				<use xlink:href="#SVGID_1_"  overflow="visible"/>
			</clipPath>
			<g clip-path="url(#SVGID_2_)">
				<path fill="#143156" d="M12.383,0.392c-0.646-0.421-1.557-0.254-1.957,0.356L5.595,8.162L3.182,5.38
					C2.68,4.798,1.724,4.729,1.141,5.234C0.538,5.756,0.472,6.673,0.993,7.276l3.684,4.244c0.287,0.332,0.706,0.513,1.142,0.498
					c0.097-0.004,0.189-0.02,0.28-0.041c0.01-0.002,0.02-0.006,0.029-0.009c0.08-0.021,0.163-0.049,0.241-0.086
					c0.036-0.017,0.076-0.034,0.112-0.055c0.066-0.04,0.133-0.083,0.193-0.134c0.013-0.01,0.03-0.019,0.044-0.032l0,0
					c0.149-0.13,0.268-0.287,0.351-0.456l5.787-8.876C13.264,1.697,13.051,0.83,12.383,0.392z"/>
			</g>
		</g>
	</g>
</g>
</svg>
