<?xml version="1.0" encoding="utf-8"?>
<!-- Generator: Adobe Illustrator 16.0.0, SVG Export Plug-In . SVG Version: 6.00 Build 0)  -->
<!DOCTYPE svg PUBLIC "-//W3C//DTD SVG 1.1//EN" "http://www.w3.org/Graphics/SVG/1.1/DTD/svg11.dtd">
<svg version="1.1" id="Layer_1" xmlns="http://www.w3.org/2000/svg" xmlns:xlink="http://www.w3.org/1999/xlink" x="0px" y="0px"
	 width="17px" height="17px" viewBox="0 0 17 17" enable-background="new 0 0 17 17" xml:space="preserve">
<g>
	<path fill="#0E3253" d="M12.941,16.337H2.417c-1.142,0-2.07-0.929-2.07-2.071V3.74c0-1.143,0.928-2.071,2.07-2.071h10.525
		c1.143,0,2.07,0.929,2.07,2.071v10.525C15.012,15.408,14.084,16.337,12.941,16.337z M2.417,2.623c-0.615,0-1.116,0.502-1.116,1.117
		v10.525c0,0.616,0.501,1.117,1.116,1.117h10.525c0.617,0,1.117-0.501,1.117-1.117V3.74c0-0.615-0.5-1.117-1.117-1.117H2.417z"/>
	<path fill="#00B7C0" d="M9.652,9.003l3.168-3.171c0.545-0.544,0.545-1.428,0-1.971c-0.543-0.545-1.424-0.545-1.971,0L7.68,7.029
		L4.509,3.861c-0.544-0.545-1.427-0.545-1.971,0C2.266,4.133,2.129,4.488,2.129,4.846s0.136,0.713,0.408,0.986l3.171,3.171
		l-3.171,3.169c-0.546,0.546-0.546,1.428,0,1.973c0.274,0.271,0.63,0.407,0.986,0.407c0.357,0,0.715-0.136,0.985-0.407l3.171-3.171
		l3.17,3.171c0.547,0.546,1.428,0.546,1.971,0c0.545-0.546,0.545-1.427,0-1.973L9.652,9.003z"/>
</g>
</svg>
