<?xml version="1.0" encoding="utf-8"?>
<!-- Generator: Adobe Illustrator 16.0.0, SVG Export Plug-In . SVG Version: 6.00 Build 0)  -->
<!DOCTYPE svg PUBLIC "-//W3C//DTD SVG 1.1//EN" "http://www.w3.org/Graphics/SVG/1.1/DTD/svg11.dtd">
<svg version="1.1" id="Layer_1" xmlns="http://www.w3.org/2000/svg" xmlns:xlink="http://www.w3.org/1999/xlink" x="0px" y="0px"
	 width="17px" height="17px" viewBox="0 0 17 17" enable-background="new 0 0 17 17" xml:space="preserve">
<path fill="#0E3253" d="M12.941,16.337H2.416c-1.142,0-2.07-0.93-2.07-2.072V3.74c0-1.143,0.928-2.072,2.07-2.072h10.525
	c1.143,0,2.07,0.929,2.07,2.072v10.524C15.012,15.407,14.084,16.337,12.941,16.337z M2.416,2.623C1.801,2.623,1.3,3.124,1.3,3.74
	v10.524c0,0.617,0.501,1.118,1.116,1.118h10.525c0.617,0,1.116-0.501,1.116-1.118V3.74c0-0.616-0.499-1.118-1.116-1.118H2.416z"/>
</svg>
