<?xml version="1.0" encoding="utf-8"?>
<!-- Generator: Adobe Illustrator 16.0.0, SVG Export Plug-In . SVG Version: 6.00 Build 0)  -->
<!DOCTYPE svg PUBLIC "-//W3C//DTD SVG 1.1//EN" "http://www.w3.org/Graphics/SVG/1.1/DTD/svg11.dtd">
<svg version="1.1" id="Layer_1" xmlns="http://www.w3.org/2000/svg" xmlns:xlink="http://www.w3.org/1999/xlink" x="0px" y="0px"
	 width="17px" height="17px" viewBox="0 0 17 17" enable-background="new 0 0 17 17" xml:space="preserve">
<g>
	<path fill="#00AFB8" d="M16.536,14.132l-3.72-3.716c0.588-1.023,0.898-2.188,0.898-3.397c0-1.833-0.712-3.557-2.009-4.851
		c-1.295-1.296-3.019-2.009-4.848-2.009c-1.834,0-3.558,0.713-4.85,2.009C0.711,3.462,0,5.188,0,7.019s0.712,3.554,2.009,4.85
		c1.292,1.295,3.016,2.009,4.85,2.009c1.367,0,2.676-0.399,3.792-1.142l3.641,3.641c0.309,0.309,0.714,0.465,1.122,0.465
		c0.405,0,0.813-0.156,1.121-0.465C17.154,15.755,17.154,14.752,16.536,14.132L16.536,14.132z M10.398,10.561
		c-0.945,0.944-2.206,1.467-3.541,1.467c-1.342,0-2.596-0.521-3.543-1.467C2.368,9.613,1.848,8.356,1.848,7.019
		c0-1.34,0.52-2.596,1.466-3.542s2.203-1.468,3.545-1.468c1.335,0,2.594,0.521,3.542,1.468C12.352,5.429,12.352,8.607,10.398,10.561
		L10.398,10.561z"/>
</g>
</svg>
