<?xml version="1.0" encoding="utf-8"?>
<!-- Generator: Adobe Illustrator 16.0.0, SVG Export Plug-In . SVG Version: 6.00 Build 0)  -->
<!DOCTYPE svg PUBLIC "-//W3C//DTD SVG 1.1//EN" "http://www.w3.org/Graphics/SVG/1.1/DTD/svg11.dtd">
<svg version="1.1" id="Layer_1" xmlns="http://www.w3.org/2000/svg" xmlns:xlink="http://www.w3.org/1999/xlink" x="0px" y="0px"
	 width="60px" height="55px" viewBox="0 0 60 55" enable-background="new 0 0 60 55" xml:space="preserve">
<g>
	
		<rect x="15.508" y="0.536" transform="matrix(-0.5787 -0.8155 0.8155 -0.5787 11.7786 39.1462)" fill="#00B0BA" width="0.985" height="31.989"/>
	<g>
		<defs>
			<rect id="SVGID_7_" x="1.045" width="57.621" height="55"/>
		</defs>
		<clipPath id="SVGID_2_">
			<use xlink:href="#SVGID_7_"  overflow="visible"/>
		</clipPath>
		<path clip-path="url(#SVGID_2_)" fill="#003057" d="M22.93,22.258c-0.442,0-0.801-0.36-0.801-0.804s0.358-0.801,0.801-0.801
			c0.443,0,0.805,0.357,0.805,0.801S23.373,22.258,22.93,22.258 M20.719,22.258c-0.443,0-0.8-0.36-0.8-0.804s0.356-0.801,0.8-0.801
			c0.445,0,0.803,0.357,0.803,0.801S21.164,22.258,20.719,22.258 M18.652,22.258c-0.443,0-0.803-0.36-0.803-0.804
			s0.359-0.801,0.803-0.801s0.799,0.357,0.799,0.801S19.096,22.258,18.652,22.258 M35.061,19.092H18.266
			c-1.131,0-2.053,0.921-2.053,2.057v2.37v6.594l1.123,0.767c0.012-0.004,0.02-0.007,0.033-0.012v-7.349h18.588v19.685
			c0,0.491-0.397,0.899-0.896,0.899h-8.816l-0.288,0.288c-0.208,0.209-0.509,0.331-0.819,0.331c-0.234,0-0.459-0.066-0.647-0.198
			l-0.615-0.421h-1.255l-0.217,1.152h12.658c1.13,0,2.052-0.924,2.052-2.052V23.516v-2.37C37.112,20.013,36.19,19.092,35.061,19.092
			"/>
		<path clip-path="url(#SVGID_2_)" fill="#003057" d="M19.164,27.949h3.255c0.335,0,0.604-0.265,0.604-0.605
			c0-0.333-0.27-0.604-0.604-0.604h-3.255c-0.334,0-0.605,0.271-0.605,0.604C18.559,27.684,18.83,27.949,19.164,27.949"/>
		<path clip-path="url(#SVGID_2_)" fill="#003057" d="M34.048,33.943c0-0.338-0.269-0.609-0.607-0.609h-6.132l-0.682,0.998
			c0.033,0.069,0.062,0.145,0.092,0.219h6.726C33.779,34.549,34.048,34.272,34.048,33.943"/>
		<path clip-path="url(#SVGID_2_)" fill="#003057" d="M33.442,37.844c0.337,0,0.605-0.272,0.605-0.604
			c0-0.333-0.269-0.604-0.605-0.604h-4.099v1.208H33.442z"/>
		<path clip-path="url(#SVGID_2_)" fill="#003057" d="M27.291,41.141h6.151c0.335,0,0.605-0.271,0.605-0.604
			c0-0.334-0.271-0.607-0.605-0.607h-6.724c-0.035,0.077-0.062,0.158-0.1,0.232L27.291,41.141z"/>
		<path clip-path="url(#SVGID_2_)" fill="#003057" d="M26.611,27.952h6.827c0.339,0,0.609-0.272,0.609-0.604
			c0-0.336-0.271-0.608-0.609-0.608h-6.827c-0.338,0-0.607,0.271-0.607,0.608C26.004,27.68,26.275,27.952,26.611,27.952"/>
		<path clip-path="url(#SVGID_2_)" fill="#003057" d="M34.048,30.645c0-0.335-0.269-0.606-0.607-0.606h-6.829
			c-0.188,0-0.347,0.092-0.461,0.224l0.988,0.992h6.302C33.779,31.252,34.048,30.979,34.048,30.645"/>
		<path clip-path="url(#SVGID_2_)" fill="#00B0BA" d="M20.263,40.455c-1.775,0-3.219-1.44-3.219-3.218
			c0-1.771,1.446-3.214,3.219-3.214c1.776,0,3.215,1.443,3.215,3.214C23.478,39.015,22.036,40.455,20.263,40.455 M27.658,35.921
			l-1.859-0.35c-0.109-0.374-0.261-0.734-0.441-1.074l1.072-1.572c0.103-0.143,0.078-0.366-0.042-0.488l-1.329-1.326
			c-0.125-0.125-0.344-0.143-0.488-0.045l-1.572,1.076c-0.35-0.188-0.721-0.34-1.105-0.455l-0.346-1.848
			c-0.034-0.171-0.204-0.312-0.381-0.312h-1.875c-0.176,0-0.344,0.142-0.377,0.312l-0.35,1.867
			c-0.372,0.113-0.727,0.261-1.062,0.444l-1.551-1.063c-0.145-0.098-0.363-0.08-0.491,0.043l-1.326,1.327
			c-0.122,0.129-0.142,0.347-0.044,0.491l1.068,1.563c-0.184,0.332-0.326,0.689-0.436,1.058l-1.857,0.35
			c-0.176,0.034-0.312,0.203-0.312,0.376v1.875c0,0.179,0.139,0.348,0.312,0.383l1.857,0.345c0.109,0.381,0.261,0.745,0.446,1.085
			l-1.056,1.542c-0.102,0.145-0.081,0.365,0.045,0.49l1.325,1.326c0.126,0.125,0.341,0.144,0.49,0.046l1.542-1.057
			c0.332,0.182,0.681,0.324,1.051,0.438l0.348,1.864c0.033,0.175,0.201,0.312,0.377,0.312h1.875c0.178,0,0.347-0.137,0.381-0.312
			l0.346-1.852c0.385-0.108,0.754-0.259,1.095-0.444l1.567,1.069c0.141,0.1,0.365,0.081,0.485-0.042l1.323-1.325
			c0.125-0.127,0.146-0.347,0.051-0.491l-1.067-1.554c0.187-0.347,0.343-0.714,0.454-1.097l1.857-0.349
			c0.177-0.033,0.312-0.202,0.312-0.379v-1.875C27.971,36.124,27.835,35.958,27.658,35.921"/>
		<path clip-path="url(#SVGID_2_)" fill="#003057" d="M44.491,18.448c2.211,3.468,3.499,7.579,3.499,11.983
			c0,12.348-10.04,22.389-22.383,22.389c-12.342,0-22.386-10.039-22.386-22.385c0-12.34,10.042-22.381,22.383-22.381
			c3.271,0,6.378,0.712,9.188,1.98c-0.163-0.613-0.268-1.237-0.268-1.884c0-0.19,0.026-0.383,0.042-0.57
			c-2.781-1.092-5.799-1.701-8.962-1.701c-13.54,0-24.559,11.018-24.559,24.556C1.046,43.981,12.064,55,25.604,55
			c13.545,0,24.561-11.019,24.561-24.565c0-4.726-1.345-9.141-3.667-12.891c-0.232-0.011-0.468-0.019-0.705-0.034
			C45.373,17.846,44.941,18.159,44.491,18.448"/>
		<path clip-path="url(#SVGID_2_)" fill="#00B0BA" d="M57.185,3.947c-0.993-1.214-2.344-2.182-4.044-2.886
			C51.438,0.354,49.578,0,47.562,0c-1.505,0-2.941,0.208-4.316,0.629c-1.371,0.416-2.551,0.983-3.543,1.689
			c-0.992,0.713-1.786,1.56-2.371,2.538c-0.582,0.98-0.878,2.006-0.878,3.081c0,1.24,0.375,2.401,1.125,3.486
			c0.748,1.081,1.767,1.987,3.068,2.724c-0.094,0.333-0.198,0.646-0.325,0.944c-0.12,0.297-0.233,0.542-0.333,0.732
			c-0.098,0.189-0.235,0.4-0.402,0.63c-0.17,0.233-0.299,0.392-0.386,0.49c-0.087,0.095-0.228,0.253-0.43,0.472
			c-0.197,0.219-0.325,0.361-0.384,0.428c-0.008,0.004-0.039,0.04-0.103,0.111c-0.055,0.068-0.085,0.104-0.085,0.104l-0.073,0.11
			c-0.042,0.062-0.058,0.101-0.058,0.116c0.004,0.021-0.004,0.058-0.025,0.125c-0.016,0.065-0.016,0.119,0.012,0.147v0.011
			c0.029,0.152,0.101,0.271,0.216,0.361c0.112,0.094,0.237,0.13,0.378,0.109c0.536-0.063,1.009-0.153,1.412-0.27
			c2.168-0.554,4.068-1.554,5.705-3.002c0.617,0.068,1.219,0.101,1.796,0.101c2.016,0,3.875-0.353,5.576-1.06
			c1.702-0.705,3.053-1.667,4.046-2.887c0.989-1.217,1.483-2.548,1.483-3.985C58.668,6.496,58.172,5.167,57.185,3.947"/>
	</g>
</g>
</svg>
