<?xml version="1.0" encoding="utf-8"?>
<!-- Generator: Adobe Illustrator 16.0.0, SVG Export Plug-In . SVG Version: 6.00 Build 0)  -->
<!DOCTYPE svg PUBLIC "-//W3C//DTD SVG 1.1//EN" "http://www.w3.org/Graphics/SVG/1.1/DTD/svg11.dtd">
<svg version="1.1" id="Layer_1" xmlns="http://www.w3.org/2000/svg" xmlns:xlink="http://www.w3.org/1999/xlink" x="0px" y="0px"
	 width="60px" height="55px" viewBox="0 0 60 55" enable-background="new 0 0 60 55" xml:space="preserve">
<g>
	
		<rect x="32.861" y="-0.251" transform="matrix(0.4744 -0.8803 0.8803 0.4744 3.6834 37.6281)" fill="#00B0BA" width="0.984" height="31.961"/>
	<g>
		<defs>
			<rect id="SVGID_3_" x="1.045" y="5.917" width="49.079" height="49.083"/>
		</defs>
		<clipPath id="SVGID_2_">
			<use xlink:href="#SVGID_3_"  overflow="visible"/>
		</clipPath>
		<path clip-path="url(#SVGID_2_)" fill="#003057" d="M25.586,8.093c-12.328,0-22.364,10.034-22.364,22.364
			c0,12.333,10.036,22.366,22.364,22.366c12.332,0,22.367-10.033,22.367-22.366C47.953,18.125,37.922,8.093,25.586,8.093 M25.586,55
			c-13.529,0-24.54-11.009-24.54-24.543c0-13.528,11.011-24.54,24.54-24.54c13.531,0,24.54,11.012,24.54,24.54
			C50.126,43.991,39.117,55,25.586,55"/>
		<path clip-path="url(#SVGID_2_)" fill="#003057" d="M22.914,22.286c-0.439,0-0.798-0.359-0.798-0.801
			c0-0.445,0.358-0.801,0.798-0.801c0.445,0,0.804,0.356,0.804,0.801C23.718,21.927,23.359,22.286,22.914,22.286 M20.705,22.286
			c-0.441,0-0.801-0.359-0.801-0.801c0-0.445,0.359-0.801,0.801-0.801c0.444,0,0.803,0.356,0.803,0.801
			C21.508,21.927,21.149,22.286,20.705,22.286 M18.641,22.286c-0.443,0-0.803-0.359-0.803-0.801c0-0.445,0.359-0.801,0.803-0.801
			c0.441,0,0.799,0.356,0.799,0.801C19.439,21.927,19.082,22.286,18.641,22.286 M35.033,19.123H18.255
			c-1.134,0-2.052,0.919-2.052,2.054v2.368v6.591l1.119,0.767c0.014-0.006,0.025-0.011,0.036-0.014v-7.344h18.576v19.667
			c0,0.494-0.405,0.896-0.901,0.896h-8.807L25.938,44.4c-0.209,0.211-0.509,0.331-0.817,0.331c-0.236,0-0.46-0.067-0.647-0.199
			l-0.618-0.424h-1.252l-0.218,1.158h12.647c1.135,0,2.053-0.926,2.053-2.055V23.545v-2.368
			C37.086,20.042,36.17,19.123,35.033,19.123"/>
		<path clip-path="url(#SVGID_2_)" fill="#003057" d="M19.152,27.975h3.251c0.335,0,0.606-0.269,0.606-0.604
			s-0.271-0.606-0.606-0.606h-3.251c-0.332,0-0.605,0.272-0.605,0.606C18.545,27.706,18.82,27.975,19.152,27.975"/>
		<path clip-path="url(#SVGID_2_)" fill="#003057" d="M34.022,33.959c0-0.334-0.271-0.606-0.605-0.606h-6.128l-0.68,0.996
			c0.033,0.072,0.061,0.145,0.091,0.216h6.721C33.751,34.564,34.022,34.291,34.022,33.959"/>
		<path clip-path="url(#SVGID_2_)" fill="#003057" d="M33.417,37.859c0.337,0,0.605-0.272,0.605-0.604
			c0-0.33-0.269-0.604-0.605-0.604h-4.095v1.209H33.417z"/>
		<path clip-path="url(#SVGID_2_)" fill="#003057" d="M27.27,41.152h6.147c0.337,0,0.604-0.271,0.604-0.604
			c0-0.332-0.267-0.605-0.604-0.605h-6.719c-0.031,0.078-0.063,0.154-0.097,0.23L27.27,41.152z"/>
		<path clip-path="url(#SVGID_2_)" fill="#003057" d="M26.594,27.975h6.823c0.334,0,0.605-0.272,0.605-0.607
			c0-0.334-0.271-0.603-0.605-0.603h-6.823c-0.336,0-0.605,0.269-0.605,0.603C25.988,27.703,26.258,27.975,26.594,27.975"/>
		<path clip-path="url(#SVGID_2_)" fill="#003057" d="M34.022,30.667c0-0.336-0.271-0.604-0.605-0.604h-6.823
			c-0.189,0-0.35,0.09-0.461,0.222l0.987,0.986h6.297C33.751,31.271,34.022,31,34.022,30.667"/>
		<path clip-path="url(#SVGID_2_)" fill="#003057" d="M20.249,40.468c-1.773,0-3.214-1.44-3.214-3.213
			c0-1.774,1.442-3.215,3.214-3.215c1.776,0,3.212,1.442,3.212,3.215S22.021,40.468,20.249,40.468 M27.636,35.939l-1.854-0.348
			c-0.111-0.376-0.262-0.733-0.442-1.076l1.073-1.569c0.102-0.144,0.075-0.366-0.043-0.487l-1.327-1.327
			c-0.126-0.122-0.345-0.142-0.487-0.044l-1.572,1.075c-0.349-0.187-0.72-0.339-1.104-0.452l-0.345-1.851
			c-0.039-0.172-0.207-0.312-0.381-0.312h-1.873c-0.178,0-0.344,0.143-0.378,0.312l-0.35,1.868
			c-0.374,0.109-0.728,0.262-1.063,0.446l-1.549-1.065c-0.143-0.098-0.359-0.08-0.49,0.046l-1.324,1.322
			c-0.123,0.127-0.143,0.348-0.042,0.494l1.064,1.555c-0.182,0.336-0.323,0.693-0.435,1.063l-1.854,0.35
			c-0.177,0.03-0.313,0.204-0.313,0.374v1.875c0,0.177,0.139,0.345,0.313,0.377l1.854,0.348c0.111,0.382,0.264,0.743,0.445,1.086
			l-1.053,1.543c-0.102,0.144-0.08,0.359,0.043,0.488l1.327,1.322c0.123,0.128,0.341,0.144,0.488,0.047l1.54-1.057
			c0.332,0.182,0.68,0.328,1.051,0.438l0.35,1.863c0.031,0.175,0.199,0.312,0.375,0.312h1.873c0.178,0,0.344-0.14,0.381-0.312
			l0.345-1.846c0.385-0.11,0.753-0.267,1.093-0.448l1.568,1.067c0.143,0.103,0.362,0.081,0.486-0.042l1.318-1.325
			c0.129-0.123,0.146-0.343,0.051-0.49l-1.062-1.551c0.186-0.348,0.34-0.715,0.451-1.097l1.853-0.348
			c0.182-0.034,0.316-0.203,0.316-0.377v-1.875C27.952,36.144,27.817,35.972,27.636,35.939"/>
	</g>
</g>
</svg>
