<?xml version="1.0" encoding="utf-8"?>
<!-- Generator: Adobe Illustrator 16.0.0, SVG Export Plug-In . SVG Version: 6.00 Build 0)  -->
<!DOCTYPE svg PUBLIC "-//W3C//DTD SVG 1.1//EN" "http://www.w3.org/Graphics/SVG/1.1/DTD/svg11.dtd">
<svg version="1.1" id="Layer_1" xmlns="http://www.w3.org/2000/svg" xmlns:xlink="http://www.w3.org/1999/xlink" x="0px" y="0px"
	 width="60px" height="55px" viewBox="0 0 60 55" enable-background="new 0 0 60 55" xml:space="preserve">
<g>
	
		<rect x="-5.239" y="38.064" transform="matrix(-0.4839 -0.8751 0.8751 -0.4839 -17.7869 66.621)" fill="#00B0BA" width="31.981" height="0.982"/>
	<g>
		<defs>
			<rect id="SVGID_5_" x="1.045" y="0.008" width="57.621" height="54.992"/>
		</defs>
		<clipPath id="SVGID_2_">
			<use xlink:href="#SVGID_5_"  overflow="visible"/>
		</clipPath>
		<path clip-path="url(#SVGID_2_)" fill="#003057" d="M22.928,22.267c-0.438,0-0.8-0.362-0.8-0.806c0-0.441,0.361-0.802,0.8-0.802
			c0.444,0,0.806,0.36,0.806,0.802C23.733,21.905,23.372,22.267,22.928,22.267 M20.717,22.267c-0.441,0-0.799-0.362-0.799-0.806
			c0-0.441,0.357-0.802,0.799-0.802c0.447,0,0.803,0.36,0.803,0.802C21.52,21.905,21.164,22.267,20.717,22.267 M18.652,22.267
			c-0.442,0-0.804-0.362-0.804-0.806c0-0.441,0.361-0.802,0.804-0.802s0.8,0.36,0.8,0.802
			C19.452,21.905,19.095,22.267,18.652,22.267 M35.061,19.1H18.268c-1.136,0-2.055,0.921-2.055,2.053v2.372v6.596l1.121,0.768
			c0.014-0.004,0.023-0.01,0.036-0.016v-7.348h18.587v19.68c0,0.494-0.401,0.9-0.896,0.9h-8.817l-0.288,0.286
			c-0.209,0.213-0.51,0.337-0.816,0.337c-0.235,0-0.461-0.07-0.648-0.199l-0.619-0.424h-1.254l-0.214,1.154h12.657
			c1.129,0,2.054-0.922,2.054-2.055v-19.68v-2.372C37.114,20.021,36.19,19.1,35.061,19.1"/>
		<path clip-path="url(#SVGID_2_)" fill="#003057" d="M19.164,27.955h3.253c0.335,0,0.604-0.266,0.604-0.604
			c0-0.333-0.27-0.603-0.604-0.603h-3.253c-0.336,0-0.605,0.271-0.605,0.603C18.559,27.689,18.828,27.955,19.164,27.955"/>
		<path clip-path="url(#SVGID_2_)" fill="#003057" d="M34.046,33.947c0-0.334-0.272-0.605-0.605-0.605h-6.134l-0.68,0.994
			c0.033,0.073,0.06,0.145,0.091,0.218h6.723C33.773,34.554,34.046,34.276,34.046,33.947"/>
		<path clip-path="url(#SVGID_2_)" fill="#003057" d="M33.44,37.848c0.333,0,0.604-0.269,0.604-0.604
			c0-0.332-0.271-0.604-0.604-0.604h-4.099v1.208H33.44z"/>
		<path clip-path="url(#SVGID_2_)" fill="#003057" d="M27.288,41.144h6.152c0.333,0,0.609-0.27,0.609-0.603
			s-0.276-0.606-0.609-0.606h-6.724c-0.034,0.076-0.062,0.156-0.098,0.229L27.288,41.144z"/>
		<path clip-path="url(#SVGID_2_)" fill="#003057" d="M26.609,27.958h6.831c0.333,0,0.604-0.271,0.604-0.607
			c0-0.333-0.271-0.603-0.604-0.603h-6.831c-0.335,0-0.605,0.271-0.605,0.603C26.004,27.688,26.274,27.958,26.609,27.958"/>
		<path clip-path="url(#SVGID_2_)" fill="#003057" d="M34.046,30.649c0-0.337-0.272-0.604-0.605-0.604h-6.829
			c-0.188,0-0.35,0.092-0.461,0.224l0.988,0.989h6.302C33.773,31.258,34.046,30.984,34.046,30.649"/>
		<path clip-path="url(#SVGID_2_)" fill="#003057" d="M20.262,40.462c-1.776,0-3.218-1.444-3.218-3.219s1.443-3.215,3.218-3.215
			c1.779,0,3.215,1.442,3.215,3.215C23.477,39.018,22.035,40.462,20.262,40.462 M27.656,35.927l-1.857-0.352
			c-0.112-0.372-0.262-0.732-0.443-1.072l1.072-1.572c0.102-0.144,0.076-0.365-0.043-0.486l-1.326-1.331
			c-0.127-0.121-0.345-0.14-0.488-0.043l-1.571,1.079c-0.351-0.188-0.722-0.342-1.108-0.458l-0.344-1.846
			c-0.035-0.174-0.205-0.315-0.381-0.315h-1.873c-0.182,0-0.348,0.143-0.381,0.315l-0.35,1.864
			c-0.371,0.112-0.726,0.265-1.062,0.444l-1.552-1.062c-0.142-0.098-0.36-0.08-0.488,0.045l-1.325,1.327
			c-0.125,0.124-0.145,0.343-0.045,0.488l1.068,1.561c-0.183,0.335-0.326,0.693-0.438,1.062l-1.855,0.35
			c-0.176,0.034-0.313,0.202-0.313,0.377v1.875c0,0.176,0.14,0.345,0.313,0.376l1.855,0.35c0.111,0.382,0.265,0.746,0.447,1.085
			l-1.055,1.546c-0.104,0.14-0.08,0.358,0.045,0.488l1.325,1.325c0.126,0.123,0.34,0.141,0.489,0.044l1.541-1.055
			c0.333,0.18,0.682,0.324,1.051,0.437l0.348,1.863c0.033,0.176,0.201,0.313,0.381,0.313h1.873c0.178,0,0.346-0.14,0.381-0.313
			l0.344-1.849c0.387-0.108,0.755-0.263,1.094-0.445l1.566,1.069c0.144,0.103,0.364,0.078,0.488-0.044l1.322-1.323
			c0.127-0.129,0.145-0.347,0.05-0.491l-1.064-1.554c0.186-0.348,0.34-0.715,0.454-1.099l1.855-0.348
			c0.178-0.033,0.316-0.204,0.316-0.377v-1.874C27.973,36.129,27.834,35.96,27.656,35.927"/>
		<path clip-path="url(#SVGID_2_)" fill="#003057" d="M44.491,18.455c2.209,3.467,3.493,7.579,3.493,11.984
			c0,12.342-10.038,22.385-22.379,22.385c-12.339,0-22.383-10.043-22.383-22.382c0-12.342,10.041-22.382,22.383-22.382
			c3.27,0,6.379,0.714,9.183,1.981c-0.159-0.613-0.264-1.239-0.264-1.883c0-0.188,0.024-0.381,0.04-0.571
			c-2.779-1.092-5.799-1.697-8.959-1.697C12.062,5.884,1.045,16.901,1.045,30.441C1.045,43.985,12.062,55,25.604,55
			c13.542,0,24.556-11.015,24.556-24.559c0-4.729-1.345-9.146-3.669-12.893c-0.231-0.01-0.463-0.019-0.698-0.035
			C45.371,17.85,44.941,18.165,44.491,18.455"/>
		<path clip-path="url(#SVGID_2_)" fill="#00B0BA" d="M57.179,3.955c-0.993-1.217-2.34-2.183-4.04-2.887
			c-1.705-0.708-3.562-1.058-5.576-1.058c-1.509,0-2.947,0.208-4.318,0.625c-1.371,0.418-2.549,0.981-3.543,1.691
			c-0.992,0.711-1.78,1.558-2.369,2.537c-0.584,0.981-0.882,2.005-0.882,3.082c0,1.238,0.377,2.4,1.125,3.483
			c0.749,1.083,1.769,1.989,3.066,2.727c-0.092,0.33-0.194,0.643-0.323,0.941c-0.12,0.3-0.231,0.543-0.334,0.731
			c-0.097,0.19-0.23,0.403-0.401,0.632c-0.17,0.232-0.301,0.395-0.382,0.49c-0.089,0.095-0.229,0.253-0.432,0.473
			c-0.197,0.218-0.323,0.359-0.384,0.427c-0.012,0.005-0.043,0.039-0.101,0.111c-0.053,0.068-0.085,0.104-0.085,0.104l-0.075,0.111
			c-0.042,0.063-0.058,0.101-0.058,0.116c0.006,0.019-0.002,0.058-0.025,0.123c-0.02,0.067-0.02,0.118,0.008,0.148v0.015
			c0.033,0.15,0.104,0.268,0.218,0.358c0.112,0.093,0.239,0.128,0.378,0.112c0.538-0.068,1.009-0.158,1.412-0.274
			c2.168-0.551,4.068-1.551,5.705-3c0.618,0.068,1.221,0.102,1.798,0.102c2.016,0,3.871-0.355,5.576-1.061
			c1.698-0.706,3.047-1.671,4.042-2.888c0.987-1.218,1.485-2.545,1.485-3.984C58.664,6.503,58.166,5.175,57.179,3.955"/>
	</g>
</g>
</svg>
