<?xml version="1.0" encoding="utf-8"?>
<!-- Generator: Adobe Illustrator 16.0.0, SVG Export Plug-In . SVG Version: 6.00 Build 0)  -->
<!DOCTYPE svg PUBLIC "-//W3C//DTD SVG 1.1//EN" "http://www.w3.org/Graphics/SVG/1.1/DTD/svg11.dtd">
<svg version="1.1" id="Layer_1" xmlns="http://www.w3.org/2000/svg" xmlns:xlink="http://www.w3.org/1999/xlink" x="0px" y="0px"
	 width="16px" height="16px" viewBox="0 0 16 16" enable-background="new 0 0 16 16" xml:space="preserve">
<g>
	<path fill="#0E3253" d="M13.943,1.207h-8.84c-0.597,0-1.081,0.486-1.081,1.082v1.248v6.664H4.63V3.537h9.786v10.362
		c0,0.259-0.212,0.473-0.473,0.473H6.169c-0.077,0.01-0.15,0.01-0.227,0H5.104c-0.196,0-0.364-0.12-0.436-0.289l-0.43,0.429
		c0.196,0.275,0.501,0.468,0.866,0.468h8.84c0.597,0,1.08-0.485,1.08-1.08V3.537V2.289C15.023,1.693,14.54,1.207,13.943,1.207z
		 M5.306,2.875c-0.232,0-0.422-0.19-0.422-0.422c0-0.234,0.19-0.422,0.422-0.422c0.234,0,0.422,0.188,0.422,0.422
		C5.728,2.685,5.54,2.875,5.306,2.875z M6.394,2.875c-0.232,0-0.422-0.19-0.422-0.422c0-0.234,0.19-0.422,0.422-0.422
		c0.234,0,0.422,0.188,0.422,0.422C6.816,2.685,6.628,2.875,6.394,2.875z M7.559,2.875c-0.233,0-0.422-0.19-0.422-0.422
		c0-0.234,0.189-0.422,0.422-0.422c0.234,0,0.422,0.188,0.422,0.422C7.981,2.685,7.792,2.875,7.559,2.875z"/>
	<path fill="#0E3253" d="M7.288,5.871c0.175,0,0.319-0.141,0.319-0.318c0-0.176-0.144-0.318-0.319-0.318H5.576
		c-0.175,0-0.319,0.142-0.319,0.318c0,0.177,0.144,0.318,0.319,0.318H7.288z"/>
	<path fill="#0E3253" d="M9.496,9.343h3.595c0.177,0,0.319-0.144,0.319-0.317c0-0.178-0.143-0.32-0.319-0.32h-3.046L9.423,9.328
		C9.447,9.334,9.471,9.343,9.496,9.343z"/>
	<path fill="#0E3253" d="M9.699,11.078h3.392c0.177,0,0.319-0.143,0.319-0.317c0-0.176-0.143-0.32-0.319-0.32h-3.024
		c-0.015,0.208-0.093,0.4-0.244,0.554C9.785,11.031,9.739,11.049,9.699,11.078z"/>
	<path fill="#0E3253" d="M13.091,12.177H9.496c-0.177,0-0.319,0.144-0.319,0.319s0.143,0.317,0.319,0.317h3.595
		c0.177,0,0.319-0.142,0.319-0.317S13.268,12.177,13.091,12.177z"/>
	<path fill="#0E3253" d="M9.496,5.872h3.595c0.177,0,0.319-0.144,0.319-0.319c0-0.176-0.143-0.318-0.319-0.318H9.496
		c-0.177,0-0.319,0.142-0.319,0.318C9.177,5.728,9.319,5.872,9.496,5.872z"/>
	<path fill="#0E3253" d="M11.015,7.607h2.076c0.177,0,0.319-0.142,0.319-0.318c0-0.177-0.143-0.319-0.319-0.319h-2.203
		c0.102,0.124,0.168,0.273,0.168,0.437C11.056,7.477,11.034,7.542,11.015,7.607z"/>
	<g>
		<path fill="#00B9C1" d="M10.528,7.407c0-0.047-0.018-0.089-0.055-0.126L9.851,6.658C9.815,6.622,9.773,6.603,9.727,6.603
			c-0.048,0-0.09,0.019-0.127,0.055L7.786,8.472L7.001,7.686c-0.068-0.07-0.152-0.104-0.246-0.104c-0.095,0-0.176,0.034-0.246,0.104
			C6.439,7.755,6.404,7.835,6.404,7.932v2.447c0,0.094,0.035,0.176,0.104,0.245c0.07,0.07,0.151,0.104,0.246,0.104h2.446
			c0.096,0,0.178-0.033,0.247-0.104c0.068-0.069,0.104-0.151,0.104-0.245c0-0.096-0.035-0.177-0.104-0.246L8.661,9.346l1.812-1.814
			C10.511,7.495,10.528,7.453,10.528,7.407L10.528,7.407z M10.528,7.407"/>
		<path fill="#00B9C1" d="M6.056,10.728H3.607c-0.095,0-0.178,0.034-0.248,0.104c-0.067,0.069-0.103,0.151-0.103,0.246
			c0,0.094,0.036,0.176,0.103,0.245l0.789,0.786l-1.813,1.815c-0.037,0.036-0.055,0.077-0.055,0.124c0,0.048,0.018,0.09,0.055,0.126
			l0.623,0.623c0.036,0.036,0.079,0.055,0.125,0.055c0.047,0,0.089-0.019,0.125-0.055l1.815-1.814l0.786,0.787
			c0.069,0.07,0.151,0.104,0.247,0.104c0.093,0,0.176-0.033,0.245-0.104c0.069-0.069,0.104-0.15,0.104-0.246v-2.446
			c0-0.095-0.035-0.177-0.104-0.246C6.232,10.762,6.149,10.728,6.056,10.728L6.056,10.728z M6.056,10.728"/>
	</g>
</g>
</svg>
