<?xml version="1.0" encoding="utf-8"?>
<!-- Generator: Adobe Illustrator 16.0.0, SVG Export Plug-In . SVG Version: 6.00 Build 0)  -->
<!DOCTYPE svg PUBLIC "-//W3C//DTD SVG 1.1//EN" "http://www.w3.org/Graphics/SVG/1.1/DTD/svg11.dtd">
<svg version="1.1" id="Layer_1" xmlns="http://www.w3.org/2000/svg" xmlns:xlink="http://www.w3.org/1999/xlink" x="0px" y="0px"
	 width="16px" height="16px" viewBox="0 0 16 16" enable-background="new 0 0 16 16" xml:space="preserve">
<g>
	<path fill="#00B5BE" d="M8.162,9.549L5.716,7.071C5.322,6.671,4.681,6.667,4.281,7.06c-0.398,0.395-0.403,1.036-0.01,1.436
		l0.743,0.753H2.398c-0.56,0-1.014,0.453-1.014,1.015c0,0.56,0.454,1.015,1.014,1.015h2.558L4.2,12.017
		c-0.4,0.394-0.407,1.035-0.014,1.435c0.198,0.203,0.461,0.305,0.724,0.305c0.257,0,0.513-0.097,0.71-0.29l2.53-2.479
		c0.192-0.189,0.301-0.447,0.304-0.717C8.455,10.001,8.351,9.741,8.162,9.549z"/>
	<path fill="#0E3253" d="M13.941,1.186H5.084c-0.597,0-1.083,0.485-1.083,1.083v1.25v2.988C4.184,6.366,4.389,6.264,4.611,6.21
		V3.519h9.804V13.9c0,0.261-0.212,0.474-0.474,0.474H5.084c-0.031,0-0.059-0.012-0.088-0.018c-0.029,0.002-0.057,0.008-0.086,0.008
		c-0.313,0-0.609-0.09-0.865-0.254c0.101,0.493,0.517,0.872,1.04,0.872h8.857c0.598,0,1.082-0.485,1.082-1.082V3.519v-1.25
		C15.023,1.671,14.539,1.186,13.941,1.186z M5.288,2.855c-0.233,0-0.423-0.188-0.423-0.423c0-0.233,0.19-0.423,0.423-0.423
		c0.234,0,0.423,0.19,0.423,0.423C5.71,2.667,5.522,2.855,5.288,2.855z M6.378,2.855c-0.233,0-0.423-0.188-0.423-0.423
		c0-0.233,0.19-0.423,0.423-0.423c0.234,0,0.423,0.19,0.423,0.423C6.801,2.667,6.612,2.855,6.378,2.855z M7.544,2.855
		c-0.233,0-0.423-0.188-0.423-0.423c0-0.233,0.19-0.423,0.423-0.423c0.234,0,0.423,0.19,0.423,0.423
		C7.968,2.667,7.779,2.855,7.544,2.855z"/>
	<path fill="#0E3253" d="M5.559,5.858h1.716c0.176,0,0.32-0.143,0.32-0.32c0-0.176-0.144-0.317-0.32-0.317H5.559
		c-0.176,0-0.32,0.141-0.32,0.317C5.238,5.716,5.382,5.858,5.559,5.858z"/>
	<path fill="#0E3253" d="M9.486,9.337h3.601c0.178,0,0.32-0.145,0.32-0.32s-0.143-0.32-0.32-0.32H9.486
		c-0.178,0-0.32,0.145-0.32,0.32S9.309,9.337,9.486,9.337z"/>
	<path fill="#0E3253" d="M9.486,11.074h3.601c0.178,0,0.32-0.143,0.32-0.318c0-0.177-0.143-0.32-0.32-0.32H9.486
		c-0.178,0-0.32,0.144-0.32,0.32C9.166,10.932,9.309,11.074,9.486,11.074z"/>
	<path fill="#0E3253" d="M9.486,12.814h3.601c0.178,0,0.32-0.145,0.32-0.32s-0.143-0.318-0.32-0.318H9.486
		c-0.178,0-0.32,0.143-0.32,0.318S9.309,12.814,9.486,12.814z"/>
	<path fill="#0E3253" d="M9.486,5.858h3.601c0.178,0,0.32-0.143,0.32-0.318c0-0.176-0.143-0.32-0.32-0.32H9.486
		c-0.178,0-0.32,0.144-0.32,0.32C9.166,5.716,9.309,5.858,9.486,5.858z"/>
	<path fill="#0E3253" d="M9.486,7.597h3.601c0.178,0,0.32-0.143,0.32-0.318s-0.143-0.32-0.32-0.32H9.486
		c-0.178,0-0.32,0.144-0.32,0.32S9.309,7.597,9.486,7.597z"/>
</g>
</svg>
