<?xml version="1.0" encoding="utf-8"?>
<!-- Generator: Adobe Illustrator 16.0.0, SVG Export Plug-In . SVG Version: 6.00 Build 0)  -->
<!DOCTYPE svg PUBLIC "-//W3C//DTD SVG 1.1//EN" "http://www.w3.org/Graphics/SVG/1.1/DTD/svg11.dtd">
<svg version="1.1" id="Layer_1" xmlns="http://www.w3.org/2000/svg" xmlns:xlink="http://www.w3.org/1999/xlink" x="0px" y="0px"
	 width="150px" height="150px" viewBox="0 0 150 150" enable-background="new 0 0 150 150" xml:space="preserve">
<g>
	
		<rect x="43.511" y="-0.362" transform="matrix(0.8929 0.4503 -0.4503 0.8929 31.821 -13.6088)" fill="#00B0B9" width="1.999" height="120.866"/>
	<path fill="#FFFFFF" d="M75.002,147.934c-40.213,0-72.938-32.715-72.938-72.934c0-40.214,32.725-72.933,72.938-72.933
		c40.215,0,72.934,32.719,72.934,72.933C147.936,115.219,115.217,147.934,75.002,147.934z M75.002,8.527
		C38.352,8.527,8.529,38.349,8.529,75c0,36.651,29.822,66.467,66.473,66.467c36.651,0,66.469-29.816,66.469-66.467
		C141.471,38.349,111.653,8.527,75.002,8.527z"/>
	<g>
		<path fill="#FFFFFF" d="M92.107,50.244c0,9.454-7.646,17.103-17.087,17.103c-9.441,0-17.093-7.648-17.093-17.103
			c0-9.437,7.651-17.085,17.093-17.085C84.461,33.159,92.107,40.808,92.107,50.244L92.107,50.244z M92.107,50.244"/>
		<path fill="#FFFFFF" d="M89.129,72.015h-0.175l-0.592,7.741c-0.088,1.082-0.877,1.977-1.942,2.191L81.98,82.85l1.091,3.225
			c0.206,0.623,0.158,1.303-0.14,1.881c0,0-4.313,8.451-5.747,11.264c-0.008,0.01-0.705,1.119-2.116,1.119
			c-1.735,0-2.204-1.109-2.204-1.119c-1.447-2.812-5.756-11.264-5.756-11.264c-0.293-0.578-0.351-1.258-0.136-1.881l1.087-3.217
			l-4.44-0.902c-1.061-0.215-1.854-1.109-1.933-2.191l-0.6-7.749h-0.176c-9.656,0-17.488,7.833-17.488,17.489l2.244,19.627
			c0,2.699,2.195,4.895,4.9,4.895h48.866c2.7,0,4.896-2.195,4.896-4.895l2.244-19.686C106.569,79.826,98.759,72.015,89.129,72.015
			L89.129,72.015z M95.374,105.545h-3.677v3.621c0,1.34-1.078,2.428-2.415,2.428c-1.341,0-2.41-1.088-2.41-2.428v-3.621h-3.625
			c-1.341,0-2.424-1.07-2.424-2.41c0-1.346,1.083-2.416,2.424-2.416h3.625v-3.686c0-1.342,1.069-2.428,2.41-2.428
			c1.337,0,2.415,1.086,2.415,2.428v3.686h3.677c1.342,0,2.434,1.07,2.434,2.416C97.808,104.475,96.716,105.545,95.374,105.545
			L95.374,105.545z M95.374,105.545"/>
		<path fill="#FFFFFF" d="M78.308,78.643l5.352-1.088l0.43-5.54H65.952l0.429,5.54l5.347,1.088c0.685,0.145,1.272,0.561,1.618,1.174
			c0.351,0.6,0.421,1.324,0.197,1.98l-1.648,4.865l3.126,6.111l3.12-6.111l-1.648-4.865c-0.219-0.656-0.148-1.381,0.197-1.98
			C77.041,79.203,77.627,78.787,78.308,78.643L78.308,78.643z M78.308,78.643"/>
	</g>
</g>
</svg>
