<?xml version="1.0" encoding="utf-8"?>
<!-- Generator: Adobe Illustrator 16.0.0, SVG Export Plug-In . SVG Version: 6.00 Build 0)  -->
<!DOCTYPE svg PUBLIC "-//W3C//DTD SVG 1.1//EN" "http://www.w3.org/Graphics/SVG/1.1/DTD/svg11.dtd">
<svg version="1.1" id="Layer_1" xmlns="http://www.w3.org/2000/svg" xmlns:xlink="http://www.w3.org/1999/xlink" x="0px" y="0px"
	 width="20px" height="20px" viewBox="0 0 20 20" enable-background="new 0 0 20 20" xml:space="preserve">
<g>
	<g>
		<path fill="#00B7C0" d="M14.224,4.669c0,2.218-1.796,4.015-4.012,4.015c-2.218,0-4.014-1.797-4.014-4.015
			c0-2.216,1.796-4.013,4.014-4.013C12.428,0.657,14.224,2.453,14.224,4.669L14.224,4.669z M14.224,4.669"/>
		<path fill="#00B7C0" d="M13.605,9.326h-0.042l-0.144,1.862c-0.021,0.262-0.209,0.476-0.467,0.528l-1.067,0.219l0.262,0.773
			c0.05,0.149,0.038,0.313-0.034,0.453c0,0-1.036,2.032-1.381,2.708c-0.003,0.003-0.17,0.27-0.511,0.27
			c-0.416,0-0.528-0.267-0.528-0.27c-0.347-0.676-1.384-2.708-1.384-2.708c-0.072-0.14-0.084-0.304-0.033-0.453l0.262-0.773
			L7.47,11.718c-0.256-0.052-0.446-0.267-0.465-0.527L6.86,9.326H6.817c-2.322,0-4.205,1.884-4.205,4.206v4.721
			c0,0.651,0.528,1.179,1.179,1.179h12.832c0.649,0,1.178-0.527,1.178-1.179V13.52C17.799,11.205,15.921,9.326,13.605,9.326
			L13.605,9.326z M15.108,17.392h-0.886v0.871c0,0.322-0.259,0.584-0.582,0.584c-0.321,0-0.579-0.262-0.579-0.584v-0.871H12.19
			c-0.324,0-0.584-0.258-0.584-0.579c0-0.325,0.26-0.582,0.584-0.582h0.871v-0.888c0-0.322,0.258-0.584,0.579-0.584
			c0.323,0,0.582,0.262,0.582,0.584v0.888h0.886c0.321,0,0.584,0.257,0.584,0.582C15.692,17.134,15.43,17.392,15.108,17.392
			L15.108,17.392z M15.108,17.392"/>
		<path fill="#00B7C0" d="M11.003,10.92l1.286-0.26l0.104-1.334H8.031l0.103,1.334l1.285,0.26c0.165,0.035,0.307,0.136,0.391,0.283
			c0.084,0.144,0.101,0.319,0.049,0.478l-0.4,1.169l0.754,1.47l0.75-1.47l-0.396-1.169c-0.052-0.158-0.035-0.334,0.049-0.478
			C10.697,11.056,10.84,10.955,11.003,10.92L11.003,10.92z M11.003,10.92"/>
	</g>
</g>
</svg>
