<?xml version="1.0" encoding="utf-8"?>
<!-- Generator: Adobe Illustrator 16.0.0, SVG Export Plug-In . SVG Version: 6.00 Build 0)  -->
<!DOCTYPE svg PUBLIC "-//W3C//DTD SVG 1.1//EN" "http://www.w3.org/Graphics/SVG/1.1/DTD/svg11.dtd">
<svg version="1.1" id="Layer_1" xmlns="http://www.w3.org/2000/svg" xmlns:xlink="http://www.w3.org/1999/xlink" x="0px" y="0px"
	 width="25px" height="20px" viewBox="0 0 25 20" enable-background="new 0 0 25 20" xml:space="preserve">
<path fill="#00B7C0" d="M20.57,8.494H4.052c-0.857,0-1.554,0.745-1.554,1.662s0.697,1.662,1.554,1.662H20.57
	c0.856,0,1.555-0.745,1.555-1.662S21.428,8.494,20.57,8.494z"/>
<path fill="#00B7C0" d="M20.57,13.732H4.052c-0.857,0-1.554,0.746-1.554,1.662c0,0.918,0.697,1.662,1.554,1.662H20.57
	c0.856,0,1.555-0.744,1.555-1.662C22.125,14.479,21.428,13.732,20.57,13.732z"/>
<path fill="#00B7C0" d="M4.052,6.58H20.57c0.856,0,1.555-0.746,1.555-1.663s-0.697-1.662-1.555-1.662H4.052
	C3.195,3.255,2.498,4,2.498,4.917S3.195,6.58,4.052,6.58z"/>
</svg>
