<?xml version="1.0" encoding="utf-8"?>
<!-- Generator: Adobe Illustrator 16.0.0, SVG Export Plug-In . SVG Version: 6.00 Build 0)  -->
<!DOCTYPE svg PUBLIC "-//W3C//DTD SVG 1.1//EN" "http://www.w3.org/Graphics/SVG/1.1/DTD/svg11.dtd">
<svg version="1.1" id="Layer_1" xmlns="http://www.w3.org/2000/svg" xmlns:xlink="http://www.w3.org/1999/xlink" x="0px" y="0px"
	 width="35px" height="30px" viewBox="-5 -5 35 30" enable-background="new -5 -5 35 30" xml:space="preserve">
<path fill="#FFFFFF" d="M24.018,7.988H0.917c-1.198,0-2.173,1.042-2.173,2.324s0.975,2.324,2.173,2.324h23.101
	c1.198,0,2.175-1.042,2.175-2.324S25.217,7.988,24.018,7.988z"/>
<path fill="#FFFFFF" d="M24.018,15.314H0.917c-1.198,0-2.173,1.043-2.173,2.324c0,1.283,0.975,2.324,2.173,2.324h23.101
	c1.198,0,2.175-1.041,2.175-2.324C26.192,16.357,25.217,15.314,24.018,15.314z"/>
<path fill="#FFFFFF" d="M0.917,5.312h23.101c1.198,0,2.175-1.043,2.175-2.326c0-1.282-0.976-2.324-2.175-2.324H0.917
	c-1.198,0-2.173,1.042-2.173,2.324C-1.256,4.268-0.282,5.312,0.917,5.312z"/>
</svg>
