<?xml version="1.0" encoding="utf-8"?>
<!-- Generator: Adobe Illustrator 16.0.0, SVG Export Plug-In . SVG Version: 6.00 Build 0)  -->
<!DOCTYPE svg PUBLIC "-//W3C//DTD SVG 1.1//EN" "http://www.w3.org/Graphics/SVG/1.1/DTD/svg11.dtd">
<svg version="1.1" id="Layer_1" xmlns="http://www.w3.org/2000/svg" xmlns:xlink="http://www.w3.org/1999/xlink" x="0px" y="0px"
	 width="30px" height="30px" viewBox="-5 -5 30 30" enable-background="new -5 -5 30 30" xml:space="preserve">
<path fill="#FFFFFF" d="M12.586-3.222C6.695-3.222,1.903,1.57,1.903,7.461c0,1.618,0.369,3.193,1.094,4.676l0.119,0.241l-0.189,0.19
	l-5.25,5.242c-0.608,0.608-0.943,1.417-0.943,2.277c0,0.861,0.335,1.667,0.943,2.277c0.609,0.61,1.418,0.943,2.278,0.943
	c0.861,0,1.669-0.336,2.278-0.943l5.243-5.243l0.189-0.189l0.241,0.117c1.481,0.726,3.056,1.095,4.676,1.095
	c5.891,0,10.682-4.792,10.682-10.683C23.267,1.57,18.477-3.222,12.586-3.222z M12.586,14.189c-3.711,0-6.73-3.019-6.73-6.728
	c0-3.712,3.019-6.731,6.73-6.731c3.707,0,6.724,3.019,6.724,6.731C19.31,11.171,16.293,14.189,12.586,14.189z"/>
</svg>
