<?xml version="1.0" encoding="utf-8"?>
<!-- Generator: Adobe Illustrator 16.0.0, SVG Export Plug-In . SVG Version: 6.00 Build 0)  -->
<!DOCTYPE svg PUBLIC "-//W3C//DTD SVG 1.1//EN" "http://www.w3.org/Graphics/SVG/1.1/DTD/svg11.dtd">
<svg version="1.1" id="Layer_1" xmlns="http://www.w3.org/2000/svg" xmlns:xlink="http://www.w3.org/1999/xlink" x="0px" y="0px"
	 width="20px" height="20px" viewBox="0 0 20 20" enable-background="new 0 0 20 20" xml:space="preserve">
<path fill="#00B7C0" d="M11.72,1.216c-3.919,0-7.108,3.189-7.108,7.109c0,1.077,0.245,2.125,0.728,3.113l0.079,0.16l-0.126,0.126
	L1.8,15.213c-0.405,0.405-0.628,0.943-0.628,1.516s0.223,1.109,0.628,1.515s0.943,0.628,1.516,0.628
	c0.573,0,1.111-0.223,1.516-0.628l3.489-3.489l0.126-0.126l0.16,0.078c0.986,0.482,2.033,0.728,3.112,0.728
	c3.92,0,7.108-3.189,7.108-7.109C18.828,4.405,15.64,1.216,11.72,1.216z M11.72,12.803c-2.469,0-4.478-2.009-4.478-4.478
	c0-2.47,2.009-4.479,4.478-4.479c2.468,0,4.476,2.009,4.476,4.479C16.195,10.794,14.188,12.803,11.72,12.803z"/>
</svg>
