<?xml version="1.0" encoding="utf-8"?>
<!-- Generator: Adobe Illustrator 16.0.0, SVG Export Plug-In . SVG Version: 6.00 Build 0)  -->
<!DOCTYPE svg PUBLIC "-//W3C//DTD SVG 1.1//EN" "http://www.w3.org/Graphics/SVG/1.1/DTD/svg11.dtd">
<svg version="1.1" id="Layer_1" xmlns="http://www.w3.org/2000/svg" xmlns:xlink="http://www.w3.org/1999/xlink" x="0px" y="0px"
	 width="795.079px" height="552.055px" viewBox="0 0 795.079 552.055" enable-background="new 0 0 795.079 552.055"
	 xml:space="preserve">
<g>
	<g>
		<g>
			<g>
				<path fill="#0E3152" d="M355.681,119.909v3.449h-27.207v25.483h27.207v3.449h-27.207v25.483h27.207v3.449h-30.656v-61.312
					H355.681z"/>
				<path fill="#0E3152" d="M363.959,143.591h3.449v6.859c0.715-1.021,1.545-2.005,2.49-2.951c3.04-3.04,6.156-4.637,9.351-4.79
					v3.755c-2.172,0.103-4.42,1.316-6.744,3.641c-3.271,3.245-4.97,7.141-5.097,11.688v19.429h-3.449V143.591z"/>
				<path fill="#0E3152" d="M384.991,143.591h3.449v6.859c0.715-1.021,1.545-2.005,2.49-2.951c3.04-3.04,6.156-4.637,9.35-4.79
					v3.755c-2.172,0.103-4.419,1.316-6.744,3.641c-3.271,3.245-4.97,7.141-5.097,11.688v19.429h-3.449V143.591z"/>
				<path fill="#0E3152" d="M423.206,140.181c5.824,0,10.787,2.057,14.887,6.169c4.102,4.113,6.15,9.082,6.15,14.907
					c0,5.799-2.049,10.755-6.15,14.868c-4.1,4.113-9.062,6.169-14.887,6.169c-5.799,0-10.756-2.056-14.869-6.169
					c-4.113-4.113-6.168-9.069-6.168-14.868c0-5.825,2.055-10.793,6.168-14.907C412.45,142.237,417.407,140.181,423.206,140.181z
					 M410.905,148.956c-3.398,3.398-5.098,7.498-5.098,12.301c0,4.803,1.699,8.897,5.098,12.282
					c3.396,3.385,7.498,5.077,12.301,5.077s8.902-1.692,12.301-5.077c3.396-3.385,5.096-7.479,5.096-12.282
					c0-4.803-1.699-8.903-5.096-12.301c-3.398-3.397-7.498-5.097-12.301-5.097S414.302,145.559,410.905,148.956z"/>
				<path fill="#0E3152" d="M451.919,143.591h3.449v6.859c0.715-1.021,1.545-2.005,2.49-2.951c3.039-3.04,6.156-4.637,9.35-4.79
					v3.755c-2.172,0.103-4.42,1.316-6.744,3.641c-3.27,3.245-4.969,7.141-5.096,11.688v19.429h-3.449V143.591z"/>
			</g>
			<g>
				<path fill="#00B9C1" d="M75.541,416.976h-2.378v-5.285c-0.458,0.617-0.96,1.207-1.506,1.771
					c-2.836,2.837-6.263,4.254-10.279,4.254c-4,0-7.417-1.417-10.253-4.254c-2.836-2.836-4.254-6.254-4.254-10.253
					c0-4.016,1.417-7.442,4.254-10.278s6.253-4.255,10.253-4.255c4.016,0,7.442,1.419,10.279,4.255
					c0.546,0.563,1.048,1.153,1.506,1.771v-3.673h2.378V416.976z M73.163,405.561v-4.704c-0.44-2.325-1.542-4.368-3.303-6.13
					c-2.343-2.343-5.17-3.515-8.482-3.515c-3.312,0-6.14,1.172-8.482,3.515s-3.514,5.17-3.514,8.481c0,3.312,1.171,6.136,3.514,8.47
					s5.17,3.501,8.482,3.501c3.312,0,6.139-1.172,8.482-3.515C71.621,409.903,72.722,407.869,73.163,405.561z"/>
				<path fill="#00B9C1" d="M104.955,410.74l2.51,0.898c-0.458,0.634-0.978,1.242-1.559,1.823
					c-2.837,2.837-6.263,4.254-10.279,4.254c-3.999,0-7.416-1.417-10.252-4.254c-2.837-2.836-4.255-6.263-4.255-10.279
					c0-3.998,1.418-7.416,4.255-10.252c2.836-2.836,6.253-4.255,10.252-4.255c4.017,0,7.442,1.419,10.279,4.255
					c0.581,0.581,1.101,1.18,1.559,1.797l-2.51,0.925c-0.265-0.317-0.547-0.635-0.846-0.951c-2.343-2.325-5.171-3.488-8.482-3.488
					c-3.294,0-6.113,1.167-8.455,3.501c-2.344,2.335-3.515,5.157-3.515,8.469c0,3.312,1.171,6.14,3.515,8.482
					c2.342,2.343,5.161,3.515,8.455,3.515c3.312,0,6.14-1.172,8.482-3.515C104.408,411.366,104.69,411.057,104.955,410.74z"/>
				<path fill="#00B9C1" d="M134.172,410.74l2.51,0.898c-0.458,0.634-0.978,1.242-1.559,1.823
					c-2.837,2.837-6.263,4.254-10.279,4.254c-3.999,0-7.416-1.417-10.252-4.254c-2.837-2.836-4.255-6.263-4.255-10.279
					c0-3.998,1.418-7.416,4.255-10.252c2.836-2.836,6.253-4.255,10.252-4.255c4.017,0,7.442,1.419,10.279,4.255
					c0.581,0.581,1.101,1.18,1.559,1.797l-2.51,0.925c-0.265-0.317-0.547-0.635-0.846-0.951c-2.343-2.325-5.171-3.488-8.482-3.488
					c-3.294,0-6.113,1.167-8.455,3.501c-2.344,2.335-3.515,5.157-3.515,8.469c0,3.312,1.171,6.14,3.515,8.482
					c2.342,2.343,5.161,3.515,8.455,3.515c3.312,0,6.14-1.172,8.482-3.515C133.625,411.366,133.908,411.057,134.172,410.74z"/>
				<path fill="#00B9C1" d="M146.083,412.114c2.236,2.044,4.896,3.065,7.979,3.065c3.312,0,6.14-1.172,8.482-3.515
					c0.299-0.299,0.581-0.607,0.846-0.925l2.51,0.898c-0.458,0.634-0.978,1.242-1.559,1.823c-2.837,2.837-6.263,4.254-10.279,4.254
					c-3.999,0-7.416-1.417-10.252-4.254c-2.837-2.836-4.255-6.263-4.255-10.279c0-3.998,1.418-7.416,4.255-10.252
					c2.836-2.836,6.253-4.255,10.252-4.255c3.436,0,6.438,1.031,9.011,3.092c0.423,0.353,0.846,0.74,1.269,1.163
					c0.158,0.158,0.308,0.316,0.449,0.476l-1.797,1.797L146.083,412.114z M161.25,393.59c-2.061-1.585-4.457-2.378-7.188-2.378
					c-3.294,0-6.113,1.167-8.455,3.501c-2.344,2.335-3.515,5.157-3.515,8.469c0,2.731,0.793,5.127,2.378,7.188L161.25,393.59z"/>
				<path fill="#00B9C1" d="M178.25,403.631c-2.025-1.092-3.426-2.025-4.201-2.801c-1.215-1.216-1.823-2.678-1.823-4.387
					c0-1.726,0.608-3.201,1.823-4.426c1.216-1.224,2.678-1.836,4.387-1.836c1.727,0,3.153,0.563,4.28,1.69
					c1.093,1.11,1.639,2.37,1.639,3.779v0.132l-2.062,0.819c-0.176-1.339-0.594-2.343-1.255-3.013
					c-0.66-0.669-1.528-1.004-2.603-1.004c-1.057,0-1.965,0.374-2.722,1.123c-0.758,0.749-1.137,1.66-1.137,2.734
					c0,1.058,0.379,1.965,1.137,2.722c0.44,0.441,1.374,1.11,2.801,2.009c2.255,1.233,3.858,2.325,4.81,3.276
					c1.497,1.516,2.246,3.321,2.246,5.417c0,2.149-0.749,3.977-2.246,5.483c-1.498,1.506-3.312,2.259-5.443,2.259
					c-2.132,0-3.946-0.753-5.443-2.259c-1.498-1.507-2.246-3.158-2.246-4.955l2.352-0.607c0,1.55,0.523,2.845,1.572,3.884
					c1.048,1.04,2.303,1.56,3.766,1.56c1.462,0,2.717-0.52,3.765-1.56c1.048-1.039,1.572-2.307,1.572-3.805
					c0-1.462-0.52-2.713-1.559-3.752C181.095,405.552,179.959,404.724,178.25,403.631z"/>
				<path fill="#00B9C1" d="M203.904,388.675c4.017,0,7.438,1.419,10.266,4.255c2.828,2.836,4.241,6.263,4.241,10.278
					c0,3.999-1.413,7.417-4.241,10.253c-2.827,2.837-6.249,4.254-10.266,4.254c-3.999,0-7.416-1.417-10.252-4.254
					c-2.837-2.836-4.255-6.254-4.255-10.253c0-4.016,1.418-7.442,4.255-10.278C196.488,390.094,199.905,388.675,203.904,388.675z
					 M195.422,394.727c-2.344,2.343-3.515,5.17-3.515,8.481c0,3.312,1.171,6.136,3.515,8.47c2.342,2.334,5.17,3.501,8.481,3.501
					s6.14-1.167,8.482-3.501s3.515-5.157,3.515-8.47c0-3.312-1.172-6.139-3.515-8.481s-5.171-3.515-8.482-3.515
					S197.764,392.384,195.422,394.727z"/>
				<path fill="#00B9C1" d="M271.47,416.976h-2.378v-5.285c-0.458,0.617-0.96,1.207-1.506,1.771
					c-2.837,2.837-6.263,4.254-10.279,4.254c-3.999,0-7.416-1.417-10.252-4.254c-2.837-2.836-4.255-6.254-4.255-10.253
					c0-4.016,1.418-7.442,4.255-10.278c2.836-2.836,6.253-4.255,10.252-4.255c4.017,0,7.442,1.419,10.279,4.255
					c0.546,0.563,1.048,1.153,1.506,1.771v-20.003h2.378V416.976z M269.092,405.561v-4.704c-0.44-2.325-1.541-4.368-3.303-6.13
					c-2.343-2.343-5.171-3.515-8.482-3.515s-6.14,1.172-8.481,3.515c-2.344,2.343-3.515,5.17-3.515,8.481
					c0,3.312,1.171,6.136,3.515,8.47c2.342,2.334,5.17,3.501,8.481,3.501s6.14-1.172,8.482-3.515
					C267.551,409.903,268.652,407.869,269.092,405.561z"/>
				<path fill="#00B9C1" d="M283.577,412.114c2.236,2.044,4.896,3.065,7.979,3.065c3.312,0,6.14-1.172,8.482-3.515
					c0.299-0.299,0.581-0.607,0.846-0.925l2.51,0.898c-0.458,0.634-0.978,1.242-1.559,1.823c-2.837,2.837-6.263,4.254-10.279,4.254
					c-3.999,0-7.416-1.417-10.252-4.254c-2.837-2.836-4.255-6.263-4.255-10.279c0-3.998,1.418-7.416,4.255-10.252
					c2.836-2.836,6.253-4.255,10.252-4.255c3.436,0,6.438,1.031,9.011,3.092c0.423,0.353,0.846,0.74,1.269,1.163
					c0.158,0.158,0.308,0.316,0.449,0.476l-1.797,1.797L283.577,412.114z M298.744,393.59c-2.061-1.585-4.457-2.378-7.188-2.378
					c-3.294,0-6.113,1.167-8.455,3.501c-2.344,2.335-3.515,5.157-3.515,8.469c0,2.731,0.793,5.127,2.378,7.188L298.744,393.59z"/>
				<path fill="#00B9C1" d="M310.496,396.814v20.162h-2.378v-25.948h2.378v1.664c2.167-2.148,4.686-3.224,7.558-3.224
					c3.064,0,5.558,0.961,7.478,2.88c1.92,1.921,2.907,4.343,2.96,7.267v17.361h-2.379v-17.149c0-2.202-0.797-4.083-2.391-5.642
					c-1.595-1.559-3.484-2.339-5.668-2.339c-2.185,0-4.069,0.767-5.655,2.299C311.535,395.008,310.901,395.899,310.496,396.814z"/>
				<path fill="#00B9C1" d="M340.494,412.114c2.236,2.044,4.896,3.065,7.979,3.065c3.312,0,6.14-1.172,8.482-3.515
					c0.299-0.299,0.581-0.607,0.846-0.925l2.51,0.898c-0.458,0.634-0.978,1.242-1.559,1.823c-2.837,2.837-6.263,4.254-10.279,4.254
					c-3.999,0-7.416-1.417-10.252-4.254c-2.837-2.836-4.255-6.263-4.255-10.279c0-3.998,1.418-7.416,4.255-10.252
					c2.836-2.836,6.253-4.255,10.252-4.255c3.436,0,6.438,1.031,9.011,3.092c0.423,0.353,0.846,0.74,1.269,1.163
					c0.158,0.158,0.308,0.316,0.449,0.476l-1.797,1.797L340.494,412.114z M355.661,393.59c-2.061-1.585-4.457-2.378-7.188-2.378
					c-3.294,0-6.113,1.167-8.455,3.501c-2.344,2.335-3.515,5.157-3.515,8.469c0,2.731,0.793,5.127,2.378,7.188L355.661,393.59z"/>
				<path fill="#00B9C1" d="M389.802,411.823c-0.44,0.564-0.916,1.11-1.427,1.639c-2.837,2.837-6.263,4.254-10.279,4.254
					c-3.999,0-7.416-1.417-10.252-4.254c-2.837-2.836-4.255-6.254-4.255-10.253c0-4.016,1.418-7.438,4.255-10.266
					c2.836-2.827,6.253-4.241,10.252-4.241c4.017,0,7.442,1.41,10.279,4.229c0.546,0.563,1.048,1.153,1.506,1.771v-3.673h2.378
					v20.161c0,3.894-1.383,7.223-4.148,9.988c-2.836,2.836-6.254,4.254-10.252,4.254c-4.017,0-7.443-1.418-10.279-4.254
					c-0.581-0.581-1.101-1.189-1.559-1.823l2.51-0.898c0.265,0.317,0.546,0.625,0.846,0.925c2.343,2.343,5.17,3.515,8.482,3.515
					c3.294,0,6.112-1.172,8.455-3.515C388.446,417.249,389.608,414.73,389.802,411.823z M389.855,400.725
					c-0.458-2.272-1.55-4.271-3.276-5.998c-2.343-2.343-5.171-3.515-8.482-3.515s-6.14,1.172-8.481,3.515
					c-2.344,2.343-3.515,5.17-3.515,8.481c0,3.312,1.171,6.14,3.515,8.482c2.342,2.343,5.17,3.515,8.481,3.515
					s6.14-1.172,8.482-3.515c1.708-1.708,2.801-3.69,3.276-5.945V400.725z"/>
				<path fill="#00B9C1" d="M427.052,416.976h-2.379v-5.285c-0.457,0.617-0.959,1.207-1.506,1.771
					c-2.836,2.837-6.262,4.254-10.279,4.254c-3.998,0-7.416-1.417-10.252-4.254c-2.836-2.836-4.254-6.254-4.254-10.253
					c0-4.016,1.418-7.442,4.254-10.278s6.254-4.255,10.252-4.255c4.018,0,7.443,1.419,10.279,4.255
					c0.547,0.563,1.049,1.153,1.506,1.771v-3.673h2.379V416.976z M424.673,405.561v-4.704c-0.439-2.325-1.541-4.368-3.303-6.13
					c-2.342-2.343-5.17-3.515-8.482-3.515c-3.311,0-6.139,1.172-8.48,3.515c-2.344,2.343-3.516,5.17-3.516,8.481
					c0,3.312,1.172,6.136,3.516,8.47c2.342,2.334,5.17,3.501,8.48,3.501c3.312,0,6.141-1.172,8.482-3.515
					C423.132,409.903,424.233,407.869,424.673,405.561z"/>
				<path fill="#00B9C1" d="M461.792,416.976h-2.377v-5.285c-0.459,0.617-0.961,1.207-1.506,1.771
					c-2.838,2.837-6.264,4.254-10.279,4.254c-4,0-7.416-1.417-10.252-4.254c-2.838-2.836-4.256-6.254-4.256-10.253
					c0-4.016,1.418-7.442,4.256-10.278c2.836-2.836,6.252-4.255,10.252-4.255c4.016,0,7.441,1.419,10.279,4.255
					c0.545,0.563,1.047,1.153,1.506,1.771v-20.003h2.377V416.976z M459.415,405.561v-4.704c-0.441-2.325-1.541-4.368-3.303-6.13
					c-2.344-2.343-5.172-3.515-8.482-3.515c-3.312,0-6.141,1.172-8.482,3.515c-2.344,2.343-3.514,5.17-3.514,8.481
					c0,3.312,1.17,6.136,3.514,8.47c2.342,2.334,5.17,3.501,8.482,3.501c3.311,0,6.139-1.172,8.482-3.515
					C457.874,409.903,458.974,407.869,459.415,405.561z"/>
				<path fill="#00B9C1" d="M481.878,388.675c4.018,0,7.439,1.419,10.266,4.255c2.828,2.836,4.242,6.263,4.242,10.278
					c0,3.999-1.414,7.417-4.242,10.253c-2.826,2.837-6.248,4.254-10.266,4.254c-3.998,0-7.416-1.417-10.252-4.254
					c-2.836-2.836-4.254-6.254-4.254-10.253c0-4.016,1.418-7.442,4.254-10.278S477.88,388.675,481.878,388.675z M473.397,394.727
					c-2.344,2.343-3.516,5.17-3.516,8.481c0,3.312,1.172,6.136,3.516,8.47c2.342,2.334,5.17,3.501,8.48,3.501
					c3.312,0,6.141-1.167,8.482-3.501c2.344-2.334,3.516-5.157,3.516-8.47c0-3.312-1.172-6.139-3.516-8.481
					c-2.342-2.343-5.17-3.515-8.482-3.515C478.567,391.212,475.739,392.384,473.397,394.727z"/>
				<path fill="#00B9C1" d="M515.972,374.698h2.723l-19.158,42.278h-2.695L515.972,374.698z"/>
				<path fill="#00B9C1" d="M518.339,391.028h2.379v3.646c0.439-0.599,0.941-1.181,1.506-1.744
					c2.836-2.818,6.254-4.229,10.252-4.229c4.018,0,7.439,1.414,10.266,4.241c2.828,2.827,4.242,6.25,4.242,10.266
					c0,3.999-1.414,7.417-4.242,10.253c-2.826,2.837-6.248,4.254-10.266,4.254c-3.998,0-7.416-1.417-10.252-4.254
					c-0.564-0.563-1.066-1.145-1.506-1.744v15.168h-2.379V391.028z M520.718,400.725v4.968c0.457,2.272,1.549,4.271,3.275,5.998
					c2.344,2.343,5.17,3.515,8.482,3.515s6.139-1.172,8.482-3.515c2.342-2.343,3.514-5.17,3.514-8.482
					c0-3.312-1.172-6.139-3.514-8.481c-2.344-2.343-5.17-3.515-8.482-3.515s-6.139,1.172-8.482,3.515
					C522.267,396.454,521.175,398.453,520.718,400.725z"/>
				<path fill="#00B9C1" d="M552.761,391.028h2.377v4.729c0.494-0.704,1.066-1.383,1.719-2.035c2.096-2.096,4.244-3.197,6.447-3.303
					v2.59c-1.498,0.07-3.049,0.907-4.65,2.51c-2.256,2.238-3.428,4.925-3.516,8.06v13.397h-2.377V391.028z"/>
				<path fill="#00B9C1" d="M579.437,388.675c4.018,0,7.439,1.419,10.266,4.255c2.828,2.836,4.242,6.263,4.242,10.278
					c0,3.999-1.414,7.417-4.242,10.253c-2.826,2.837-6.248,4.254-10.266,4.254c-3.998,0-7.416-1.417-10.252-4.254
					c-2.836-2.836-4.254-6.254-4.254-10.253c0-4.016,1.418-7.442,4.254-10.278S575.438,388.675,579.437,388.675z M570.956,394.727
					c-2.344,2.343-3.516,5.17-3.516,8.481c0,3.312,1.172,6.136,3.516,8.47c2.342,2.334,5.17,3.501,8.48,3.501
					c3.312,0,6.141-1.167,8.482-3.501c2.344-2.334,3.516-5.157,3.516-8.47c0-3.312-1.172-6.139-3.516-8.481
					c-2.342-2.343-5.17-3.515-8.482-3.515C576.126,391.212,573.298,392.384,570.956,394.727z"/>
				<path fill="#00B9C1" d="M599.522,374.698h2.379v17.678c2.008-1.938,4.422-2.907,7.24-2.907c3.064,0,5.557,0.961,7.477,2.88
					c1.92,1.921,2.908,4.343,2.961,7.267v17.361H617.2v-17.149c0-2.202-0.797-4.083-2.391-5.642
					c-1.596-1.559-3.484-2.339-5.668-2.339c-2.186,0-4.07,0.767-5.656,2.299c-0.703,0.705-1.232,1.437-1.584,2.193v20.638h-2.379
					V374.698z"/>
				<path fill="#00B9C1" d="M629.706,382.519c0.465,0.458,0.699,1.013,0.699,1.664c0,0.67-0.234,1.233-0.699,1.691
					c-0.467,0.458-1.027,0.688-1.678,0.688c-0.652,0-1.213-0.229-1.68-0.688s-0.699-1.021-0.699-1.691
					c0-0.651,0.232-1.206,0.699-1.664s1.027-0.688,1.68-0.688C628.679,381.832,629.239,382.061,629.706,382.519z M629.216,391.028
					v25.948h-2.377v-25.948H629.216z"/>
				<path fill="#00B9C1" d="M636.655,374.698h2.377v19.977c0.441-0.599,0.943-1.181,1.506-1.744
					c2.836-2.836,6.254-4.255,10.254-4.255c4.016,0,7.438,1.419,10.266,4.255c2.826,2.836,4.24,6.263,4.24,10.278
					c0,3.999-1.414,7.417-4.24,10.253c-2.828,2.837-6.25,4.254-10.266,4.254c-4,0-7.418-1.417-10.254-4.254
					c-0.562-0.563-1.064-1.145-1.506-1.744v5.259h-2.377V374.698z M639.032,400.725v4.968c0.459,2.255,1.551,4.245,3.277,5.972
					c2.342,2.343,5.17,3.515,8.482,3.515c3.311,0,6.139-1.167,8.482-3.501c2.342-2.334,3.514-5.157,3.514-8.47
					c0-3.312-1.172-6.139-3.514-8.481c-2.344-2.343-5.172-3.515-8.482-3.515c-3.312,0-6.141,1.172-8.482,3.515
					C640.583,396.454,639.491,398.453,639.032,400.725z"/>
				<path fill="#00B9C1" d="M674.337,382.519c0.467,0.458,0.701,1.013,0.701,1.664c0,0.67-0.234,1.233-0.701,1.691
					s-1.025,0.688-1.678,0.688s-1.211-0.229-1.678-0.688s-0.701-1.021-0.701-1.691c0-0.651,0.234-1.206,0.701-1.664
					s1.025-0.688,1.678-0.688S673.87,382.061,674.337,382.519z M673.849,391.028v25.948h-2.379v-25.948H673.849z"/>
				<path fill="#00B9C1" d="M708.679,416.976H706.3v-5.285c-0.457,0.617-0.959,1.207-1.506,1.771
					c-2.836,2.837-6.262,4.254-10.279,4.254c-3.998,0-7.416-1.417-10.252-4.254c-2.836-2.836-4.254-6.254-4.254-10.253
					c0-4.016,1.418-7.442,4.254-10.278s6.254-4.255,10.252-4.255c4.018,0,7.443,1.419,10.279,4.255
					c0.547,0.563,1.049,1.153,1.506,1.771v-20.003h2.379V416.976z M706.3,405.561v-4.704c-0.439-2.325-1.541-4.368-3.303-6.13
					c-2.342-2.343-5.17-3.515-8.482-3.515c-3.311,0-6.139,1.172-8.48,3.515c-2.344,2.343-3.516,5.17-3.516,8.481
					c0,3.312,1.172,6.136,3.516,8.47c2.342,2.334,5.17,3.501,8.48,3.501c3.312,0,6.141-1.172,8.482-3.515
					C704.759,409.903,705.86,407.869,706.3,405.561z"/>
				<path fill="#00B9C1" d="M728.765,388.675c4.016,0,7.438,1.419,10.266,4.255s4.24,6.263,4.24,10.278
					c0,3.999-1.412,7.417-4.24,10.253c-2.828,2.837-6.25,4.254-10.266,4.254c-4,0-7.416-1.417-10.252-4.254
					c-2.838-2.836-4.256-6.254-4.256-10.253c0-4.016,1.418-7.442,4.256-10.278C721.349,390.094,724.765,388.675,728.765,388.675z
					 M720.282,394.727c-2.344,2.343-3.514,5.17-3.514,8.481c0,3.312,1.17,6.136,3.514,8.47c2.342,2.334,5.17,3.501,8.482,3.501
					c3.311,0,6.139-1.167,8.482-3.501c2.342-2.334,3.514-5.157,3.514-8.47c0-3.312-1.172-6.139-3.514-8.481
					c-2.344-2.343-5.172-3.515-8.482-3.515C725.452,391.212,722.624,392.384,720.282,394.727z"/>
			</g>
			<g>
				<path fill="#0E3152" d="M289.153,196.606h9.429v109.168h16.029v9.429h-16.029v49.031h-9.429v-49.031h-69.146L289.153,196.606z
					 M289.153,216.931l-52.908,88.843h52.908V216.931z"/>
				<path fill="#0E3152" d="M452.341,309.65c0,15.856-5.605,29.405-16.816,40.65c-11.209,11.246-24.777,16.867-40.702,16.867
					c-15.855,0-29.405-5.621-40.649-16.867c-11.246-11.245-16.868-24.794-16.868-40.65v-55.526c0-15.854,5.622-29.403,16.868-40.649
					c11.244-11.245,24.794-16.868,40.649-16.868c15.924,0,29.493,5.623,40.702,16.868c11.211,11.246,16.816,24.795,16.816,40.649
					V309.65z M442.388,254.124c0-13.13-4.646-24.322-13.934-33.578c-9.291-9.254-20.5-13.882-33.631-13.882
					c-13.132,0-24.342,4.628-33.63,13.882c-9.29,9.256-13.935,20.448-13.935,33.578v55.526c0,13.132,4.645,24.324,13.935,33.578
					c9.288,9.256,20.498,13.882,33.63,13.882c13.131,0,24.34-4.626,33.631-13.882c9.287-9.254,13.934-20.446,13.934-33.578V254.124z
					"/>
				<path fill="#0E3152" d="M515.989,270.676l-7.857-0.209v-9.429c6.496-0.069,11.82-0.907,15.977-2.515
					c4.154-1.606,8.66-4.993,13.516-10.163c4.854-5.168,7.281-11.314,7.281-18.438c0-7.193-2.516-13.288-7.543-18.282
					c-5.029-4.993-11.105-7.491-18.23-7.491c-7.055,0-13.131,2.48-18.229,7.438c-2.795,2.865-4.855,6.077-6.182,9.639l-9.01-3.562
					c1.535-4.889,4.225-9.184,8.066-12.887c7.055-6.983,15.506-10.477,25.354-10.477c9.988,0,18.455,3.51,25.406,10.529
					c6.949,7.02,10.424,15.384,10.424,25.092c0,9.918-2.654,17.724-7.961,23.415c-5.309,5.693-10.268,9.481-14.877,11.367
					c10.057,3.353,18.402,8.592,25.039,15.716c9.568,10.267,14.354,22.281,14.354,36.04c0,13.829-4.873,25.634-14.615,35.411
					c-9.744,9.779-21.529,14.667-35.359,14.667c-13.76,0-25.529-4.924-35.307-14.771c-7.754-7.822-12.434-16.973-14.039-27.449
					l9.533-3.457c0.979,9.289,4.82,17.286,11.525,23.991c7.893,7.823,17.32,11.734,28.287,11.734
					c11.105,0,20.568-3.911,28.393-11.734c7.82-7.821,11.732-17.286,11.732-28.392c0-11.035-3.807-20.708-11.418-29.021
					C542.634,279.128,531.214,273.542,515.989,270.676z"/>
			</g>
		</g>
		<path fill="#0E3152" d="M154.361,529.544c-1.216,0-2.431-0.464-3.359-1.392c-1.855-1.854-1.855-4.862,0-6.717L643.183,29.003
			c1.854-1.854,4.863-1.854,6.717,0c1.855,1.855,1.855,4.863,0,6.718L157.72,528.153
			C156.792,529.081,155.577,529.544,154.361,529.544z"/>
	</g>
</g>
</svg>
