<?xml version="1.0" encoding="utf-8"?>
<!-- Generator: Adobe Illustrator 16.0.0, SVG Export Plug-In . SVG Version: 6.00 Build 0)  -->
<!DOCTYPE svg PUBLIC "-//W3C//DTD SVG 1.1//EN" "http://www.w3.org/Graphics/SVG/1.1/DTD/svg11.dtd">
<svg version="1.1" id="Layer_1" xmlns="http://www.w3.org/2000/svg" xmlns:xlink="http://www.w3.org/1999/xlink" x="0px" y="0px"
	 width="1393.43px" height="373.481px" viewBox="0 0 1393.43 373.481" enable-background="new 0 0 1393.43 373.481"
	 xml:space="preserve">
<g>
	<g>
		<g>
			<path fill="#0E3152" d="M653.952,32.179v3.449h-27.207v25.483h27.207v3.449h-27.207v25.483h27.207v3.449h-30.656V32.179H653.952z
				"/>
			<path fill="#0E3152" d="M662.23,55.861h3.449v6.859c0.715-1.021,1.545-2.005,2.49-2.951c3.04-3.04,6.156-4.637,9.351-4.79v3.755
				c-2.172,0.103-4.42,1.316-6.744,3.641c-3.271,3.245-4.97,7.141-5.097,11.688v19.429h-3.449V55.861z"/>
			<path fill="#0E3152" d="M683.262,55.861h3.449v6.859c0.715-1.021,1.545-2.005,2.49-2.951c3.04-3.04,6.156-4.637,9.351-4.79v3.755
				c-2.172,0.103-4.42,1.316-6.745,3.641c-3.271,3.245-4.97,7.141-5.097,11.688v19.429h-3.449V55.861z"/>
			<path fill="#0E3152" d="M721.476,52.451c5.826,0,10.789,2.057,14.889,6.169c4.1,4.113,6.15,9.082,6.15,14.907
				c0,5.799-2.051,10.755-6.15,14.868c-4.1,4.113-9.062,6.169-14.889,6.169c-5.799,0-10.754-2.056-14.867-6.169
				c-4.113-4.113-6.17-9.069-6.17-14.868c0-5.825,2.057-10.793,6.17-14.907C710.722,54.507,715.677,52.451,721.476,52.451z
				 M709.175,61.226c-3.396,3.398-5.096,7.498-5.096,12.301c0,4.803,1.699,8.897,5.096,12.282c3.398,3.385,7.498,5.077,12.301,5.077
				s8.904-1.692,12.303-5.077c3.396-3.385,5.096-7.479,5.096-12.282c0-4.803-1.699-8.903-5.096-12.301
				c-3.398-3.397-7.5-5.097-12.303-5.097S712.574,57.829,709.175,61.226z"/>
			<path fill="#0E3152" d="M750.189,55.861h3.449v6.859c0.715-1.021,1.545-2.005,2.49-2.951c3.041-3.04,6.156-4.637,9.352-4.79
				v3.755c-2.172,0.103-4.42,1.316-6.744,3.641c-3.271,3.245-4.971,7.141-5.098,11.688v19.429h-3.449V55.861z"/>
		</g>
		<g>
			<path fill="#00B9C1" d="M436.126,303.298h2.378v3.646c0.44-0.599,0.942-1.181,1.506-1.744c2.836-2.818,6.254-4.229,10.253-4.229
				c4.017,0,7.438,1.414,10.266,4.241s4.241,6.25,4.241,10.266c0,3.999-1.414,7.417-4.241,10.253
				c-2.827,2.837-6.249,4.254-10.266,4.254c-3.999,0-7.417-1.417-10.253-4.254c-0.563-0.563-1.065-1.145-1.506-1.744v15.168h-2.378
				V303.298z M438.504,312.995v4.968c0.458,2.272,1.55,4.271,3.276,5.998c2.343,2.343,5.17,3.515,8.482,3.515
				c3.312,0,6.139-1.172,8.482-3.515c2.342-2.343,3.514-5.17,3.514-8.482c0-3.312-1.172-6.139-3.514-8.481
				c-2.344-2.343-5.171-3.515-8.482-3.515c-3.312,0-6.14,1.172-8.482,3.515C440.054,308.724,438.962,310.723,438.504,312.995z"/>
			<path fill="#00B9C1" d="M498.112,329.246h-2.378v-5.285c-0.458,0.617-0.96,1.207-1.506,1.771
				c-2.837,2.837-6.263,4.254-10.279,4.254c-3.999,0-7.416-1.417-10.252-4.254c-2.837-2.836-4.255-6.254-4.255-10.253
				c0-4.016,1.418-7.442,4.255-10.278c2.836-2.836,6.253-4.255,10.252-4.255c4.017,0,7.442,1.419,10.279,4.255
				c0.546,0.563,1.048,1.153,1.506,1.771v-3.673h2.378V329.246z M495.734,317.831v-4.704c-0.44-2.325-1.541-4.368-3.303-6.13
				c-2.343-2.343-5.171-3.515-8.482-3.515s-6.14,1.172-8.481,3.515c-2.344,2.343-3.515,5.17-3.515,8.481
				c0,3.312,1.171,6.136,3.515,8.47c2.342,2.334,5.17,3.501,8.481,3.501s6.14-1.172,8.482-3.515
				C494.193,322.173,495.294,320.139,495.734,317.831z"/>
			<path fill="#00B9C1" d="M530.396,324.093c-0.44,0.564-0.916,1.11-1.427,1.639c-2.837,2.837-6.263,4.254-10.279,4.254
				c-3.999,0-7.416-1.417-10.252-4.254c-2.837-2.836-4.255-6.254-4.255-10.253c0-4.016,1.418-7.438,4.255-10.266
				c2.836-2.827,6.253-4.241,10.252-4.241c4.017,0,7.442,1.41,10.279,4.229c0.546,0.563,1.048,1.153,1.506,1.771v-3.673h2.378
				v20.161c0,3.894-1.383,7.223-4.148,9.988c-2.836,2.836-6.254,4.254-10.252,4.254c-4.017,0-7.443-1.418-10.279-4.254
				c-0.581-0.581-1.101-1.189-1.559-1.823l2.51-0.898c0.265,0.317,0.546,0.625,0.846,0.925c2.343,2.343,5.17,3.515,8.482,3.515
				c3.294,0,6.112-1.172,8.455-3.515C529.04,329.519,530.202,327,530.396,324.093z M530.449,312.995
				c-0.458-2.272-1.55-4.271-3.276-5.998c-2.343-2.343-5.171-3.515-8.482-3.515s-6.14,1.172-8.481,3.515
				c-2.344,2.343-3.515,5.17-3.515,8.481c0,3.312,1.171,6.14,3.515,8.482c2.342,2.343,5.17,3.515,8.481,3.515
				s6.14-1.172,8.482-3.515c1.708-1.708,2.801-3.69,3.276-5.945V312.995z"/>
			<path fill="#00B9C1" d="M543.125,294.789c0.466,0.458,0.7,1.013,0.7,1.664c0,0.67-0.234,1.233-0.7,1.691
				c-0.467,0.458-1.026,0.688-1.678,0.688c-0.652,0-1.212-0.229-1.679-0.688s-0.7-1.021-0.7-1.691c0-0.651,0.233-1.206,0.7-1.664
				s1.026-0.688,1.679-0.688C542.099,294.102,542.658,294.331,543.125,294.789z M542.636,303.298v25.948h-2.378v-25.948H542.636z"/>
			<path fill="#00B9C1" d="M552.452,309.084v20.162h-2.378v-25.948h2.378v1.664c2.167-2.148,4.686-3.224,7.558-3.224
				c3.064,0,5.558,0.961,7.478,2.88c1.92,1.921,2.907,4.343,2.96,7.267v17.361h-2.379v-17.149c0-2.202-0.797-4.083-2.391-5.642
				c-1.595-1.559-3.484-2.339-5.668-2.339c-2.185,0-4.069,0.767-5.655,2.299C553.491,307.278,552.857,308.169,552.452,309.084z"/>
			<path fill="#00B9C1" d="M605.101,329.246h-2.378v-5.285c-0.458,0.617-0.96,1.207-1.506,1.771
				c-2.837,2.837-6.263,4.254-10.279,4.254c-3.999,0-7.416-1.417-10.252-4.254c-2.837-2.836-4.255-6.254-4.255-10.253
				c0-4.016,1.418-7.442,4.255-10.278c2.836-2.836,6.253-4.255,10.252-4.255c4.017,0,7.442,1.419,10.279,4.255
				c0.546,0.563,1.048,1.153,1.506,1.771v-3.673h2.378V329.246z M602.723,317.831v-4.704c-0.44-2.325-1.541-4.368-3.303-6.13
				c-2.343-2.343-5.171-3.515-8.482-3.515s-6.14,1.172-8.481,3.515c-2.344,2.343-3.515,5.17-3.515,8.481
				c0,3.312,1.171,6.136,3.515,8.47c2.342,2.334,5.17,3.501,8.481,3.501s6.14-1.172,8.482-3.515
				C601.182,322.173,602.282,320.139,602.723,317.831z"/>
			<path fill="#00B9C1" d="M634.114,309.084v20.162h-2.378v-25.948h2.378v1.664c2.167-2.148,4.686-3.224,7.558-3.224
				c3.064,0,5.558,0.961,7.478,2.88c1.92,1.921,2.907,4.343,2.96,7.267v17.361h-2.379v-17.149c0-2.202-0.797-4.083-2.391-5.642
				c-1.595-1.559-3.484-2.339-5.668-2.339c-2.185,0-4.069,0.767-5.655,2.299C635.153,307.278,634.52,308.169,634.114,309.084z"/>
			<path fill="#00B9C1" d="M672.092,300.945c4.017,0,7.438,1.419,10.266,4.255c2.828,2.836,4.241,6.263,4.241,10.278
				c0,3.999-1.413,7.417-4.241,10.253c-2.827,2.837-6.249,4.254-10.266,4.254c-3.999,0-7.416-1.417-10.252-4.254
				c-2.837-2.836-4.255-6.254-4.255-10.253c0-4.016,1.418-7.442,4.255-10.278C664.676,302.364,668.093,300.945,672.092,300.945z
				 M663.61,306.997c-2.344,2.343-3.515,5.17-3.515,8.481c0,3.312,1.171,6.136,3.515,8.47c2.342,2.334,5.17,3.501,8.481,3.501
				s6.14-1.167,8.482-3.501s3.515-5.157,3.515-8.47c0-3.312-1.172-6.139-3.515-8.481s-5.171-3.515-8.482-3.515
				S665.952,304.654,663.61,306.997z"/>
			<path fill="#00B9C1" d="M739.658,329.246h-2.377v-5.285c-0.459,0.617-0.961,1.207-1.506,1.771
				c-2.838,2.837-6.264,4.254-10.279,4.254c-4,0-7.416-1.417-10.252-4.254c-2.838-2.836-4.256-6.254-4.256-10.253
				c0-4.016,1.418-7.442,4.256-10.278c2.836-2.836,6.252-4.255,10.252-4.255c4.016,0,7.441,1.419,10.279,4.255
				c0.545,0.563,1.047,1.153,1.506,1.771v-20.003h2.377V329.246z M737.281,317.831v-4.704c-0.441-2.325-1.541-4.368-3.303-6.13
				c-2.344-2.343-5.172-3.515-8.482-3.515c-3.312,0-6.141,1.172-8.482,3.515c-2.344,2.343-3.514,5.17-3.514,8.481
				c0,3.312,1.17,6.136,3.514,8.47c2.342,2.334,5.17,3.501,8.482,3.501c3.311,0,6.139-1.172,8.482-3.515
				C735.74,322.173,736.839,320.139,737.281,317.831z"/>
			<path fill="#00B9C1" d="M749.958,294.789c0.467,0.458,0.701,1.013,0.701,1.664c0,0.67-0.234,1.233-0.701,1.691
				s-1.025,0.688-1.678,0.688s-1.211-0.229-1.678-0.688s-0.701-1.021-0.701-1.691c0-0.651,0.234-1.206,0.701-1.664
				s1.025-0.688,1.678-0.688S749.492,294.331,749.958,294.789z M749.47,303.298v25.948h-2.379v-25.948H749.47z"/>
			<path fill="#00B9C1" d="M763.291,315.901c-2.025-1.092-3.426-2.025-4.201-2.801c-1.215-1.216-1.824-2.678-1.824-4.387
				c0-1.726,0.609-3.201,1.824-4.426c1.215-1.224,2.678-1.836,4.387-1.836c1.727,0,3.152,0.563,4.279,1.69
				c1.094,1.11,1.639,2.37,1.639,3.779v0.132l-2.061,0.819c-0.176-1.339-0.594-2.343-1.256-3.013
				c-0.66-0.669-1.527-1.004-2.602-1.004c-1.057,0-1.965,0.374-2.723,1.123s-1.137,1.66-1.137,2.734
				c0,1.058,0.379,1.965,1.137,2.722c0.441,0.441,1.375,1.11,2.801,2.009c2.256,1.233,3.859,2.325,4.811,3.276
				c1.496,1.516,2.246,3.321,2.246,5.417c0,2.149-0.75,3.977-2.246,5.483c-1.498,1.506-3.312,2.259-5.443,2.259
				c-2.133,0-3.947-0.753-5.443-2.259c-1.498-1.507-2.246-3.158-2.246-4.955l2.352-0.607c0,1.55,0.523,2.845,1.572,3.884
				c1.047,1.04,2.303,1.56,3.766,1.56c1.461,0,2.717-0.52,3.764-1.56c1.049-1.039,1.572-2.307,1.572-3.805
				c0-1.462-0.52-2.713-1.559-3.752C766.134,317.822,765,316.994,763.291,315.901z"/>
			<path fill="#00B9C1" d="M776.259,303.298h2.379v3.646c0.439-0.599,0.941-1.181,1.506-1.744c2.836-2.818,6.254-4.229,10.252-4.229
				c4.018,0,7.439,1.414,10.266,4.241c2.828,2.827,4.242,6.25,4.242,10.266c0,3.999-1.414,7.417-4.242,10.253
				c-2.826,2.837-6.248,4.254-10.266,4.254c-3.998,0-7.416-1.417-10.252-4.254c-0.564-0.563-1.066-1.145-1.506-1.744v15.168h-2.379
				V303.298z M778.638,312.995v4.968c0.457,2.272,1.549,4.271,3.275,5.998c2.344,2.343,5.17,3.515,8.482,3.515
				s6.139-1.172,8.482-3.515c2.342-2.343,3.514-5.17,3.514-8.482c0-3.312-1.172-6.139-3.514-8.481
				c-2.344-2.343-5.17-3.515-8.482-3.515s-6.139,1.172-8.482,3.515C780.187,308.724,779.095,310.723,778.638,312.995z"/>
			<path fill="#00B9C1" d="M823.683,300.945c4.018,0,7.439,1.419,10.266,4.255c2.828,2.836,4.242,6.263,4.242,10.278
				c0,3.999-1.414,7.417-4.242,10.253c-2.826,2.837-6.248,4.254-10.266,4.254c-3.998,0-7.416-1.417-10.252-4.254
				c-2.836-2.836-4.254-6.254-4.254-10.253c0-4.016,1.418-7.442,4.254-10.278S819.685,300.945,823.683,300.945z M815.203,306.997
				c-2.344,2.343-3.516,5.17-3.516,8.481c0,3.312,1.172,6.136,3.516,8.47c2.342,2.334,5.17,3.501,8.48,3.501
				c3.312,0,6.141-1.167,8.482-3.501c2.344-2.334,3.516-5.157,3.516-8.47c0-3.312-1.172-6.139-3.516-8.481
				c-2.342-2.343-5.17-3.515-8.482-3.515C820.373,303.482,817.544,304.654,815.203,306.997z"/>
			<path fill="#00B9C1" d="M846.148,309.084v20.162h-2.377v-25.948h2.377v1.664c2.168-2.148,4.686-3.224,7.559-3.224
				c3.064,0,5.557,0.961,7.477,2.88c1.92,1.921,2.908,4.343,2.961,7.267v17.361h-2.379v-17.149c0-2.202-0.797-4.083-2.391-5.642
				c-1.596-1.559-3.484-2.339-5.668-2.339c-2.186,0-4.07,0.767-5.656,2.299C847.187,307.278,846.554,308.169,846.148,309.084z"/>
			<path fill="#00B9C1" d="M874.275,294.789c0.467,0.458,0.701,1.013,0.701,1.664c0,0.67-0.234,1.233-0.701,1.691
				s-1.025,0.688-1.678,0.688s-1.211-0.229-1.678-0.688s-0.701-1.021-0.701-1.691c0-0.651,0.234-1.206,0.701-1.664
				s1.025-0.688,1.678-0.688S873.808,294.331,874.275,294.789z M873.787,303.298v25.948h-2.379v-25.948H873.787z"/>
			<path fill="#00B9C1" d="M881.224,286.968h2.379v19.977c0.439-0.599,0.941-1.181,1.506-1.744
				c2.836-2.836,6.254-4.255,10.252-4.255c4.018,0,7.439,1.419,10.266,4.255c2.828,2.836,4.242,6.263,4.242,10.278
				c0,3.999-1.414,7.417-4.242,10.253c-2.826,2.837-6.248,4.254-10.266,4.254c-3.998,0-7.416-1.417-10.252-4.254
				c-0.564-0.563-1.066-1.145-1.506-1.744v5.259h-2.379V286.968z M883.603,312.995v4.968c0.457,2.255,1.549,4.245,3.275,5.972
				c2.344,2.343,5.17,3.515,8.482,3.515s6.139-1.167,8.482-3.501c2.342-2.334,3.514-5.157,3.514-8.47
				c0-3.312-1.172-6.139-3.514-8.481c-2.344-2.343-5.17-3.515-8.482-3.515s-6.139,1.172-8.482,3.515
				C885.152,308.724,884.06,310.723,883.603,312.995z"/>
			<path fill="#00B9C1" d="M918.398,286.968v42.278h-2.377v-42.278H918.398z"/>
			<path fill="#00B9C1" d="M930.585,324.384c2.236,2.044,4.896,3.065,7.979,3.065c3.312,0,6.141-1.172,8.482-3.515
				c0.299-0.299,0.582-0.607,0.846-0.925l2.51,0.898c-0.457,0.634-0.977,1.242-1.559,1.823c-2.836,2.837-6.262,4.254-10.279,4.254
				c-3.998,0-7.416-1.417-10.252-4.254c-2.836-2.836-4.254-6.263-4.254-10.279c0-3.998,1.418-7.416,4.254-10.252
				s6.254-4.255,10.252-4.255c3.436,0,6.439,1.031,9.012,3.092c0.422,0.353,0.846,0.74,1.268,1.163
				c0.158,0.158,0.309,0.316,0.449,0.476l-1.797,1.797L930.585,324.384z M945.751,305.86c-2.061-1.585-4.457-2.378-7.188-2.378
				c-3.293,0-6.113,1.167-8.455,3.501c-2.344,2.335-3.514,5.157-3.514,8.469c0,2.731,0.793,5.127,2.377,7.188L945.751,305.86z"/>
		</g>
		<g>
			<path fill="#0E3152" d="M587.424,108.876h9.429v109.168h16.029v9.429h-16.029v49.031h-9.429v-49.031h-69.146L587.424,108.876z
				 M587.424,129.201l-52.908,88.843h52.908V129.201z"/>
			<path fill="#0E3152" d="M750.611,221.92c0,15.856-5.605,29.405-16.814,40.65c-11.211,11.246-24.777,16.867-40.703,16.867
				c-15.855,0-29.405-5.621-40.649-16.867c-11.246-11.245-16.868-24.794-16.868-40.65v-55.526c0-15.854,5.622-29.403,16.868-40.649
				c11.244-11.245,24.794-16.868,40.649-16.868c15.925,0,29.492,5.623,40.703,16.868c11.209,11.246,16.814,24.795,16.814,40.649
				V221.92z M740.658,166.394c0-13.13-4.645-24.322-13.934-33.578c-9.289-9.254-20.5-13.882-33.63-13.882
				c-13.132,0-24.342,4.628-33.63,13.882c-9.29,9.256-13.935,20.448-13.935,33.578v55.526c0,13.132,4.645,24.324,13.935,33.578
				c9.288,9.256,20.498,13.882,33.63,13.882c13.13,0,24.341-4.626,33.63-13.882c9.289-9.254,13.934-20.446,13.934-33.578V166.394z"
				/>
			<path fill="#0E3152" d="M841.103,108.876h9.43v109.168h16.029v9.429h-16.029v49.031h-9.43v-49.031h-69.146L841.103,108.876z
				 M841.103,129.201l-52.908,88.843h52.908V129.201z"/>
		</g>
	</g>
	<path fill="#0E3152" d="M1360.071,227.555H861.874c-2.623,0-4.75-2.127-4.75-4.75s2.127-4.75,4.75-4.75h498.197
		c2.623,0,4.75,2.127,4.75,4.75S1362.694,227.555,1360.071,227.555z"/>
	<g>
		<path fill="#0E3152" d="M255.203,341.555c-2.406,0-4.438-1.803-4.717-4.201l-14.835-127.628l-6.537,16.343
			c-0.721,1.804-2.468,2.986-4.41,2.986h-67c-2.624,0-4.75-2.127-4.75-4.75s2.126-4.75,4.75-4.75h63.784l12.306-30.767
			c0.807-2.019,2.88-3.237,5.037-2.944c2.155,0.286,3.84,2,4.091,4.159l11.39,97.987L274.469,33.93
			c0.196-2.468,2.254-4.371,4.729-4.375c0.002,0,0.004,0,0.006,0c2.473,0,4.532,1.897,4.734,4.362l12.846,156.721l8.348-29.621
			c0.579-2.056,2.443-3.46,4.597-3.461c2.136,0.011,4.002,1.447,4.561,3.51l15.55,57.49h63.656l14.493-119.322
			c0.29-2.384,2.314-4.177,4.715-4.177c0.001,0,0.003,0,0.004,0c2.404,0.002,4.427,1.8,4.712,4.187l15.902,133.073l11.769-47.894
			c0.514-2.092,2.372-3.576,4.525-3.615c2.136-0.062,4.065,1.375,4.655,3.446l9.64,33.803h79.299c2.624,0,4.75,2.127,4.75,4.75
			s-2.126,4.75-4.75,4.75h-82.884c-2.122,0-3.986-1.407-4.568-3.447l-5.714-20.036l-13.729,55.867
			c-0.547,2.229-2.606,3.745-4.902,3.607c-2.292-0.14-4.155-1.898-4.427-4.178l-14.322-119.852l-10.246,84.36
			c-0.29,2.385-2.313,4.178-4.715,4.178h-71.5c-2.146,0-4.025-1.438-4.585-3.51l-12.008-44.396l-10.834,38.443
			c-0.624,2.213-2.74,3.67-5.029,3.439c-2.288-0.221-4.089-2.049-4.276-4.34L279.282,93.391l-19.342,243.79
			c-0.193,2.437-2.205,4.328-4.648,4.373C255.262,341.555,255.232,341.555,255.203,341.555z"/>
		<path fill="#0E3152" d="M115.634,265.389c-0.097,0-0.194-0.003-0.292-0.009c-2.292-0.14-4.154-1.898-4.427-4.178L96.593,141.35
			l-10.246,84.361c-0.29,2.385-2.313,4.178-4.715,4.178H29.401c-2.624,0-4.75-2.127-4.75-4.75s2.126-4.75,4.75-4.75h48.023
			l14.493-119.323c0.29-2.384,2.314-4.177,4.715-4.177c0.001,0,0.003,0,0.004,0c2.404,0.002,4.427,1.8,4.712,4.187l15.902,133.073
			l11.769-47.894c0.514-2.09,2.368-3.573,4.52-3.615c2.126-0.086,4.062,1.367,4.658,3.436l9.634,33.479h10.874
			c2.624,0,4.75,2.127,4.75,4.75s-2.126,4.75-4.75,4.75h-14.45c-2.118,0-3.979-1.401-4.565-3.437l-5.696-19.796l-13.749,55.95
			C119.72,263.906,117.807,265.389,115.634,265.389z"/>
	</g>
</g>
</svg>
