<?xml version="1.0" encoding="utf-8"?>
<!-- Generator: Adobe Illustrator 16.0.0, SVG Export Plug-In . SVG Version: 6.00 Build 0)  -->
<!DOCTYPE svg PUBLIC "-//W3C//DTD SVG 1.1//EN" "http://www.w3.org/Graphics/SVG/1.1/DTD/svg11.dtd">
<svg version="1.1" id="Layer_1" xmlns="http://www.w3.org/2000/svg" xmlns:xlink="http://www.w3.org/1999/xlink" x="0px" y="0px"
	 width="200px" height="200px" viewBox="0 0 200 200" enable-background="new 0 0 200 200" xml:space="preserve">
<g>
	<rect x="0" y="0.064" fill="#E8F7F8" width="200" height="199.871"/>
	<g>
		<path fill="#E5EAEE" d="M100.52,119.75v79.892H56.933c-0.704-0.317-1.078-0.464-1.078-0.464c0-42.854,26.695-46.044,26.695-46.044
			c2.65,0,4.369-3.413,5.5-8.586c0.179-0.798,0.33-1.624,0.455-2.505c0.251-1.457,0.455-3.01,0.611-4.636
			c0.086-0.961,0.179-1.933,0.271-2.946c0.408-4.904,0.521-10.234,0.521-15.286C89.907,119.175,95.784,119.75,100.52,119.75"/>
		<path fill="#CDD6DD" d="M145.316,199.178c0,0-0.4,0.147-1.037,0.464h-43.76V119.75h0.086c4.744,0,10.642-0.575,10.642-0.575
			c0,5.02,0.119,10.283,0.514,15.165c0.092,0.98,0.184,1.95,0.275,2.896c0.185,1.674,0.361,3.256,0.611,4.737v0.039
			c0.093,0.668,0.217,1.283,0.343,1.888c1.125,5.513,2.895,9.233,5.651,9.233C118.642,153.134,145.316,156.324,145.316,199.178"/>
		<path fill="#9AADBB" d="M112.647,141.974v0.039c-1.072,1.699-4.773,6.548-12.076,6.548h-0.052
			c-6.942-0.031-10.976-5.046-12.015-6.518c0.249-1.459,0.455-3.01,0.611-4.636c0.086-0.963,0.179-1.933,0.271-2.944
			c3.388,0.857,7.06,1.369,11.008,1.43h0.125c4.027-0.061,7.76-0.604,11.241-1.553c0.092,0.98,0.184,1.953,0.275,2.896
			C112.221,138.91,112.397,140.492,112.647,141.974"/>
		<path fill="#49C0C6" d="M145.385,199.191c0,0-0.41,0.152-1.039,0.465H56.893c-0.706-0.312-1.08-0.465-1.08-0.465
			c0-32.64,15.517-42.261,22.894-45.002c4.803,5.264,14.317,12.515,21.667,12.873h0.145h0.033h0.027c0.033,0,0.092,0.028,0.157,0
			c7.375-0.358,16.893-7.64,21.702-12.907C129.775,156.867,145.385,166.452,145.385,199.191"/>
		<path fill="#E5EAEE" d="M99.882,28.133c-46.161,0-46.425,38.509-44.371,63.717c-3.172-5.981-12.527-4.137-11.765,5.279
			c0.743,9.064,13.976,13.738,13.792,12.689c3.782,20.745,25.503,32.725,42.343,32.725h0.354V28.133H99.882"/>
		<path fill="#9AADBB" d="M46.695,93.151c2.29-3.642,5.804-2.078,6.672-1.273c0.91,0.872,1.644,2.037,1.079,4.184
			c-0.327,1.208-1.606,1.288-1.291,3.13c0.343,2.061,1.301,2.2,1.855,2.665c0.534,0.464,1.212,0.839,1.552,1.707
			c0.324,0.865,0.383,1.794,0.198,2.579c-0.343,1.491-2.525,0.316-3.987-0.331c-0.949-0.454-3.994-3.008-4.769-3.876
			C46.069,99.747,45.172,95.569,46.695,93.151"/>
		<path fill="#CDD6DD" d="M100.11,28.133c46.163,0,46.425,38.509,44.38,63.717c3.164-5.981,12.525-4.137,11.764,5.279
			c-0.738,9.064-13.977,13.738-13.791,12.689c-3.777,20.745-25.506,32.725-42.353,32.725h-0.346V28.133H100.11"/>
		<path fill="#9AADBB" d="M153.305,93.151c-2.275-3.642-5.803-2.078-6.678-1.273c-0.908,0.872-1.625,2.037-1.07,4.184
			c0.312,1.208,1.604,1.288,1.289,3.13c-0.344,2.061-1.303,2.2-1.844,2.665c-0.551,0.464-1.227,0.839-1.566,1.707
			c-0.32,0.865-0.381,1.794-0.197,2.579c0.344,1.491,2.516,0.316,3.98-0.331c0.955-0.454,3.996-3.008,4.77-3.876
			C153.939,99.747,154.822,95.569,153.305,93.151"/>
		<path fill="#355A78" d="M144.803,91.43c-0.934,0.916-1.998,2.074-2.711,3.979c-1.471,3.839-2.025,3.176-2.025,3.176
			s2.318-15.027,2.318-19.205c0-4.154-13.174-18.452-20.52-20.932c-7.368-2.459-13.981,5.858-21.886,5.858h-0.62
			c-7.749-0.154-14.62-8.281-21.883-5.858c-7.33,2.479-20.511,16.777-20.511,20.932c0,4.178,2.311,19.205,2.311,19.205
			s-0.567,0.663-2.028-3.176c-0.837-2.249-2.184-3.502-3.244-4.419c-1.953-26.022-0.835-64.357,45.3-64.357h0.241
			C145.928,26.634,146.824,65.405,144.803,91.43"/>
	</g>
</g>
</svg>
