<?xml version="1.0" encoding="utf-8"?>
<!-- Generator: Adobe Illustrator 16.0.0, SVG Export Plug-In . SVG Version: 6.00 Build 0)  -->
<!DOCTYPE svg PUBLIC "-//W3C//DTD SVG 1.1//EN" "http://www.w3.org/Graphics/SVG/1.1/DTD/svg11.dtd">
<svg version="1.1" id="Layer_1" xmlns="http://www.w3.org/2000/svg" xmlns:xlink="http://www.w3.org/1999/xlink" x="0px" y="0px"
	 width="16px" height="16px" viewBox="0 0 16 16" enable-background="new 0 0 16 16" xml:space="preserve">
<path fill="#0E3252" d="M10.854,1.159H4.782c-0.715,0-1.301,0.585-1.301,1.301v11.277c0,0.714,0.585,1.301,1.301,1.301h6.073
	c0.715,0,1.302-0.587,1.302-1.301V2.459C12.156,1.744,11.569,1.159,10.854,1.159L10.854,1.159z M6.084,1.81h3.468v0.433H6.084V1.81z
	 M7.819,14.169c-0.48,0-0.869-0.388-0.869-0.868c0-0.478,0.389-0.865,0.869-0.865c0.478,0,0.865,0.388,0.865,0.865
	C8.684,13.781,8.297,14.169,7.819,14.169L7.819,14.169z M11.287,11.568H4.349V2.894h6.938V11.568z M11.287,11.568"/>
</svg>
