<?xml version="1.0" encoding="utf-8"?>
<!-- Generator: Adobe Illustrator 16.0.0, SVG Export Plug-In . SVG Version: 6.00 Build 0)  -->
<!DOCTYPE svg PUBLIC "-//W3C//DTD SVG 1.1//EN" "http://www.w3.org/Graphics/SVG/1.1/DTD/svg11.dtd">
<svg version="1.1" id="Layer_1" xmlns="http://www.w3.org/2000/svg" xmlns:xlink="http://www.w3.org/1999/xlink" x="0px" y="0px"
	 width="16px" height="16px" viewBox="0 0 16 16" enable-background="new 0 0 16 16" xml:space="preserve">
<g>
	<path fill="#0E3252" d="M1.859,4.653c0.107-0.039,0.222-0.064,0.343-0.064h11.666c0.122,0,0.235,0.025,0.344,0.064L8.984,9.625
		c-0.531,0.507-1.365,0.507-1.898,0L1.859,4.653z M14.71,13.486c0.091-0.149,0.146-0.324,0.146-0.513V5.588
		c0-0.136-0.027-0.261-0.074-0.379L9.891,9.859L14.71,13.486z M9.449,10.275c-0.407,0.35-0.91,0.528-1.413,0.528
		c-0.506,0-1.009-0.179-1.414-0.528l-4.807,3.615c0.118,0.052,0.25,0.079,0.387,0.079h11.666c0.139,0,0.268-0.027,0.386-0.079
		L9.449,10.275z M1.288,5.208C1.241,5.327,1.213,5.452,1.213,5.588v7.386c0,0.188,0.057,0.363,0.146,0.513l4.82-3.627L1.288,5.208z
		 M1.288,5.208"/>
</g>
</svg>
