<?xml version="1.0" encoding="utf-8"?>
<!-- Generator: Adobe Illustrator 16.0.0, SVG Export Plug-In . SVG Version: 6.00 Build 0)  -->
<!DOCTYPE svg PUBLIC "-//W3C//DTD SVG 1.1//EN" "http://www.w3.org/Graphics/SVG/1.1/DTD/svg11.dtd">
<svg version="1.1" id="Layer_1" xmlns="http://www.w3.org/2000/svg" xmlns:xlink="http://www.w3.org/1999/xlink" x="0px" y="0px"
	 width="16px" height="16px" viewBox="0 0 16 16" enable-background="new 0 0 16 16" xml:space="preserve">
<g>
	<path fill="#0E3252" d="M10.975,4.13c0,1.643-1.33,2.974-2.971,2.974c-1.642,0-2.973-1.331-2.973-2.974
		c0-1.641,1.331-2.972,2.973-2.972C9.645,1.159,10.975,2.489,10.975,4.13L10.975,4.13z M10.975,4.13"/>
	<path fill="#0E3252" d="M10.517,7.579h-0.031l-0.106,1.377c-0.015,0.195-0.155,0.352-0.346,0.392L9.242,9.51l0.195,0.573
		c0.037,0.11,0.027,0.231-0.025,0.336c0,0-0.768,1.505-1.023,2.005c-0.001,0.003-0.126,0.2-0.377,0.2
		c-0.308,0-0.393-0.197-0.393-0.2c-0.257-0.5-1.024-2.005-1.024-2.005c-0.053-0.104-0.062-0.226-0.024-0.336L6.763,9.51l-0.79-0.159
		c-0.19-0.038-0.33-0.198-0.345-0.391L5.521,7.579H5.49c-1.72,0-3.114,1.394-3.114,3.115v3.495c0,0.482,0.391,0.873,0.873,0.873
		h9.503c0.481,0,0.873-0.391,0.873-0.873v-3.505C13.622,8.97,12.231,7.579,10.517,7.579L10.517,7.579z M11.629,13.551h-0.656v0.646
		c0,0.238-0.191,0.433-0.43,0.433s-0.43-0.194-0.43-0.433v-0.646H9.469c-0.24,0-0.433-0.189-0.433-0.428
		c0-0.24,0.192-0.432,0.433-0.432h0.645v-0.657c0-0.237,0.191-0.432,0.43-0.432s0.43,0.194,0.43,0.432v0.657h0.656
		c0.238,0,0.433,0.191,0.433,0.432C12.062,13.361,11.867,13.551,11.629,13.551L11.629,13.551z M11.629,13.551"/>
	<path fill="#0E3252" d="M8.589,8.759l0.952-0.192l0.078-0.987H6.388l0.076,0.987l0.953,0.192c0.122,0.026,0.226,0.101,0.288,0.209
		C7.768,9.075,7.78,9.205,7.741,9.322l-0.295,0.865l0.558,1.089l0.556-1.089L8.266,9.322c-0.04-0.117-0.026-0.247,0.036-0.354
		C8.363,8.859,8.468,8.785,8.589,8.759L8.589,8.759z M8.589,8.759"/>
</g>
</svg>
