<?xml version="1.0" encoding="utf-8"?>
<!-- Generator: Adobe Illustrator 16.0.0, SVG Export Plug-In . SVG Version: 6.00 Build 0)  -->
<!DOCTYPE svg PUBLIC "-//W3C//DTD SVG 1.1//EN" "http://www.w3.org/Graphics/SVG/1.1/DTD/svg11.dtd">
<svg version="1.1" id="Layer_1" xmlns="http://www.w3.org/2000/svg" xmlns:xlink="http://www.w3.org/1999/xlink" x="0px" y="0px"
	 width="16px" height="16px" viewBox="0 0 16 16" enable-background="new 0 0 16 16" xml:space="preserve">
<g>
	<path fill="#0E3252" d="M2.337,13.948h0.197c-0.184-0.338-0.293-0.746-0.293-1.184v-4.46c0-0.438,0.108-0.845,0.293-1.184H2.337
		c-0.629,0-1.138,0.509-1.138,1.137v4.553C1.199,13.438,1.708,13.948,2.337,13.948L2.337,13.948z M2.337,13.948"/>
	<path fill="#0E3252" d="M5.421,13.948h8.313c0.628,0,1.138-0.51,1.138-1.138V8.258c0-0.628-0.51-1.137-1.138-1.137h-0.692V4.844
		c0-0.869-0.663-1.573-1.481-1.573H7.313c-0.814,0-1.479,0.706-1.479,1.573v2.277H5.421c0.184,0.338,0.293,0.746,0.293,1.182v4.462
		C5.714,13.202,5.605,13.61,5.421,13.948L5.421,13.948z M12.596,13.148c-0.271,0-0.492-0.223-0.492-0.495
		c0-0.271,0.221-0.492,0.492-0.492s0.493,0.221,0.493,0.492C13.089,12.926,12.867,13.148,12.596,13.148L12.596,13.148z
		 M13.202,9.543v1.868H6.865V9.543H13.202z M6.518,4.844c0-0.492,0.358-0.891,0.796-0.891h4.247c0.439,0,0.799,0.399,0.799,0.891
		V7.35c0,0.489-0.359,0.891-0.799,0.891H7.313c-0.438,0-0.796-0.399-0.796-0.891V4.844z M6.518,4.844"/>
	<path fill="#0E3252" d="M3.978,14.479c0.727,0,1.314-0.768,1.314-1.715v-4.46c0-0.947-0.588-1.714-1.314-1.714
		S2.662,7.357,2.662,8.304v4.46C2.662,13.712,3.251,14.479,3.978,14.479L3.978,14.479z M3.978,14.479"/>
	<path fill="#0E3252" d="M7.28,5.104h4.281c0.148,0,0.267-0.119,0.267-0.267c0-0.146-0.118-0.264-0.267-0.264H7.28
		c-0.146,0-0.265,0.118-0.265,0.264C7.015,4.985,7.134,5.104,7.28,5.104L7.28,5.104z M7.28,5.104"/>
	<path fill="#0E3252" d="M7.28,6.333h4.281c0.148,0,0.267-0.119,0.267-0.264c0-0.148-0.118-0.265-0.267-0.265H7.28
		c-0.146,0-0.265,0.117-0.265,0.265C7.015,6.214,7.134,6.333,7.28,6.333L7.28,6.333z M7.28,6.333"/>
	<path fill="#0E3252" d="M7.28,7.562h4.281c0.148,0,0.267-0.119,0.267-0.265c0-0.146-0.118-0.266-0.267-0.266H7.28
		c-0.146,0-0.265,0.12-0.265,0.266C7.015,7.444,7.134,7.562,7.28,7.562L7.28,7.562z M7.28,7.562"/>
</g>
</svg>
