<?xml version="1.0" encoding="utf-8"?>
<!-- Generator: Adobe Illustrator 16.0.0, SVG Export Plug-In . SVG Version: 6.00 Build 0)  -->
<!DOCTYPE svg PUBLIC "-//W3C//DTD SVG 1.1//EN" "http://www.w3.org/Graphics/SVG/1.1/DTD/svg11.dtd">
<svg version="1.1" id="Layer_1" xmlns="http://www.w3.org/2000/svg" xmlns:xlink="http://www.w3.org/1999/xlink" x="0px" y="0px"
	 width="16px" height="16px" viewBox="0 0 16 16" enable-background="new 0 0 16 16" xml:space="preserve">
<path fill="#0E3252" d="M14.631,12.116l-2.144-2.145c-0.428-0.426-1.134-0.413-1.576,0.029l-1.08,1.08
	c-0.068-0.037-0.14-0.077-0.213-0.118c-0.684-0.379-1.616-0.896-2.599-1.88C6.033,8.097,5.515,7.162,5.136,6.479
	C5.095,6.408,5.057,6.339,5.02,6.271l0.725-0.724l0.356-0.357c0.442-0.443,0.456-1.15,0.029-1.576L3.985,1.47
	C3.56,1.044,2.853,1.057,2.409,1.5L1.806,2.107l0.016,0.016C1.619,2.382,1.45,2.681,1.324,3.001
	C1.208,3.308,1.135,3.601,1.103,3.893C0.819,6.24,1.892,8.385,4.802,11.296c4.023,4.023,7.268,3.72,7.407,3.704
	c0.304-0.035,0.597-0.108,0.895-0.223c0.317-0.124,0.616-0.294,0.873-0.497l0.014,0.012l0.613-0.599
	C15.043,13.25,15.058,12.543,14.631,12.116L14.631,12.116z M14.631,12.116"/>
</svg>
