<?xml version="1.0" encoding="utf-8"?>
<!-- Generator: Adobe Illustrator 16.0.0, SVG Export Plug-In . SVG Version: 6.00 Build 0)  -->
<!DOCTYPE svg PUBLIC "-//W3C//DTD SVG 1.1//EN" "http://www.w3.org/Graphics/SVG/1.1/DTD/svg11.dtd">
<svg version="1.1" id="Layer_1" xmlns="http://www.w3.org/2000/svg" xmlns:xlink="http://www.w3.org/1999/xlink" x="0px" y="0px"
	 width="16px" height="16px" viewBox="0 0 16 16" enable-background="new 0 0 16 16" xml:space="preserve">
<path fill="#0E3252" d="M8.003,1.159c-3.015,0-5.47,2.454-5.47,5.467c0,4.033,4.773,8.087,4.978,8.257
	c0.269,0.226,0.655,0.24,0.941,0.035c0.206-0.147,5.022-3.665,5.022-8.292C13.475,3.612,11.021,1.159,8.003,1.159z M9.136,9.477
	c0,0.263-0.216,0.474-0.476,0.474H7.298C7.04,9.95,6.83,9.739,6.83,9.477V8.108H5.458c-0.261,0-0.472-0.212-0.472-0.471V6.274
	c0-0.26,0.211-0.472,0.472-0.472H6.83V4.509c0-0.261,0.209-0.472,0.468-0.472H8.66c0.259,0,0.476,0.211,0.476,0.472v1.293h1.289
	c0.266,0,0.473,0.214,0.473,0.475v1.359c0,0.259-0.207,0.471-0.473,0.471H9.136V9.477z"/>
</svg>
