<?xml version="1.0" encoding="utf-8"?>
<!-- Generator: Adobe Illustrator 16.0.0, SVG Export Plug-In . SVG Version: 6.00 Build 0)  -->
<!DOCTYPE svg PUBLIC "-//W3C//DTD SVG 1.1//EN" "http://www.w3.org/Graphics/SVG/1.1/DTD/svg11.dtd">
<svg version="1.1" id="Layer_1" xmlns="http://www.w3.org/2000/svg" xmlns:xlink="http://www.w3.org/1999/xlink" x="0px" y="0px"
	 width="30px" height="30px" viewBox="0 0 30 30" enable-background="new 0 0 30 30" xml:space="preserve">
<path fill="#0E3253" d="M17.587,1.736c-5.891,0-10.683,4.792-10.683,10.683c0,1.618,0.369,3.192,1.094,4.677l0.119,0.24
	l-0.189,0.189l-5.25,5.242c-0.608,0.607-0.943,1.416-0.943,2.276s0.335,1.667,0.943,2.276c0.609,0.611,1.418,0.943,2.278,0.943
	c0.861,0,1.669-0.337,2.278-0.943l5.243-5.242l0.189-0.189l0.241,0.117c1.481,0.727,3.056,1.096,4.676,1.096
	c5.892,0,10.683-4.791,10.683-10.684C28.27,6.528,23.479,1.736,17.587,1.736z M17.587,19.146c-3.711,0-6.73-3.02-6.73-6.729
	c0-3.712,3.019-6.731,6.73-6.731c3.707,0,6.726,3.019,6.726,6.731C24.312,16.129,21.294,19.146,17.587,19.146z"/>
</svg>
