<?xml version="1.0" encoding="utf-8"?>
<!-- Generator: Adobe Illustrator 16.0.0, SVG Export Plug-In . SVG Version: 6.00 Build 0)  -->
<!DOCTYPE svg PUBLIC "-//W3C//DTD SVG 1.1//EN" "http://www.w3.org/Graphics/SVG/1.1/DTD/svg11.dtd">
<svg version="1.1" id="Layer_1" xmlns="http://www.w3.org/2000/svg" xmlns:xlink="http://www.w3.org/1999/xlink" x="0px" y="0px"
	 width="70px" height="70px" viewBox="0 0 70 70" enable-background="new 0 0 70 70" xml:space="preserve">
<g>
	
		<rect x="20.914" y="1.419" transform="matrix(0.8925 0.4511 -0.4511 0.8925 15.0912 -6.6118)" fill="#00AEB8" width="1" height="53.859"/>
	<path fill="#143156" d="M35.001,67.5C17.082,67.5,2.5,52.922,2.5,35c0-17.92,14.582-32.5,32.5-32.5S67.5,17.08,67.5,35
		C67.5,52.922,52.92,67.5,35.001,67.5z M35.001,5.379C18.67,5.379,5.381,18.668,5.381,35s13.289,29.619,29.62,29.619
		S64.619,51.332,64.619,35S51.332,5.379,35.001,5.379z"/>
	<g>
		<path fill="#143156" d="M42.623,23.969c0,4.213-3.407,7.621-7.614,7.621s-7.616-3.408-7.616-7.621
			c0-4.205,3.409-7.613,7.616-7.613S42.623,19.764,42.623,23.969L42.623,23.969z M42.623,23.969"/>
		<path fill="#143156" d="M41.295,33.67h-0.078l-0.264,3.449c-0.039,0.482-0.391,0.881-0.864,0.977l-1.979,0.402l0.486,1.438
			c0.092,0.277,0.07,0.58-0.062,0.838c0,0-1.922,3.766-2.561,5.02c-0.004,0.004-0.314,0.498-0.943,0.498
			c-0.773,0-0.982-0.494-0.982-0.498c-0.645-1.254-2.564-5.02-2.564-5.02c-0.131-0.258-0.156-0.561-0.061-0.838l0.484-1.434
			L29.929,38.1c-0.472-0.096-0.826-0.494-0.861-0.977L28.8,33.67h-0.078c-4.303,0-7.793,3.49-7.793,7.793l1,8.746
			c0,1.203,0.979,2.182,2.184,2.182h21.774c1.203,0,2.182-0.979,2.182-2.182l1-8.771C49.066,37.15,45.586,33.67,41.295,33.67
			L41.295,33.67z M44.078,48.611h-1.639v1.613c0,0.598-0.48,1.082-1.076,1.082c-0.598,0-1.073-0.484-1.073-1.082v-1.613h-1.615
			c-0.598,0-1.08-0.477-1.08-1.074c0-0.6,0.482-1.076,1.08-1.076h1.615v-1.643c0-0.598,0.476-1.082,1.073-1.082
			c0.596,0,1.076,0.484,1.076,1.082v1.643h1.639c0.598,0,1.084,0.477,1.084,1.076C45.162,48.135,44.676,48.611,44.078,48.611
			L44.078,48.611z M44.078,48.611"/>
		<path fill="#143156" d="M36.474,36.623l2.385-0.484l0.191-2.469h-8.082l0.191,2.469l2.383,0.484
			c0.305,0.064,0.566,0.25,0.721,0.523c0.156,0.268,0.188,0.59,0.088,0.883l-0.734,2.168l1.393,2.723l1.391-2.723l-0.734-2.168
			c-0.098-0.293-0.066-0.615,0.088-0.883C35.909,36.873,36.171,36.688,36.474,36.623L36.474,36.623z M36.474,36.623"/>
	</g>
</g>
</svg>
