<?xml version="1.0" encoding="utf-8"?>
<!-- Generator: Adobe Illustrator 16.0.0, SVG Export Plug-In . SVG Version: 6.00 Build 0)  -->
<!DOCTYPE svg PUBLIC "-//W3C//DTD SVG 1.1//EN" "http://www.w3.org/Graphics/SVG/1.1/DTD/svg11.dtd">
<svg version="1.1" id="Layer_1" xmlns="http://www.w3.org/2000/svg" xmlns:xlink="http://www.w3.org/1999/xlink" x="0px" y="0px"
	 width="70px" height="70px" viewBox="0 0 70 70" enable-background="new 0 0 70 70" xml:space="preserve">
<g>
	
		<rect x="20.697" y="0.006" transform="matrix(0.8398 0.5429 -0.5429 0.8398 18.4032 -7.0798)" fill="#00AEB8" width="1" height="55.27"/>
	<path fill="#143156" d="M35.001,68.328c-17.919,0-32.5-14.578-32.5-32.5c0-17.92,14.582-32.5,32.5-32.5S67.5,17.908,67.5,35.828
		C67.5,53.75,52.92,68.328,35.001,68.328z M35.001,6.208c-16.331,0-29.62,13.288-29.62,29.62c0,16.333,13.289,29.62,29.62,29.62
		s29.618-13.287,29.618-29.62C64.619,19.496,51.332,6.208,35.001,6.208z"/>
	<g>
		<g>
			<path fill="#143156" d="M35.008,33.338c3.77,0,6.818-3.055,6.818-6.825c0-3.766-3.049-6.82-6.818-6.82
				c-3.766,0-6.82,3.055-6.82,6.82C28.188,30.283,31.242,33.338,35.008,33.338z"/>
			<path fill="#143156" d="M41.145,35.363h-0.078h-3.361c0,0-0.211,0.029-0.277,0.057c-0.088,0.035-0.291,0.211-0.291,0.211
				l-1.838,1.808c0,0-0.104,0.224-0.129,0.3c-0.037,0.136,0.025,0.482,0.025,0.482l2.111,8.938c0,0,0.07,0.313,0.033,0.426
				c-0.021,0.079-0.172,0.266-0.172,0.266l-1.867,1.833c0,0-0.195,0.199-0.303,0.199c-0.096,0-0.279-0.171-0.279-0.171l-1.91-1.88
				c0,0-0.115-0.164-0.135-0.236c-0.031-0.109,0.021-0.413,0.021-0.413l2.117-8.952c0,0,0.072-0.4,0.025-0.537
				c-0.018-0.079-0.135-0.248-0.135-0.248l-1.904-1.872c0,0-0.188-0.141-0.256-0.168c-0.064-0.026-0.234-0.041-0.234-0.041h-3.357
				h-0.078c-4.193,0-7.6,3.407-7.6,7.604l0.752,6.868c0,1.172,0.955,2.128,2.131,2.128c0,0,17.421,0,21.652,0l0,0
				c1.178,0,2.133-0.956,2.133-2.128l0.785-6.893C48.725,38.76,45.33,35.363,41.145,35.363z"/>
		</g>
	</g>
</g>
</svg>
