<?xml version="1.0" encoding="utf-8"?>
<!-- Generator: Adobe Illustrator 16.0.0, SVG Export Plug-In . SVG Version: 6.00 Build 0)  -->
<!DOCTYPE svg PUBLIC "-//W3C//DTD SVG 1.1//EN" "http://www.w3.org/Graphics/SVG/1.1/DTD/svg11.dtd">
<svg version="1.1" id="Layer_1" xmlns="http://www.w3.org/2000/svg" xmlns:xlink="http://www.w3.org/1999/xlink" x="0px" y="0px"
	 width="70px" height="70px" viewBox="0 0 70 70" enable-background="new 0 0 70 70" xml:space="preserve">
<g>
	
		<rect x="-1.937" y="49.872" transform="matrix(0.764 0.6452 -0.6452 0.764 37.5771 -1.9942)" fill="#00AEB8" width="46.904" height="1"/>
	<path fill="#143156" d="M35.001,67.425c-17.919,0-32.5-14.578-32.5-32.5c0-17.92,14.582-32.5,32.5-32.5S67.5,17.005,67.5,34.925
		C67.5,52.847,52.92,67.425,35.001,67.425z M35.001,5.305c-16.331,0-29.62,13.288-29.62,29.62c0,16.333,13.289,29.62,29.62,29.62
		s29.618-13.287,29.618-29.62C64.619,18.593,51.332,5.305,35.001,5.305z"/>
	<g>
		<path fill="#143156" d="M35.209,32.491c-0.874-0.567-2.097-0.342-2.635,0.479l-6.496,9.971l-3.246-3.742
			c-0.678-0.782-1.966-0.875-2.747-0.196c-0.81,0.703-0.897,1.936-0.195,2.747l4.95,5.707c0.388,0.447,0.948,0.691,1.539,0.671
			c0.129-0.004,0.254-0.025,0.378-0.055c0.013-0.003,0.023-0.008,0.036-0.011c0.11-0.028,0.217-0.066,0.321-0.114
			c0.052-0.023,0.103-0.047,0.153-0.075c0.091-0.052,0.178-0.112,0.261-0.178c0.019-0.015,0.04-0.026,0.058-0.042v0
			c0.204-0.177,0.362-0.388,0.474-0.618l7.781-11.938C36.391,34.247,36.108,33.079,35.209,32.491z"/>
		<path fill="#143156" d="M50.074,29.613c-0.004-0.069-0.018-0.136-0.041-0.2c-0.008-0.023-0.014-0.046-0.023-0.068
			c-0.037-0.078-0.082-0.152-0.146-0.216l-10.18-10.18c-0.186-0.188-0.453-0.252-0.705-0.19c-0.051-0.011-0.098-0.029-0.15-0.029
			h-12.15c-1.314,0-2.344,1.349-2.344,3.07v16.842l1.5,1.729V21.799c0-0.898,0.445-1.57,0.844-1.57h11.726v7.108
			c0,1.722,1.008,3.071,2.295,3.071h7.885V48.05c0,0.885-0.453,1.57-0.844,1.57H26.678c-0.027,0-0.055-0.011-0.082-0.017
			c-0.054,0.004-0.112,0.021-0.165,0.023l-0.12,0.002c-0.661,0-1.291-0.205-1.837-0.551c0.317,1.199,1.167,2.043,2.204,2.043H47.74
			c1.314,0,2.344-1.349,2.344-3.07V29.659C50.084,29.642,50.076,29.628,50.074,29.613z M40.699,28.909
			c-0.324,0-0.795-0.612-0.795-1.571v-5.772l7.578,7.344H40.699z"/>
		<path fill="#143156" d="M29.417,26.659h5.667c0.414,0,0.75-0.336,0.75-0.75s-0.336-0.75-0.75-0.75h-5.667
			c-0.414,0-0.75,0.336-0.75,0.75S29.002,26.659,29.417,26.659z"/>
		<path fill="#143156" d="M35.834,29.992c0-0.414-0.336-0.75-0.75-0.75h-5.667c-0.414,0-0.75,0.336-0.75,0.75s0.336,0.75,0.75,0.75
			h4.17c0.18-0.028,0.358-0.065,0.545-0.065c0.216,0,0.428,0.026,0.638,0.065h0.314C35.498,30.742,35.834,30.406,35.834,29.992z"/>
		<path fill="#143156" d="M36.559,36.742h9.129c0.402,0,0.729-0.336,0.729-0.75s-0.326-0.75-0.729-0.75h-8.265
			c-0.083,0.231-0.187,0.458-0.325,0.673L36.559,36.742z"/>
		<path fill="#143156" d="M45.666,40.825c0.414,0,0.75-0.336,0.75-0.75s-0.336-0.75-0.75-0.75H34.875l-0.978,1.5H45.666z"/>
		<path fill="#143156" d="M45.666,44.908c0.414,0,0.75-0.336,0.75-0.75s-0.336-0.75-0.75-0.75H32.214l-0.978,1.5H45.666z"/>
	</g>
</g>
</svg>
