<?xml version="1.0" encoding="utf-8"?>
<!-- Generator: Adobe Illustrator 16.0.0, SVG Export Plug-In . SVG Version: 6.00 Build 0)  -->
<!DOCTYPE svg PUBLIC "-//W3C//DTD SVG 1.1//EN" "http://www.w3.org/Graphics/SVG/1.1/DTD/svg11.dtd">
<svg version="1.1" id="Layer_1" xmlns="http://www.w3.org/2000/svg" xmlns:xlink="http://www.w3.org/1999/xlink" x="0px" y="0px"
	 width="70px" height="70px" viewBox="0 0 70 70" enable-background="new 0 0 70 70" xml:space="preserve">
<g>
	
		<rect x="52.288" y="30.87" transform="matrix(0.7826 0.6226 -0.6226 0.7826 42.5354 -22.0164)" fill="#00AEB8" width="1.001" height="38.037"/>
	<path fill="#143156" d="M35.001,67.499c-17.919,0-32.501-14.578-32.501-32.5C2.5,17.08,17.082,2.501,35.001,2.501
		C52.922,2.501,67.5,17.08,67.5,34.999C67.5,52.921,52.922,67.499,35.001,67.499z M35.001,5.381
		C18.67,5.381,5.38,18.669,5.38,34.999c0,16.333,13.29,29.62,29.621,29.62c16.333,0,29.619-13.287,29.619-29.62
		C64.62,18.669,51.334,5.381,35.001,5.381z"/>
	<g>
		<g>
			<path fill="#143156" d="M50.323,20.608c0-1.913-1.555-3.468-3.467-3.468H23.016c-1.839,0-3.337,1.495-3.337,3.326v28.932
				c0,1.914,1.555,3.461,3.475,3.461h23.697c1.913,0,3.473-1.547,3.473-3.461V20.608z M46.864,46.782
				c0,1.446-1.176,2.628-2.641,2.628H25.772c-1.453,0-2.639-1.182-2.639-2.628V23.138c0-1.453,1.186-2.632,2.639-2.632h18.451
				c1.459,0,2.639,1.179,2.639,2.632L46.864,46.782z M46.864,46.782"/>
			<path fill="#143156" d="M27.348,41.261h15.302c0.942,0,1.698-0.731,1.698-1.673c0-0.93-0.756-1.679-1.698-1.679H27.348
				c-0.939,0-1.697,0.749-1.697,1.679C25.65,40.529,26.408,41.261,27.348,41.261L27.348,41.261z M27.348,41.261"/>
			<path fill="#143156" d="M27.348,46.732h15.302c0.942,0,1.698-0.756,1.698-1.693c0-0.936-0.756-1.677-1.698-1.677H27.348
				c-0.939,0-1.697,0.741-1.697,1.677C25.65,45.977,26.408,46.732,27.348,46.732L27.348,46.732z M27.348,46.732"/>
			<path fill="#143156" d="M42.509,35.232h-0.505v-3.834c0-0.059-0.032-0.112-0.084-0.139l-2.766-1.4
				c-0.104-0.053-0.226,0.022-0.226,0.139v0.885c0,0.114-0.12,0.191-0.223,0.141l-2.389-1.169c-0.105-0.051-0.226,0.025-0.226,0.14
				v0.889c0,0.114-0.119,0.191-0.223,0.141l-2.389-1.169c-0.104-0.051-0.224,0.025-0.224,0.14v5.238h-0.431V24.838
				c0-0.086-0.069-0.155-0.156-0.155h-0.367c-0.086,0-0.155-0.069-0.155-0.156v-1.995c0-0.086-0.069-0.155-0.156-0.155h-3.302
				c-0.086,0-0.155,0.069-0.155,0.155v1.995c0,0.087-0.069,0.156-0.154,0.156h-0.369c-0.086,0-0.155,0.069-0.155,0.155v10.395
				h-0.364c-0.086,0-0.155,0.071-0.155,0.156v0.406c0,0.087,0.069,0.155,0.155,0.155h15.018c0.086,0,0.153-0.068,0.153-0.155v-0.406
				C42.662,35.304,42.595,35.232,42.509,35.232L42.509,35.232z M28.365,33.592v-7.797c0-0.086,0.067-0.155,0.154-0.155h0.316
				c0.086,0,0.153,0.069,0.153,0.155v7.797c0,0.087-0.067,0.156-0.153,0.156H28.52C28.433,33.748,28.365,33.679,28.365,33.592
				L28.365,33.592z M29.877,35.232h-1.312v-0.41c0-0.085,0.071-0.155,0.155-0.155h1.001c0.087,0,0.156,0.07,0.156,0.155V35.232z
				 M30.1,33.592c0,0.087-0.069,0.156-0.155,0.156h-0.317c-0.086,0-0.153-0.069-0.153-0.156v-7.797c0-0.086,0.067-0.155,0.153-0.155
				h0.317c0.086,0,0.155,0.069,0.155,0.155V33.592z M30.582,33.592v-7.797c0-0.086,0.067-0.155,0.153-0.155h0.318
				c0.085,0,0.154,0.069,0.154,0.155v7.797c0,0.087-0.069,0.156-0.154,0.156h-0.318C30.649,33.748,30.582,33.679,30.582,33.592
				L30.582,33.592z M32.115,35.232h-1.311v-0.41c0-0.085,0.069-0.155,0.155-0.155h1.002c0.084,0,0.153,0.07,0.153,0.155V35.232z
				 M32.316,33.592c0,0.087-0.069,0.156-0.154,0.156h-0.318c-0.085,0-0.154-0.069-0.154-0.156v-7.797
				c0-0.086,0.069-0.155,0.154-0.155h0.318c0.085,0,0.154,0.069,0.154,0.155V33.592z M35.284,34.278
				c0,0.086-0.069,0.155-0.155,0.155h-0.415c-0.086,0-0.153-0.069-0.153-0.155v-1.273c0-0.085,0.067-0.155,0.153-0.155h0.415
				c0.086,0,0.155,0.07,0.155,0.155V34.278z M38.007,34.278c0,0.086-0.069,0.155-0.156,0.155h-0.412
				c-0.086,0-0.155-0.069-0.155-0.155v-1.273c0-0.085,0.069-0.155,0.155-0.155h0.412c0.087,0,0.156,0.07,0.156,0.155V34.278z
				 M40.729,34.278c0,0.086-0.07,0.155-0.154,0.155h-0.414c-0.087,0-0.156-0.069-0.156-0.155v-1.273
				c0-0.085,0.069-0.155,0.156-0.155h0.414c0.084,0,0.154,0.07,0.154,0.155V34.278z M40.729,34.278"/>
		</g>
	</g>
</g>
</svg>
