<?xml version="1.0" encoding="utf-8"?>
<!-- Generator: Adobe Illustrator 16.0.0, SVG Export Plug-In . SVG Version: 6.00 Build 0)  -->
<!DOCTYPE svg PUBLIC "-//W3C//DTD SVG 1.1//EN" "http://www.w3.org/Graphics/SVG/1.1/DTD/svg11.dtd">
<svg version="1.1" id="Layer_1" xmlns="http://www.w3.org/2000/svg" xmlns:xlink="http://www.w3.org/1999/xlink" x="0px" y="0px"
	 width="70px" height="70px" viewBox="0 0 70 70" enable-background="new 0 0 70 70" xml:space="preserve">
<g>
	
		<rect x="21.17" y="1.23" transform="matrix(0.8958 0.4445 -0.4445 0.8958 14.8409 -6.6815)" fill="#00AEB8" width="1" height="54.158"/>
	<path fill="#143156" d="M35.001,67.5C17.082,67.5,2.5,52.922,2.5,35c0-17.92,14.582-32.5,32.5-32.5S67.5,17.08,67.5,35
		C67.5,52.922,52.92,67.5,35.001,67.5z M35.001,5.38C18.67,5.38,5.381,18.668,5.381,35c0,16.333,13.289,29.62,29.62,29.62
		S64.619,51.333,64.619,35C64.619,18.668,51.332,5.38,35.001,5.38z"/>
	<g>
		<path fill="#143156" d="M47.859,36.916l5.762,11.838c0.235,0.481-0.012,0.875-0.547,0.875H16.926
			c-0.535,0-0.781-0.394-0.548-0.875l5.762-11.838c0.092-0.188,0.337-0.343,0.547-0.343h4.185c0.152,0,0.358,0.096,0.457,0.211
			c0.336,0.387,1.314,1.84,1.611,2.225H24.21c-0.21,0-0.455,0.154-0.548,0.342l-3.816,7.842h30.308l-3.818-7.842
			c-0.09-0.188-0.336-0.342-0.547-0.342h-4.363c0.242-0.383,1.277-1.838,1.615-2.226c0.1-0.115,0.303-0.21,0.457-0.21h3.814
			C47.523,36.573,47.77,36.728,47.859,36.916L47.859,36.916z"/>
		<g>
			<path fill="#143156" d="M36.494,26.761c0-0.349-0.284-0.633-0.633-0.633h-1.824c-0.35,0-0.631,0.284-0.631,0.633v1.735h-1.839
				c-0.35,0-0.634,0.282-0.634,0.63v1.826c0,0.349,0.284,0.633,0.634,0.633h1.839v1.835c0,0.35,0.281,0.633,0.631,0.633h1.824
				c0.349,0,0.633-0.284,0.633-0.633v-1.835h1.732c0.353,0,0.633-0.284,0.633-0.633v-1.821c0-0.348-0.28-0.635-0.633-0.635h-1.732
				V26.761z M36.494,26.761"/>
			<path fill="#143156" d="M35,20.372c-5.022,0-9.111,4.088-9.111,9.107c0,6.717,7.951,13.467,8.29,13.75
				c0.448,0.376,1.093,0.4,1.569,0.058c0.341-0.243,8.363-6.103,8.363-13.809C44.111,24.459,40.023,20.372,35,20.372L35,20.372z
				 M36.032,39.708c-0.548,0.512-1.402,0.49-1.924-0.047c-2.402-2.451-5.665-6.585-5.665-10.181c0-3.611,2.941-6.554,6.556-6.554
				s6.551,2.942,6.551,6.554C41.551,33.833,38.194,37.683,36.032,39.708L36.032,39.708z M36.032,39.708"/>
		</g>
	</g>
</g>
</svg>
