<?xml version="1.0" encoding="utf-8"?>
<!-- Generator: Adobe Illustrator 16.0.0, SVG Export Plug-In . SVG Version: 6.00 Build 0)  -->
<!DOCTYPE svg PUBLIC "-//W3C//DTD SVG 1.1//EN" "http://www.w3.org/Graphics/SVG/1.1/DTD/svg11.dtd">
<svg version="1.1" id="Layer_1" xmlns="http://www.w3.org/2000/svg" xmlns:xlink="http://www.w3.org/1999/xlink" x="0px" y="0px"
	 width="70px" height="70px" viewBox="0 0 70 70" enable-background="new 0 0 70 70" xml:space="preserve">
<g>
	
		<rect x="25.661" y="-6.557" transform="matrix(0.4045 0.9145 -0.9145 0.4045 29.5726 -14.813)" fill="#00AEB8" width="0.999" height="43.717"/>
	<path fill="#143156" d="M35.001,67.5C17.082,67.5,2.5,52.922,2.5,35c0-17.92,14.582-32.5,32.5-32.5S67.5,17.08,67.5,35
		C67.5,52.922,52.92,67.5,35.001,67.5z M35.001,5.381C18.67,5.381,5.381,18.668,5.381,35c0,16.334,13.289,29.621,29.62,29.621
		S64.619,51.334,64.619,35C64.619,18.668,51.332,5.381,35.001,5.381z"/>
	<g>
		<path fill="#143156" d="M20.541,25.68c-0.237,0.059-0.379,0.301-0.319,0.533l0.019,0.07c0.061,0.227,0.282,0.363,0.512,0.312
			c4.964-1.158,9.441,0.701,10.709,1.303c0.207,0.1,0.452,0.018,0.559-0.18l0.039-0.068c0.121-0.217,0.036-0.486-0.188-0.596
			C30.491,26.389,25.839,24.441,20.541,25.68z"/>
		<path fill="#143156" d="M20.541,28.33c-0.237,0.057-0.379,0.293-0.319,0.529l0.019,0.072c0.061,0.225,0.282,0.363,0.512,0.311
			c4.964-1.156,9.441,0.699,10.709,1.303c0.207,0.1,0.452,0.018,0.559-0.18l0.039-0.062c0.121-0.217,0.036-0.488-0.188-0.602
			C30.491,29.037,25.839,27.09,20.541,28.33z"/>
		<path fill="#143156" d="M20.541,30.811c-0.237,0.061-0.379,0.301-0.319,0.533l0.019,0.072c0.061,0.225,0.282,0.361,0.512,0.309
			c4.964-1.156,9.441,0.701,10.709,1.305c0.207,0.102,0.452,0.018,0.559-0.182l0.039-0.068c0.121-0.213,0.036-0.484-0.188-0.596
			C30.491,31.514,25.839,29.568,20.541,30.811z"/>
		<path fill="#143156" d="M54.967,25.17c-0.325-0.328-0.894-0.785-1.635-0.922v-1.736c0-0.369-0.242-0.701-0.593-0.816
			c-1.154-0.377-3.858-1.141-6.845-1.141c-4.254,0-7.915,1.295-10.895,3.854c-2.98-2.559-6.641-3.854-10.895-3.854
			c-2.987,0-5.691,0.764-6.845,1.141c-0.351,0.115-0.593,0.447-0.593,0.816v1.736c-0.741,0.137-1.31,0.594-1.635,0.922
			c-0.204,0.203-0.315,0.473-0.315,0.762v22.91c0,0.395,0.346,0.684,0.717,0.641h14.944c0,0,0.299-0.027,0.384,0.041
			c0.081,0.068,0.111,0.166,0.163,0.264c0.472,0.891,2.114,1.547,4.075,1.547c1.994,0,3.66-0.68,4.097-1.592
			c0.041-0.084,0.049-0.168,0.117-0.227c0.065-0.051,0.306-0.033,0.306-0.033h4.984c1.531,1.5,3.371,3.299,3.717,3.617
			c0.809,0.75,1.922,0.502,1.922-0.689c0-0.193,0-1.578,0-2.928h4.422c0.372,0.043,0.718-0.246,0.718-0.641v-22.91
			C55.282,25.643,55.171,25.373,54.967,25.17z M34.683,47.768c-1.802-0.723-6.767-2.514-11.539-2.514
			c-2.016,0-3.801,0.312-5.32,0.922V22.707c0.886-0.297,3.304-0.994,6.281-0.994c3.548,0,7.11,1.246,9.791,3.197v12.578
			c0,0-0.012,0.184,0.185,0c0.113-0.105,0.39-0.293,0.613-0.438L34.683,47.768z M52.175,46.176
			c-0.944-0.379-2.003-0.629-3.146-0.773c0,0.371,0,0.877,0,1.441c0,0.838,0,1.799,0,2.639c0,1.078,0,1.955,0,2.08
			c0,0.357-0.168,0.699-0.703,0.164c-0.201-0.197-1.143-1.141-2.246-2.244c-0.732-0.734-1.537-1.537-2.24-2.24
			c-0.633-0.633-1.174-1.176-1.52-1.521c-3.06,0.572-5.708,1.531-6.928,2.021L35.36,37.111l0.598,0.438c0,0,0.105,0.057,0.105-0.061
			c0-0.105,0-10.881,0-12.523c2.686-1.982,6.251-3.252,9.831-3.252c2.977,0,5.393,0.697,6.28,0.994V46.176z"/>
	</g>
</g>
</svg>
