<?xml version="1.0" encoding="utf-8"?>
<!-- Generator: Adobe Illustrator 16.0.0, SVG Export Plug-In . SVG Version: 6.00 Build 0)  -->
<!DOCTYPE svg PUBLIC "-//W3C//DTD SVG 1.1//EN" "http://www.w3.org/Graphics/SVG/1.1/DTD/svg11.dtd">
<svg version="1.1" id="Layer_1" xmlns="http://www.w3.org/2000/svg" xmlns:xlink="http://www.w3.org/1999/xlink" x="0px" y="0px"
	 width="16px" height="16px" viewBox="0 0 16 16" enable-background="new 0 0 16 16" xml:space="preserve">
<g>
	<path fill="#0E3253" d="M15.02,5.817c-0.002-0.03-0.007-0.058-0.017-0.085c-0.004-0.01-0.006-0.02-0.011-0.029
		c-0.016-0.034-0.034-0.065-0.062-0.092l-4.357-4.356c-0.079-0.08-0.193-0.108-0.302-0.082C10.25,1.168,10.23,1.16,10.208,1.16h-5.2
		c-0.562,0-1.002,0.577-1.002,1.313v5.405l0.642-0.641V2.473c0-0.384,0.191-0.671,0.36-0.671h5.018v3.041
		c0,0.736,0.433,1.314,0.983,1.314h3.373v7.549c0,0.378-0.193,0.671-0.36,0.671H5.008c-0.103,0-0.216-0.112-0.287-0.287
		l-0.472,0.473c0.183,0.278,0.451,0.457,0.759,0.457h9.014c0.562,0,1.002-0.576,1.002-1.313V5.836
		C15.023,5.83,15.021,5.824,15.02,5.817z M11.009,5.516c-0.14,0-0.341-0.262-0.341-0.672V2.374l3.242,3.142H11.009z"/>
	<path fill="#0E3253" d="M6.181,4.553h2.425c0.177,0,0.321-0.144,0.321-0.321c0-0.177-0.145-0.321-0.321-0.321H6.181
		c-0.178,0-0.321,0.144-0.321,0.321C5.86,4.409,6.003,4.553,6.181,4.553z"/>
	<path fill="#0E3253" d="M6.181,6.3h2.425c0.177,0,0.321-0.145,0.321-0.321c0-0.178-0.145-0.321-0.321-0.321H6.181
		c-0.178,0-0.321,0.144-0.321,0.321C5.86,6.156,6.003,6.3,6.181,6.3z"/>
	<path fill="#0E3253" d="M9.515,8.867h3.619c0.178,0,0.32-0.144,0.32-0.32c0-0.178-0.143-0.321-0.32-0.321H9.515
		c-0.178,0-0.32,0.143-0.32,0.321C9.194,8.724,9.337,8.867,9.515,8.867z"/>
	<path fill="#0E3253" d="M9.515,10.614h3.619c0.178,0,0.32-0.144,0.32-0.319c0-0.178-0.143-0.322-0.32-0.322H9.515
		c-0.178,0-0.32,0.145-0.32,0.322C9.194,10.471,9.337,10.614,9.515,10.614z"/>
	<path fill="#0E3253" d="M9.515,12.361h3.619c0.178,0,0.32-0.144,0.32-0.32c0-0.179-0.143-0.321-0.32-0.321H9.515
		c-0.178,0-0.32,0.143-0.32,0.321C9.194,12.218,9.337,12.361,9.515,12.361z"/>
	<g>
		<path fill="#00B7C0" d="M4.106,12.345c-0.009,0.013-0.014,0.028-0.025,0.039l-1.265,1.265c-0.15,0.151-0.413,0.151-0.563,0
			l-0.44-0.44c-0.155-0.155-0.155-0.408,0-0.563l0.958-0.957c0.004-0.005,0.008-0.011,0.013-0.016l1.126-1.126
			c-0.467-0.22-1.061-0.146-1.437,0.229l-1.265,1.266c-0.489,0.487-0.489,1.284,0,1.772l0.44,0.441
			c0.237,0.236,0.552,0.366,0.887,0.366s0.649-0.13,0.887-0.366l1.266-1.267c0.392-0.391,0.464-0.979,0.227-1.449L4.106,12.345z"/>
		<path fill="#00B7C0" d="M7.981,7.913l-0.439-0.44c-0.476-0.474-1.301-0.474-1.775,0L4.502,8.738
			c-0.391,0.391-0.463,0.976-0.23,1.444l0.824-0.824c0.004-0.005,0.006-0.011,0.011-0.016l1.266-1.265
			c0.075-0.075,0.175-0.117,0.281-0.117c0.106,0,0.206,0.042,0.282,0.117l0.44,0.441c0.156,0.155,0.156,0.408,0,0.562L6.11,10.348
			c-0.003,0.002-0.009,0.003-0.013,0.007l-0.827,0.828c0.172,0.087,0.36,0.137,0.559,0.137c0.335,0,0.65-0.131,0.887-0.368
			l1.266-1.265C8.47,9.198,8.47,8.402,7.981,7.913z"/>
		<path fill="#00B7C0" d="M2.98,12.474C3.063,12.557,3.173,12.6,3.282,12.6s0.219-0.043,0.302-0.126l0.56-0.559l0.613-0.612
			l0.276-0.276l0.615-0.614l0.498-0.498c0.167-0.166,0.167-0.438,0-0.604C6.098,9.262,6.04,9.231,5.98,9.211
			C5.935,9.196,5.89,9.184,5.843,9.184c-0.11,0-0.219,0.042-0.303,0.126L5.042,9.808l-0.614,0.613l-0.277,0.276l-0.613,0.613
			L2.98,11.868C2.812,12.035,2.812,12.306,2.98,12.474z"/>
	</g>
</g>
</svg>
