<?xml version="1.0" encoding="utf-8"?>
<!-- Generator: Adobe Illustrator 16.0.0, SVG Export Plug-In . SVG Version: 6.00 Build 0)  -->
<!DOCTYPE svg PUBLIC "-//W3C//DTD SVG 1.1//EN" "http://www.w3.org/Graphics/SVG/1.1/DTD/svg11.dtd">
<svg version="1.1" id="Layer_1" xmlns="http://www.w3.org/2000/svg" xmlns:xlink="http://www.w3.org/1999/xlink" x="0px" y="0px"
	 width="45px" height="40px" viewBox="0 0 45 40" enable-background="new 0 0 45 40" xml:space="preserve">
<g>
	<path fill="#FFFFFF" d="M28.423,34.947c0.063,0,0.131,0,0.205,0c0.022,0,0.043-0.007,0.065-0.012H28.29
		C28.335,34.94,28.378,34.947,28.423,34.947z"/>
	<g>
		<path fill="#FFFFFF" d="M10.131,31.644c-1.388,0-2.519-1.129-2.519-2.508V6.563c0-1.387,1.131-2.512,2.519-2.512h17.612
			c1.392,0,2.518,1.125,2.518,2.512l0.002,15.715l3.302-3.873V4.15c0-1.826-1.484-3.309-3.31-3.309H7.5
			c-1.756,0-3.187,1.425-3.187,3.173v27.619c0,1.825,1.483,3.303,3.317,3.303h16.043l-3.831-3.292H10.131z"/>
		<path fill="#FFFFFF" d="M18.169,23.501c0.98-1.134,2.391-1.779,3.878-1.779c1.212,0,2.385,0.432,3.306,1.218l1.055,0.908
			c0.818-0.082,1.453-0.739,1.453-1.58c0-0.889-0.722-1.602-1.622-1.602H11.633c-0.897,0-1.619,0.713-1.619,1.602
			c0,0.898,0.722,1.597,1.619,1.597h6.284C18.003,23.745,18.07,23.616,18.169,23.501z"/>
		<path fill="#FFFFFF" d="M11.633,25.871c-0.897,0-1.619,0.705-1.619,1.6c0,0.896,0.722,1.617,1.619,1.617h5.849
			c-0.494-1-0.626-2.133-0.423-3.217H11.633z"/>
		<path fill="#FFFFFF" d="M40.583,18.027c-1.107-0.95-2.791-0.815-3.74,0.302l-3.277,3.842l-3.302,3.873l-2.137,2.503l-0.433-0.373
			l-2.681-2.304l-1.25-1.074c-1.109-0.946-2.782-0.813-3.738,0.294c-0.203,0.236-0.346,0.502-0.453,0.78
			c-0.385,1.017-0.127,2.207,0.743,2.958l0.302,0.259l2.975,2.556l3.095,2.662c0.458,0.386,1.014,0.602,1.602,0.63h0.403
			c0.677-0.075,1.307-0.397,1.744-0.912l3.128-3.666l7.327-8.592C41.833,20.657,41.708,18.983,40.583,18.027z"/>
		<path fill="#FFFFFF" d="M26.566,18.11h-0.481v-3.66c0-0.056-0.031-0.108-0.081-0.132l-2.639-1.337
			c-0.099-0.051-0.215,0.021-0.215,0.133v0.843c0,0.11-0.115,0.182-0.212,0.134l-2.282-1.115c-0.099-0.048-0.213,0.023-0.213,0.133
			v0.848c0,0.11-0.114,0.182-0.213,0.134l-2.281-1.115c-0.099-0.048-0.213,0.023-0.213,0.133v5.001h-0.41V8.187
			c0-0.083-0.067-0.147-0.148-0.147h-0.352c-0.083,0-0.148-0.067-0.148-0.149V5.986c0-0.081-0.066-0.148-0.147-0.148h-3.153
			c-0.083,0-0.149,0.067-0.149,0.148V7.89c0,0.083-0.064,0.149-0.147,0.149h-0.351c-0.083,0-0.15,0.064-0.15,0.147v9.923h-0.345
			c-0.083,0-0.148,0.067-0.148,0.149v0.388c0,0.082,0.066,0.147,0.148,0.147h14.333c0.081,0,0.148-0.066,0.148-0.147v-0.388
			C26.714,18.177,26.647,18.11,26.566,18.11L26.566,18.11z M13.065,16.544V9.101c0-0.082,0.066-0.148,0.147-0.148h0.304
			c0.08,0,0.146,0.067,0.146,0.148v7.443c0,0.083-0.066,0.149-0.146,0.149h-0.304C13.132,16.693,13.065,16.626,13.065,16.544
			L13.065,16.544z M14.509,18.11h-1.252v-0.392c0-0.083,0.066-0.147,0.148-0.147h0.956c0.082,0,0.148,0.064,0.148,0.147V18.11z
			 M14.722,16.544c0,0.083-0.066,0.149-0.148,0.149h-0.302c-0.082,0-0.147-0.066-0.147-0.149V9.101c0-0.082,0.065-0.148,0.147-0.148
			h0.302c0.083,0,0.148,0.067,0.148,0.148V16.544z M15.181,16.544V9.101c0-0.082,0.066-0.148,0.149-0.148h0.302
			c0.083,0,0.148,0.067,0.148,0.148v7.443c0,0.083-0.065,0.149-0.148,0.149H15.33C15.247,16.693,15.181,16.626,15.181,16.544
			L15.181,16.544z M16.646,18.11h-1.252v-0.392c0-0.083,0.066-0.147,0.149-0.147h0.955c0.082,0,0.148,0.064,0.148,0.147V18.11z
			 M16.837,16.544c0,0.083-0.066,0.149-0.147,0.149h-0.303c-0.082,0-0.149-0.066-0.149-0.149V9.101c0-0.082,0.067-0.148,0.149-0.148
			h0.303c0.081,0,0.147,0.067,0.147,0.148V16.544z M19.67,17.199c0,0.081-0.067,0.147-0.148,0.147h-0.395
			c-0.083,0-0.148-0.066-0.148-0.147v-1.216c0-0.082,0.066-0.148,0.148-0.148h0.395c0.081,0,0.148,0.067,0.148,0.148V17.199z
			 M22.27,17.199c0,0.081-0.067,0.147-0.149,0.147h-0.394c-0.083,0-0.15-0.066-0.15-0.147v-1.216c0-0.082,0.067-0.148,0.15-0.148
			h0.394c0.082,0,0.149,0.067,0.149,0.148V17.199z M24.868,17.199c0,0.081-0.065,0.147-0.147,0.147h-0.395
			c-0.082,0-0.148-0.066-0.148-0.147v-1.216c0-0.082,0.067-0.148,0.148-0.148h0.395c0.082,0,0.147,0.067,0.147,0.148V17.199z
			 M24.868,17.199"/>
	</g>
</g>
</svg>
