<?xml version="1.0" encoding="utf-8"?>
<!-- Generator: Adobe Illustrator 16.0.0, SVG Export Plug-In . SVG Version: 6.00 Build 0)  -->
<!DOCTYPE svg PUBLIC "-//W3C//DTD SVG 1.1//EN" "http://www.w3.org/Graphics/SVG/1.1/DTD/svg11.dtd">
<svg version="1.1" id="Layer_1" xmlns="http://www.w3.org/2000/svg" xmlns:xlink="http://www.w3.org/1999/xlink" x="0px" y="0px"
	 width="45px" height="40px" viewBox="0 0 45 40" enable-background="new 0 0 45 40" xml:space="preserve">
<g>
	<path fill="#FFFFFF" d="M38.168,30.83c-0.374-0.375-0.377-0.984,0-1.358l4.429-4.428c0.755-0.755,0.755-1.981,0-2.734l-0.598-0.6
		c-0.754-0.754-1.984-0.754-2.735,0.002l-4.43,4.427c-0.376,0.375-0.98,0.375-1.358,0l-4.429-4.429
		c-0.755-0.754-1.984-0.754-2.737,0l-0.595,0.6c-0.757,0.753-0.753,1.979,0,2.734l4.429,4.428c0.374,0.376,0.374,0.983,0,1.358
		l-4.429,4.432c-0.753,0.751-0.753,1.978,0,2.735l0.595,0.595c0.753,0.754,1.982,0.754,2.737,0l4.429-4.427
		c0.373-0.379,0.982-0.376,1.358,0l4.428,4.427c0.753,0.754,1.98,0.756,2.737,0l0.598-0.595c0.755-0.758,0.755-1.986,0-2.74
		L38.168,30.83z"/>
	<path fill="#FFFFFF" d="M23.321,34.209c0.008,0,0.016,0.004,0.021,0.004c0.066,0,0.121-0.027,0.18-0.035
		c-0.006-0.002-0.008-0.005-0.016-0.005C23.448,34.197,23.385,34.201,23.321,34.209z"/>
	<circle fill="#FFFFFF" cx="17.198" cy="7.997" r="7.156"/>
	<path fill="#FFFFFF" d="M28.105,30.153l-3.749-3.751c-1.504-1.502-1.504-3.951,0-5.453l0.598-0.597
		c0.977-0.978,2.348-1.308,3.604-1.017c-1.356-1.341-3.224-2.172-5.282-2.172h-0.077l-0.256,3.331
		c-0.035,0.469-0.372,0.857-0.833,0.949l-1.913,0.39l0.472,1.387c0.088,0.268,0.068,0.561-0.062,0.812c0,0-1.857,3.638-2.476,4.852
		c-0.002,0.002-0.306,0.48-0.913,0.48c-0.746,0-0.948-0.479-0.948-0.479c-0.622-1.216-2.479-4.854-2.479-4.854
		c-0.126-0.251-0.149-0.544-0.059-0.812l0.469-1.386l-1.911-0.388c-0.457-0.094-0.799-0.479-0.837-0.946l-0.258-3.336H11.12
		c-4.159,0-7.531,3.374-7.531,7.531l0.888,8.454c0,1.167,0.947,2.113,2.112,2.113h16.896c0.19-0.495,0.472-0.963,0.871-1.36
		L28.105,30.153z M23.342,34.213c-0.005,0-0.013-0.004-0.021-0.004c0.063-0.008,0.127-0.012,0.185-0.036
		c0.008,0,0.01,0.003,0.016,0.005C23.463,34.186,23.408,34.213,23.342,34.213z"/>
	<path fill="#FFFFFF" d="M18.617,20.019l2.303-0.468l0.185-2.387h-7.812l0.185,2.387l2.305,0.468
		c0.291,0.059,0.548,0.243,0.697,0.505c0.149,0.262,0.181,0.57,0.083,0.854l-0.708,2.096l1.344,2.632l1.348-2.632l-0.712-2.096
		c-0.095-0.284-0.062-0.592,0.083-0.854C18.066,20.261,18.32,20.078,18.617,20.019z"/>
</g>
</svg>
