<?xml version="1.0" encoding="utf-8"?>
<!-- Generator: Adobe Illustrator 16.0.0, SVG Export Plug-In . SVG Version: 6.00 Build 0)  -->
<!DOCTYPE svg PUBLIC "-//W3C//DTD SVG 1.1//EN" "http://www.w3.org/Graphics/SVG/1.1/DTD/svg11.dtd">
<svg version="1.1" id="Layer_1" xmlns="http://www.w3.org/2000/svg" xmlns:xlink="http://www.w3.org/1999/xlink" x="0px" y="0px"
	 width="45px" height="40px" viewBox="0 0 45 40" enable-background="new 0 0 45 40" xml:space="preserve">
<g>
	<g>
		<path fill="#FFFFFF" d="M37.127,4.15c0-1.826-1.484-3.309-3.31-3.309H11.061c-1.756,0-3.187,1.427-3.187,3.174v27.618
			c0,1.825,1.484,3.303,3.317,3.303h22.621c1.825,0,3.315-1.478,3.315-3.303V4.15z M33.826,29.136c0,1.379-1.123,2.508-2.521,2.508
			H13.692c-1.388,0-2.518-1.129-2.518-2.508V6.564c0-1.387,1.13-2.513,2.518-2.513h17.613c1.393,0,2.519,1.126,2.519,2.513
			L33.826,29.136z M33.826,29.136"/>
		<path fill="#FFFFFF" d="M15.195,23.864h14.607c0.899,0,1.621-0.698,1.621-1.597c0-0.889-0.722-1.602-1.621-1.602H15.195
			c-0.898,0-1.619,0.713-1.619,1.602C13.577,23.166,14.297,23.864,15.195,23.864L15.195,23.864z M15.195,23.864"/>
		<path fill="#FFFFFF" d="M15.195,29.088h14.607c0.899,0,1.621-0.722,1.621-1.617c0-0.893-0.722-1.6-1.621-1.6H15.195
			c-0.898,0-1.619,0.707-1.619,1.6C13.577,28.366,14.297,29.088,15.195,29.088L15.195,29.088z M15.195,29.088"/>
		<path fill="#FFFFFF" d="M29.666,18.11h-0.48v-3.66c0-0.056-0.032-0.108-0.082-0.132l-2.64-1.337
			c-0.098-0.05-0.213,0.022-0.213,0.133v0.843c0,0.111-0.117,0.183-0.214,0.136l-2.281-1.116c-0.098-0.049-0.212,0.022-0.212,0.132
			v0.848c0,0.111-0.117,0.183-0.214,0.136l-2.282-1.116c-0.098-0.049-0.213,0.022-0.213,0.132v5.001h-0.411V8.187
			c0-0.082-0.066-0.148-0.148-0.148h-0.351c-0.083,0-0.148-0.066-0.148-0.148V5.987c0-0.082-0.067-0.149-0.148-0.149h-3.153
			c-0.083,0-0.149,0.067-0.149,0.149V7.89c0,0.083-0.067,0.148-0.147,0.148h-0.352c-0.082,0-0.148,0.066-0.148,0.148v9.923h-0.347
			c-0.083,0-0.149,0.067-0.149,0.149v0.388c0,0.082,0.066,0.147,0.149,0.147h14.333c0.081,0,0.147-0.066,0.147-0.147v-0.388
			C29.813,18.177,29.747,18.11,29.666,18.11L29.666,18.11z M16.165,16.544V9.102c0-0.083,0.067-0.149,0.149-0.149h0.301
			c0.082,0,0.148,0.066,0.148,0.149v7.442c0,0.083-0.066,0.149-0.148,0.149h-0.301C16.231,16.693,16.165,16.626,16.165,16.544
			L16.165,16.544z M17.608,18.11h-1.251v-0.392c0-0.082,0.065-0.148,0.148-0.148h0.956c0.082,0,0.147,0.066,0.147,0.148V18.11z
			 M17.822,16.544c0,0.083-0.066,0.149-0.149,0.149h-0.301c-0.082,0-0.149-0.066-0.149-0.149V9.102c0-0.083,0.067-0.149,0.149-0.149
			h0.301c0.083,0,0.149,0.066,0.149,0.149V16.544z M18.282,16.544V9.102c0-0.083,0.065-0.149,0.147-0.149h0.303
			c0.082,0,0.148,0.066,0.148,0.149v7.442c0,0.083-0.067,0.149-0.148,0.149h-0.303C18.347,16.693,18.282,16.626,18.282,16.544
			L18.282,16.544z M19.747,18.11h-1.253v-0.392c0-0.082,0.067-0.148,0.149-0.148h0.954c0.083,0,0.149,0.066,0.149,0.148V18.11z
			 M19.938,16.544c0,0.083-0.067,0.149-0.147,0.149h-0.302c-0.083,0-0.147-0.066-0.147-0.149V9.102c0-0.083,0.064-0.149,0.147-0.149
			h0.302c0.081,0,0.147,0.066,0.147,0.149V16.544z M22.771,17.199c0,0.082-0.066,0.147-0.149,0.147h-0.395
			c-0.082,0-0.148-0.065-0.148-0.147v-1.216c0-0.082,0.066-0.147,0.148-0.147h0.395c0.083,0,0.149,0.065,0.149,0.147V17.199z
			 M25.371,17.199c0,0.082-0.067,0.147-0.15,0.147h-0.394c-0.082,0-0.149-0.065-0.149-0.147v-1.216c0-0.082,0.067-0.147,0.149-0.147
			h0.394c0.083,0,0.15,0.065,0.15,0.147V17.199z M27.969,17.199c0,0.082-0.067,0.147-0.148,0.147h-0.394
			c-0.083,0-0.149-0.065-0.149-0.147v-1.216c0-0.082,0.067-0.147,0.149-0.147h0.394c0.082,0,0.148,0.065,0.148,0.147V17.199z
			 M27.969,17.199"/>
	</g>
</g>
</svg>
