<?xml version="1.0" encoding="utf-8"?>
<!-- Generator: Adobe Illustrator 16.0.0, SVG Export Plug-In . SVG Version: 6.00 Build 0)  -->
<!DOCTYPE svg PUBLIC "-//W3C//DTD SVG 1.1//EN" "http://www.w3.org/Graphics/SVG/1.1/DTD/svg11.dtd">
<svg version="1.1" id="Layer_1" xmlns="http://www.w3.org/2000/svg" xmlns:xlink="http://www.w3.org/1999/xlink" x="0px" y="0px"
	 width="45px" height="40px" viewBox="0 0 45 40" enable-background="new 0 0 45 40" xml:space="preserve">
<g>
	<path fill="#FFFFFF" d="M4.035,22.557l8.331,8.447c1.341,1.359,3.529,1.375,4.888,0.033c1.358-1.341,1.373-3.529,0.033-4.888
		l-2.529-2.563h8.915c1.908,0,3.455-1.549,3.455-3.456c0-1.908-1.547-3.456-3.455-3.456h-8.717l2.576-2.527
		c1.363-1.335,1.385-3.523,0.048-4.886c-0.677-0.69-1.573-1.037-2.468-1.037c-0.873,0-1.746,0.33-2.418,0.989l-8.617,8.449
		c-0.654,0.643-1.028,1.521-1.036,2.44C3.031,21.018,3.39,21.901,4.035,22.557z"/>
	<path fill="#FFFFFF" d="M38.311,0.841H15.339c-1.773,0-3.218,1.44-3.218,3.203v2.989c0.885-0.572,1.914-0.882,2.989-0.882
		c0.131,0,0.256,0.029,0.385,0.038c0.206-1.195,1.245-2.108,2.499-2.108h17.781c1.404,0,2.541,1.138,2.541,2.537l0.002,22.786
		c0,1.394-1.133,2.532-2.543,2.532H19.203c-0.153,0.199-0.309,0.396-0.492,0.578c-1.042,1.027-2.422,1.592-3.883,1.592
		c-0.778,0-1.526-0.166-2.218-0.468c0.586,0.969,1.642,1.621,2.86,1.621h22.834c1.844,0,3.348-1.489,3.348-3.335V4.181
		C41.652,2.338,40.154,0.841,38.311,0.841z"/>
	<path fill="#FFFFFF" d="M34.258,23.823c0.908,0,1.635-0.706,1.635-1.612c0-0.896-0.727-1.617-1.635-1.617h-5.082
		c-0.104,1.237-0.619,2.357-1.404,3.229H34.258z"/>
	<path fill="#FFFFFF" d="M20.288,29.354h13.97c0.908,0,1.635-0.729,1.635-1.632c0-0.902-0.727-1.614-1.635-1.614H19.753
		C20.259,27.124,20.442,28.254,20.288,29.354z"/>
	<path fill="#FFFFFF" d="M20.52,12.778h13.738c0.908,0,1.635-0.706,1.635-1.612c0-0.898-0.727-1.617-1.635-1.617H20.209
		c0.286,0.684,0.438,1.423,0.431,2.188C20.637,12.092,20.588,12.438,20.52,12.778z"/>
	<path fill="#FFFFFF" d="M28.883,18.308h5.375c0.908,0,1.635-0.726,1.635-1.63c0-0.902-0.727-1.615-1.635-1.615h-8.385
		C27.275,15.674,28.373,16.854,28.883,18.308z"/>
</g>
</svg>
