<?xml version="1.0" encoding="utf-8"?>
<!-- Generator: Adobe Illustrator 16.0.0, SVG Export Plug-In . SVG Version: 6.00 Build 0)  -->
<!DOCTYPE svg PUBLIC "-//W3C//DTD SVG 1.1//EN" "http://www.w3.org/Graphics/SVG/1.1/DTD/svg11.dtd">
<svg version="1.1" id="Layer_1" xmlns="http://www.w3.org/2000/svg" xmlns:xlink="http://www.w3.org/1999/xlink" x="0px" y="0px"
	 width="17px" height="17px" viewBox="0 0 17 17" enable-background="new 0 0 17 17" xml:space="preserve">
<g>
	<path fill="#00B7C0" d="M15.855,0.938c-0.763-0.496-1.834-0.3-2.305,0.419l-5.679,8.719L5.033,6.803
		c-0.591-0.685-1.718-0.765-2.401-0.17c-0.709,0.613-0.788,1.689-0.173,2.4l4.33,4.991c0.337,0.39,0.829,0.604,1.343,0.586
		c0.114-0.003,0.224-0.022,0.331-0.048c0.012-0.003,0.021-0.006,0.033-0.01c0.095-0.024,0.191-0.058,0.283-0.1
		c0.043-0.021,0.089-0.042,0.132-0.065c0.081-0.046,0.157-0.099,0.229-0.158c0.016-0.011,0.033-0.021,0.051-0.035l0,0
		c0.177-0.155,0.312-0.34,0.413-0.539l6.804-10.439C16.891,2.473,16.642,1.453,15.855,0.938z"/>
	<path fill="#0E3253" d="M14.06,14.266c0,0.616-0.502,1.117-1.116,1.117H2.416c-0.615,0-1.116-0.501-1.116-1.117V3.741
		c0-0.617,0.501-1.118,1.116-1.118h9.456l0.62-0.954H2.416c-1.142,0-2.07,0.93-2.07,2.072v10.524c0,1.142,0.928,2.071,2.07,2.071
		h10.527c1.14,0,2.069-0.93,2.069-2.071V6.667L14.06,8.13V14.266z"/>
</g>
</svg>
