<?xml version="1.0" encoding="utf-8"?>
<!-- Generator: Adobe Illustrator 16.0.0, SVG Export Plug-In . SVG Version: 6.00 Build 0)  -->
<!DOCTYPE svg PUBLIC "-//W3C//DTD SVG 1.1//EN" "http://www.w3.org/Graphics/SVG/1.1/DTD/svg11.dtd">
<svg version="1.1" id="Layer_1" xmlns="http://www.w3.org/2000/svg" xmlns:xlink="http://www.w3.org/1999/xlink" x="0px" y="0px"
	 width="17px" height="17px" viewBox="0 0 17 17" enable-background="new 0 0 17 17" xml:space="preserve">
<g>
	<path fill="#00AFB8" d="M16.536,14.133l-3.72-3.717c0.588-1.023,0.898-2.187,0.898-3.397c0-1.833-0.712-3.556-2.009-4.85
		C10.412,0.873,8.688,0.16,6.859,0.16c-1.834,0-3.558,0.713-4.85,2.009C0.711,3.462,0,5.188,0,7.019
		c0,1.832,0.712,3.554,2.009,4.851c1.292,1.295,3.016,2.008,4.85,2.008c1.367,0,2.676-0.399,3.792-1.142l3.641,3.642
		c0.309,0.31,0.714,0.465,1.122,0.465c0.405,0,0.813-0.155,1.121-0.465C17.154,15.756,17.154,14.752,16.536,14.133L16.536,14.133z
		 M10.398,10.561c-0.945,0.945-2.206,1.469-3.541,1.469c-1.342,0-2.596-0.522-3.543-1.469C2.368,9.613,1.848,8.357,1.848,7.019
		c0-1.339,0.52-2.595,1.466-3.542C4.26,2.53,5.517,2.009,6.859,2.009c1.335,0,2.594,0.522,3.542,1.468
		C12.352,5.429,12.352,8.608,10.398,10.561L10.398,10.561z"/>
	<g>
		<g>
			<defs>
				<circle id="SVGID_1_" cx="6.852" cy="6.985" r="4.343"/>
			</defs>
			<clipPath id="SVGID_2_">
				<use xlink:href="#SVGID_1_"  overflow="visible"/>
			</clipPath>
			<g clip-path="url(#SVGID_2_)">
				<path fill="#EC1464" d="M8.695,6.984l2.95-2.955c0.513-0.508,0.513-1.329,0-1.842c-0.506-0.502-1.328-0.502-1.84,0l-2.951,2.96
					l-2.957-2.96c-0.506-0.502-1.333-0.502-1.835,0C1.806,2.444,1.675,2.773,1.675,3.108c0,0.334,0.131,0.669,0.388,0.921
					l2.95,2.955l-2.95,2.956c-0.513,0.508-0.513,1.328,0,1.836c0.25,0.257,0.585,0.383,0.92,0.383c0.329,0,0.659-0.126,0.915-0.383
					l2.957-2.957l2.95,2.957c0.512,0.508,1.334,0.508,1.842,0c0.512-0.508,0.512-1.328,0-1.836L8.695,6.984z"/>
			</g>
		</g>
	</g>
</g>
</svg>
