<?xml version="1.0" encoding="utf-8"?>
<!-- Generator: Adobe Illustrator 16.0.0, SVG Export Plug-In . SVG Version: 6.00 Build 0)  -->
<!DOCTYPE svg PUBLIC "-//W3C//DTD SVG 1.1//EN" "http://www.w3.org/Graphics/SVG/1.1/DTD/svg11.dtd">
<svg version="1.1" id="Layer_1" xmlns="http://www.w3.org/2000/svg" xmlns:xlink="http://www.w3.org/1999/xlink" x="0px" y="0px"
	 width="60px" height="55px" viewBox="0 0 60 55" enable-background="new 0 0 60 55" xml:space="preserve">
<g>
	
		<rect x="11.413" y="5.345" transform="matrix(-0.8351 -0.5501 0.5501 -0.8351 10.124 45.6451)" fill="#00B0BA" width="0.98" height="31.92"/>
	<g>
		<defs>
			<rect id="SVGID_1_" x="1.045" y="0.959" width="58.361" height="54.041"/>
		</defs>
		<clipPath id="SVGID_2_">
			<use xlink:href="#SVGID_1_"  overflow="visible"/>
		</clipPath>
		<path clip-path="url(#SVGID_2_)" fill="#003057" d="M22.885,22.33c-0.44,0-0.799-0.36-0.799-0.802
			c0-0.442,0.358-0.798,0.799-0.798c0.443,0,0.802,0.356,0.802,0.798C23.687,21.969,23.328,22.33,22.885,22.33 M20.68,22.33
			c-0.443,0-0.799-0.36-0.799-0.802c0-0.442,0.355-0.798,0.799-0.798s0.799,0.356,0.799,0.798
			C21.479,21.969,21.123,22.33,20.68,22.33 M18.617,22.33c-0.441,0-0.801-0.36-0.801-0.802c0-0.442,0.359-0.798,0.801-0.798
			s0.797,0.356,0.797,0.798C19.414,21.969,19.059,22.33,18.617,22.33 M34.991,19.168H18.23c-1.128,0-2.047,0.922-2.047,2.053v2.365
			v6.582l1.117,0.768c0.016-0.007,0.024-0.011,0.035-0.016v-7.334h18.553v19.641c0,0.49-0.405,0.897-0.897,0.897h-8.798
			l-0.287,0.286c-0.209,0.217-0.506,0.337-0.815,0.337c-0.237,0-0.459-0.067-0.647-0.196l-0.617-0.427h-1.252l-0.213,1.152h12.63
			c1.126,0,2.046-0.92,2.046-2.05V23.586v-2.365C37.037,20.09,36.117,19.168,34.991,19.168"/>
		<path clip-path="url(#SVGID_2_)" fill="#003057" d="M19.129,28.005h3.246c0.334,0,0.604-0.262,0.604-0.601
			c0-0.333-0.271-0.603-0.604-0.603h-3.246c-0.334,0-0.607,0.269-0.607,0.603C18.521,27.743,18.795,28.005,19.129,28.005"/>
		<path clip-path="url(#SVGID_2_)" fill="#003057" d="M33.981,33.989c0-0.337-0.271-0.607-0.606-0.607h-6.121l-0.679,0.996
			c0.034,0.068,0.061,0.143,0.089,0.215h6.711C33.708,34.593,33.981,34.319,33.981,33.989"/>
		<path clip-path="url(#SVGID_2_)" fill="#003057" d="M33.375,37.882c0.333,0,0.606-0.269,0.606-0.602
			c0-0.335-0.273-0.607-0.606-0.607h-4.09v1.209H33.375z"/>
		<path clip-path="url(#SVGID_2_)" fill="#003057" d="M27.234,41.17h6.141c0.333,0,0.603-0.269,0.603-0.602s-0.27-0.605-0.603-0.605
			h-6.713c-0.032,0.076-0.062,0.156-0.096,0.234L27.234,41.17z"/>
		<path clip-path="url(#SVGID_2_)" fill="#003057" d="M26.56,28.011h6.815c0.333,0,0.601-0.272,0.601-0.604
			c0-0.336-0.268-0.603-0.601-0.603H26.56c-0.337,0-0.605,0.267-0.605,0.603C25.954,27.738,26.226,28.011,26.56,28.011"/>
		<path clip-path="url(#SVGID_2_)" fill="#003057" d="M33.981,30.698c0-0.337-0.271-0.605-0.606-0.605H26.56
			c-0.188,0-0.348,0.091-0.46,0.226l0.986,0.983h6.289C33.708,31.3,33.981,31.033,33.981,30.698"/>
		<path clip-path="url(#SVGID_2_)" fill="#003057" d="M20.224,40.489c-1.773,0-3.211-1.438-3.211-3.212
			c0-1.771,1.439-3.21,3.211-3.21c1.774,0,3.208,1.439,3.208,3.21C23.432,39.051,21.994,40.489,20.224,40.489 M27.603,35.964
			l-1.853-0.349c-0.111-0.376-0.263-0.733-0.443-1.072l1.072-1.567c0.102-0.145,0.074-0.367-0.045-0.488l-1.324-1.323
			c-0.125-0.125-0.344-0.144-0.486-0.046l-1.57,1.076c-0.348-0.188-0.719-0.341-1.104-0.457l-0.343-1.843
			c-0.038-0.171-0.206-0.312-0.382-0.312h-1.871c-0.178,0-0.343,0.142-0.375,0.312l-0.352,1.862
			c-0.369,0.111-0.725,0.264-1.062,0.446l-1.55-1.062c-0.141-0.098-0.355-0.079-0.486,0.043l-1.321,1.325
			c-0.122,0.123-0.144,0.344-0.044,0.488l1.064,1.557c-0.184,0.337-0.322,0.69-0.436,1.062l-1.85,0.349
			c-0.176,0.033-0.316,0.202-0.316,0.376v1.872c0,0.177,0.143,0.341,0.316,0.378l1.85,0.343c0.113,0.381,0.263,0.742,0.447,1.087
			l-1.053,1.54c-0.102,0.145-0.081,0.36,0.044,0.486l1.325,1.323c0.121,0.127,0.338,0.142,0.486,0.046l1.54-1.055
			c0.331,0.181,0.68,0.325,1.048,0.438l0.348,1.863c0.032,0.171,0.199,0.311,0.377,0.311h1.869c0.181,0,0.346-0.143,0.382-0.311
			l0.345-1.845c0.386-0.113,0.752-0.265,1.093-0.447l1.562,1.065c0.143,0.1,0.365,0.081,0.488-0.041l1.316-1.324
			c0.128-0.122,0.143-0.344,0.052-0.485L25.3,40.031c0.185-0.349,0.339-0.716,0.452-1.099l1.851-0.343
			c0.18-0.037,0.315-0.201,0.315-0.378V36.34C27.916,36.168,27.78,35.997,27.603,35.964"/>
		<path clip-path="url(#SVGID_2_)" fill="#003057" d="M47.576,26.786c0.205,1.205,0.314,2.439,0.314,3.701
			c0,12.318-10.018,22.338-22.336,22.338c-12.316,0-22.338-10.02-22.338-22.338c0-12.313,10.021-22.333,22.338-22.333
			c3.385,0,6.591,0.758,9.469,2.11c0.072-0.086,0.134-0.182,0.218-0.263c0.536-0.539,1.199-0.899,1.919-1.093
			c-3.457-1.865-7.41-2.927-11.605-2.927C12.041,5.984,1.044,16.974,1.044,30.485C1.044,44.004,12.041,55,25.555,55
			c13.515,0,24.507-10.996,24.507-24.515c0-1.425-0.13-2.82-0.365-4.179c-0.601,0.311-1.262,0.494-1.957,0.496
			C47.685,26.802,47.632,26.786,47.576,26.786"/>
		<path clip-path="url(#SVGID_2_)" fill="#00B0BA" d="M50.349,10.427l0.005-6.857c0-1.436-1.176-2.609-2.614-2.614
			c-1.397,0-2.607,1.216-2.611,2.614l0.004,6.857l-6.856-0.002c-1.398,0.006-2.616,1.219-2.616,2.611
			c0.005,0.702,0.275,1.359,0.767,1.85c0.491,0.488,1.149,0.764,1.85,0.764l6.856-0.002v6.859c0,0.699,0.265,1.352,0.762,1.845
			c0.498,0.496,1.146,0.764,1.846,0.764c0.696,0,1.351-0.272,1.844-0.766c0.494-0.491,0.771-1.151,0.771-1.845v-6.854h6.442
			c1.401,0,2.614-1.214,2.61-2.613c0-1.436-1.171-2.609-2.607-2.609H50.349z"/>
	</g>
</g>
</svg>
