<?xml version="1.0" encoding="utf-8"?>
<!-- Generator: Adobe Illustrator 16.0.0, SVG Export Plug-In . SVG Version: 6.00 Build 0)  -->
<!DOCTYPE svg PUBLIC "-//W3C//DTD SVG 1.1//EN" "http://www.w3.org/Graphics/SVG/1.1/DTD/svg11.dtd">
<svg version="1.1" id="Layer_1" xmlns="http://www.w3.org/2000/svg" xmlns:xlink="http://www.w3.org/1999/xlink" x="0px" y="0px"
	 width="16px" height="16px" viewBox="0 0 16 16" enable-background="new 0 0 16 16" xml:space="preserve">
<g>
	<path fill="#0E3253" d="M15.061,5.792c-0.002-0.029-0.008-0.058-0.019-0.085c-0.004-0.01-0.006-0.02-0.01-0.029
		c-0.016-0.034-0.036-0.065-0.064-0.093L10.613,1.23c-0.08-0.08-0.193-0.108-0.302-0.082c-0.022-0.005-0.042-0.013-0.062-0.013h-5.2
		c-0.562,0-1.003,0.577-1.003,1.314v4.503h0.642V2.45c0-0.385,0.19-0.672,0.361-0.672h5.016v3.041c0,0.737,0.432,1.313,0.984,1.313
		h3.372v7.548c0,0.377-0.194,0.672-0.36,0.672H5.365L4.776,14.94c0.087,0.031,0.178,0.053,0.273,0.053h9.012
		c0.562,0,1.003-0.576,1.003-1.312V5.812C15.064,5.805,15.061,5.799,15.061,5.792z M11.05,5.491c-0.142,0-0.342-0.262-0.342-0.672
		V2.35l3.241,3.141H11.05z"/>
	<path fill="#0E3253" d="M6.221,4.528h2.425c0.177,0,0.321-0.144,0.321-0.321S8.822,3.887,8.646,3.887H6.221
		c-0.177,0-0.32,0.144-0.32,0.321S6.044,4.528,6.221,4.528z"/>
	<path fill="#0E3253" d="M6.221,6.275h2.425c0.177,0,0.321-0.144,0.321-0.321S8.822,5.633,8.646,5.633H6.221
		c-0.177,0-0.32,0.145-0.32,0.322S6.044,6.275,6.221,6.275z"/>
	<path fill="#0E3253" d="M9.555,8.842h3.618c0.179,0,0.32-0.144,0.32-0.321c0-0.177-0.142-0.32-0.32-0.32H9.555
		c-0.176,0-0.32,0.144-0.32,0.32C9.234,8.698,9.379,8.842,9.555,8.842z"/>
	<path fill="#0E3253" d="M9.555,10.589h3.618c0.179,0,0.32-0.143,0.32-0.32s-0.142-0.322-0.32-0.322H9.555
		c-0.176,0-0.32,0.145-0.32,0.322S9.379,10.589,9.555,10.589z"/>
	<path fill="#0E3253" d="M9.555,12.335h3.618c0.179,0,0.32-0.143,0.32-0.32s-0.142-0.32-0.32-0.32H9.555
		c-0.176,0-0.32,0.143-0.32,0.32S9.379,12.335,9.555,12.335z"/>
	<path fill="#00B7C0" d="M8.009,11.054c0,0.119-0.172,0.24-0.207,0.266c-0.091,0.08-2.556,2.691-2.916,2.93
		c-0.131,0.088-0.262,0.104-0.349,0.102c-0.209-0.008-0.353-0.113-0.369-0.125L1.16,11.368c-0.044-0.025-0.224-0.148-0.224-0.266
		c0-0.055,0.035-0.178,0.374-0.178h1.552v-3c-0.002-0.01-0.005-0.022-0.005-0.038c0-0.04,0.024-0.238,0.471-0.238h2.385
		c0.33,0,0.418,0.155,0.418,0.238v2.965h1.423C7.949,10.853,8.009,10.979,8.009,11.054L8.009,11.054z M7.721,11.054h0.145H7.721z
		 M7.721,11.054"/>
</g>
</svg>
