<?xml version="1.0" encoding="utf-8"?>
<!-- Generator: Adobe Illustrator 16.0.0, SVG Export Plug-In . SVG Version: 6.00 Build 0)  -->
<!DOCTYPE svg PUBLIC "-//W3C//DTD SVG 1.1//EN" "http://www.w3.org/Graphics/SVG/1.1/DTD/svg11.dtd">
<svg version="1.1" id="Layer_1" xmlns="http://www.w3.org/2000/svg" xmlns:xlink="http://www.w3.org/1999/xlink" x="0px" y="0px"
	 width="16px" height="16px" viewBox="0 0 16 16" enable-background="new 0 0 16 16" xml:space="preserve">
<g>
	<g>
		<path fill="#0E3253" d="M15.019,5.811C15.017,5.781,15.012,5.752,15,5.725c-0.002-0.01-0.004-0.02-0.009-0.029
			c-0.017-0.034-0.035-0.065-0.062-0.092L10.59,1.264c-0.081-0.08-0.194-0.107-0.301-0.081c-0.021-0.004-0.042-0.013-0.064-0.013
			H5.045c-0.561,0-0.999,0.575-0.999,1.309v11.192c0,0.732,0.438,1.309,0.999,1.309h8.977c0.561,0,1.001-0.576,1.001-1.309V5.83
			C15.023,5.823,15.019,5.817,15.019,5.811z M10.683,2.379l3.231,3.13h-2.891c-0.139,0-0.341-0.26-0.341-0.67V2.379z M14.022,14.339
			H5.045c-0.167,0-0.36-0.292-0.36-0.668V2.479c0-0.383,0.19-0.669,0.36-0.669h4.999v3.03c0,0.734,0.431,1.31,0.979,1.31h3.36v7.521
			C14.384,14.047,14.189,14.339,14.022,14.339z"/>
		<path fill="#0E3253" d="M8.629,3.912H6.212c-0.176,0-0.319,0.143-0.319,0.32c0,0.176,0.143,0.319,0.319,0.319h2.417
			c0.176,0,0.32-0.143,0.32-0.319C8.949,4.055,8.805,3.912,8.629,3.912z"/>
		<path fill="#0E3253" d="M8.629,5.652H6.212c-0.176,0-0.319,0.143-0.319,0.32c0,0.176,0.143,0.319,0.319,0.319h2.417
			c0.176,0,0.32-0.144,0.32-0.319C8.949,5.795,8.805,5.652,8.629,5.652z"/>
		<path fill="#0E3253" d="M13.141,8.21H9.535c-0.177,0-0.32,0.143-0.32,0.319c0,0.177,0.144,0.32,0.32,0.32h3.605
			c0.176,0,0.319-0.143,0.319-0.32C13.46,8.353,13.316,8.21,13.141,8.21z"/>
		<path fill="#0E3253" d="M13.141,9.95H9.535c-0.177,0-0.32,0.144-0.32,0.32s0.144,0.319,0.32,0.319h3.605
			c0.176,0,0.319-0.143,0.319-0.319S13.316,9.95,13.141,9.95z"/>
		<path fill="#0E3253" d="M13.141,11.691H9.535c-0.177,0-0.32,0.143-0.32,0.319c0,0.176,0.144,0.319,0.32,0.319h3.605
			c0.176,0,0.319-0.144,0.319-0.319C13.46,11.834,13.316,11.691,13.141,11.691z"/>
	</g>
	<g>
		<path fill="#0E3253" d="M15.019,5.811C15.017,5.781,15.012,5.752,15,5.725c-0.002-0.01-0.004-0.02-0.009-0.029
			c-0.017-0.034-0.035-0.065-0.062-0.092L10.59,1.264c-0.081-0.08-0.194-0.107-0.301-0.081c-0.021-0.004-0.042-0.013-0.064-0.013
			H5.045c-0.561,0-0.999,0.575-0.999,1.309v11.192c0,0.732,0.438,1.309,0.999,1.309h8.977c0.561,0,1.001-0.576,1.001-1.309V5.83
			C15.023,5.823,15.019,5.817,15.019,5.811z M10.683,2.379l3.231,3.13h-2.891c-0.139,0-0.341-0.26-0.341-0.67V2.379z M14.022,14.339
			H5.045c-0.167,0-0.36-0.292-0.36-0.668V2.479c0-0.383,0.19-0.669,0.36-0.669h4.999v3.03c0,0.734,0.431,1.31,0.979,1.31h3.36v7.521
			C14.384,14.047,14.189,14.339,14.022,14.339z"/>
		<path fill="#0E3253" d="M8.629,3.912H6.212c-0.176,0-0.319,0.143-0.319,0.32c0,0.176,0.143,0.319,0.319,0.319h2.417
			c0.176,0,0.32-0.143,0.32-0.319C8.949,4.055,8.805,3.912,8.629,3.912z"/>
		<path fill="#0E3253" d="M8.629,5.652H6.212c-0.176,0-0.319,0.143-0.319,0.32c0,0.176,0.143,0.319,0.319,0.319h2.417
			c0.176,0,0.32-0.144,0.32-0.319C8.949,5.795,8.805,5.652,8.629,5.652z"/>
		<path fill="#0E3253" d="M13.149,8.21H6.417c-0.171,0-0.31,0.143-0.31,0.319c0,0.177,0.139,0.32,0.31,0.32h6.732
			c0.172,0,0.311-0.143,0.311-0.32C13.46,8.353,13.321,8.21,13.149,8.21z"/>
		<path fill="#0E3253" d="M13.141,9.95H6.212c-0.176,0-0.319,0.144-0.319,0.32s0.143,0.319,0.319,0.319h6.928
			c0.176,0,0.319-0.143,0.319-0.319S13.316,9.95,13.141,9.95z"/>
		<path fill="#0E3253" d="M13.141,11.691H6.212c-0.176,0-0.319,0.143-0.319,0.319c0,0.176,0.143,0.319,0.319,0.319h6.928
			c0.176,0,0.319-0.144,0.319-0.319C13.46,11.834,13.316,11.691,13.141,11.691z"/>
	</g>
</g>
</svg>
