<?xml version="1.0" encoding="utf-8"?>
<!-- Generator: Adobe Illustrator 16.0.0, SVG Export Plug-In . SVG Version: 6.00 Build 0)  -->
<!DOCTYPE svg PUBLIC "-//W3C//DTD SVG 1.1//EN" "http://www.w3.org/Graphics/SVG/1.1/DTD/svg11.dtd">
<svg version="1.1" id="Layer_1" xmlns="http://www.w3.org/2000/svg" xmlns:xlink="http://www.w3.org/1999/xlink" x="0px" y="0px"
	 width="16px" height="16px" viewBox="0 0 16 16" enable-background="new 0 0 16 16" xml:space="preserve">
<g>
	<path fill="#0E3253" d="M15.019,5.828c-0.002-0.03-0.008-0.059-0.017-0.086c-0.005-0.009-0.006-0.019-0.011-0.029
		c-0.015-0.034-0.035-0.065-0.063-0.092l-4.35-4.352c-0.081-0.08-0.194-0.107-0.302-0.081c-0.021-0.005-0.042-0.013-0.064-0.013
		H5.018c-0.562,0-1.001,0.576-1.001,1.312V7.68h0.641V2.488c0-0.384,0.191-0.671,0.361-0.671h5.012v3.038
		c0,0.737,0.431,1.313,0.981,1.313h3.371v7.541c0,0.378-0.194,0.671-0.362,0.671H9.732v0.641h4.288c0.562,0,1.003-0.576,1.003-1.312
		V5.847C15.023,5.839,15.02,5.835,15.019,5.828z M11.012,5.527c-0.138,0-0.339-0.262-0.339-0.672V2.387l3.238,3.14H11.012z"/>
	<path fill="#0E3253" d="M8.611,3.924H6.189c-0.177,0-0.32,0.144-0.32,0.32c0,0.177,0.143,0.321,0.32,0.321h2.422
		c0.177,0,0.32-0.144,0.32-0.321C8.932,4.067,8.789,3.924,8.611,3.924z"/>
	<path fill="#0E3253" d="M8.611,5.669H6.189c-0.177,0-0.32,0.143-0.32,0.32s0.143,0.321,0.32,0.321h2.422
		c0.177,0,0.32-0.144,0.32-0.321S8.789,5.669,8.611,5.669z"/>
	<path fill="#0E3253" d="M10.098,8.875h3.037c0.178,0,0.321-0.144,0.321-0.32c0-0.177-0.144-0.321-0.321-0.321h-3.037
		c-0.178,0-0.321,0.144-0.321,0.321C9.776,8.731,9.92,8.875,10.098,8.875z"/>
	<path fill="#0E3253" d="M10.098,10.621h3.037c0.178,0,0.321-0.144,0.321-0.321c0-0.177-0.144-0.32-0.321-0.32h-3.037
		c-0.178,0-0.321,0.144-0.321,0.32C9.776,10.478,9.92,10.621,10.098,10.621z"/>
	<path fill="#0E3253" d="M10.098,12.365h3.037c0.178,0,0.321-0.143,0.321-0.32s-0.144-0.321-0.321-0.321h-3.037
		c-0.178,0-0.321,0.144-0.321,0.321S9.92,12.365,10.098,12.365z"/>
	<g>
		<circle fill="#00B7C0" cx="4.26" cy="9.979" r="0.962"/>
		<path fill="#00B7C0" d="M8.475,8.205H1.687c-0.444,0-0.806,0.387-0.806,0.862v5.189c0,0.474,0.362,0.859,0.806,0.859h6.788
			c0.445,0,0.807-0.386,0.807-0.859V9.066C9.281,8.591,8.92,8.205,8.475,8.205z M1.687,8.846h6.788c0.091,0,0.166,0.101,0.166,0.22
			v2.774l-0.908-0.793c0,0-0.348-0.393-0.722,0c-0.374,0.392-2.129,1.888-2.129,1.888L3.92,12.152c0,0-0.303-0.464-0.649,0
			c-0.272,0.361-1.309,1.337-1.749,1.745V9.066C1.522,8.947,1.597,8.846,1.687,8.846z"/>
	</g>
</g>
</svg>
