<?xml version="1.0" encoding="utf-8"?>
<!-- Generator: Adobe Illustrator 16.0.0, SVG Export Plug-In . SVG Version: 6.00 Build 0)  -->
<!DOCTYPE svg PUBLIC "-//W3C//DTD SVG 1.1//EN" "http://www.w3.org/Graphics/SVG/1.1/DTD/svg11.dtd">
<svg version="1.1" id="Layer_1" xmlns="http://www.w3.org/2000/svg" xmlns:xlink="http://www.w3.org/1999/xlink" x="0px" y="0px"
	 width="16px" height="16px" viewBox="0 0 16 16" enable-background="new 0 0 16 16" xml:space="preserve">
<g>
	<path fill="#0E3253" d="M15.014,5.817c-0.002-0.03-0.008-0.058-0.018-0.086c-0.004-0.01-0.006-0.02-0.012-0.029
		c-0.014-0.033-0.033-0.065-0.061-0.092l-4.357-4.356c-0.078-0.08-0.193-0.107-0.301-0.081c-0.021-0.004-0.043-0.013-0.064-0.013
		H5.002C4.44,1.16,4,1.737,4,2.473v3.906c0.208-0.043,0.423-0.065,0.642-0.072V2.473c0-0.384,0.19-0.671,0.361-0.671h5.017v3.042
		c0,0.736,0.432,1.314,0.982,1.314h3.373v7.548c0,0.378-0.193,0.672-0.361,0.672H5.002c-0.13,0-0.275-0.179-0.334-0.436
		c-0.224-0.006-0.444-0.027-0.657-0.071c0.062,0.655,0.472,1.148,0.991,1.148h9.011c0.562,0,1.004-0.577,1.004-1.313V5.837
		C15.018,5.829,15.014,5.824,15.014,5.817z M11.002,5.516c-0.139,0-0.34-0.262-0.34-0.672v-2.47l3.242,3.142H11.002z"/>
	<path fill="#0E3253" d="M6.174,4.553h2.425c0.177,0,0.321-0.144,0.321-0.321S8.776,3.911,8.599,3.911H6.174
		c-0.178,0-0.321,0.144-0.321,0.321S5.997,4.553,6.174,4.553z"/>
	<path fill="#0E3253" d="M6.174,6.3h2.425c0.177,0,0.321-0.144,0.321-0.321S8.776,5.658,8.599,5.658H6.174
		c-0.178,0-0.321,0.144-0.321,0.321S5.997,6.3,6.174,6.3z"/>
	<path fill="#0E3253" d="M9.508,8.867h3.619c0.178,0,0.32-0.144,0.32-0.321c0-0.177-0.143-0.32-0.32-0.32H9.508
		c-0.178,0-0.32,0.144-0.32,0.32C9.188,8.724,9.33,8.867,9.508,8.867z"/>
	<path fill="#0E3253" d="M9.508,10.614h3.619c0.178,0,0.32-0.144,0.32-0.32c0-0.178-0.143-0.321-0.32-0.321H9.508
		c-0.178,0-0.32,0.144-0.32,0.321C9.188,10.471,9.33,10.614,9.508,10.614z"/>
	<path fill="#0E3253" d="M9.508,12.361h3.619c0.178,0,0.32-0.144,0.32-0.321c0-0.177-0.143-0.32-0.32-0.32H9.508
		c-0.178,0-0.32,0.144-0.32,0.32C9.188,12.218,9.33,12.361,9.508,12.361z"/>
	<path fill="#00B7C0" d="M5.102,6.972c-1.765,0-3.201,1.436-3.201,3.201c0,0.503,0.12,0.977,0.328,1.4l-1.518,1.519
		c-0.197,0.196-0.305,0.457-0.305,0.735s0.109,0.54,0.305,0.735c0.196,0.197,0.457,0.306,0.736,0.306
		c0.278,0,0.539-0.108,0.736-0.306l1.518-1.518c0.424,0.208,0.898,0.328,1.401,0.328c1.765,0,3.2-1.436,3.2-3.2
		C8.302,8.408,6.867,6.972,5.102,6.972z M5.102,12.011c-1.014,0-1.839-0.824-1.839-1.838c0-1.015,0.825-1.839,1.839-1.839
		S6.94,9.158,6.94,10.173C6.94,11.187,6.116,12.011,5.102,12.011z"/>
</g>
</svg>
