<?xml version="1.0" encoding="utf-8"?>
<!-- Generator: Adobe Illustrator 16.0.0, SVG Export Plug-In . SVG Version: 6.00 Build 0)  -->
<!DOCTYPE svg PUBLIC "-//W3C//DTD SVG 1.1//EN" "http://www.w3.org/Graphics/SVG/1.1/DTD/svg11.dtd">
<svg version="1.1" id="Layer_1" xmlns="http://www.w3.org/2000/svg" xmlns:xlink="http://www.w3.org/1999/xlink" x="0px" y="0px"
	 width="23px" height="23px" viewBox="0 0 23 23" enable-background="new 0 0 23 23" xml:space="preserve">
<g>
	<g>
		<path fill="#00B7C0" d="M17.783,5.134c0-0.981-0.698-1.781-1.56-1.781H5.501c-0.83,0-1.502,0.768-1.502,1.709v14.873
			c0,0.984,0.698,1.779,1.562,1.779h10.66c0.859,0,1.562-0.795,1.562-1.779V5.134z M16.227,18.586c0,0.747-0.53,1.354-1.189,1.354
			H6.74c-0.656,0-1.189-0.606-1.189-1.354V6.436c0-0.749,0.533-1.355,1.189-1.355h8.298c0.658,0,1.187,0.606,1.187,1.355
			L16.227,18.586z M16.227,18.586"/>
		<path fill="#00B7C0" d="M7.517,9.1H14.4c0.425,0,0.766-0.381,0.766-0.861c0-0.481-0.341-0.87-0.766-0.87H7.517
			c-0.421,0-0.761,0.388-0.761,0.87C6.756,8.718,7.096,9.1,7.517,9.1L7.517,9.1z M7.517,9.1"/>
		<path fill="#00B7C0" d="M7.517,11.994H14.4c0.425,0,0.766-0.379,0.766-0.858c0-0.488-0.341-0.867-0.766-0.867H7.517
			c-0.421,0-0.761,0.379-0.761,0.867C6.756,11.615,7.096,11.994,7.517,11.994L7.517,11.994z M7.517,11.994"/>
		<path fill="#00B7C0" d="M7.517,14.89H14.4c0.425,0,0.766-0.377,0.766-0.86c0-0.479-0.341-0.863-0.766-0.863H7.517
			c-0.421,0-0.761,0.384-0.761,0.863C6.756,14.513,7.096,14.89,7.517,14.89L7.517,14.89z M7.517,14.89"/>
		<path fill="#00B7C0" d="M7.517,17.701H14.4c0.425,0,0.766-0.388,0.766-0.871c0-0.48-0.341-0.86-0.766-0.86H7.517
			c-0.421,0-0.761,0.38-0.761,0.86C6.756,17.313,7.096,17.701,7.517,17.701L7.517,17.701z M7.517,17.701"/>
	</g>
</g>
</svg>
