<?xml version="1.0" encoding="utf-8"?>
<!-- Generator: Adobe Illustrator 16.0.0, SVG Export Plug-In . SVG Version: 6.00 Build 0)  -->
<!DOCTYPE svg PUBLIC "-//W3C//DTD SVG 1.1//EN" "http://www.w3.org/Graphics/SVG/1.1/DTD/svg11.dtd">
<svg version="1.1" id="Layer_1" xmlns="http://www.w3.org/2000/svg" xmlns:xlink="http://www.w3.org/1999/xlink" x="0px" y="0px"
	 width="23px" height="23px" viewBox="0 0 23 23" enable-background="new 0 0 23 23" xml:space="preserve">
<g>
	<g>
		<path fill="#00B7C0" d="M2.562,8.229c0.154-0.056,0.321-0.092,0.495-0.092h16.887c0.173,0,0.341,0.036,0.495,0.092l-7.564,7.197
			c-0.77,0.733-1.977,0.733-2.75,0L2.562,8.229z M21.161,21.017c0.13-0.218,0.212-0.472,0.212-0.744V9.583
			c0-0.197-0.041-0.377-0.107-0.549l-7.082,6.732L21.161,21.017z M13.545,16.365c-0.59,0.511-1.314,0.769-2.046,0.769
			c-0.73,0-1.457-0.258-2.045-0.769l-6.957,5.235c0.171,0.072,0.36,0.113,0.559,0.113h16.887c0.199,0,0.388-0.041,0.557-0.113
			L13.545,16.365z M1.736,9.034c-0.07,0.171-0.109,0.352-0.109,0.549v10.69c0,0.272,0.082,0.526,0.212,0.744l6.973-5.251
			L1.736,9.034z M1.736,9.034"/>
	</g>
</g>
</svg>
