<?xml version="1.0" encoding="utf-8"?>
<!-- Generator: Adobe Illustrator 16.0.0, SVG Export Plug-In . SVG Version: 6.00 Build 0)  -->
<!DOCTYPE svg PUBLIC "-//W3C//DTD SVG 1.1//EN" "http://www.w3.org/Graphics/SVG/1.1/DTD/svg11.dtd">
<svg version="1.1" id="Layer_1" xmlns="http://www.w3.org/2000/svg" xmlns:xlink="http://www.w3.org/1999/xlink" x="0px" y="0px"
	 width="23px" height="23px" viewBox="0 0 23 23" enable-background="new 0 0 23 23" xml:space="preserve">
<g>
	<g>
		<path fill="#00B7C0" d="M8.001,10.507c0.181-0.116,0.388-0.224,0.622-0.318c0.23-0.094,0.482-0.177,0.746-0.243
			C9.47,9.522,9.599,9.127,9.766,8.78c0.082-0.173,0.174-0.33,0.269-0.472C9.086,8.72,8.342,9.52,8.001,10.507L8.001,10.507z
			 M8.001,10.507"/>
		<path fill="#00B7C0" d="M8.957,11.01c-0.588,0.237-0.851,0.518-0.851,0.691c0,0.172,0.263,0.454,0.851,0.691
			c0.082,0.031,0.17,0.067,0.264,0.097c-0.026-0.258-0.039-0.521-0.039-0.788c0-0.269,0.013-0.531,0.039-0.787
			C9.127,10.942,9.039,10.976,8.957,11.01L8.957,11.01z M8.957,11.01"/>
		<path fill="#00B7C0" d="M10.418,13.64c0.062,0.203,0.132,0.393,0.218,0.563c0.253,0.532,0.579,0.852,0.865,0.852
			c0.287,0,0.609-0.319,0.865-0.852c0.083-0.171,0.155-0.36,0.217-0.563c-0.349,0.041-0.712,0.06-1.082,0.06
			C11.13,13.699,10.766,13.681,10.418,13.64L10.418,13.64z M10.418,13.64"/>
		<path fill="#00B7C0" d="M12.583,9.758c-0.062-0.2-0.134-0.39-0.217-0.561c-0.256-0.533-0.578-0.852-0.865-0.852
			c-0.286,0-0.612,0.319-0.865,0.852c-0.086,0.171-0.156,0.36-0.218,0.561c0.348-0.041,0.712-0.06,1.083-0.06
			C11.871,9.699,12.234,9.718,12.583,9.758L12.583,9.758z M12.583,9.758"/>
		<path fill="#00B7C0" d="M9.369,13.452c-0.264-0.065-0.516-0.147-0.746-0.24c-0.234-0.095-0.441-0.203-0.622-0.317
			c0.341,0.986,1.085,1.786,2.033,2.198c-0.095-0.145-0.187-0.301-0.269-0.472C9.599,14.272,9.47,13.881,9.369,13.452L9.369,13.452z
			 M9.369,13.452"/>
		<path fill="#00B7C0" d="M13.63,13.452c-0.097,0.429-0.232,0.82-0.395,1.169c-0.085,0.171-0.174,0.327-0.27,0.472
			c0.952-0.412,1.693-1.212,2.031-2.198c-0.181,0.114-0.385,0.223-0.618,0.317C14.147,13.305,13.896,13.387,13.63,13.452
			L13.63,13.452z M13.63,13.452"/>
		<path fill="#00B7C0" d="M16.22,3.262H6.781c-1.164,0-2.105,0.942-2.105,2.106v14.238c0,1.163,0.941,2.107,2.105,2.107h9.438
			c1.161,0,2.104-0.944,2.104-2.107V5.368C18.324,4.204,17.381,3.262,16.22,3.262L16.22,3.262z M15.273,18.635H7.726
			c-0.374,0-0.68-0.306-0.68-0.682c0-0.377,0.306-0.681,0.68-0.681h7.548c0.375,0,0.68,0.304,0.68,0.681
			C15.953,18.329,15.648,18.635,15.273,18.635L15.273,18.635z M11.501,16.309c-2.541,0-4.608-2.067-4.608-4.608
			c0-2.543,2.067-4.608,4.608-4.608s4.608,2.065,4.608,4.608C16.109,14.241,14.042,16.309,11.501,16.309L11.501,16.309z
			 M11.501,16.309"/>
		<path fill="#00B7C0" d="M11.501,10.585c-0.448,0-0.885,0.034-1.284,0.094c-0.051,0.326-0.072,0.669-0.072,1.021
			c0,0.351,0.021,0.695,0.072,1.02c0.399,0.06,0.836,0.093,1.284,0.093c0.447,0,0.882-0.033,1.288-0.093
			c0.044-0.325,0.066-0.669,0.066-1.02c0-0.353-0.022-0.695-0.066-1.021C12.383,10.62,11.948,10.585,11.501,10.585L11.501,10.585z
			 M11.501,10.585"/>
		<path fill="#00B7C0" d="M12.966,8.309c0.096,0.142,0.185,0.299,0.27,0.472c0.162,0.347,0.298,0.742,0.395,1.166
			c0.267,0.066,0.518,0.149,0.749,0.243c0.233,0.094,0.438,0.202,0.618,0.318C14.659,9.52,13.918,8.72,12.966,8.309L12.966,8.309z
			 M12.966,8.309"/>
		<path fill="#00B7C0" d="M14.046,12.392c0.583-0.237,0.844-0.519,0.844-0.691c0-0.173-0.261-0.454-0.844-0.691
			c-0.086-0.034-0.171-0.068-0.263-0.096c0.023,0.255,0.036,0.518,0.036,0.787c0,0.267-0.013,0.53-0.036,0.788
			C13.875,12.459,13.96,12.423,14.046,12.392L14.046,12.392z M14.046,12.392"/>
	</g>
</g>
</svg>
