<?xml version="1.0" encoding="utf-8"?>
<!-- Generator: Adobe Illustrator 16.0.0, SVG Export Plug-In . SVG Version: 6.00 Build 0)  -->
<!DOCTYPE svg PUBLIC "-//W3C//DTD SVG 1.1//EN" "http://www.w3.org/Graphics/SVG/1.1/DTD/svg11.dtd">
<svg version="1.1" id="Layer_1" xmlns="http://www.w3.org/2000/svg" xmlns:xlink="http://www.w3.org/1999/xlink" x="0px" y="0px"
	 width="255px" height="110px" viewBox="0 0 255 110" enable-background="new 0 0 255 110" xml:space="preserve">
<g>
	<g>
		<path fill="#003057" d="M158.515,56.529c-1.183-0.639-2.492-1.142-3.906-1.5c-1.384-0.354-2.658-0.756-3.808-1.188
			c-1.123-0.432-2.08-0.981-2.84-1.663c-0.721-0.643-1.064-1.555-1.064-2.792c0-0.432,0.083-0.923,0.275-1.433
			c0.185-0.515,0.499-1.001,0.945-1.442c0.456-0.461,1.07-0.829,1.826-1.129c0.761-0.284,1.741-0.431,2.915-0.431
			c1.22,0,2.325,0.236,3.271,0.712c0.951,0.48,1.678,1.094,2.198,1.874l0.217,0.329l4.101-3.621l-0.206-0.255
			c-1.266-1.486-2.748-2.492-4.416-2.983c-1.634-0.48-3.375-0.721-5.165-0.721c-1.984,0-3.71,0.299-5.139,0.888
			c-1.413,0.589-2.599,1.334-3.507,2.217c-0.908,0.884-1.595,1.874-2.017,2.944c-0.433,1.074-0.647,2.099-0.647,3.052
			c0,2.089,0.421,3.778,1.246,5.024c0.818,1.236,1.844,2.227,3.047,2.963c1.201,0.717,2.522,1.295,3.924,1.688
			c1.36,0.396,2.646,0.803,3.822,1.235c1.123,0.413,2.08,0.933,2.842,1.541c0.716,0.564,1.06,1.383,1.06,2.492
			c0,0.795-0.182,1.491-0.544,2.075c-0.369,0.608-0.854,1.128-1.434,1.535c-0.589,0.422-1.256,0.737-1.977,0.953
			c-2.022,0.599-3.99,0.343-5.819-0.472c-1.163-0.511-2.14-1.33-2.9-2.424l-0.205-0.304l-4.141,3.448l0.187,0.261
			c1.138,1.521,2.683,2.659,4.587,3.384c1.889,0.724,3.91,1.09,6.01,1.09c1.574,0,3.081-0.235,4.493-0.686
			c1.409-0.451,2.651-1.12,3.671-1.963c1.04-0.849,1.874-1.904,2.492-3.16c0.608-1.247,0.923-2.675,0.923-4.214
			c0-1.957-0.423-3.522-1.251-4.656C160.762,58.091,159.731,57.197,158.515,56.529z"/>
		<rect x="168.425" y="41.085" fill="#003057" width="4.936" height="31.989"/>
		<polygon fill="#003057" points="201.208,54.754 185.655,54.754 185.655,41.085 180.725,41.085 180.725,73.074 185.655,73.074 
			185.655,59.409 201.208,59.409 201.208,73.074 206.134,73.074 206.134,41.085 201.208,41.085 		"/>
		<path fill="#003057" d="M235.994,65.149c-0.912,1.282-2.036,2.292-3.335,2.998c-1.307,0.708-2.838,1.06-4.573,1.06
			c-1.767,0-3.381-0.312-4.775-0.94c-1.387-0.62-2.586-1.492-3.552-2.562c-0.966-1.088-1.723-2.354-2.231-3.788
			c-0.526-1.421-0.78-2.963-0.78-4.572c0-1.716,0.271-3.355,0.819-4.857c0.549-1.511,1.319-2.826,2.305-3.944
			c0.982-1.104,2.179-1.992,3.558-2.629c1.374-0.638,2.949-0.962,4.657-0.962c1.393,0,2.751,0.299,4.062,0.897
			c1.299,0.594,2.384,1.448,3.232,2.551l0.206,0.27l4.077-3.111l-0.206-0.274c-1.296-1.698-2.993-2.974-5.034-3.783
			c-2.021-0.8-4.105-1.217-6.207-1.217c-2.457,0-4.734,0.427-6.765,1.261c-2.041,0.843-3.808,2.036-5.26,3.552
			c-1.462,1.521-2.609,3.342-3.414,5.422c-0.82,2.08-1.218,4.371-1.218,6.824c0,2.013,0.379,4.019,1.119,5.981
			c0.746,1.967,1.854,3.754,3.276,5.314c1.414,1.549,3.17,2.835,5.192,3.786c2.03,0.962,4.337,1.452,6.849,1.452
			c1.824,0,3.463-0.24,4.862-0.705c1.393-0.472,2.595-1.011,3.597-1.629c0.98-0.609,1.785-1.236,2.404-1.865
			c0.588-0.609,1.009-1.079,1.265-1.433l0.195-0.265l-4.131-3.111L235.994,65.149z"/>
		<rect x="243.933" y="54.754" fill="#003057" width="4.666" height="18.32"/>
		<path fill="#003057" d="M248.824,49.631c0-1.422-1.145-2.561-2.557-2.561s-2.56,1.138-2.56,2.561c0,1.409,1.147,2.557,2.56,2.557
			S248.824,51.04,248.824,49.631z"/>
	</g>
	<g>
		<path fill="#00B0B9" d="M129.636,44.451c-3.159-10.578-17.074-31.273-27.506-38.76l-0.439-0.319l-0.527,0.059
			C41.179,12.354,5.603,43.734,5.247,44.049l-0.669,0.607l0.282,0.854c4.842,14.831,16.924,30.87,30.779,40.834l0.322,0.231
			l0.39,0.03c12.55,0.965,22.848,1.697,31.638,1.697c2.637,0,5.012-0.06,7.218-0.197c2.639,4.435,6.427,10.362,10.209,14.798
			l1.05,1.226l1.062-1.226c5.829-6.771,7.443-9.475,10.701-18.384c7.383-1.92,12.78-5.657,13.006-5.814l0.336-0.236l0.157-0.367
			c0.062-0.152,1.469-3.64,1.519-12.216c1.317-1.712,3.113-3.448,5.019-5.285c4.161-3.998,8.873-8.537,11.352-15.272l0.156-0.432
			L129.636,44.451z M45.018,79.418c1.903-3.459,4.425-8.071,7.295-13.286c0.689-0.211,1.386-0.428,2.087-0.639
			c3.354,2.057,6.881,4.155,10.557,6.256c-6.555,6.594-11.564,11.599-13.159,13.179c-0.831-0.055-1.685-0.108-2.544-0.167
			C47.812,82.926,46.401,81.14,45.018,79.418z M46.725,84.585c-1.428-0.103-2.878-0.208-4.37-0.311
			c0.433-0.779,0.999-1.82,1.681-3.075C44.922,82.297,45.815,83.437,46.725,84.585z M113.387,21.484
			c-2.512,3.018-7.362,8.233-13.287,14.429c1.182-5.495,2.404-11.245,3.638-17.226c2.034-0.271,4.192-0.56,6.722-0.908
			C111.446,18.968,112.424,20.209,113.387,21.484z M97.615,38.51c-2.772,2.88-5.726,5.921-8.75,9.017
			c-5.23-1.408-10.595-2.796-15.884-4.126c-1.759-1.938-3.474-3.793-5.112-5.539c3.219-5.843,6.29-11.403,8.919-16.117
			c12.972-1.344,18.769-1.997,24.978-2.806C100.351,25.787,98.957,32.328,97.615,38.51z M53.839,63.35
			c3.437-6.26,7.256-13.208,11.015-20.023c2.75,0.672,5.551,1.369,8.372,2.076c2.706,2.983,5.53,6.167,8.407,9.504
			c-0.076,0.083-0.162,0.161-0.241,0.24c-9.064,3.096-18.376,6.064-26.815,8.665C54.327,63.658,54.077,63.506,53.839,63.35z
			 M65.793,41.625c0.496-0.903,0.986-1.796,1.482-2.688c1.188,1.271,2.408,2.58,3.669,3.955
			C69.218,42.469,67.496,42.037,65.793,41.625z M75.258,45.923c3.726,0.941,7.504,1.918,12.101,3.14
			c-1.626,1.667-3.268,3.345-4.909,5.014C80.004,51.231,77.593,48.503,75.258,45.923z M89.449,49.642
			c1.433,0.383,2.851,0.775,4.259,1.168c-2.708,0.991-5.485,1.977-8.309,2.963C86.753,52.394,88.107,51.005,89.449,49.642z
			 M90.947,48.096c2.015-2.065,3.99-4.097,5.898-6.068c-0.547,2.482-1.083,4.906-1.599,7.256
			C93.825,48.886,92.395,48.494,90.947,48.096z M67.03,36.963c-5.118-5.44-9.489-9.871-12.58-12.952
			c8.581-0.863,15.379-1.55,20.917-2.129C72.888,26.366,70.024,31.537,67.03,36.963z M53.378,22.957
			c-0.849-0.849-1.572-1.546-2.156-2.115c8.79-3.503,18.767-6.731,29.867-9.209c-1.297,2.321-3.029,5.413-5.026,9.009
			C70.174,21.254,62.835,22,53.378,22.957z M51.875,23.109c-2.495,0.245-5.134,0.51-7.924,0.8c1.96-0.874,3.983-1.737,6.084-2.596
			C50.525,21.788,51.136,22.382,51.875,23.109z M40.666,25.405c4.453-0.441,8.527-0.859,12.283-1.232
			c3.16,3.121,7.887,7.895,13.49,13.865c-0.601,1.094-1.211,2.193-1.82,3.302c-16.77-4.077-31.657-7.33-37.894-8.669
			C30.782,30.331,35.438,27.857,40.666,25.405z M63.676,43.038c-3.689,6.707-7.44,13.531-10.825,19.695
			C34.567,51.32,21.831,41.345,17.876,38.142c1.909-1.261,4.057-2.63,6.444-4.062C28.574,34.982,44.897,38.484,63.676,43.038z
			 M52.11,64.072c-0.108,0.194-0.218,0.396-0.324,0.598c-5.633,1.712-10.796,3.247-15.133,4.519
			c-12.595-15.033-21.5-24.11-24.482-27.068c1.241-0.908,2.703-1.957,4.379-3.086C20.113,41.929,33.164,52.252,52.11,64.072z
			 M50.709,66.617c-2.51,4.572-4.74,8.645-6.482,11.814c-2.256-2.807-4.427-5.455-6.505-7.953
			C41.539,69.359,45.94,68.061,50.709,66.617z M56.346,64.896c7.178-2.218,14.939-4.691,22.615-7.268
			c-4.543,4.604-8.958,9.058-12.886,13.012C62.692,68.702,59.449,66.789,56.346,64.896z M82.87,56.348
			c2.784,3.254,5.622,6.648,8.454,10.147c-1.367,5.887-2.615,11.102-3.685,15.527c-6.984-3.381-13.634-6.898-19.866-10.416
			C72.358,66.99,77.583,61.726,82.87,56.348z M84.015,55.896c3.606-1.241,7.153-2.497,10.59-3.768
			c-1.033,4.592-2.019,8.904-2.954,12.928C89.101,61.907,86.54,58.851,84.015,55.896z M99.342,39.437
			c6.66-6.938,12.251-12.903,15.202-16.401c3.491,4.754,6.68,9.817,9.027,14.306c-5.208,3.606-14.974,7.885-26.461,12.202
			C97.832,46.295,98.575,42.93,99.342,39.437z M109.579,16.721c-2.058,0.284-3.871,0.53-5.581,0.755
			c0.37-1.825,0.753-3.679,1.128-5.548C106.594,13.365,108.087,14.984,109.579,16.721z M103.513,10.402
			c-0.498,2.477-0.996,4.925-1.499,7.334c-6.222,0.81-11.869,1.457-24.542,2.763c2.104-3.778,3.874-6.948,5.145-9.195
			c5.811-1.246,11.92-2.296,18.317-3.042C101.776,8.885,102.642,9.607,103.513,10.402z M10.651,43.253
			c2.682,2.66,11.45,11.535,24.027,26.514c-4.759,1.383-8.319,2.384-10.122,2.895c-7.507-8.233-13.573-17.894-16.76-27.132
			C8.374,45.05,9.344,44.264,10.651,43.253z M25.716,73.917c2.09-0.584,5.582-1.57,10.034-2.865
			c2.378,2.846,4.878,5.898,7.501,9.166c-0.941,1.712-1.688,3.056-2.176,3.965c-1.349-0.099-2.718-0.211-4.128-0.325
			C33.007,80.992,29.219,77.608,25.716,73.917z M76.719,85.217l-0.853,0.063c-2.379,0.167-4.956,0.256-7.877,0.256
			c-4.166,0-8.708-0.178-13.671-0.462c2.353-2.345,6.822-6.8,12.342-12.35c6.454,3.656,13.352,7.307,20.613,10.819
			c-1.469,6.064-2.59,10.509-3.24,13.051c-2.618-3.632-5.066-7.565-6.876-10.637L76.719,85.217z M86.491,99.843
			c-0.334-0.423-0.675-0.864-1.006-1.301c0.508-1.986,1.757-6.894,3.518-14.174c1.779,0.843,3.562,1.677,5.37,2.497
			C92.169,92.443,90.516,95.083,86.491,99.843z M96.855,82.008l-0.729,0.182l-0.257,0.696c-0.328,0.918-0.643,1.768-0.944,2.557
			c-1.872-0.849-3.719-1.712-5.546-2.585c1-4.16,2.161-9.019,3.437-14.494c3.111,3.892,6.199,7.91,9.209,11.99
			C100.454,80.983,98.709,81.562,96.855,82.008z M110.737,64.605l-0.265,0.363v0.452c0,6.73-0.868,10.185-1.19,11.249
			c-0.844,0.544-3.086,1.919-6.145,3.232c-3.266-4.438-6.611-8.775-9.985-12.985c1.089-4.681,2.26-9.788,3.489-15.273
			c7.504,2.129,14.493,4.288,20.307,6.379c-0.207,0.185-0.407,0.391-0.613,0.583C114.218,60.646,112.212,62.575,110.737,64.605z
			 M118.433,56.555c-5.487-2.002-12.104-4.077-19.238-6.147c10.777-4.112,19.935-8.184,25.076-11.687
			c1.117,2.237,2.01,4.313,2.577,6.083C124.953,49.652,121.683,53.341,118.433,56.555z"/>
		<g>
			<path fill="#003057" d="M103.957,7.08c-0.189,1.041-0.39,2.095-0.596,3.16c-0.463,2.439-0.949,4.95-1.457,7.521
				c-0.079,0.392-0.162,0.794-0.238,1.197c-1.263,6.334-2.645,12.962-4.07,19.605c-0.248,1.168-0.503,2.331-0.758,3.503
				c-0.518,2.413-1.053,4.823-1.577,7.207c-0.216,0.966-0.424,1.914-0.636,2.865c-0.495,2.213-0.983,4.4-1.478,6.569
				c-1.904,8.371-3.752,16.259-5.405,23.044c-0.027,0.094-0.041,0.188-0.069,0.271c-0.122,0.516-0.255,1.021-0.368,1.517
				c-1.26,5.138-2.399,9.543-3.312,12.948c-0.348,1.274-0.672,2.413-0.957,3.384c0.498,0.648,0.989,1.287,1.487,1.895
				c0.466-1.491,1.047-3.542,1.715-6.054c0.836-3.131,1.808-6.957,2.877-11.305c0.125-0.5,0.248-1.006,0.373-1.516
				c1.075-4.382,2.229-9.259,3.439-14.43c0.108-0.48,0.223-0.963,0.339-1.447c1.135-4.916,2.313-10.078,3.48-15.357
				c0.157-0.711,0.319-1.427,0.474-2.153c0.743-3.346,1.488-6.742,2.22-10.136c0.248-1.168,0.498-2.336,0.744-3.508
				c0.701-3.277,1.388-6.544,2.043-9.768c1.251-6.084,2.424-11.996,3.454-17.506C105.102,8.056,104.526,7.546,103.957,7.08z"/>
			<path fill="#003057" d="M103.161,79.89c-1.22-1.659-2.464-3.302-3.711-4.937c-17.577-22.966-36.878-42.9-46.049-52.007
				c-0.793-0.78-1.509-1.497-2.147-2.114c-0.915-0.903-1.636-1.6-2.178-2.119c-0.392,0.152-0.792,0.323-1.183,0.48
				c0.933,0.898,2.77,2.669,5.294,5.191c3.38,3.355,7.953,8.021,13.251,13.678c0.28,0.294,0.562,0.599,0.84,0.897
				c1.177,1.261,2.384,2.556,3.621,3.911c0.751,0.815,1.511,1.658,2.282,2.507c2.725,3.007,5.561,6.206,8.443,9.553
				c0.417,0.472,0.825,0.951,1.242,1.443c2.789,3.256,5.627,6.657,8.468,10.155c0.498,0.618,1.001,1.236,1.501,1.858
				c0.541,0.682,1.094,1.365,1.636,2.051c0.827,1.055,1.656,2.105,2.483,3.17c0.341,0.447,0.682,0.898,1.03,1.345
				c1.948,2.536,3.879,5.106,5.768,7.707c0.38-0.157,0.749-0.313,1.104-0.471C104.295,81.421,103.733,80.649,103.161,79.89z"/>
		</g>
	</g>
</g>
</svg>
