<?xml version="1.0" encoding="utf-8"?>
<!-- Generator: Adobe Illustrator 16.0.0, SVG Export Plug-In . SVG Version: 6.00 Build 0)  -->
<!DOCTYPE svg PUBLIC "-//W3C//DTD SVG 1.1//EN" "http://www.w3.org/Graphics/SVG/1.1/DTD/svg11.dtd">
<svg version="1.1" id="Layer_1" xmlns="http://www.w3.org/2000/svg" xmlns:xlink="http://www.w3.org/1999/xlink" x="0px" y="0px"
	 width="100px" height="43px" viewBox="0 -1.5 100 43" enable-background="new 0 -1.5 100 43" xml:space="preserve">
<g>
	<g>
		<path fill="#003057" d="M61.874,20.905c-0.451-0.244-0.952-0.439-1.493-0.576c-0.529-0.135-1.019-0.29-1.459-0.455
			c-0.429-0.165-0.796-0.375-1.085-0.636c-0.278-0.247-0.408-0.596-0.408-1.069c0-0.165,0.031-0.352,0.105-0.548
			c0.071-0.196,0.191-0.382,0.362-0.551c0.175-0.177,0.409-0.318,0.699-0.433c0.291-0.109,0.667-0.166,1.115-0.166
			c0.466,0,0.89,0.09,1.252,0.273c0.363,0.184,0.641,0.419,0.841,0.717l0.081,0.126l1.571-1.385l-0.079-0.098
			c-0.484-0.57-1.052-0.954-1.69-1.142c-0.625-0.184-1.291-0.276-1.976-0.276c-0.761,0-1.421,0.114-1.969,0.339
			c-0.539,0.226-0.992,0.511-1.34,0.849c-0.349,0.337-0.61,0.717-0.772,1.126c-0.164,0.412-0.246,0.804-0.246,1.167
			c0,0.8,0.16,1.446,0.476,1.922c0.314,0.473,0.706,0.853,1.166,1.133c0.46,0.275,0.966,0.497,1.503,0.646
			c0.521,0.153,1.012,0.309,1.461,0.473c0.431,0.158,0.798,0.358,1.089,0.589c0.274,0.216,0.404,0.531,0.404,0.955
			c0,0.304-0.069,0.571-0.208,0.794c-0.141,0.233-0.326,0.43-0.548,0.587c-0.226,0.161-0.48,0.282-0.758,0.365
			c-0.772,0.228-1.526,0.131-2.227-0.182c-0.444-0.194-0.816-0.509-1.108-0.929l-0.079-0.116l-1.585,1.322l0.069,0.099
			c0.437,0.583,1.027,1.018,1.758,1.295c0.722,0.278,1.496,0.417,2.299,0.417c0.602,0,1.18-0.088,1.72-0.262
			c0.539-0.173,1.017-0.429,1.406-0.752c0.397-0.325,0.717-0.728,0.952-1.209c0.233-0.478,0.354-1.023,0.354-1.611
			c0-0.75-0.161-1.35-0.479-1.784C62.734,21.502,62.341,21.16,61.874,20.905z"/>
		<rect x="65.668" y="14.994" fill="#003057" width="1.888" height="12.241"/>
		<polygon fill="#003057" points="78.212,20.225 72.262,20.225 72.262,14.994 70.373,14.994 70.373,27.235 72.262,27.235 
			72.262,22.006 78.212,22.006 78.212,27.235 80.098,27.235 80.098,14.994 78.212,14.994 		"/>
		<path fill="#003057" d="M91.524,24.202c-0.349,0.49-0.779,0.877-1.277,1.148c-0.5,0.269-1.086,0.405-1.751,0.405
			c-0.675,0-1.294-0.12-1.827-0.359c-0.53-0.238-0.988-0.572-1.358-0.98c-0.371-0.417-0.66-0.9-0.854-1.449
			c-0.2-0.545-0.298-1.135-0.298-1.752c0-0.656,0.104-1.284,0.312-1.857c0.21-0.579,0.505-1.082,0.883-1.509
			c0.376-0.423,0.834-0.763,1.361-1.006c0.526-0.245,1.129-0.369,1.782-0.369c0.534,0,1.054,0.115,1.555,0.344
			c0.497,0.227,0.912,0.554,1.237,0.977l0.078,0.104l1.561-1.19l-0.078-0.105c-0.497-0.65-1.146-1.138-1.926-1.448
			c-0.774-0.306-1.572-0.466-2.376-0.466c-0.939,0-1.811,0.164-2.589,0.483c-0.78,0.322-1.458,0.779-2.013,1.359
			c-0.56,0.583-1,1.279-1.306,2.075c-0.314,0.796-0.467,1.674-0.467,2.61c0,0.771,0.145,1.54,0.428,2.29
			c0.284,0.753,0.711,1.436,1.255,2.031c0.541,0.594,1.212,1.085,1.985,1.451c0.777,0.368,1.66,0.555,2.622,0.555
			c0.697,0,1.325-0.09,1.858-0.27c0.535-0.182,0.994-0.388,1.375-0.623c0.378-0.234,0.684-0.475,0.923-0.716
			c0.225-0.233,0.386-0.412,0.483-0.547l0.075-0.102l-1.581-1.189L91.524,24.202z"/>
		<rect x="94.562" y="20.225" fill="#003057" width="1.785" height="7.01"/>
		<path fill="#003057" d="M96.434,18.264c0-0.544-0.437-0.98-0.979-0.98s-0.98,0.436-0.98,0.98c0,0.54,0.44,0.979,0.98,0.979
			S96.434,18.804,96.434,18.264z"/>
	</g>
	<g>
		<path fill="#00B0B9" d="M50.825,16.283c-1.211-4.048-6.535-11.967-10.527-14.832L40.13,1.329l-0.202,0.022
			C16.975,4,3.36,16.007,3.225,16.128L2.969,16.36l0.107,0.326c1.854,5.677,6.477,11.814,11.779,15.627l0.123,0.087l0.149,0.012
			c4.803,0.369,8.743,0.651,12.107,0.651c1.009,0,1.917-0.023,2.762-0.076c1.011,1.696,2.459,3.965,3.907,5.66l0.402,0.472
			l0.406-0.472c2.23-2.589,2.848-3.623,4.094-7.033c2.826-0.732,4.891-2.163,4.977-2.225l0.129-0.09l0.059-0.14
			c0.024-0.06,0.563-1.394,0.582-4.677c0.503-0.655,1.191-1.319,1.92-2.021c1.593-1.531,3.396-3.267,4.344-5.845l0.061-0.166
			L50.825,16.283z M18.443,29.663c0.729-1.324,1.693-3.087,2.792-5.084c0.263-0.082,0.531-0.163,0.799-0.244
			c1.284,0.787,2.634,1.591,4.04,2.395c-2.508,2.523-4.425,4.438-5.035,5.042c-0.318-0.021-0.645-0.04-0.974-0.064
			C19.513,31.005,18.973,30.323,18.443,29.663z M19.098,31.639c-0.547-0.037-1.102-0.077-1.673-0.116
			c0.165-0.299,0.382-0.697,0.643-1.177C18.408,30.766,18.749,31.2,19.098,31.639z M44.606,7.494
			c-0.961,1.154-2.818,3.15-5.084,5.521c0.452-2.103,0.919-4.303,1.393-6.592c0.778-0.104,1.604-0.214,2.572-0.348
			C43.863,6.531,44.238,7.005,44.606,7.494z M38.57,14.008c-1.061,1.103-2.19,2.266-3.348,3.451c-2.001-0.54-4.054-1.07-6.078-1.58
			c-0.674-0.742-1.329-1.451-1.957-2.12c1.232-2.237,2.407-4.364,3.413-6.168c4.963-0.514,7.182-0.764,9.558-1.073
			C39.617,9.141,39.085,11.643,38.57,14.008z M21.82,23.515c1.314-2.396,2.777-5.055,4.214-7.663
			c1.052,0.258,2.125,0.523,3.204,0.793c1.036,1.142,2.116,2.36,3.217,3.637c-0.028,0.033-0.062,0.062-0.092,0.092
			c-3.468,1.185-7.032,2.321-10.261,3.315C22.006,23.632,21.911,23.575,21.82,23.515z M26.394,15.201
			c0.189-0.346,0.377-0.688,0.566-1.029c0.455,0.485,0.921,0.987,1.404,1.512C27.705,15.523,27.045,15.357,26.394,15.201z
			 M30.016,16.846c1.426,0.36,2.872,0.734,4.631,1.201c-0.623,0.638-1.251,1.281-1.878,1.918
			C31.833,18.877,30.909,17.833,30.016,16.846z M35.446,18.269c0.547,0.146,1.09,0.296,1.629,0.447
			c-1.036,0.379-2.099,0.756-3.179,1.134C34.414,19.321,34.932,18.791,35.446,18.269z M36.02,17.677
			c0.77-0.79,1.526-1.567,2.257-2.323c-0.209,0.95-0.414,1.877-0.612,2.777C37.121,17.979,36.573,17.83,36.02,17.677z
			 M26.867,13.417c-1.958-2.082-3.63-3.778-4.813-4.956c3.284-0.33,5.885-0.593,8.004-0.814
			C29.109,9.361,28.013,11.341,26.867,13.417z M21.643,8.058c-0.325-0.325-0.602-0.591-0.825-0.81
			C24.182,5.907,28,4.672,32.247,3.724c-0.497,0.888-1.159,2.07-1.923,3.447C28.07,7.405,25.261,7.69,21.643,8.058z M21.067,8.115
			c-0.955,0.094-1.965,0.196-3.031,0.306c0.749-0.334,1.524-0.664,2.328-0.992C20.55,7.61,20.785,7.837,21.067,8.115z M16.779,8.995
			c1.703-0.169,3.264-0.329,4.7-0.472c1.21,1.194,3.019,3.021,5.162,5.305c-0.229,0.419-0.464,0.839-0.697,1.264
			c-6.417-1.561-12.114-2.806-14.5-3.318C12.996,10.879,14.777,9.933,16.779,8.995z M25.584,15.741
			c-1.413,2.567-2.848,5.177-4.143,7.536c-6.996-4.368-11.87-8.184-13.384-9.41c0.73-0.481,1.553-1.006,2.466-1.555
			C12.151,12.658,18.397,13.999,25.584,15.741z M21.157,23.791c-0.042,0.074-0.083,0.151-0.125,0.227
			c-2.155,0.657-4.131,1.245-5.791,1.729c-4.819-5.751-8.227-9.224-9.368-10.357c0.475-0.348,1.034-0.749,1.676-1.181
			C8.914,15.317,13.907,19.267,21.157,23.791z M20.622,24.765c-0.96,1.75-1.814,3.308-2.48,4.52
			c-0.864-1.074-1.695-2.087-2.49-3.044C17.112,25.814,18.796,25.317,20.622,24.765z M22.779,24.104
			c2.747-0.847,5.716-1.794,8.654-2.779c-1.739,1.762-3.429,3.465-4.931,4.979C25.207,25.562,23.965,24.83,22.779,24.104z
			 M32.928,20.835c1.065,1.245,2.152,2.545,3.234,3.883c-0.522,2.253-1,4.247-1.409,5.942c-2.673-1.292-5.217-2.639-7.602-3.985
			C28.906,24.906,30.905,22.892,32.928,20.835z M33.366,20.663c1.38-0.476,2.738-0.956,4.052-1.442
			c-0.395,1.756-0.771,3.407-1.13,4.948C35.312,22.963,34.333,21.794,33.366,20.663z M39.232,14.363
			c2.548-2.654,4.688-4.938,5.817-6.277c1.336,1.819,2.556,3.758,3.455,5.476c-1.994,1.38-5.73,3.017-10.127,4.668
			C38.653,16.987,38.938,15.701,39.232,14.363z M43.15,5.67c-0.788,0.109-1.481,0.203-2.135,0.289
			c0.142-0.698,0.288-1.408,0.431-2.123C42.007,4.386,42.578,5.006,43.15,5.67z M40.827,3.253c-0.19,0.949-0.38,1.886-0.573,2.807
			c-2.381,0.309-4.542,0.557-9.391,1.057c0.805-1.446,1.482-2.659,1.968-3.519c2.224-0.477,4.561-0.879,7.009-1.164
			C40.163,2.672,40.494,2.949,40.827,3.253z M5.292,15.824c1.026,1.018,4.382,4.414,9.195,10.145
			c-1.822,0.528-3.184,0.912-3.874,1.109C7.74,23.928,5.42,20.23,4.2,16.695C4.42,16.511,4.793,16.21,5.292,15.824z M11.057,27.558
			c0.799-0.224,2.135-0.602,3.839-1.098c0.911,1.09,1.868,2.257,2.872,3.509c-0.361,0.654-0.646,1.169-0.833,1.515
			c-0.517-0.037-1.041-0.08-1.579-0.123C13.848,30.265,12.399,28.97,11.057,27.558z M30.576,31.882l-0.327,0.022
			c-0.911,0.065-1.896,0.1-3.014,0.1c-1.594,0-3.333-0.067-5.232-0.178c0.9-0.896,2.611-2.602,4.723-4.724
			c2.47,1.4,5.11,2.794,7.888,4.139c-0.562,2.322-0.991,4.022-1.24,4.994c-1.001-1.389-1.938-2.895-2.631-4.07L30.576,31.882z
			 M34.313,37.478c-0.127-0.161-0.258-0.33-0.385-0.497c0.195-0.762,0.672-2.638,1.347-5.423c0.68,0.322,1.363,0.641,2.055,0.955
			C36.486,34.646,35.854,35.657,34.313,37.478z M38.28,30.653l-0.279,0.069l-0.099,0.268c-0.125,0.351-0.246,0.674-0.362,0.979
			c-0.717-0.326-1.423-0.657-2.123-0.991c0.384-1.591,0.828-3.449,1.315-5.545c1.19,1.489,2.372,3.027,3.524,4.588
			C39.657,30.263,38.99,30.482,38.28,30.653z M43.593,23.994l-0.102,0.14v0.173c0,2.576-0.332,3.898-0.456,4.305
			c-0.322,0.209-1.181,0.733-2.352,1.236c-1.25-1.698-2.53-3.356-3.82-4.969c0.417-1.79,0.865-3.746,1.335-5.845
			c2.872,0.815,5.546,1.64,7.771,2.44c-0.079,0.071-0.156,0.151-0.235,0.226C44.923,22.479,44.157,23.218,43.593,23.994z
			 M46.537,20.914c-2.1-0.766-4.632-1.56-7.361-2.353c4.124-1.573,7.629-3.132,9.596-4.472c0.427,0.856,0.769,1.651,0.985,2.329
			C49.032,18.271,47.781,19.684,46.537,20.914z"/>
		<g>
			<path fill="#003057" d="M40.998,1.981c-0.072,0.398-0.149,0.801-0.228,1.208c-0.177,0.933-0.363,1.894-0.558,2.878
				c-0.029,0.15-0.062,0.305-0.091,0.458c-0.484,2.424-1.012,4.96-1.558,7.502c-0.095,0.447-0.192,0.892-0.291,1.34
				c-0.197,0.923-0.402,1.846-0.604,2.758c-0.083,0.37-0.162,0.732-0.242,1.096c-0.19,0.849-0.376,1.684-0.566,2.513
				c-0.729,3.203-1.436,6.222-2.068,8.82c-0.011,0.034-0.016,0.069-0.026,0.102c-0.047,0.196-0.099,0.391-0.141,0.58
				c-0.483,1.967-0.917,3.652-1.267,4.955c-0.133,0.488-0.258,0.923-0.367,1.296c0.191,0.245,0.378,0.49,0.569,0.723
				c0.178-0.571,0.4-1.354,0.656-2.315c0.32-1.198,0.692-2.662,1.101-4.327c0.048-0.19,0.095-0.386,0.143-0.58
				c0.412-1.677,0.854-3.543,1.316-5.521c0.042-0.185,0.086-0.368,0.13-0.554c0.435-1.882,0.884-3.856,1.332-5.877
				c0.061-0.272,0.123-0.546,0.181-0.824c0.284-1.28,0.571-2.579,0.85-3.879c0.095-0.447,0.191-0.894,0.284-1.343
				c0.269-1.254,0.531-2.504,0.781-3.738c0.479-2.328,0.928-4.59,1.322-6.699C41.437,2.355,41.215,2.16,40.998,1.981z"/>
			<path fill="#003057" d="M40.694,29.844c-0.467-0.634-0.944-1.264-1.42-1.889c-6.726-8.79-14.112-16.417-17.622-19.902
				c-0.303-0.299-0.578-0.573-0.821-0.809c-0.35-0.346-0.627-0.612-0.834-0.811c-0.15,0.059-0.303,0.125-0.452,0.184
				C19.9,6.962,20.605,7.64,21.57,8.605c1.294,1.284,3.043,3.069,5.071,5.233c0.107,0.113,0.215,0.23,0.321,0.345
				c0.45,0.482,0.913,0.978,1.386,1.496c0.288,0.311,0.578,0.634,0.873,0.959c1.042,1.151,2.127,2.375,3.231,3.654
				c0.16,0.182,0.316,0.366,0.476,0.552c1.066,1.246,2.154,2.548,3.241,3.888c0.191,0.238,0.382,0.473,0.574,0.714
				c0.207,0.259,0.419,0.521,0.626,0.783c0.317,0.404,0.634,0.807,0.951,1.212c0.131,0.172,0.261,0.344,0.394,0.516
				c0.745,0.97,1.483,1.954,2.206,2.948c0.146-0.061,0.286-0.12,0.422-0.181C41.127,30.429,40.912,30.134,40.694,29.844z"/>
		</g>
	</g>
</g>
</svg>
