<?xml version="1.0" encoding="utf-8"?>
<!-- Generator: Adobe Illustrator 16.0.0, SVG Export Plug-In . SVG Version: 6.00 Build 0)  -->
<!DOCTYPE svg PUBLIC "-//W3C//DTD SVG 1.1//EN" "http://www.w3.org/Graphics/SVG/1.1/DTD/svg11.dtd">
<svg version="1.1" id="Layer_1" xmlns="http://www.w3.org/2000/svg" xmlns:xlink="http://www.w3.org/1999/xlink" x="0px" y="0px"
	 width="280px" height="100px" viewBox="0 0 280 100" enable-background="new 0 0 280 100" xml:space="preserve">
<g>
	<g>
		<path fill="#00B0B9" d="M134.989,64.958c0.602,0,1.125-0.212,1.548-0.641c0.433-0.43,0.645-0.952,0.645-1.552
			c0-0.596-0.212-1.119-0.645-1.546c-0.39-0.392-0.879-0.684-1.443-0.865c-0.336-0.157-0.603-0.33-0.792-0.518
			c-0.188-0.189-0.282-0.414-0.282-0.684s0.094-0.496,0.28-0.688c0.191-0.187,0.421-0.278,0.689-0.278
			c0.271,0,0.499,0.09,0.687,0.275c0.104,0.111,0.186,0.228,0.231,0.354l0.036,0.113l0.577-0.229l-0.032-0.104
			c-0.063-0.207-0.19-0.4-0.362-0.566c-0.312-0.311-0.695-0.466-1.136-0.466c-0.439,0-0.825,0.155-1.134,0.466
			c-0.306,0.315-0.466,0.689-0.466,1.122c0,0.442,0.16,0.817,0.472,1.136c0.297,0.298,0.709,0.536,1.222,0.709
			c0.399,0.161,0.743,0.387,1.016,0.661c0.312,0.312,0.457,0.674,0.457,1.106c0,0.436-0.146,0.8-0.457,1.105
			c-0.307,0.312-0.668,0.464-1.109,0.464c-0.431,0-0.796-0.151-1.109-0.464c-0.264-0.262-0.408-0.562-0.444-0.917l-0.015-0.154
			l-0.608,0.223l0.016,0.099c0.066,0.45,0.274,0.851,0.617,1.193C133.867,64.742,134.388,64.958,134.989,64.958z"/>
		<path fill="#00B0B9" d="M137.867,58.971c-0.104,0.103-0.157,0.222-0.157,0.362c0,0.147,0.052,0.271,0.15,0.363
			c0.102,0.103,0.224,0.153,0.362,0.153c0.137,0,0.267-0.054,0.363-0.153c0.094-0.092,0.146-0.214,0.146-0.363
			c0-0.141-0.052-0.26-0.146-0.357C138.39,58.776,138.055,58.779,137.867,58.971z"/>
		<rect x="137.905" y="60.349" fill="#00B0B9" width="0.635" height="4.528"/>
		<path fill="#00B0B9" d="M140.939,64.979c0.385,0,0.717-0.135,0.98-0.4c0.273-0.271,0.41-0.607,0.41-0.99
			c0-0.388-0.137-0.711-0.41-0.987c-0.167-0.167-0.442-0.355-0.816-0.556c-0.226-0.146-0.375-0.251-0.438-0.317
			c-0.107-0.102-0.156-0.226-0.156-0.362c0-0.149,0.049-0.268,0.156-0.368c0.098-0.105,0.221-0.154,0.366-0.154
			c0.144,0,0.258,0.042,0.344,0.13c0.088,0.087,0.15,0.233,0.178,0.429l0.02,0.155l0.482-0.191l0.072-0.055v-0.083
			c0-0.26-0.104-0.497-0.304-0.708c-0.211-0.207-0.477-0.313-0.792-0.313c-0.314,0-0.587,0.113-0.814,0.338
			c-0.223,0.227-0.334,0.503-0.334,0.821c0,0.308,0.111,0.584,0.334,0.808c0.143,0.14,0.38,0.296,0.718,0.476
			c0.275,0.179,0.46,0.315,0.546,0.397c0.148,0.151,0.219,0.325,0.219,0.542c0,0.212-0.07,0.394-0.222,0.536
			c-0.149,0.151-0.331,0.223-0.538,0.223c-0.211,0-0.39-0.071-0.542-0.223c-0.153-0.143-0.224-0.327-0.224-0.557v-0.151
			l-0.626,0.157v0.1c0,0.33,0.137,0.637,0.405,0.899C140.22,64.845,140.55,64.979,140.939,64.979z"/>
		<polygon fill="#00B0B9" points="144.516,58.516 143.883,58.516 143.883,60.349 143.01,60.349 143.01,60.976 143.883,60.976 
			143.883,64.877 144.516,64.877 144.516,60.976 145.388,60.976 145.388,60.349 144.516,60.349 		"/>
		<path fill="#00B0B9" d="M150.516,63.944l0.091-0.132l-0.648-0.224l-0.053,0.065c-0.04,0.049-0.084,0.099-0.127,0.144
			c-0.37,0.365-0.803,0.547-1.325,0.547c-0.428,0-0.815-0.134-1.144-0.395l2.706-2.709l0.381-0.378l-0.158-0.162
			c-0.066-0.077-0.141-0.144-0.214-0.206c-0.444-0.354-0.974-0.537-1.571-0.537c-0.688,0-1.286,0.249-1.775,0.743
			c-0.493,0.486-0.741,1.084-0.741,1.776c0,0.697,0.248,1.298,0.741,1.78c0.489,0.493,1.087,0.744,1.775,0.744
			c0.696,0,1.297-0.251,1.791-0.747C150.346,64.156,150.438,64.047,150.516,63.944z M146.594,62.478
			c0-0.521,0.182-0.946,0.545-1.318c0.367-0.366,0.803-0.542,1.314-0.542c0.38,0,0.717,0.095,1.008,0.291l-2.579,2.576
			C146.693,63.191,146.594,62.857,146.594,62.478z"/>
		<path fill="#00B0B9" d="M154.129,64.877v-3.372c0-0.224,0.076-0.406,0.219-0.556c0.154-0.153,0.336-0.225,0.542-0.225
			c0.218,0,0.396,0.071,0.546,0.221c0.131,0.134,0.201,0.283,0.215,0.458v3.474h0.631v-3.436c-0.007-0.362-0.144-0.686-0.4-0.94
			c-0.271-0.271-0.604-0.406-0.991-0.406c-0.383,0-0.714,0.136-0.98,0.406c-0.034,0.035-0.068,0.066-0.095,0.101
			c-0.029-0.031-0.059-0.065-0.096-0.101c-0.27-0.271-0.595-0.406-0.98-0.406c-0.301,0-0.567,0.087-0.805,0.254h-0.586v4.528h0.632
			v-3.454c0.02-0.194,0.087-0.344,0.22-0.474c0.152-0.153,0.328-0.225,0.539-0.225c0.209,0,0.389,0.071,0.54,0.225
			c0.126,0.12,0.192,0.261,0.218,0.432v3.496H154.129z"/>
		<path fill="#00B0B9" d="M159.769,65.002c0.694,0,1.296-0.251,1.783-0.744c0.018-0.015,0.03-0.027,0.047-0.047v0.666h0.626v-4.528
			h-0.626v0.396c-0.017-0.013-0.029-0.028-0.047-0.043c-0.487-0.494-1.089-0.743-1.783-0.743c-0.693,0-1.291,0.249-1.78,0.743
			c-0.492,0.49-0.741,1.087-0.741,1.781c0,0.688,0.249,1.288,0.741,1.775C158.478,64.751,159.075,65.002,159.769,65.002z
			 M158.447,61.161c0.371-0.368,0.802-0.544,1.321-0.544c0.512,0,0.957,0.179,1.315,0.544c0.273,0.274,0.448,0.595,0.515,0.934
			l0.004,0.755c-0.07,0.355-0.245,0.675-0.519,0.948c-0.358,0.358-0.804,0.547-1.315,0.547c-0.52,0-0.95-0.182-1.321-0.547
			c-0.364-0.362-0.545-0.804-0.545-1.315C157.902,61.962,158.078,61.533,158.447,61.161z"/>
		<path fill="#00B0B9" d="M171.266,64.877v-7.228h-0.629v3.095c-0.018-0.013-0.027-0.028-0.044-0.043
			c-0.489-0.494-1.087-0.743-1.78-0.743c-0.697,0-1.297,0.249-1.783,0.743c-0.493,0.49-0.744,1.087-0.744,1.781
			c0,0.688,0.251,1.288,0.744,1.775c0.486,0.493,1.086,0.744,1.783,0.744c0.693,0,1.291-0.251,1.78-0.747
			c0.017-0.012,0.026-0.024,0.044-0.044v0.666H171.266z M170.127,63.798c-0.363,0.358-0.809,0.547-1.314,0.547
			c-0.514,0-0.959-0.188-1.322-0.547c-0.365-0.362-0.55-0.804-0.55-1.315c0-0.521,0.181-0.949,0.547-1.321
			c0.366-0.365,0.812-0.544,1.325-0.544c0.506,0,0.951,0.179,1.314,0.544c0.278,0.274,0.447,0.595,0.51,0.934l0.004,0.755
			C170.574,63.205,170.405,63.524,170.127,63.798z"/>
		<path fill="#00B0B9" d="M174.601,65.002c0.691,0,1.296-0.251,1.78-0.744c0.095-0.089,0.186-0.189,0.276-0.313l0.09-0.132
			l-0.644-0.224l-0.05,0.062c-0.044,0.052-0.088,0.097-0.131,0.146c-0.362,0.358-0.809,0.547-1.322,0.547
			c-0.436,0-0.822-0.134-1.144-0.395l3.004-3.007l0.071-0.087l-0.071-0.085c-0.027-0.027-0.052-0.053-0.08-0.07
			c-0.064-0.077-0.14-0.144-0.218-0.206c-0.443-0.354-0.968-0.537-1.562-0.537c-0.691,0-1.287,0.249-1.78,0.743
			c-0.488,0.49-0.739,1.084-0.739,1.776c0,0.693,0.251,1.298,0.739,1.78C173.313,64.751,173.909,65.002,174.601,65.002z
			 M173.29,61.159c0.356-0.363,0.802-0.542,1.311-0.542c0.375,0,0.711,0.099,1.004,0.291l-2.573,2.576
			c-0.191-0.296-0.29-0.631-0.29-1.007C172.741,61.953,172.919,61.521,173.29,61.159z"/>
		<rect x="180.672" y="57.649" fill="#00B0B9" width="0.631" height="7.228"/>
		<path fill="#00B0B9" d="M185.446,61.922v2.955h0.627v-2.994c-0.009-0.514-0.188-0.946-0.522-1.281
			c-0.341-0.34-0.786-0.514-1.322-0.514c-0.424,0-0.795,0.131-1.134,0.389v-0.128h-0.631v4.528h0.631v-3.429
			c0.061-0.128,0.159-0.257,0.282-0.381c0.234-0.229,0.524-0.349,0.852-0.349c0.334,0,0.61,0.112,0.854,0.354
			C185.323,61.309,185.446,61.587,185.446,61.922z"/>
		<polygon fill="#00B0B9" points="188.81,63.761 187.261,60.413 187.232,60.349 186.511,60.349 188.81,65.151 191.102,60.349 
			190.388,60.349 		"/>
		<path fill="#00B0B9" d="M193.838,65.002c0.697,0,1.294-0.251,1.784-0.744c0.103-0.089,0.188-0.193,0.272-0.313l0.093-0.132
			l-0.646-0.224l-0.048,0.062c-0.043,0.052-0.087,0.097-0.14,0.146c-0.36,0.358-0.805,0.547-1.316,0.547
			c-0.432,0-0.82-0.134-1.144-0.395l3.003-3.007l0.076-0.087l-0.079-0.085c-0.025-0.027-0.05-0.053-0.072-0.07
			c-0.072-0.077-0.145-0.144-0.216-0.206c-0.445-0.354-0.978-0.537-1.568-0.537c-0.689,0-1.288,0.249-1.78,0.743
			c-0.488,0.486-0.736,1.084-0.736,1.776c0,0.693,0.248,1.298,0.736,1.78C192.55,64.751,193.148,65.002,193.838,65.002z
			 M192.525,61.159c0.362-0.363,0.805-0.542,1.312-0.542c0.375,0,0.716,0.099,1.01,0.291l-2.576,2.576
			c-0.198-0.296-0.293-0.631-0.293-1.007C191.979,61.953,192.156,61.521,192.525,61.159z"/>
		<path fill="#00B0B9" d="M198.137,62.046c-0.232-0.146-0.379-0.255-0.445-0.317c-0.104-0.102-0.157-0.226-0.157-0.362
			c0-0.149,0.054-0.268,0.157-0.368c0.101-0.105,0.222-0.154,0.37-0.154c0.142,0,0.257,0.042,0.345,0.13
			c0.089,0.087,0.149,0.233,0.172,0.429l0.019,0.155l0.479-0.191l0.078-0.055v-0.083c0-0.26-0.103-0.497-0.304-0.708
			c-0.206-0.207-0.472-0.313-0.789-0.313c-0.316,0-0.591,0.113-0.809,0.338c-0.229,0.227-0.342,0.503-0.342,0.821
			c0,0.308,0.112,0.584,0.342,0.804c0.14,0.144,0.371,0.3,0.708,0.479c0.28,0.179,0.464,0.315,0.547,0.397
			c0.146,0.151,0.22,0.325,0.22,0.542c0,0.212-0.073,0.394-0.224,0.536c-0.149,0.151-0.329,0.223-0.543,0.223
			c-0.203,0-0.381-0.071-0.532-0.223c-0.153-0.143-0.228-0.327-0.228-0.557v-0.151l-0.627,0.157v0.1c0,0.33,0.139,0.635,0.407,0.899
			c0.271,0.271,0.603,0.406,0.979,0.406c0.388,0,0.726-0.135,0.992-0.4c0.271-0.271,0.405-0.607,0.405-0.99
			c0-0.384-0.135-0.711-0.405-0.987C198.782,62.435,198.508,62.246,198.137,62.046z"/>
		<polygon fill="#00B0B9" points="201.542,58.516 200.911,58.516 200.911,60.349 200.04,60.349 200.04,60.976 200.911,60.976 
			200.911,64.877 201.542,64.877 201.542,60.976 202.419,60.976 202.419,60.349 201.542,60.349 		"/>
		<rect x="203.318" y="60.349" fill="#00B0B9" width="0.627" height="4.528"/>
		<path fill="#00B0B9" d="M203.27,58.976c-0.099,0.098-0.15,0.22-0.15,0.357c0,0.137,0.052,0.27,0.15,0.363
			c0.1,0.1,0.223,0.153,0.361,0.153c0.142,0,0.263-0.051,0.367-0.153c0.097-0.098,0.149-0.227,0.149-0.363
			c0-0.134-0.053-0.26-0.153-0.362C203.786,58.776,203.464,58.779,203.27,58.976z"/>
		<path fill="#00B0B9" d="M209.352,60.742c-0.019-0.011-0.03-0.026-0.049-0.041c-0.492-0.494-1.091-0.737-1.792-0.737
			c-0.682,0-1.283,0.243-1.771,0.737c-0.492,0.49-0.74,1.084-0.74,1.781c0,0.692,0.248,1.293,0.74,1.775
			c0.487,0.493,1.089,0.744,1.771,0.744c0.677,0,1.266-0.237,1.756-0.704c-0.087,0.286-0.248,0.547-0.474,0.775
			c-0.367,0.368-0.799,0.546-1.315,0.546c-0.51,0-0.955-0.185-1.32-0.546c-0.038-0.045-0.093-0.094-0.133-0.146l-0.051-0.061
			l-0.645,0.227l0.097,0.132c0.082,0.112,0.169,0.217,0.27,0.312c0.482,0.497,1.089,0.741,1.782,0.741
			c0.694,0,1.297-0.244,1.781-0.741c0.481-0.478,0.724-1.059,0.724-1.732v-3.455h-0.631V60.742z M208.841,63.801
			c-0.369,0.368-0.805,0.547-1.33,0.547c-0.505,0-0.948-0.185-1.312-0.547c-0.368-0.365-0.548-0.799-0.548-1.318
			c0-0.525,0.18-0.951,0.548-1.321c0.363-0.365,0.807-0.544,1.312-0.544c0.525,0,0.961,0.176,1.322,0.544
			c0.271,0.265,0.445,0.58,0.514,0.913v0.804C209.272,63.226,209.104,63.54,208.841,63.801z"/>
		<path fill="#00B0B9" d="M215.249,60.744c-0.017-0.013-0.032-0.028-0.051-0.043c-0.485-0.494-1.087-0.743-1.782-0.743
			c-0.691,0-1.294,0.249-1.778,0.743c-0.494,0.49-0.74,1.087-0.74,1.781c0,0.688,0.246,1.288,0.74,1.775
			c0.484,0.493,1.087,0.744,1.778,0.744c0.695,0,1.297-0.251,1.782-0.744c0.019-0.015,0.034-0.027,0.051-0.047v0.666h0.629v-4.528
			h-0.629V60.744z M214.738,63.798c-0.364,0.358-0.809,0.547-1.322,0.547s-0.954-0.188-1.318-0.547
			c-0.361-0.362-0.549-0.804-0.549-1.315c0-0.521,0.186-0.949,0.547-1.321c0.366-0.365,0.807-0.544,1.32-0.544
			s0.958,0.179,1.322,0.544c0.269,0.274,0.44,0.595,0.511,0.934l0.002,0.755C215.179,63.205,215.007,63.524,214.738,63.798z"/>
		<path fill="#00B0B9" d="M220.995,64.255c0.105-0.099,0.193-0.208,0.269-0.311l0.095-0.132l-0.647-0.224l-0.053,0.062
			c-0.04,0.052-0.086,0.102-0.129,0.146c-0.369,0.365-0.803,0.547-1.324,0.547c-0.513,0-0.941-0.182-1.312-0.547
			c-0.359-0.365-0.547-0.808-0.547-1.32c0-0.521,0.178-0.946,0.547-1.318c0.371-0.366,0.8-0.542,1.312-0.542
			c0.521,0,0.955,0.176,1.333,0.558c0.05,0.042,0.086,0.091,0.12,0.134l0.053,0.067l0.651-0.242l-0.099-0.128
			c-0.075-0.098-0.163-0.202-0.269-0.305c-0.49-0.494-1.093-0.743-1.79-0.743c-0.688,0-1.285,0.249-1.772,0.743
			c-0.496,0.486-0.746,1.084-0.746,1.776c0,0.697,0.25,1.298,0.746,1.78c0.487,0.493,1.085,0.744,1.772,0.744
			C219.902,65.002,220.505,64.751,220.995,64.255z"/>
		<rect x="222.188" y="60.349" fill="#00B0B9" width="0.626" height="4.528"/>
		<path fill="#00B0B9" d="M222.501,59.85c0.14,0,0.267-0.051,0.361-0.153c0.099-0.094,0.149-0.227,0.149-0.363
			c0-0.138-0.047-0.26-0.151-0.362c-0.203-0.194-0.526-0.194-0.722,0.005c-0.103,0.098-0.149,0.22-0.149,0.357
			c0,0.137,0.051,0.27,0.149,0.363C222.235,59.796,222.368,59.85,222.501,59.85z"/>
		<path fill="#00B0B9" d="M226.237,65.002c0.692,0,1.295-0.251,1.778-0.744c0.486-0.482,0.738-1.083,0.738-1.775
			c0-0.697-0.252-1.295-0.738-1.781c-0.483-0.494-1.086-0.743-1.778-0.743c-0.695,0-1.292,0.249-1.78,0.743
			c-0.49,0.49-0.74,1.084-0.74,1.781c0,0.692,0.25,1.293,0.74,1.775C224.945,64.751,225.542,65.002,226.237,65.002z M224.915,61.161
			c0.369-0.368,0.801-0.544,1.322-0.544c0.513,0,0.952,0.179,1.313,0.544c0.37,0.372,0.552,0.799,0.552,1.321
			c0,0.52-0.182,0.95-0.552,1.315c-0.361,0.358-0.801,0.547-1.313,0.547c-0.521,0-0.953-0.182-1.322-0.547
			c-0.363-0.362-0.545-0.804-0.545-1.315C224.37,61.962,224.544,61.533,224.915,61.161z"/>
		<polygon fill="#00B0B9" points="227.542,58.577 226.411,58.577 225.491,59.628 226.165,59.628 		"/>
		<path fill="#00B0B9" d="M232.182,61.072c0.244,0.236,0.357,0.515,0.357,0.85v2.955h0.637v-2.994
			c-0.014-0.507-0.184-0.939-0.528-1.281c-0.333-0.34-0.784-0.514-1.32-0.514c-0.418,0-0.801,0.131-1.13,0.389v-0.128h-0.633v4.528
			h0.633v-3.429c0.061-0.131,0.155-0.257,0.278-0.381c0.244-0.236,0.522-0.349,0.852-0.349
			C231.655,60.719,231.943,60.839,232.182,61.072z"/>
		<path fill="#00B0B9" d="M137.505,70.597c-0.018-0.024-0.027-0.037-0.049-0.054c-0.486-0.487-1.09-0.739-1.783-0.739
			c-0.688,0-1.292,0.252-1.783,0.739c-0.491,0.499-0.734,1.094-0.734,1.787c0,0.687,0.243,1.286,0.734,1.783
			c0.491,0.49,1.094,0.734,1.783,0.734c0.695,0,1.297-0.244,1.783-0.737c0.022-0.016,0.031-0.035,0.049-0.047v0.665h0.629v-7.23
			h-0.629V70.597z M136.993,73.644c-0.36,0.365-0.806,0.552-1.32,0.552c-0.523,0-0.951-0.181-1.321-0.546
			c-0.363-0.359-0.543-0.807-0.543-1.319c0-0.51,0.181-0.957,0.543-1.316c0.37-0.37,0.804-0.551,1.321-0.551
			c0.515,0,0.96,0.186,1.32,0.551c0.271,0.271,0.445,0.591,0.512,0.929v0.756C137.438,73.057,137.265,73.372,136.993,73.644z"/>
		<path fill="#00B0B9" d="M142.918,73.504c-0.04,0.043-0.08,0.093-0.135,0.14c-0.355,0.365-0.803,0.552-1.316,0.552
			c-0.441,0-0.823-0.132-1.146-0.396l3.007-3.005l0.068-0.095l-0.074-0.085c-0.027-0.022-0.045-0.049-0.072-0.071
			c-0.069-0.07-0.144-0.14-0.223-0.199c-0.438-0.36-0.963-0.54-1.561-0.54c-0.693,0-1.29,0.252-1.782,0.739
			c-0.49,0.495-0.741,1.089-0.741,1.784c0,0.692,0.25,1.292,0.741,1.786c0.492,0.49,1.089,0.734,1.782,0.734
			c0.696,0,1.295-0.244,1.783-0.734c0.104-0.099,0.188-0.204,0.27-0.321l0.095-0.124l-0.644-0.228L142.918,73.504z M139.604,72.327
			c0-0.524,0.179-0.954,0.549-1.316c0.359-0.362,0.802-0.548,1.314-0.548c0.375,0,0.71,0.097,1.008,0.292l-2.58,2.575
			C139.702,73.039,139.604,72.701,139.604,72.327z"/>
		<rect x="144.353" y="67.498" fill="#00B0B9" width="0.631" height="7.23"/>
		<polygon fill="#00B0B9" points="152.475,70.96 149.786,70.96 149.786,67.498 149.154,67.498 149.154,74.729 149.786,74.729 
			149.786,71.593 152.475,71.593 152.475,74.729 153.107,74.729 153.107,67.498 152.475,67.498 		"/>
		<path fill="#00B0B9" d="M156.439,69.804c-0.692,0-1.289,0.252-1.779,0.739c-0.49,0.495-0.738,1.089-0.738,1.787
			c0,0.689,0.248,1.289,0.738,1.783c0.49,0.49,1.087,0.734,1.779,0.734c0.695,0,1.298-0.244,1.781-0.734
			c0.49-0.494,0.736-1.094,0.736-1.783c0-0.698-0.246-1.292-0.736-1.787C157.734,70.056,157.135,69.804,156.439,69.804z
			 M157.756,73.649c-0.355,0.359-0.805,0.546-1.316,0.546c-0.518,0-0.953-0.181-1.318-0.546c-0.363-0.365-0.545-0.807-0.545-1.319
			c0-0.51,0.182-0.957,0.545-1.316c0.368-0.37,0.801-0.551,1.318-0.551c0.512,0,0.955,0.186,1.32,0.551
			c0.365,0.359,0.547,0.807,0.547,1.316C158.307,72.843,158.125,73.284,157.756,73.649z"/>
		<path fill="#00B0B9" d="M161.174,71.895c-0.281-0.181-0.395-0.27-0.439-0.315c-0.107-0.104-0.158-0.222-0.158-0.368
			c0-0.143,0.051-0.266,0.157-0.368c0.101-0.096,0.228-0.149,0.366-0.149c0.146,0,0.262,0.04,0.348,0.131
			c0.09,0.09,0.145,0.228,0.174,0.432l0.018,0.143l0.482-0.188l0.074-0.054v-0.08c0-0.261-0.104-0.505-0.303-0.71
			c-0.207-0.205-0.471-0.307-0.793-0.307c-0.311,0-0.584,0.11-0.814,0.333c-0.221,0.226-0.33,0.501-0.33,0.817
			c0,0.314,0.109,0.588,0.336,0.811c0.139,0.141,0.377,0.297,0.714,0.483c0.28,0.175,0.462,0.311,0.547,0.388
			c0.149,0.152,0.216,0.328,0.216,0.541c0,0.216-0.066,0.394-0.216,0.543c-0.153,0.15-0.333,0.225-0.545,0.225
			c-0.215,0-0.39-0.074-0.54-0.225c-0.148-0.146-0.223-0.336-0.223-0.557v-0.152l-0.627,0.159v0.093c0,0.33,0.139,0.631,0.405,0.902
			c0.269,0.271,0.601,0.413,0.984,0.413c0.386,0,0.72-0.142,0.985-0.413c0.269-0.271,0.402-0.598,0.402-0.988
			c0-0.377-0.134-0.709-0.402-0.983C161.818,72.286,161.552,72.099,161.174,71.895z"/>
		<path fill="#00B0B9" d="M165.734,69.811c-0.688,0-1.291,0.253-1.782,0.732c-0.013,0.017-0.032,0.029-0.045,0.057v-0.402h-0.632
			v6.17h0.632v-2.304c0.013,0.012,0.032,0.031,0.05,0.05c0.486,0.49,1.086,0.734,1.777,0.734c0.694,0,1.295-0.244,1.781-0.734
			c0.49-0.494,0.738-1.094,0.738-1.783c0-0.698-0.248-1.292-0.738-1.787C167.033,70.063,166.429,69.811,165.734,69.811z
			 M167.055,73.649c-0.362,0.365-0.809,0.546-1.32,0.546c-0.514,0-0.952-0.181-1.316-0.546c-0.272-0.271-0.441-0.578-0.511-0.909
			v-0.798c0.069-0.35,0.238-0.661,0.511-0.929c0.364-0.365,0.803-0.551,1.316-0.551c0.512,0,0.958,0.186,1.32,0.551
			c0.362,0.359,0.547,0.807,0.547,1.316C167.602,72.843,167.417,73.284,167.055,73.649z"/>
		<rect x="169.197" y="70.197" fill="#00B0B9" width="0.629" height="4.531"/>
		<path fill="#00B0B9" d="M169.152,68.824c-0.101,0.098-0.154,0.226-0.154,0.358c0,0.141,0.054,0.264,0.149,0.361
			c0.097,0.1,0.226,0.151,0.362,0.151c0.141,0,0.26-0.049,0.365-0.151c0.098-0.098,0.149-0.221,0.149-0.361
			c0-0.133-0.052-0.261-0.149-0.358C169.672,68.63,169.342,68.63,169.152,68.824z"/>
		<polygon fill="#00B0B9" points="172.23,68.366 171.604,68.366 171.604,70.197 170.727,70.197 170.727,70.826 171.604,70.826 
			171.604,74.729 172.23,74.729 172.23,70.826 173.108,70.826 173.108,70.197 172.23,70.197 		"/>
		<path fill="#00B0B9" d="M178.162,70.597c-0.02-0.024-0.035-0.037-0.047-0.054c-0.49-0.487-1.092-0.739-1.789-0.739
			c-0.688,0-1.294,0.252-1.777,0.739c-0.492,0.499-0.74,1.094-0.74,1.787c0,0.687,0.248,1.286,0.74,1.783
			c0.483,0.49,1.09,0.734,1.777,0.734c0.697,0,1.299-0.244,1.789-0.737c0.016-0.016,0.027-0.035,0.047-0.047v0.665h0.63v-4.531
			h-0.63V70.597z M177.647,73.644c-0.363,0.365-0.809,0.552-1.321,0.552c-0.518,0-0.954-0.181-1.316-0.546
			c-0.365-0.365-0.549-0.807-0.549-1.319c0-0.51,0.184-0.957,0.549-1.316c0.366-0.37,0.799-0.551,1.316-0.551
			c0.513,0,0.958,0.186,1.321,0.551c0.271,0.271,0.447,0.591,0.515,0.929v0.756C178.095,73.057,177.918,73.372,177.647,73.644z"/>
		<rect x="179.861" y="67.498" fill="#00B0B9" width="0.637" height="7.23"/>
		<path fill="#00B0B9" d="M190.291,73.405c-0.576,0.509-1.26,0.773-2.038,0.773c-0.837,0-1.564-0.303-2.158-0.903
			c-0.593-0.592-0.896-1.323-0.896-2.166c0-0.839,0.304-1.568,0.896-2.161c0.594-0.595,1.321-0.894,2.158-0.894
			c0.784,0,1.462,0.255,2.038,0.763l0.079,0.076l0.47-0.433l-0.095-0.085c-0.7-0.643-1.537-0.967-2.492-0.967
			c-1.015,0-1.899,0.365-2.613,1.087c-0.72,0.719-1.081,1.599-1.081,2.613c0,1.021,0.361,1.9,1.081,2.619
			c0.714,0.716,1.599,1.085,2.613,1.085c0.955,0,1.792-0.324,2.492-0.964l0.099-0.091l-0.474-0.426L190.291,73.405z"/>
		<path fill="#00B0B9" d="M191.683,68.817c-0.102,0.102-0.153,0.223-0.153,0.365c0,0.141,0.046,0.269,0.149,0.361
			c0.099,0.103,0.224,0.151,0.364,0.151c0.134,0,0.263-0.052,0.354-0.148c0.108-0.096,0.157-0.224,0.157-0.364
			c0-0.143-0.055-0.267-0.153-0.358C192.207,68.63,191.87,68.63,191.683,68.817z"/>
		<rect x="191.725" y="70.197" fill="#00B0B9" width="0.636" height="4.531"/>
		<polygon fill="#00B0B9" points="195.306,73.604 193.759,70.264 193.733,70.197 193.013,70.197 195.306,75 197.603,70.197 
			196.883,70.197 		"/>
		<rect x="198.254" y="70.197" fill="#00B0B9" width="0.639" height="4.531"/>
		<path fill="#00B0B9" d="M198.215,68.817c-0.104,0.099-0.153,0.223-0.153,0.365c0,0.141,0.049,0.269,0.149,0.361
			c0.101,0.103,0.224,0.151,0.361,0.151c0.143,0,0.27-0.052,0.362-0.148c0.098-0.096,0.149-0.224,0.149-0.364
			c0-0.143-0.052-0.264-0.149-0.358C198.737,68.63,198.406,68.63,198.215,68.817z"/>
		<rect x="200.05" y="67.498" fill="#00B0B9" width="0.629" height="7.23"/>
		<path fill="#00B0B9" d="M209.093,70.597c-0.02-0.024-0.03-0.037-0.05-0.054c-0.488-0.487-1.089-0.739-1.783-0.739
			c-0.689,0-1.29,0.252-1.782,0.739c-0.491,0.495-0.735,1.089-0.735,1.787c0,0.689,0.244,1.289,0.739,1.783
			c0.488,0.49,1.089,0.734,1.778,0.734c0.694,0,1.295-0.244,1.787-0.737c0.016-0.016,0.026-0.035,0.046-0.047v0.665h0.627v-7.23
			h-0.627V70.597z M208.581,73.644c-0.369,0.371-0.801,0.552-1.321,0.552c-0.525,0-0.951-0.181-1.318-0.546
			c-0.369-0.365-0.544-0.798-0.544-1.319s0.175-0.954,0.544-1.316c0.365-0.365,0.811-0.551,1.318-0.551
			c0.521,0,0.952,0.181,1.321,0.551c0.272,0.271,0.443,0.587,0.512,0.929v0.756C209.019,73.062,208.854,73.372,208.581,73.644z"/>
		<path fill="#00B0B9" d="M214.505,73.504c-0.04,0.043-0.083,0.097-0.131,0.14c-0.375,0.371-0.801,0.552-1.321,0.552
			c-0.438,0-0.816-0.136-1.148-0.396l2.709-2.709l0.384-0.381l-0.159-0.166c-0.069-0.07-0.144-0.14-0.22-0.199
			c-0.446-0.36-0.97-0.54-1.565-0.54c-0.693,0-1.292,0.252-1.776,0.739c-0.493,0.495-0.739,1.089-0.739,1.784
			c0,0.692,0.246,1.292,0.739,1.786c0.484,0.49,1.083,0.734,1.776,0.734c0.69,0,1.297-0.244,1.785-0.737
			c0.116-0.118,0.205-0.218,0.27-0.318l0.091-0.127l-0.639-0.225L214.505,73.504z M211.188,72.327c0-0.507,0.188-0.954,0.548-1.316
			c0.371-0.367,0.797-0.548,1.316-0.548c0.382,0,0.708,0.097,1.003,0.292l-2.575,2.575
			C211.291,73.042,211.188,72.701,211.188,72.327z"/>
		<path fill="#00B0B9" d="M222.631,68.055c0.768,0,1.455,0.255,2.026,0.763l0.08,0.076l0.476-0.433l-0.094-0.085
			c-0.702-0.643-1.537-0.967-2.488-0.967c-1.021,0-1.901,0.365-2.617,1.087c-0.722,0.721-1.087,1.599-1.087,2.613
			c0,1.021,0.365,1.9,1.087,2.619c0.716,0.716,1.593,1.085,2.617,1.085c0.951,0,1.776-0.337,2.46-0.989l0.038-0.039v-2.439h-0.633
			v2.195c-0.541,0.424-1.166,0.638-1.865,0.638c-0.847,0-1.571-0.303-2.166-0.903c-0.593-0.592-0.897-1.323-0.897-2.166
			c0-0.839,0.305-1.568,0.897-2.161C221.06,68.354,221.784,68.055,222.631,68.055z"/>
		<path fill="#00B0B9" d="M229.224,72.955c0,0.329-0.125,0.614-0.364,0.851c-0.236,0.235-0.528,0.354-0.855,0.354
			c-0.351,0-0.649-0.118-0.887-0.354c-0.246-0.239-0.367-0.516-0.367-0.851v-2.758h-0.633v2.79c0.01,0.517,0.189,0.95,0.525,1.292
			c0.347,0.337,0.801,0.508,1.371,0.508c0.53,0,0.975-0.171,1.312-0.508c0.339-0.34,0.519-0.771,0.524-1.292v-2.79h-0.627V72.955z"
			/>
		<path fill="#00B0B9" d="M235.17,70.597c-0.017-0.024-0.04-0.037-0.053-0.054c-0.483-0.487-1.084-0.739-1.786-0.739
			c-0.691,0-1.288,0.252-1.776,0.739c-0.49,0.499-0.74,1.094-0.74,1.787c0,0.687,0.25,1.286,0.74,1.783
			c0.488,0.49,1.085,0.734,1.776,0.734c0.702,0,1.303-0.244,1.794-0.737c0.011-0.016,0.028-0.035,0.045-0.047v0.665h0.629v-4.531
			h-0.629V70.597z M234.653,73.644c-0.362,0.365-0.807,0.552-1.322,0.552c-0.519,0-0.947-0.181-1.316-0.546
			c-0.361-0.365-0.543-0.807-0.543-1.319c0-0.51,0.182-0.957,0.543-1.316c0.36-0.365,0.811-0.551,1.316-0.551
			c0.516,0,0.96,0.186,1.322,0.551c0.269,0.271,0.444,0.591,0.517,0.929v0.756C235.098,73.057,234.922,73.372,234.653,73.644z"/>
		<path fill="#00B0B9" d="M241.11,70.597c-0.013-0.024-0.03-0.037-0.045-0.054c-0.486-0.487-1.089-0.739-1.786-0.739
			c-0.684,0-1.287,0.252-1.776,0.739c-0.49,0.495-0.74,1.089-0.74,1.787c0,0.689,0.25,1.289,0.74,1.783
			c0.489,0.49,1.085,0.734,1.776,0.734c0.697,0,1.3-0.244,1.796-0.737c0.009-0.016,0.022-0.035,0.035-0.047v0.665h0.631v-7.23
			h-0.631V70.597z M240.598,73.644c-0.361,0.365-0.805,0.552-1.318,0.552c-0.517,0-0.964-0.187-1.318-0.546
			c-0.363-0.359-0.541-0.804-0.541-1.319c0-0.521,0.172-0.954,0.541-1.316c0.362-0.365,0.802-0.551,1.318-0.551
			c0.514,0,0.957,0.186,1.318,0.551c0.278,0.271,0.447,0.587,0.513,0.929v0.756C241.045,73.062,240.878,73.372,240.598,73.644z"/>
		<path fill="#00B0B9" d="M247.06,70.597c-0.021-0.024-0.032-0.037-0.046-0.054c-0.492-0.487-1.101-0.739-1.786-0.739
			c-0.69,0-1.283,0.252-1.783,0.739c-0.489,0.495-0.739,1.089-0.739,1.787c0,0.689,0.25,1.289,0.739,1.783
			c0.5,0.49,1.089,0.734,1.783,0.734c0.691,0,1.294-0.244,1.792-0.737c0.01-0.016,0.022-0.035,0.04-0.047v0.665h0.626v-4.531h-0.626
			V70.597z M246.55,73.644c-0.367,0.371-0.805,0.552-1.322,0.552c-0.522,0-0.958-0.181-1.319-0.546
			c-0.371-0.365-0.546-0.798-0.546-1.319s0.175-0.954,0.546-1.316c0.361-0.365,0.803-0.551,1.319-0.551
			c0.518,0,0.955,0.181,1.322,0.551c0.267,0.271,0.439,0.587,0.51,0.929v0.756C246.989,73.062,246.824,73.372,246.55,73.644z"/>
		<rect x="248.764" y="67.498" fill="#00B0B9" width="0.633" height="7.23"/>
		<path fill="#00B0B9" d="M254.708,70.597c-0.017-0.024-0.026-0.037-0.043-0.054c-0.498-0.487-1.093-0.739-1.786-0.739
			c-0.688,0-1.29,0.252-1.786,0.739c-0.486,0.495-0.73,1.094-0.73,1.787c0,0.689,0.244,1.289,0.73,1.783
			c0.496,0.49,1.093,0.734,1.786,0.734s1.291-0.244,1.786-0.737c0.017-0.016,0.026-0.031,0.043-0.047v0.665h0.631v-4.531h-0.631
			V70.597z M254.201,73.644c-0.372,0.371-0.806,0.552-1.322,0.552c-0.522,0-0.951-0.181-1.32-0.546
			c-0.367-0.365-0.549-0.798-0.549-1.319s0.182-0.954,0.549-1.316c0.36-0.365,0.805-0.551,1.32-0.551
			c0.517,0,0.95,0.181,1.322,0.551c0.269,0.271,0.438,0.587,0.507,0.929l0.002,0.756C254.64,73.062,254.472,73.372,254.201,73.644z"
			/>
		<path fill="#00B0B9" d="M256.5,74.619c0,0.292-0.131,0.442-0.425,0.477l-0.107,0.007v0.636l0.134-0.014
			c0.677-0.055,1.03-0.442,1.03-1.118v-4.409H256.5V74.619z"/>
		<path fill="#00B0B9" d="M256.458,68.817c-0.103,0.099-0.153,0.223-0.153,0.365c0,0.141,0.051,0.269,0.149,0.361
			c0.104,0.103,0.22,0.151,0.367,0.151c0.135,0,0.26-0.052,0.354-0.148c0.106-0.096,0.149-0.224,0.149-0.364
			c0-0.143-0.043-0.264-0.142-0.358C256.98,68.63,256.649,68.63,256.458,68.817z"/>
		<path fill="#00B0B9" d="M262.646,70.6c-0.018-0.027-0.028-0.04-0.048-0.057c-0.492-0.487-1.095-0.739-1.78-0.739
			c-0.696,0-1.299,0.252-1.784,0.739c-0.492,0.499-0.744,1.094-0.744,1.787c0,0.687,0.252,1.286,0.744,1.783
			c0.485,0.49,1.088,0.734,1.784,0.734c0.689,0,1.288-0.244,1.78-0.734c0.02-0.019,0.03-0.038,0.048-0.05v0.665h0.628v-4.531h-0.628
			V70.6z M262.13,73.644c-0.363,0.365-0.801,0.552-1.312,0.552c-0.524,0-0.956-0.181-1.323-0.546
			c-0.358-0.365-0.548-0.807-0.548-1.319c0-0.51,0.189-0.957,0.548-1.316c0.367-0.37,0.799-0.551,1.323-0.551
			c0.512,0,0.949,0.186,1.312,0.551c0.276,0.271,0.447,0.591,0.516,0.929v0.756C262.577,73.057,262.406,73.372,262.13,73.644z"/>
		<path fill="#00B0B9" d="M265.058,70.677c-0.024,0.029-0.053,0.057-0.077,0.085v-0.564h-0.635v4.531h0.635v-2.336
			c0.009-0.492,0.189-0.898,0.547-1.248c0.238-0.243,0.472-0.373,0.691-0.383l0.109-0.007v-0.668l-0.119,0.008
			C265.81,70.117,265.427,70.311,265.058,70.677z"/>
		<path fill="#00B0B9" d="M271.207,70.197v0.399c-0.018-0.024-0.03-0.037-0.046-0.054c-0.488-0.487-1.089-0.739-1.785-0.739
			c-0.688,0-1.292,0.252-1.78,0.739c-0.492,0.495-0.737,1.089-0.737,1.787c0,0.689,0.245,1.289,0.737,1.783
			c0.488,0.49,1.093,0.734,1.78,0.734c0.696,0,1.297-0.244,1.791-0.737c0.014-0.016,0.022-0.035,0.04-0.047v0.665h0.636v-4.531
			H271.207z M270.699,73.644c-0.369,0.365-0.811,0.552-1.323,0.552c-0.518,0-0.959-0.187-1.316-0.546
			c-0.363-0.359-0.548-0.804-0.548-1.319c0-0.521,0.179-0.954,0.548-1.316c0.357-0.365,0.799-0.551,1.316-0.551
			c0.513,0,0.954,0.186,1.323,0.551c0.27,0.271,0.441,0.587,0.508,0.929l0.004,0.756C271.141,73.062,270.974,73.372,270.699,73.644z
			"/>
	</g>
	<g>
		<path fill="#003057" d="M149.659,36.445c-1.094-0.591-2.313-1.062-3.623-1.396c-1.279-0.328-2.463-0.7-3.522-1.1
			c-1.044-0.394-1.931-0.908-2.633-1.538c-0.667-0.595-0.99-1.444-0.99-2.595c0-0.398,0.08-0.848,0.255-1.326
			c0.172-0.474,0.463-0.925,0.879-1.335c0.42-0.423,0.99-0.769,1.693-1.042c0.703-0.268,1.613-0.4,2.697-0.4
			c1.133,0,2.154,0.219,3.034,0.657c0.886,0.446,1.552,1.015,2.034,1.736l0.201,0.305l3.809-3.356l-0.197-0.232
			c-1.172-1.38-2.549-2.311-4.094-2.768c-1.51-0.443-3.125-0.666-4.787-0.666c-1.835,0-3.436,0.276-4.755,0.823
			c-1.314,0.543-2.413,1.237-3.254,2.049c-0.842,0.819-1.476,1.74-1.873,2.733c-0.395,0.994-0.599,1.945-0.599,2.822
			c0,1.942,0.392,3.51,1.16,4.664c0.757,1.144,1.708,2.063,2.823,2.74c1.115,0.667,2.336,1.198,3.637,1.568
			c1.256,0.366,2.447,0.746,3.541,1.143c1.041,0.385,1.93,0.865,2.633,1.426c0.664,0.53,0.983,1.29,0.983,2.312
			c0,0.735-0.17,1.38-0.503,1.927c-0.343,0.562-0.791,1.043-1.33,1.424c-0.546,0.388-1.166,0.683-1.832,0.877
			c-1.877,0.553-3.694,0.318-5.394-0.436c-1.081-0.476-1.981-1.23-2.685-2.246l-0.19-0.281l-3.838,3.196l0.174,0.24
			c1.052,1.413,2.483,2.465,4.248,3.138c1.75,0.668,3.625,1.01,5.572,1.01c1.457,0,2.856-0.218,4.163-0.638
			c1.307-0.417,2.454-1.032,3.403-1.815c0.961-0.786,1.737-1.771,2.306-2.929c0.57-1.156,0.858-2.478,0.858-3.908
			c0-1.814-0.391-3.266-1.159-4.315C151.744,37.889,150.784,37.056,149.659,36.445z"/>
		<rect x="158.846" y="22.127" fill="#003057" width="4.572" height="29.647"/>
		<polygon fill="#003057" points="189.227,34.795 174.812,34.795 174.812,22.127 170.243,22.127 170.243,51.774 174.812,51.774 
			174.812,39.113 189.227,39.113 189.227,51.774 193.794,51.774 193.794,22.127 189.227,22.127 		"/>
		<path fill="#003057" d="M221.467,44.431c-0.849,1.187-1.889,2.124-3.097,2.782c-1.208,0.648-2.623,0.982-4.234,0.982
			c-1.64,0-3.133-0.295-4.422-0.874c-1.292-0.577-2.399-1.38-3.294-2.379c-0.897-1.003-1.598-2.183-2.067-3.505
			c-0.487-1.326-0.722-2.75-0.722-4.237c0-1.597,0.25-3.111,0.758-4.505c0.511-1.396,1.221-2.617,2.138-3.653
			c0.909-1.024,2.019-1.847,3.297-2.441c1.271-0.588,2.731-0.887,4.312-0.887c1.29,0,2.551,0.273,3.765,0.829
			c1.204,0.548,2.21,1.345,2.996,2.367l0.193,0.249l3.78-2.885l-0.193-0.255c-1.205-1.57-2.776-2.75-4.667-3.5
			c-1.874-0.747-3.805-1.128-5.749-1.128c-2.276,0-4.392,0.389-6.271,1.17c-1.894,0.779-3.532,1.885-4.88,3.291
			c-1.349,1.401-2.413,3.096-3.163,5.025c-0.756,1.927-1.129,4.053-1.129,6.324c0,1.861,0.353,3.723,1.04,5.541
			c0.695,1.823,1.72,3.478,3.041,4.921c1.309,1.444,2.932,2.63,4.809,3.516c1.883,0.888,4.017,1.344,6.343,1.344
			c1.696,0,3.21-0.222,4.511-0.654c1.29-0.435,2.405-0.938,3.329-1.506c0.915-0.569,1.657-1.156,2.228-1.73
			c0.549-0.566,0.94-1.001,1.174-1.327l0.184-0.25l-3.823-2.884L221.467,44.431z"/>
		<rect x="228.826" y="34.795" fill="#003057" width="4.321" height="16.979"/>
		<path fill="#003057" d="M233.355,30.046c0-1.312-1.061-2.375-2.371-2.375c-1.305,0-2.371,1.062-2.371,2.375
			c0,1.308,1.066,2.372,2.371,2.372C232.295,32.417,233.355,31.354,233.355,30.046z"/>
	</g>
	<g>
		<path fill="#00B0B9" d="M122.898,41.093c-2.93-9.801-15.827-28.98-25.495-35.92l-0.406-0.294l-0.491,0.056
			C40.916,11.344,7.944,40.43,7.616,40.723l-0.622,0.561l0.261,0.793c4.489,13.746,15.687,28.606,28.528,37.844l0.296,0.214
			l0.361,0.029c11.632,0.894,21.176,1.572,29.321,1.572c2.445,0,4.647-0.061,6.688-0.185c2.447,4.114,5.958,9.609,9.463,13.712
			l0.975,1.141l0.982-1.135c5.402-6.273,6.897-8.783,9.918-17.035c6.842-1.78,11.843-5.242,12.055-5.392l0.309-0.213l0.145-0.346
			c0.058-0.138,1.364-3.375,1.409-11.326c1.22-1.585,2.886-3.194,4.651-4.89c3.857-3.708,8.223-7.915,10.518-14.162l0.149-0.399
			L122.898,41.093z M44.473,73.5c1.766-3.211,4.101-7.477,6.761-12.309c0.639-0.199,1.284-0.398,1.937-0.595
			c3.106,1.904,6.376,3.853,9.782,5.802c-6.077,6.106-10.717,10.742-12.194,12.211c-0.773-0.049-1.563-0.102-2.36-0.154
			C47.062,76.752,45.757,75.099,44.473,73.5z M46.056,78.294c-1.323-0.099-2.667-0.19-4.05-0.294
			c0.401-0.724,0.926-1.69,1.559-2.847C44.385,76.174,45.212,77.225,46.056,78.294z M107.836,19.808
			c-2.328,2.801-6.822,7.632-12.314,13.376c1.098-5.088,2.23-10.421,3.372-15.965c1.885-0.248,3.886-0.518,6.229-0.839
			C106.038,17.483,106.946,18.63,107.836,19.808z M93.219,35.589c-2.569,2.667-5.305,5.49-8.11,8.359
			c-4.846-1.309-9.817-2.597-14.72-3.826c-1.631-1.795-3.219-3.515-4.737-5.133c2.982-5.415,5.83-10.567,8.266-14.945
			c12.021-1.236,17.395-1.845,23.149-2.591C95.754,23.794,94.464,29.857,93.219,35.589z M52.648,58.612
			c3.186-5.805,6.726-12.246,10.209-18.556c2.548,0.62,5.145,1.262,7.759,1.917c2.508,2.772,5.124,5.717,7.791,8.812
			c-0.072,0.077-0.15,0.149-0.223,0.226c-8.401,2.865-17.032,5.616-24.852,8.024C53.1,58.898,52.87,58.753,52.648,58.612z
			 M63.729,38.475c0.459-0.834,0.914-1.665,1.372-2.494c1.1,1.183,2.234,2.4,3.401,3.668C66.901,39.252,65.307,38.858,63.729,38.475
			z M72.5,42.454c3.453,0.875,6.954,1.782,11.214,2.921c-1.507,1.542-3.028,3.093-4.549,4.637
			C76.898,47.378,74.664,44.854,72.5,42.454z M85.651,45.903c1.327,0.356,2.64,0.719,3.947,1.083
			c-2.509,0.92-5.084,1.838-7.701,2.75C83.152,48.456,84.407,47.171,85.651,45.903z M87.04,44.472
			c1.865-1.911,3.697-3.795,5.465-5.623c-0.505,2.298-1.002,4.546-1.482,6.723C89.707,45.206,88.382,44.843,87.04,44.472z
			 M64.873,34.16c-4.742-5.046-8.792-9.156-11.658-12.004c7.954-0.805,14.252-1.44,19.387-1.977
			C70.302,24.333,67.648,29.127,64.873,34.16z M52.221,21.173c-0.786-0.784-1.456-1.43-1.999-1.958
			c8.147-3.243,17.393-6.238,27.682-8.536c-1.204,2.149-2.808,5.017-4.66,8.352C67.789,19.595,60.987,20.287,52.221,21.173z
			 M50.827,21.313c-2.311,0.232-4.756,0.479-7.342,0.742c1.815-0.806,3.692-1.609,5.637-2.398
			C49.578,20.09,50.144,20.643,50.827,21.313z M40.438,23.446c4.128-0.413,7.904-0.798,11.386-1.146
			c2.928,2.892,7.308,7.32,12.501,12.851c-0.559,1.014-1.123,2.035-1.688,3.06c-15.543-3.775-29.339-6.795-35.118-8.032
			C31.281,28.008,35.596,25.718,40.438,23.446z M61.766,39.789c-3.421,6.212-6.896,12.539-10.034,18.252
			C34.789,47.464,22.984,38.214,19.318,35.247c1.769-1.168,3.76-2.435,5.976-3.761C29.234,32.319,44.36,35.571,61.766,39.789z
			 M51.045,59.277c-0.1,0.184-0.202,0.372-0.3,0.556c-5.219,1.588-10.006,3.011-14.025,4.191
			c-11.673-13.938-19.923-22.35-22.688-25.087c1.149-0.849,2.506-1.813,4.057-2.864C21.393,38.753,33.488,48.322,51.045,59.277z
			 M49.75,61.639c-2.327,4.241-4.394,8.011-6.007,10.945c-2.094-2.597-4.106-5.054-6.029-7.369
			C41.249,64.184,45.33,62.975,49.75,61.639z M54.971,60.042c6.654-2.053,13.845-4.347,20.96-6.738
			c-4.209,4.265-8.302,8.399-11.943,12.059C60.854,63.571,57.85,61.798,54.971,60.042z M79.555,52.12
			c2.579,3.016,5.209,6.16,7.831,9.407c-1.263,5.452-2.421,10.288-3.411,14.392c-6.475-3.136-12.638-6.398-18.414-9.657
			C69.812,61.989,74.655,57.106,79.555,52.12z M80.616,51.706c3.341-1.153,6.628-2.318,9.814-3.495
			c-0.958,4.256-1.872,8.259-2.738,11.983C85.328,57.275,82.954,54.438,80.616,51.706z M94.819,36.448
			c6.175-6.428,11.355-11.961,14.09-15.203c3.234,4.405,6.19,9.103,8.368,13.261c-4.828,3.343-13.88,7.304-24.527,11.312
			C93.42,42.807,94.107,39.681,94.819,36.448z M104.305,15.4c-1.906,0.261-3.586,0.486-5.17,0.697
			c0.344-1.698,0.697-3.41,1.046-5.144C101.54,12.288,102.926,13.784,104.305,15.4z M98.686,9.54
			c-0.462,2.297-0.924,4.565-1.39,6.795c-5.766,0.751-10.999,1.351-22.745,2.562c1.951-3.503,3.589-6.438,4.766-8.52
			c5.387-1.154,11.05-2.127,16.978-2.823C97.076,8.136,97.878,8.804,98.686,9.54z M12.623,39.992
			c2.486,2.458,10.611,10.683,22.268,24.565c-4.411,1.28-7.711,2.212-9.381,2.684c-6.958-7.628-12.579-16.581-15.534-25.145
			C10.512,41.646,11.413,40.918,12.623,39.992z M26.586,68.402c1.936-0.539,5.17-1.454,9.299-2.652
			c2.204,2.637,4.521,5.467,6.952,8.491c-0.874,1.588-1.564,2.835-2.018,3.675c-1.251-0.096-2.519-0.196-3.826-0.296
			C33.342,74.959,29.833,71.828,26.586,68.402z M73.854,78.878l-0.792,0.055c-2.205,0.159-4.593,0.235-7.301,0.235
			c-3.861,0-8.07-0.162-12.67-0.423c2.179-2.171,6.322-6.307,11.438-11.447c5.981,3.386,12.375,6.777,19.105,10.029
			c-1.364,5.618-2.402,9.738-3.004,12.097c-2.426-3.366-4.694-7.018-6.374-9.861L73.854,78.878z M82.911,92.428
			c-0.312-0.388-0.627-0.798-0.935-1.203c0.473-1.844,1.629-6.388,3.264-13.132c1.645,0.778,3.3,1.552,4.974,2.312
			C88.172,85.577,86.64,88.018,82.911,92.428z M92.515,75.904l-0.674,0.166l-0.24,0.646c-0.305,0.849-0.597,1.635-0.877,2.368
			c-1.733-0.788-3.445-1.586-5.138-2.4c0.927-3.854,2-8.354,3.183-13.424c2.884,3.602,5.745,7.324,8.535,11.111
			C95.849,74.949,94.232,75.491,92.515,75.904z M105.381,59.774l-0.246,0.338v0.415c0,6.238-0.804,9.443-1.103,10.43
			c-0.782,0.508-2.86,1.776-5.696,2.997c-3.024-4.116-6.127-8.137-9.252-12.036c1.009-4.339,2.094-9.075,3.233-14.162
			c6.955,1.979,13.431,3.983,18.82,5.913c-0.191,0.177-0.378,0.362-0.568,0.544C108.606,56.104,106.747,57.891,105.381,59.774z
			 M112.513,52.312c-5.086-1.853-11.217-3.78-17.83-5.693c9.987-3.811,18.476-7.586,23.239-10.839
			c1.037,2.081,1.864,4.001,2.389,5.644C118.556,45.917,115.525,49.333,112.513,52.312z"/>
		<g>
			<path fill="#003057" d="M99.097,6.461C98.921,7.424,98.734,8.4,98.545,9.39c-0.432,2.262-0.882,4.588-1.353,6.967
				c-0.072,0.365-0.148,0.738-0.219,1.112c-1.171,5.872-2.45,12.014-3.771,18.168c-0.232,1.082-0.468,2.162-0.703,3.249
				c-0.48,2.237-0.977,4.47-1.462,6.68c-0.199,0.893-0.395,1.771-0.588,2.654c-0.459,2.049-0.914,4.083-1.371,6.087
				c-1.763,7.758-3.478,15.073-5.009,21.357c-0.024,0.085-0.039,0.173-0.064,0.254c-0.114,0.476-0.237,0.945-0.34,1.402
				c-1.169,4.758-2.223,8.844-3.07,11.997c-0.323,1.187-0.623,2.235-0.886,3.139c0.46,0.6,0.917,1.19,1.379,1.759
				c0.431-1.386,0.97-3.284,1.589-5.619c0.773-2.895,1.675-6.442,2.667-10.472c0.114-0.463,0.229-0.93,0.345-1.405
				c0.995-4.062,2.068-8.576,3.186-13.374c0.101-0.442,0.209-0.89,0.315-1.342c1.053-4.552,2.145-9.336,3.228-14.232
				c0.145-0.658,0.293-1.322,0.44-1.99c0.688-3.106,1.377-6.25,2.056-9.397c0.229-1.084,0.462-2.168,0.689-3.249
				c0.648-3.042,1.286-6.068,1.892-9.055c1.161-5.64,2.247-11.117,3.204-16.225C100.157,7.365,99.623,6.893,99.097,6.461z"/>
			<path fill="#003057" d="M98.36,73.939c-1.134-1.537-2.285-3.065-3.441-4.576C78.63,48.076,60.742,29.607,52.243,21.167
				c-0.735-0.728-1.399-1.389-1.991-1.965c-0.849-0.829-1.517-1.478-2.019-1.963c-0.362,0.147-0.731,0.297-1.093,0.45
				c0.863,0.83,2.564,2.47,4.905,4.807c3.132,3.108,7.369,7.435,12.281,12.679c0.26,0.269,0.52,0.553,0.779,0.83
				c1.088,1.172,2.206,2.37,3.354,3.625c0.695,0.759,1.399,1.534,2.115,2.325c2.524,2.792,5.152,5.753,7.825,8.851
				c0.386,0.442,0.764,0.885,1.149,1.334c2.586,3.023,5.216,6.175,7.848,9.418c0.462,0.569,0.927,1.146,1.391,1.725
				c0.502,0.632,1.016,1.262,1.518,1.898c0.767,0.976,1.536,1.949,2.301,2.935c0.317,0.416,0.632,0.838,0.955,1.248
				c1.807,2.351,3.593,4.734,5.345,7.141c0.353-0.143,0.692-0.291,1.023-0.434C99.411,75.356,98.889,74.648,98.36,73.939z"/>
		</g>
	</g>
</g>
</svg>
